<?xml version="1.0" encoding="UTF-8"?>
<!DOCTYPE svg PUBLIC "-//W3C//DTD SVG 1.1//EN" "http://www.w3.org/Graphics/SVG/1.1/DTD/svg11.dtd">
<svg xmlns="http://www.w3.org/2000/svg" version="1.1" width="993px" height="579px" style="shape-rendering:geometricPrecision; text-rendering:geometricPrecision; image-rendering:optimizeQuality; fill-rule:evenodd; clip-rule:evenodd" xmlns:xlink="http://www.w3.org/1999/xlink">
<g><path style="opacity:1" fill="#2c333c" d="M -0.5,-0.5 C 330.5,-0.5 661.5,-0.5 992.5,-0.5C 992.5,192.5 992.5,385.5 992.5,578.5C 661.5,578.5 330.5,578.5 -0.5,578.5C -0.5,385.5 -0.5,192.5 -0.5,-0.5 Z"/></g>
<g><path style="opacity:1" fill="#0000a0" d="M 448.5,449.5 C 449.059,445.624 449.725,441.791 450.5,438C 450.167,437.833 449.833,437.667 449.5,437.5C 443.086,441.082 437.086,445.249 431.5,450C 428.697,452.1 426.03,451.934 423.5,449.5C 427.11,444.387 431.277,439.72 436,435.5C 442.333,425.5 448.667,415.5 455,405.5C 462.66,385.51 470.327,365.51 478,345.5C 486.08,310.607 491.08,275.273 493,239.5C 493.667,222.833 493.667,206.167 493,189.5C 490.495,166.129 487.828,142.795 485,119.5C 477.383,100.601 470.05,81.6011 463,62.5C 456.2,52.4008 449.034,42.5675 441.5,33C 438.833,31.6667 436.167,30.3333 433.5,29C 431.305,24.3686 432.805,21.8686 438,21.5C 440.995,22.276 443.828,23.4426 446.5,25C 451.926,28.1288 457.093,31.6288 462,35.5C 462.944,34.737 463.444,33.737 463.5,32.5C 462.131,27.9165 461.131,23.2498 460.5,18.5C 460.253,17.2867 459.586,16.62 458.5,16.5C 478.667,15.6715 499,15.0048 519.5,14.5C 525.547,14.5017 531.547,15.0017 537.5,16C 532.336,153.755 527.669,291.589 523.5,429.5C 498.463,436.009 473.463,442.676 448.5,449.5 Z"/></g>
<g><path style="opacity:1" fill="#0073a0" d="M 412.5,16.5 C 415.563,17.2014 418.73,17.868 422,18.5C 422.06,23.3899 423.06,28.0565 425,32.5C 429.391,36.6121 434.224,40.1121 439.5,43C 448.477,51.4276 455.643,61.2609 461,72.5C 469.054,93.0469 475.721,114.047 481,135.5C 484.331,157.379 485.331,179.379 484,201.5C 477.895,184.081 472.561,166.414 468,148.5C 461.934,133.633 456.267,118.633 451,103.5C 448.505,97.3419 444.838,92.0086 440,87.5C 432.561,76.2897 425.894,64.6231 420,52.5C 417.872,49.3699 415.372,46.5366 412.5,44C 405.708,41.1047 399.375,37.4381 393.5,33C 390.326,31.2752 386.993,29.9419 383.5,29C 357.833,28.3333 332.167,28.3333 306.5,29C 288.551,30.8735 270.551,31.8735 252.5,32C 249.424,32.3457 246.424,33.0124 243.5,34C 233.105,39.5301 222.439,44.5301 211.5,49C 209.333,51.1667 207.167,53.3333 205,55.5C 196.005,76.1721 184.005,94.8388 169,111.5C 167.08,114.339 165.413,117.339 164,120.5C 155.313,144.226 145.646,167.56 135,190.5C 132.568,206.986 126.735,221.986 117.5,235.5C 116.808,234.975 116.308,234.308 116,233.5C 114.82,187.888 124.82,144.888 146,104.5C 149.225,92.7175 154.558,82.0509 162,72.5C 167.833,66 173.667,59.5 179.5,53C 186.762,49.1213 193.595,44.6213 200,39.5C 202.31,35.8226 202.81,31.9893 201.5,28C 202.227,26.6012 202.727,25.1012 203,23.5C 205.607,22.8767 208.107,22.21 210.5,21.5C 224.654,20.2692 238.654,20.2692 252.5,21.5C 243.827,21.3336 235.16,21.5002 226.5,22C 222.565,24.4624 222.898,26.4624 227.5,28C 253.882,29.0416 280.215,28.3749 306.5,26C 330.844,25.7842 355.178,25.2842 379.5,24.5C 388.277,26.159 396.944,25.8256 405.5,23.5C 407.738,21.647 407.738,19.647 405.5,17.5C 407.903,17.552 410.236,17.2186 412.5,16.5 Z"/></g>
<g><path style="opacity:1" fill="#0039a0" d="M 412.5,16.5 C 427.833,16.5 443.167,16.5 458.5,16.5C 459.586,16.62 460.253,17.2867 460.5,18.5C 461.131,23.2498 462.131,27.9165 463.5,32.5C 463.444,33.737 462.944,34.737 462,35.5C 457.093,31.6288 451.926,28.1288 446.5,25C 443.828,23.4426 440.995,22.276 438,21.5C 432.805,21.8686 431.305,24.3686 433.5,29C 436.167,30.3333 438.833,31.6667 441.5,33C 449.034,42.5675 456.2,52.4008 463,62.5C 470.05,81.6011 477.383,100.601 485,119.5C 487.828,142.795 490.495,166.129 493,189.5C 493.667,206.167 493.667,222.833 493,239.5C 491.08,275.273 486.08,310.607 478,345.5C 470.327,365.51 462.66,385.51 455,405.5C 448.667,415.5 442.333,425.5 436,435.5C 431.277,439.72 427.11,444.387 423.5,449.5C 426.03,451.934 428.697,452.1 431.5,450C 437.086,445.249 443.086,441.082 449.5,437.5C 449.833,437.667 450.167,437.833 450.5,438C 449.725,441.791 449.059,445.624 448.5,449.5C 436.894,452.985 425.228,456.319 413.5,459.5C 413.712,454.274 414.878,449.274 417,444.5C 422,440.167 427,435.833 432,431.5C 440.52,420.633 447.853,408.966 454,396.5C 462.002,376.161 469.002,355.494 475,334.5C 476.408,324.791 478.075,315.125 480,305.5C 480.667,297.167 480.667,288.833 480,280.5C 477.497,283.502 475.497,286.835 474,290.5C 465.66,318.522 456.326,346.188 446,373.5C 440.251,383.334 434.251,393.001 428,402.5C 422.771,415.298 416.271,427.298 408.5,438.5C 397.911,446.586 386.911,454.086 375.5,461C 355.993,466.419 336.66,472.419 317.5,479C 294.285,483.443 271.285,488.776 248.5,495C 245.167,495.667 241.833,495.667 238.5,495C 233.265,493.255 227.932,491.921 222.5,491C 216.48,489.239 211.314,486.073 207,481.5C 202.333,474.833 197.667,468.167 193,461.5C 185.192,453.603 177.192,445.936 169,438.5C 162.545,426.587 156.879,414.253 152,401.5C 147,394.167 142,386.833 137,379.5C 132.347,365.873 126.347,352.873 119,340.5C 118.667,338.833 118.333,337.167 118,335.5C 116.577,341.381 115.744,347.381 115.5,353.5C 116.168,362.516 117.001,371.516 118,380.5C 120.18,388.731 121.846,397.065 123,405.5C 127.114,417.062 131.781,428.395 137,439.5C 144,452.167 151,464.833 158,477.5C 169.301,490.066 183.134,498.399 199.5,502.5C 201.077,504.558 202.077,506.892 202.5,509.5C 201.332,512.496 201.332,515.496 202.5,518.5C 186.878,522.989 171.211,527.322 155.5,531.5C 154.97,527.621 154.303,523.454 153.5,519C 153.393,516.153 154.727,514.653 157.5,514.5C 166.948,518.371 176.614,519.204 186.5,517C 190.674,515.492 191.341,513.159 188.5,510C 183.471,508.771 178.804,506.771 174.5,504C 167.28,497.146 159.78,490.646 152,484.5C 141,464.5 130,444.5 119,424.5C 116.151,416.409 114.485,408.076 114,399.5C 103.683,363.09 98.8499,325.924 99.5,288C 99.8345,271.801 100.668,255.634 102,239.5C 105.688,212.704 110.022,186.037 115,159.5C 116.022,154.744 117.356,150.077 119,145.5C 123.641,137.241 127.308,128.575 130,119.5C 137.302,107.563 142.969,94.8962 147,81.5C 156,69.8333 165,58.1667 174,46.5C 178.603,41.8957 183.77,38.0624 189.5,35C 190.8,29.9436 188.633,27.4436 183,27.5C 174.982,30.8666 166.982,34.2 159,37.5C 157.667,36.8333 156.667,35.8333 156,34.5C 155.55,30.8125 155.717,27.1458 156.5,23.5C 159.059,23.8016 161.393,23.4682 163.5,22.5C 179.149,21.6372 194.816,21.3039 210.5,21.5C 208.107,22.21 205.607,22.8767 203,23.5C 202.727,25.1012 202.227,26.6012 201.5,28C 202.81,31.9893 202.31,35.8226 200,39.5C 193.595,44.6213 186.762,49.1213 179.5,53C 173.667,59.5 167.833,66 162,72.5C 154.558,82.0509 149.225,92.7175 146,104.5C 124.82,144.888 114.82,187.888 116,233.5C 116.308,234.308 116.808,234.975 117.5,235.5C 126.735,221.986 132.568,206.986 135,190.5C 145.646,167.56 155.313,144.226 164,120.5C 165.413,117.339 167.08,114.339 169,111.5C 184.005,94.8388 196.005,76.1721 205,55.5C 207.167,53.3333 209.333,51.1667 211.5,49C 222.439,44.5301 233.105,39.5301 243.5,34C 246.424,33.0124 249.424,32.3457 252.5,32C 270.551,31.8735 288.551,30.8735 306.5,29C 332.167,28.3333 357.833,28.3333 383.5,29C 386.993,29.9419 390.326,31.2752 393.5,33C 399.375,37.4381 405.708,41.1047 412.5,44C 415.372,46.5366 417.872,49.3699 420,52.5C 425.894,64.6231 432.561,76.2897 440,87.5C 444.838,92.0086 448.505,97.3419 451,103.5C 456.267,118.633 461.934,133.633 468,148.5C 472.561,166.414 477.895,184.081 484,201.5C 485.331,179.379 484.331,157.379 481,135.5C 475.721,114.047 469.054,93.0469 461,72.5C 455.643,61.2609 448.477,51.4276 439.5,43C 434.224,40.1121 429.391,36.6121 425,32.5C 423.06,28.0565 422.06,23.3899 422,18.5C 418.73,17.868 415.563,17.2014 412.5,16.5 Z"/></g>
<g><path style="opacity:1" fill="#019f56" d="M 383.5,18.5 C 383.804,19.1499 384.137,19.8165 384.5,20.5C 370.217,22.3431 355.884,22.8431 341.5,22C 342.571,21.1482 343.571,20.3149 344.5,19.5C 351.689,19.1311 358.856,18.4644 366,17.5C 371.804,18.3313 377.638,18.6646 383.5,18.5 Z"/></g>
<g><path style="opacity:1" fill="#019f8f" d="M 405.5,17.5 C 407.738,19.647 407.738,21.647 405.5,23.5C 396.944,25.8256 388.277,26.159 379.5,24.5C 355.178,25.2842 330.844,25.7842 306.5,26C 280.215,28.3749 253.882,29.0416 227.5,28C 222.898,26.4624 222.565,24.4624 226.5,22C 235.16,21.5002 243.827,21.3336 252.5,21.5C 252.833,21.5 253.167,21.5 253.5,21.5C 252.571,22.3149 251.571,23.1482 250.5,24C 266.017,24.7786 281.517,24.6119 297,23.5C 299.877,23.5627 300.711,22.5627 299.5,20.5C 314.433,18.857 329.433,18.5236 344.5,19.5C 343.571,20.3149 342.571,21.1482 341.5,22C 355.884,22.8431 370.217,22.3431 384.5,20.5C 384.137,19.8165 383.804,19.1499 383.5,18.5C 390.862,18.6354 398.196,18.3021 405.5,17.5 Z"/></g>
<g><path style="opacity:1" fill="#019f57" d="M 299.5,20.5 C 300.711,22.5627 299.877,23.5627 297,23.5C 281.517,24.6119 266.017,24.7786 250.5,24C 251.571,23.1482 252.571,22.3149 253.5,21.5C 258.836,20.9283 264.17,20.2616 269.5,19.5C 279.478,20.3966 289.478,20.7299 299.5,20.5 Z"/></g>
<g><path style="opacity:1" fill="#0000a0" d="M 163.5,22.5 C 161.393,23.4682 159.059,23.8016 156.5,23.5C 155.717,27.1458 155.55,30.8125 156,34.5C 156.667,35.8333 157.667,36.8333 159,37.5C 166.982,34.2 174.982,30.8666 183,27.5C 188.633,27.4436 190.8,29.9436 189.5,35C 183.77,38.0624 178.603,41.8957 174,46.5C 165,58.1667 156,69.8333 147,81.5C 142.969,94.8962 137.302,107.563 130,119.5C 127.308,128.575 123.641,137.241 119,145.5C 117.356,150.077 116.022,154.744 115,159.5C 110.022,186.037 105.688,212.704 102,239.5C 100.668,255.634 99.8345,271.801 99.5,288C 98.8499,325.924 103.683,363.09 114,399.5C 114.485,408.076 116.151,416.409 119,424.5C 130,444.5 141,464.5 152,484.5C 159.78,490.646 167.28,497.146 174.5,504C 178.804,506.771 183.471,508.771 188.5,510C 191.341,513.159 190.674,515.492 186.5,517C 176.614,519.204 166.948,518.371 157.5,514.5C 154.727,514.653 153.393,516.153 153.5,519C 154.303,523.454 154.97,527.621 155.5,531.5C 119.229,541.755 82.8955,551.922 46.5,562C 40.1704,562.061 34.1704,560.561 28.5,557.5C 25.8078,392.173 23.4744,226.839 21.5,61.5C 21.5104,49.1091 22.1771,36.9424 23.5,25C 70.1631,23.9014 116.83,23.0681 163.5,22.5 Z"/></g>
<g><path style="opacity:1" fill="#00009f" d="M 312.5,32.5 C 332.505,32.3852 352.505,32.5519 372.5,33C 376.988,32.6086 380.321,34.2753 382.5,38C 382.355,38.772 382.022,39.4387 381.5,40C 364.459,40.3726 347.459,41.3726 330.5,43C 305.155,42.8087 279.822,42.8087 254.5,43C 252.842,42.2747 252.342,41.108 253,39.5C 254.491,37.9963 256.324,37.1629 258.5,37C 276.655,35.5767 294.655,34.0767 312.5,32.5 Z"/></g>
<g><path style="opacity:1" fill="#0000a1" d="M 396.5,46.5 C 404.308,47.1628 410.475,50.8295 415,57.5C 422.825,71.6528 431.825,84.9862 442,97.5C 443,99.5 444,101.5 445,103.5C 451.333,121.167 457.667,138.833 464,156.5C 474.694,198.12 476.361,240.12 469,282.5C 465.31,292.571 462.643,302.904 461,313.5C 453.796,331.111 447.796,349.111 443,367.5C 439.623,376.862 434.623,385.195 428,392.5C 423.22,399.726 419.22,407.392 416,415.5C 410.863,422.937 405.363,430.104 399.5,437C 396,438.833 392.5,440.667 389,442.5C 387.558,441.788 386.725,440.621 386.5,439C 398.938,417.965 411.771,397.131 425,376.5C 429.761,368.886 433.761,360.886 437,352.5C 447.014,323.777 454.514,294.444 459.5,264.5C 459.083,257.504 458.75,250.504 458.5,243.5C 459.947,227.189 460.447,210.856 460,194.5C 455.179,164.711 447.512,135.711 437,107.5C 430.688,100.875 425.355,93.5418 421,85.5C 411.197,73.8633 402.364,61.53 394.5,48.5C 395.243,47.8182 395.909,47.1515 396.5,46.5 Z"/></g>
<g><path style="opacity:1" fill="#00009f" d="M 227.5,52.5 C 234.327,51.1737 237.494,53.8404 237,60.5C 234.473,63.9386 231.473,66.9386 228,69.5C 226.725,71.7173 225.725,74.0506 225,76.5C 211.618,92.8803 198.618,109.547 186,126.5C 183.413,131.261 181.413,136.261 180,141.5C 177.667,145.5 175.333,149.5 173,153.5C 165.367,174.395 159.367,195.728 155,217.5C 150.293,252.002 148.293,286.669 149,321.5C 152.253,334.432 155.253,347.432 158,360.5C 166.245,379.649 173.912,398.982 181,418.5C 182,420.5 183,422.5 184,424.5C 200.025,443.191 217.358,460.525 236,476.5C 237.562,480.693 235.895,483.36 231,484.5C 221.066,481.353 212.732,475.686 206,467.5C 199.883,456.383 191.383,447.549 180.5,441C 172.947,431.405 166.78,420.905 162,409.5C 153.667,388.833 145.333,368.167 137,347.5C 129.822,320.232 127.489,292.566 130,264.5C 131.339,251.791 133.005,239.124 135,226.5C 140.108,208.07 146.441,190.07 154,172.5C 158.816,151.873 166.149,132.206 176,113.5C 185.555,103.276 193.555,91.9426 200,79.5C 206.142,71.3899 212.642,63.5566 219.5,56C 222.374,55.0575 225.04,53.8908 227.5,52.5 Z"/></g>
<g><path style="opacity:1" fill="#003aa0" d="M 476.5,58.5 C 480.768,60.9325 484.268,64.2658 487,68.5C 487.39,72.5144 487.89,76.5144 488.5,80.5C 488.216,86.6837 486.05,87.6837 482,83.5C 477.162,75.7347 475.329,67.4013 476.5,58.5 Z"/></g>
<g><path style="opacity:1" fill="#00a090" d="M 438.5,61.5 C 440.988,62.7399 442.821,64.7399 444,67.5C 443.664,73.6722 441.997,73.6722 439,67.5C 437.759,65.4521 437.592,63.4521 438.5,61.5 Z"/></g>
<g><path style="opacity:1" fill="#003aa0" d="M 127.5,76.5 C 130.95,76.5726 132.283,78.4059 131.5,82C 131.417,93.1636 127.083,102.164 118.5,109C 117.5,109.667 116.5,109.667 115.5,109C 113.058,102.639 112.892,96.1394 115,89.5C 118.864,84.8302 123.031,80.4969 127.5,76.5 Z"/></g>
<g><path style="opacity:1" fill="#02a595" d="M 368.5,234.5 C 369.363,233.06 369.363,231.726 368.5,230.5C 369.98,229.887 371.313,229.554 372.5,229.5C 371.169,221.162 368.836,213.162 365.5,205.5C 366.994,201.976 366.661,198.642 364.5,195.5C 362.076,197.37 360.409,199.703 359.5,202.5C 359.453,198.196 357.619,194.863 354,192.5C 353.187,190.564 352.687,188.564 352.5,186.5C 347.717,184.991 343.051,183.991 338.5,183.5C 332.573,184.992 326.573,186.158 320.5,187C 318.038,189.536 315.038,191.036 311.5,191.5C 307.648,191.11 303.815,190.777 300,190.5C 294.001,191.511 289.335,194.511 286,199.5C 283.871,203.421 282.037,207.421 280.5,211.5C 279.009,212.244 277.509,212.91 276,213.5C 275.749,215.433 275.249,217.266 274.5,219C 275.603,220.68 275.27,222.18 273.5,223.5C 274.667,225.833 275.833,228.167 277,230.5C 281.476,227.336 283.809,223.002 284,217.5C 285.488,215.84 287.321,214.84 289.5,214.5C 288.28,216.282 287.614,218.282 287.5,220.5C 286.005,220.415 285.005,221.081 284.5,222.5C 285.927,224.718 287.927,226.218 290.5,227C 288.038,228.216 285.371,228.882 282.5,229C 278.596,232.598 278.93,235.931 283.5,239C 285.441,239.743 287.274,239.576 289,238.5C 289.374,239.416 289.874,240.25 290.5,241C 289.139,242.584 288.472,244.418 288.5,246.5C 287.425,248.157 286.758,249.991 286.5,252C 287.12,255.843 287.787,259.676 288.5,263.5C 288.152,265.697 287.152,267.53 285.5,269C 286.685,270.353 288.019,271.52 289.5,272.5C 288.676,278.457 288.676,284.457 289.5,290.5C 292.893,288.523 295.559,289.19 297.5,292.5C 298.672,292.081 299.672,291.415 300.5,290.5C 299.397,290.002 298.397,289.669 297.5,289.5C 299.167,288.167 300.833,288.167 302.5,289.5C 301.522,290.801 301.855,291.968 303.5,293C 303.164,294.03 302.497,294.53 301.5,294.5C 300.542,294.953 299.708,295.619 299,296.5C 296.942,295.891 296.109,294.891 296.5,293.5C 292.874,294.593 292.874,295.926 296.5,297.5C 295.988,299.478 295.821,301.812 296,304.5C 300.162,306.819 303.995,309.486 307.5,312.5C 305.799,312.034 304.299,312.034 303,312.5C 302.204,315.039 302.371,317.372 303.5,319.5C 303.281,320.675 303.614,321.675 304.5,322.5C 306.295,323.265 308.128,323.932 310,324.5C 311.386,323.271 312.886,322.271 314.5,321.5C 314.938,321.435 315.272,321.601 315.5,322C 312.918,326.323 310.251,330.656 307.5,335C 309.974,336.267 312.641,337.101 315.5,337.5C 320.054,337.065 324.388,336.065 328.5,334.5C 327.657,336.173 326.324,337.34 324.5,338C 318.448,338.79 312.448,338.624 306.5,337.5C 304.183,339.242 302.683,341.576 302,344.5C 298.993,346.086 296.493,348.253 294.5,351C 291.095,352.983 289.261,351.816 289,347.5C 287.183,349.416 286.016,351.749 285.5,354.5C 283.767,350.136 281.933,345.802 280,341.5C 279,343.833 278,346.167 277,348.5C 275.882,346.235 275.049,343.901 274.5,341.5C 272.61,341.297 271.11,341.963 270,343.5C 269.333,342.5 269.333,341.5 270,340.5C 275.32,338.254 275.654,335.587 271,332.5C 269.657,333.214 268.324,332.88 267,331.5C 264.422,324.283 262.255,316.95 260.5,309.5C 260.611,306.024 261.778,303.024 264,300.5C 265.826,301.841 266.993,301.341 267.5,299C 267.012,297.416 266.012,296.249 264.5,295.5C 264.808,294.692 265.308,294.025 266,293.5C 265.968,284.201 267.134,275.201 269.5,266.5C 270.148,257.779 270.981,249.113 272,240.5C 270.625,238.624 269.458,236.624 268.5,234.5C 267.833,234.833 267.167,235.167 266.5,235.5C 265.853,232.546 265.686,229.546 266,226.5C 264.887,227.711 263.72,227.711 262.5,226.5C 261.59,224.345 260.423,222.345 259,220.5C 259.041,217.196 259.374,213.863 260,210.5C 260.196,208.714 261.029,207.381 262.5,206.5C 264.332,207.248 265.999,208.248 267.5,209.5C 269.149,208.352 270.649,207.019 272,205.5C 272.667,206.167 273.333,206.833 274,207.5C 275.802,199.563 278.802,192.23 283,185.5C 284.193,180.848 283.36,176.681 280.5,173C 282.748,171.086 285.248,169.586 288,168.5C 290.315,169.527 292.648,170.527 295,171.5C 299.087,169.944 302.92,170.444 306.5,173C 304.651,174.093 302.984,175.426 301.5,177C 303.919,179.595 304.586,182.429 303.5,185.5C 303.477,187.067 303.977,188.4 305,189.5C 306.756,188.452 308.59,188.452 310.5,189.5C 314.258,188.247 317.924,186.747 321.5,185C 326.357,184.811 331.024,183.811 335.5,182C 337.054,179.776 338.054,177.276 338.5,174.5C 336.458,173.497 336.125,172.163 337.5,170.5C 342.872,169.142 348.205,168.475 353.5,168.5C 354.7,169.531 356.034,170.365 357.5,171C 358.249,172.734 358.749,174.567 359,176.5C 363.754,177.093 366.587,180.093 367.5,185.5C 365.886,188.953 366.719,190.62 370,190.5C 370.833,192.5 371.667,194.5 372.5,196.5C 373.425,195.359 374.259,195.359 375,196.5C 374.845,203.002 374.512,209.335 374,215.5C 373.167,216.333 372.333,217.167 371.5,218C 372.255,222.678 373.255,227.345 374.5,232C 374.241,233.261 373.574,234.261 372.5,235C 374.283,236.067 374.783,237.567 374,239.5C 372.542,238.253 371.042,238.253 369.5,239.5C 368.77,238.022 368.437,236.356 368.5,234.5 Z"/></g>
<g><path style="opacity:1" fill="#00009e" d="M 402.5,216.5 C 404.685,222.272 406.185,228.272 407,234.5C 407.956,231.623 409.289,228.956 411,226.5C 411.667,225.167 412.333,225.167 413,226.5C 414.376,231.755 415.209,237.088 415.5,242.5C 414.178,242.33 413.011,242.663 412,243.5C 409.464,249.913 408.131,256.579 408,263.5C 407,262.167 406,262.167 405,263.5C 404.505,265.473 404.338,267.473 404.5,269.5C 403.5,269.5 402.5,269.5 401.5,269.5C 399.984,260.562 398.317,251.729 396.5,243C 399.717,237.543 400.383,231.877 398.5,226C 401.08,223.342 402.413,220.176 402.5,216.5 Z"/></g>
<g><path style="opacity:1" fill="#12a8e6" d="M 305.5,218.5 C 302.938,218.321 300.272,218.655 297.5,219.5C 297.66,221.199 297.494,222.866 297,224.5C 294.126,225.532 292.626,227.532 292.5,230.5C 290.416,231.248 288.416,231.248 286.5,230.5C 281.377,232.644 281.377,234.977 286.5,237.5C 289.784,235.883 292.451,233.55 294.5,230.5C 297.833,228.833 301.167,227.167 304.5,225.5C 305.167,225.833 305.833,226.167 306.5,226.5C 308.193,224.973 310.027,223.64 312,222.5C 313,223.5 314,224.5 315,225.5C 315.399,225.272 315.565,224.938 315.5,224.5C 316.5,224.5 317.5,224.5 318.5,224.5C 318.719,225.675 318.386,226.675 317.5,227.5C 313.461,229.036 310.128,231.536 307.5,235C 308.612,237.108 307.946,238.608 305.5,239.5C 304.25,239.423 303.417,238.756 303,237.5C 301.391,242.707 303.224,245.707 308.5,246.5C 308.5,245.5 308.5,244.5 308.5,243.5C 310.496,244.062 312.496,243.562 314.5,242C 313.833,241.667 313.167,241.333 312.5,241C 314.179,239.174 315.346,237.008 316,234.5C 317.734,232.549 319.901,231.549 322.5,231.5C 322.146,229.233 322.479,227.899 323.5,227.5C 326.298,231.007 328.632,230.341 330.5,225.5C 330.333,225.167 330.167,224.833 330,224.5C 328.512,226.16 326.679,227.16 324.5,227.5C 324.121,224.6 322.788,222.267 320.5,220.5C 320.624,219.893 320.957,219.56 321.5,219.5C 323.851,221.203 326.518,221.703 329.5,221C 329.167,220.667 328.833,220.333 328.5,220C 330.81,219.503 333.143,219.337 335.5,219.5C 333.256,220.612 333.256,222.112 335.5,224C 330.63,226.007 331.296,227.007 337.5,227C 336.584,227.278 335.918,227.778 335.5,228.5C 333.761,227.566 332.095,227.566 330.5,228.5C 331.688,231.021 333.022,233.355 334.5,235.5C 333.218,240.239 330.218,241.906 325.5,240.5C 323.152,240.592 321.486,241.592 320.5,243.5C 318.958,244.301 317.292,244.634 315.5,244.5C 315.67,245.822 315.337,246.989 314.5,248C 316.886,248.284 317.552,249.284 316.5,251C 317.381,251.708 318.047,252.542 318.5,253.5C 317.833,253.5 317.5,253.833 317.5,254.5C 316.034,253.653 315.2,252.32 315,250.5C 312.152,252.022 311.819,254.022 314,256.5C 314.741,255.359 315.575,255.359 316.5,256.5C 317.576,258.987 318.91,261.32 320.5,263.5C 321.823,261.318 323.49,260.651 325.5,261.5C 327.011,259.184 327.344,256.851 326.5,254.5C 326.5,254.167 326.5,253.833 326.5,253.5C 327.626,252.286 328.959,251.286 330.5,250.5C 331.416,250.543 332.083,250.876 332.5,251.5C 331.542,251.953 330.708,252.619 330,253.5C 329.199,256.367 329.366,259.034 330.5,261.5C 329.071,262.234 328.071,263.401 327.5,265C 328.148,266.44 328.481,267.94 328.5,269.5C 328.565,269.938 328.399,270.272 328,270.5C 324.704,266.36 323.038,266.693 323,271.5C 324.667,272.833 326.333,272.833 328,271.5C 328.333,273.167 328.667,274.833 329,276.5C 329.671,275.748 330.504,275.414 331.5,275.5C 330.016,277.074 328.349,278.407 326.5,279.5C 324.5,279.167 322.5,278.833 320.5,278.5C 320.36,276.876 321.027,275.71 322.5,275C 318.543,274.838 317.543,276.672 319.5,280.5C 318.667,282.167 317.833,283.833 317,285.5C 315.887,284.289 314.72,284.289 313.5,285.5C 312.571,284.311 312.238,282.978 312.5,281.5C 311.5,281.5 310.5,281.5 309.5,281.5C 308.545,279.29 307.045,278.957 305,280.5C 303.645,277.199 302.478,273.865 301.5,270.5C 302.677,266.846 302.511,263.18 301,259.5C 300.292,258.619 299.458,257.953 298.5,257.5C 298.052,254.828 296.719,252.828 294.5,251.5C 293.833,251.5 293.5,251.167 293.5,250.5C 293.721,249.265 294.388,248.265 295.5,247.5C 293.257,246.526 290.924,246.192 288.5,246.5C 288.472,244.418 289.139,242.584 290.5,241C 289.874,240.25 289.374,239.416 289,238.5C 287.274,239.576 285.441,239.743 283.5,239C 278.93,235.931 278.596,232.598 282.5,229C 285.371,228.882 288.038,228.216 290.5,227C 287.927,226.218 285.927,224.718 284.5,222.5C 285.005,221.081 286.005,220.415 287.5,220.5C 289.267,221.256 291.1,221.923 293,222.5C 294.94,220.323 297.107,218.323 299.5,216.5C 300.72,217.711 301.887,217.711 303,216.5C 303.995,217.066 304.828,217.733 305.5,218.5 Z"/></g>
<g><path style="opacity:1" fill="#2ba598" d="M 358.5,221.5 C 358.496,224.316 359.829,226.816 362.5,229C 361.083,231.826 359.583,231.993 358,229.5C 357.308,230.025 356.808,230.692 356.5,231.5C 357.871,234.774 359.704,237.774 362,240.5C 364,238.5 364,236.5 362,234.5C 361.086,235.654 360.253,235.487 359.5,234C 360.253,232.513 361.086,232.346 362,233.5C 362.333,232.833 362.667,232.167 363,231.5C 365.887,233.752 367.22,236.752 367,240.5C 367.667,241.833 368.333,241.833 369,240.5C 369.5,242.333 370.667,243.5 372.5,244C 371.027,244.71 370.36,245.876 370.5,247.5C 372.359,247.539 373.692,246.706 374.5,245C 376.134,244.506 377.801,244.34 379.5,244.5C 379.821,246.048 380.821,246.715 382.5,246.5C 382.756,248.912 381.756,250.579 379.5,251.5C 377.924,246.679 375.924,246.346 373.5,250.5C 372.167,250.5 370.833,250.5 369.5,250.5C 369.683,248.064 369.016,245.897 367.5,244C 366.793,244.744 365.459,245.244 363.5,245.5C 363.728,243.645 363.061,242.812 361.5,243C 362.285,245.443 362.119,247.943 361,250.5C 360.444,246.905 358.611,245.405 355.5,246C 356.999,245.162 357.332,244.329 356.5,243.5C 356.671,241.007 355.671,239.174 353.5,238C 353.957,237.586 354.291,237.086 354.5,236.5C 352.525,235.725 351.691,234.391 352,232.5C 353.085,234.657 354.251,234.824 355.5,233C 354.672,232.085 353.672,231.419 352.5,231C 353.641,230.259 353.641,229.425 352.5,228.5C 352.808,227.692 353.308,227.025 354,226.5C 355.566,225.939 356.899,226.606 358,228.5C 357.778,226.544 356.945,224.71 355.5,223C 356.244,221.961 357.244,221.461 358.5,221.5 Z"/></g>
<g><path style="opacity:1" fill="#25d8c0" d="M 342.5,232.5 C 341.713,234.104 340.38,234.771 338.5,234.5C 339.823,237.281 339.656,239.947 338,242.5C 337.667,242.167 337.333,241.833 337,241.5C 336.794,244.623 336.127,247.623 335,250.5C 334.329,251.252 333.496,251.586 332.5,251.5C 332.083,250.876 331.416,250.543 330.5,250.5C 328.959,251.286 327.626,252.286 326.5,253.5C 326.062,253.565 325.728,253.399 325.5,253C 326.583,250.944 328.25,249.611 330.5,249C 329.167,248.667 327.833,248.333 326.5,248C 327.5,246.333 328.5,244.667 329.5,243C 328.207,242.51 326.873,242.343 325.5,242.5C 325.5,241.833 325.5,241.167 325.5,240.5C 330.218,241.906 333.218,240.239 334.5,235.5C 335.485,235.845 335.819,236.845 335.5,238.5C 336.642,236.622 337.642,234.788 338.5,233C 339.793,232.51 341.127,232.343 342.5,232.5 Z"/></g>
<g><path style="opacity:1" fill="#116eac" d="M 347.5,239.5 C 348.263,242.141 348.43,244.808 348,247.5C 347.617,246.944 347.117,246.611 346.5,246.5C 345.345,246.422 344.012,246.088 342.5,245.5C 341.115,241.753 340.115,242.086 339.5,246.5C 339.824,248.569 340.658,248.902 342,247.5C 341.778,249.456 340.945,251.29 339.5,253C 337.369,253.543 335.369,254.376 333.5,255.5C 332.864,257.78 331.864,259.78 330.5,261.5C 329.366,259.034 329.199,256.367 330,253.5C 330.708,252.619 331.542,251.953 332.5,251.5C 333.496,251.586 334.329,251.252 335,250.5C 336.127,247.623 336.794,244.623 337,241.5C 337.333,241.833 337.667,242.167 338,242.5C 339.656,239.947 339.823,237.281 338.5,234.5C 340.38,234.771 341.713,234.104 342.5,232.5C 342.435,232.062 342.601,231.728 343,231.5C 345.538,233.646 347.038,236.313 347.5,239.5 Z"/></g>
<g><path style="opacity:1" fill="#1ee2d7" d="M 320.5,243.5 C 321.167,244.833 321.833,246.167 322.5,247.5C 321.34,248.265 320.34,249.265 319.5,250.5C 319.846,251.696 320.346,251.696 321,250.5C 321.667,251.5 321.667,252.5 321,253.5C 320.023,254.774 319.189,254.774 318.5,253.5C 318.047,252.542 317.381,251.708 316.5,251C 317.552,249.284 316.886,248.284 314.5,248C 315.337,246.989 315.67,245.822 315.5,244.5C 317.292,244.634 318.958,244.301 320.5,243.5 Z"/></g>
<g><path style="opacity:1" fill="#0d77b2" d="M 278.5,242.5 C 283.442,243.392 284.942,246.058 283,250.5C 279.182,253.498 277.016,252.498 276.5,247.5C 276.437,245.486 277.103,243.819 278.5,242.5 Z"/></g>
<g><path style="opacity:1" fill="#49f12c" d="M 325.5,242.5 C 326.873,242.343 328.207,242.51 329.5,243C 328.5,244.667 327.5,246.333 326.5,248C 327.833,248.333 329.167,248.667 330.5,249C 328.25,249.611 326.583,250.944 325.5,253C 325.728,253.399 326.062,253.565 326.5,253.5C 326.5,253.833 326.5,254.167 326.5,254.5C 324.213,254.724 322.047,255.391 320,256.5C 318.699,256.361 317.866,255.695 317.5,254.5C 317.5,253.833 317.833,253.5 318.5,253.5C 319.189,254.774 320.023,254.774 321,253.5C 321.667,252.5 321.667,251.5 321,250.5C 320.346,251.696 319.846,251.696 319.5,250.5C 320.34,249.265 321.34,248.265 322.5,247.5C 322.821,245.952 323.821,245.285 325.5,245.5C 325.5,244.5 325.5,243.5 325.5,242.5 Z"/></g>
<g><path style="opacity:1" fill="#1b88a1" d="M 349.5,233.5 C 349.927,238.215 352.26,241.548 356.5,243.5C 357.332,244.329 356.999,245.162 355.5,246C 358.611,245.405 360.444,246.905 361,250.5C 362.119,247.943 362.285,245.443 361.5,243C 363.061,242.812 363.728,243.645 363.5,245.5C 365.459,245.244 366.793,244.744 367.5,244C 369.016,245.897 369.683,248.064 369.5,250.5C 370.833,250.5 372.167,250.5 373.5,250.5C 372.952,253.084 371.285,254.084 368.5,253.5C 368.5,252.5 368.5,251.5 368.5,250.5C 367.5,250.5 366.5,250.5 365.5,250.5C 365.405,252.786 364.738,254.786 363.5,256.5C 362.761,256.369 362.094,256.536 361.5,257C 362.252,257.671 362.586,258.504 362.5,259.5C 361.25,263.086 358.916,265.752 355.5,267.5C 354.777,265.836 355.11,264.169 356.5,262.5C 355.384,262.598 354.384,262.098 353.5,261C 353.82,259.347 354.82,258.347 356.5,258C 356.272,257.601 355.938,257.435 355.5,257.5C 356.09,255.903 357.09,254.569 358.5,253.5C 357.873,252.583 357.539,251.583 357.5,250.5C 358.404,249.791 358.737,248.791 358.5,247.5C 356.821,247.285 355.821,247.952 355.5,249.5C 352.354,246.535 349.687,243.202 347.5,239.5C 347.259,237.102 347.926,235.102 349.5,233.5 Z"/></g>
<g><path style="opacity:1" fill="#0a2cd5" d="M 357.5,250.5 C 357.167,250.5 356.833,250.5 356.5,250.5C 356.5,249.833 356.167,249.5 355.5,249.5C 355.821,247.952 356.821,247.285 358.5,247.5C 358.737,248.791 358.404,249.791 357.5,250.5 Z"/></g>
<g><path style="opacity:1" fill="#004edb" d="M 293.5,250.5 C 293.5,251.167 293.833,251.5 294.5,251.5C 293.489,261.239 291.823,261.573 289.5,252.5C 290,251.5 290.5,250.5 291,249.5C 291.671,250.252 292.504,250.586 293.5,250.5 Z"/></g>
<g><path style="opacity:1" fill="#0bae66" d="M 347.5,239.5 C 349.687,243.202 352.354,246.535 355.5,249.5C 356.167,249.5 356.5,249.833 356.5,250.5C 354.857,250.52 353.524,249.853 352.5,248.5C 351.232,250.304 350.565,252.304 350.5,254.5C 349.5,254.5 348.5,254.5 347.5,254.5C 346.5,254.5 345.5,254.5 344.5,254.5C 344.714,252.856 344.38,251.356 343.5,250C 345.056,249.28 346.056,248.113 346.5,246.5C 347.117,246.611 347.617,246.944 348,247.5C 348.43,244.808 348.263,242.141 347.5,239.5 Z"/></g>
<g><path style="opacity:1" fill="#0e91cd" d="M 288.5,246.5 C 290.924,246.192 293.257,246.526 295.5,247.5C 294.388,248.265 293.721,249.265 293.5,250.5C 292.504,250.586 291.671,250.252 291,249.5C 290.5,250.5 290,251.5 289.5,252.5C 291.823,261.573 293.489,261.239 294.5,251.5C 296.719,252.828 298.052,254.828 298.5,257.5C 297.058,262.535 297.224,267.535 299,272.5C 299.708,271.619 300.542,270.953 301.5,270.5C 302.478,273.865 303.645,277.199 305,280.5C 307.045,278.957 308.545,279.29 309.5,281.5C 308.167,281.5 306.833,281.5 305.5,281.5C 305.5,282.5 305.5,283.5 305.5,284.5C 304.518,282.594 303.518,280.594 302.5,278.5C 299.392,282.345 300.392,284.678 305.5,285.5C 308.963,285.228 312.463,285.895 316,287.5C 316.414,287.043 316.914,286.709 317.5,286.5C 317.36,287.569 317.36,288.736 317.5,290C 318.899,290.595 320.232,290.428 321.5,289.5C 323.167,290.333 324.833,291.167 326.5,292C 327.738,292.69 327.738,293.19 326.5,293.5C 325.35,292.15 324.683,292.316 324.5,294C 325.244,296.155 326.244,298.155 327.5,300C 326.385,301.235 326.385,302.402 327.5,303.5C 326.3,304.292 324.967,304.292 323.5,303.5C 320.664,301.876 317.664,301.042 314.5,301C 316.396,305.034 319.396,306.534 323.5,305.5C 324.338,305.842 324.672,306.508 324.5,307.5C 321.182,307.91 318.349,309.243 316,311.5C 313.431,311.467 311.597,310.3 310.5,308C 311.793,307.51 313.127,307.343 314.5,307.5C 314.688,305.897 314.188,304.563 313,303.5C 308.611,304.781 307.778,303.614 310.5,300C 307.302,298.183 304.302,296.35 301.5,294.5C 302.497,294.53 303.164,294.03 303.5,293C 301.855,291.968 301.522,290.801 302.5,289.5C 300.833,288.167 299.167,288.167 297.5,289.5C 298.397,289.669 299.397,290.002 300.5,290.5C 299.672,291.415 298.672,292.081 297.5,292.5C 295.559,289.19 292.893,288.523 289.5,290.5C 288.676,284.457 288.676,278.457 289.5,272.5C 288.019,271.52 286.685,270.353 285.5,269C 287.152,267.53 288.152,265.697 288.5,263.5C 287.787,259.676 287.12,255.843 286.5,252C 286.758,249.991 287.425,248.157 288.5,246.5 Z"/></g>
<g><path style="opacity:1" fill="#15e362" d="M 356.5,250.5 C 356.833,250.5 357.167,250.5 357.5,250.5C 357.539,251.583 357.873,252.583 358.5,253.5C 357.09,254.569 356.09,255.903 355.5,257.5C 354.5,257.5 353.5,257.5 352.5,257.5C 352.425,260.206 352.092,262.873 351.5,265.5C 349.396,265.799 347.396,265.466 345.5,264.5C 348.399,261.576 349.066,258.243 347.5,254.5C 348.5,254.5 349.5,254.5 350.5,254.5C 350.565,252.304 351.232,250.304 352.5,248.5C 353.524,249.853 354.857,250.52 356.5,250.5 Z"/></g>
<g><path style="opacity:1" fill="#0000a2" d="M 229.5,244.5 C 231.668,245.172 233.001,246.672 233.5,249C 234.459,255.838 235.459,262.672 236.5,269.5C 235.33,274.182 235.33,278.849 236.5,283.5C 236,285.5 235.5,287.5 235,289.5C 232.882,293.62 231.215,297.953 230,302.5C 228.611,304.227 226.944,305.561 225,306.5C 224.228,306.355 223.561,306.022 223,305.5C 221.844,301.877 220.844,298.211 220,294.5C 218.606,292.598 216.773,292.265 214.5,293.5C 214.424,290.027 213.758,286.694 212.5,283.5C 211.5,283.5 210.5,283.5 209.5,283.5C 209.048,277.62 209.882,271.953 212,266.5C 216.207,263.114 219.207,258.781 221,253.5C 222.943,252.685 224.943,251.685 227,250.5C 227.938,248.512 228.772,246.512 229.5,244.5 Z"/></g>
<g><path style="opacity:1" fill="#1df8b6" d="M 317.5,254.5 C 317.866,255.695 318.699,256.361 320,256.5C 322.047,255.391 324.213,254.724 326.5,254.5C 327.344,256.851 327.011,259.184 325.5,261.5C 323.49,260.651 321.823,261.318 320.5,263.5C 318.91,261.32 317.576,258.987 316.5,256.5C 315.575,255.359 314.741,255.359 314,256.5C 311.819,254.022 312.152,252.022 315,250.5C 315.2,252.32 316.034,253.653 317.5,254.5 Z"/></g>
<g><path style="opacity:1" fill="#0074a0" d="M 379.5,244.5 C 377.801,244.34 376.134,244.506 374.5,245C 373.692,246.706 372.359,247.539 370.5,247.5C 370.36,245.876 371.027,244.71 372.5,244C 370.667,243.5 369.5,242.333 369,240.5C 368.333,241.833 367.667,241.833 367,240.5C 367.22,236.752 365.887,233.752 363,231.5C 362.667,232.167 362.333,232.833 362,233.5C 361.086,232.346 360.253,232.513 359.5,234C 360.253,235.487 361.086,235.654 362,234.5C 364,236.5 364,238.5 362,240.5C 359.704,237.774 357.871,234.774 356.5,231.5C 356.808,230.692 357.308,230.025 358,229.5C 359.583,231.993 361.083,231.826 362.5,229C 359.829,226.816 358.496,224.316 358.5,221.5C 357.54,219.539 356.207,217.873 354.5,216.5C 356.563,215.976 358.063,216.976 359,219.5C 359.667,218.167 359.667,216.833 359,215.5C 357.147,213.097 355.314,210.764 353.5,208.5C 352.833,207.167 352.167,205.833 351.5,204.5C 352.043,204.44 352.376,204.107 352.5,203.5C 351.04,200.971 350.54,198.304 351,195.5C 351.667,196.833 352.333,196.833 353,195.5C 353.353,198.539 354.52,201.205 356.5,203.5C 357.417,202.873 358.417,202.539 359.5,202.5C 359.729,205.337 359.896,208.337 360,211.5C 360.925,212.047 361.758,212.713 362.5,213.5C 363.145,216.228 363.979,218.895 365,221.5C 365.333,220.5 365.667,219.5 366,218.5C 366.798,221.543 367.965,224.376 369.5,227C 367.668,227.748 366.001,228.748 364.5,230C 365.733,231.667 367.067,233.167 368.5,234.5C 368.437,236.356 368.77,238.022 369.5,239.5C 371.042,238.253 372.542,238.253 374,239.5C 374.783,237.567 374.283,236.067 372.5,235C 373.574,234.261 374.241,233.261 374.5,232C 373.255,227.345 372.255,222.678 371.5,218C 372.333,217.167 373.167,216.333 374,215.5C 374.512,209.335 374.845,203.002 375,196.5C 374.259,195.359 373.425,195.359 372.5,196.5C 371.667,194.5 370.833,192.5 370,190.5C 366.719,190.62 365.886,188.953 367.5,185.5C 366.587,180.093 363.754,177.093 359,176.5C 358.749,174.567 358.249,172.734 357.5,171C 356.034,170.365 354.7,169.531 353.5,168.5C 348.205,168.475 342.872,169.142 337.5,170.5C 336.125,172.163 336.458,173.497 338.5,174.5C 338.054,177.276 337.054,179.776 335.5,182C 331.024,183.811 326.357,184.811 321.5,185C 317.924,186.747 314.258,188.247 310.5,189.5C 308.59,188.452 306.756,188.452 305,189.5C 303.977,188.4 303.477,187.067 303.5,185.5C 304.586,182.429 303.919,179.595 301.5,177C 302.984,175.426 304.651,174.093 306.5,173C 302.92,170.444 299.087,169.944 295,171.5C 292.648,170.527 290.315,169.527 288,168.5C 285.248,169.586 282.748,171.086 280.5,173C 283.36,176.681 284.193,180.848 283,185.5C 278.802,192.23 275.802,199.563 274,207.5C 273.333,206.833 272.667,206.167 272,205.5C 270.649,207.019 269.149,208.352 267.5,209.5C 265.999,208.248 264.332,207.248 262.5,206.5C 261.029,207.381 260.196,208.714 260,210.5C 259.374,213.863 259.041,217.196 259,220.5C 260.423,222.345 261.59,224.345 262.5,226.5C 263.72,227.711 264.887,227.711 266,226.5C 265.686,229.546 265.853,232.546 266.5,235.5C 267.167,235.167 267.833,234.833 268.5,234.5C 269.458,236.624 270.625,238.624 272,240.5C 270.981,249.113 270.148,257.779 269.5,266.5C 267.134,275.201 265.968,284.201 266,293.5C 265.308,294.025 264.808,294.692 264.5,295.5C 266.012,296.249 267.012,297.416 267.5,299C 266.993,301.341 265.826,301.841 264,300.5C 261.778,303.024 260.611,306.024 260.5,309.5C 262.255,316.95 264.422,324.283 267,331.5C 268.324,332.88 269.657,333.214 271,332.5C 275.654,335.587 275.32,338.254 270,340.5C 269.333,341.5 269.333,342.5 270,343.5C 271.11,341.963 272.61,341.297 274.5,341.5C 275.049,343.901 275.882,346.235 277,348.5C 278,346.167 279,343.833 280,341.5C 281.933,345.802 283.767,350.136 285.5,354.5C 286.016,351.749 287.183,349.416 289,347.5C 289.261,351.816 291.095,352.983 294.5,351C 296.493,348.253 298.993,346.086 302,344.5C 302.683,341.576 304.183,339.242 306.5,337.5C 312.448,338.624 318.448,338.79 324.5,338C 326.324,337.34 327.657,336.173 328.5,334.5C 330.167,334.5 331.833,334.5 333.5,334.5C 333.128,337.022 333.961,339.022 336,340.5C 337.482,338.219 339.149,338.219 341,340.5C 346.054,338.109 348.721,334.109 349,328.5C 349.333,328.833 349.667,329.167 350,329.5C 350.651,327.765 350.485,326.098 349.5,324.5C 353.132,319.569 355.965,314.235 358,308.5C 360.178,305.532 361.344,305.865 361.5,309.5C 365.816,307.866 367.149,304.866 365.5,300.5C 365.442,297.953 366.109,295.62 367.5,293.5C 367.333,293.167 367.167,292.833 367,292.5C 365.669,296.022 363.836,296.355 361.5,293.5C 363.452,292.456 365.452,291.456 367.5,290.5C 368.689,288.539 368.355,288.206 366.5,289.5C 366.5,288.167 366.5,286.833 366.5,285.5C 364.857,285.52 363.524,284.853 362.5,283.5C 360.593,285.76 358.593,285.927 356.5,284C 358.751,283.252 360.084,281.752 360.5,279.5C 360.567,278.041 360.234,276.708 359.5,275.5C 360.176,272.994 361.176,270.494 362.5,268C 361.032,265.972 361.199,264.138 363,262.5C 363.42,267.464 364.253,267.631 365.5,263C 365.022,261.358 364.022,260.191 362.5,259.5C 362.586,258.504 362.252,257.671 361.5,257C 362.094,256.536 362.761,256.369 363.5,256.5C 366.666,259.983 367.333,263.983 365.5,268.5C 363.217,267.924 362.883,268.924 364.5,271.5C 364.5,273.167 364.5,274.833 364.5,276.5C 365.5,276.5 366.5,276.5 367.5,276.5C 367.141,278.766 367.808,280.599 369.5,282C 374.132,281.607 378.799,281.607 383.5,282C 385.688,283.964 385.688,285.464 383.5,286.5C 383.688,284.897 383.188,283.563 382,282.5C 380.055,283.692 378.055,283.692 376,282.5C 373.196,284.51 370.363,285.677 367.5,286C 368.76,287.113 369.927,287.28 371,286.5C 371.456,287.744 370.956,288.577 369.5,289C 370.898,291.736 372.565,291.569 374.5,288.5C 375.105,289.587 374.772,290.754 373.5,292C 376.5,292.667 379.5,292.667 382.5,292C 381.288,290.893 381.621,290.393 383.5,290.5C 384.136,294.586 384.47,298.752 384.5,303C 384.491,309.024 383.991,314.858 383,320.5C 383.414,320.957 383.914,321.291 384.5,321.5C 385.333,319.5 386.167,317.5 387,315.5C 387.333,315.833 387.667,316.167 388,316.5C 389.289,313.649 389.789,310.649 389.5,307.5C 392.599,307.092 394.933,308.259 396.5,311C 395.09,311.368 394.09,312.201 393.5,313.5C 394.748,316.07 395.748,318.737 396.5,321.5C 397.217,314.121 398.217,306.787 399.5,299.5C 400.427,297.887 401.261,296.221 402,294.5C 402.833,295.5 403.667,296.5 404.5,297.5C 405.795,295.672 406.795,293.672 407.5,291.5C 408.748,292.04 409.915,292.707 411,293.5C 414,286.841 415.5,279.841 415.5,272.5C 417.46,273.138 419.293,273.138 421,272.5C 421.583,267.561 422.917,262.894 425,258.5C 426.35,262.537 428.683,265.87 432,268.5C 432.438,265.624 433.438,262.957 435,260.5C 437.816,265.057 439.316,270.057 439.5,275.5C 438.139,280.362 437.139,285.362 436.5,290.5C 437.628,297.116 437.795,303.782 437,310.5C 433.794,319.868 432.127,329.535 432,339.5C 432.75,340.126 433.584,340.626 434.5,341C 431.088,350.444 427.588,359.944 424,369.5C 414.667,384.167 405.333,398.833 396,413.5C 390.008,420.825 383.675,427.825 377,434.5C 375.637,440.866 371.804,445.032 365.5,447C 349.01,450.981 332.343,454.315 315.5,457C 299.748,462.139 284.081,467.473 268.5,473C 262.167,473.667 255.833,473.667 249.5,473C 242.333,467.58 234.667,462.913 226.5,459C 213.602,446.771 201.436,433.938 190,420.5C 180.31,402.102 172.977,382.768 168,362.5C 167.333,355.167 167.333,347.833 168,340.5C 170.786,334.234 171.286,327.734 169.5,321C 171.126,313.858 173.126,306.858 175.5,300C 176.416,299.626 177.25,299.126 178,298.5C 179.127,301.377 179.794,304.377 180,307.5C 182.167,303.833 184.333,300.167 186.5,296.5C 187.5,295.167 188.5,295.167 189.5,296.5C 190.727,302.093 192.561,307.426 195,312.5C 196.911,312.255 198.911,312.255 201,312.5C 200.035,321.951 202.368,323.284 208,316.5C 208.333,316.833 208.667,317.167 209,317.5C 211.852,321.723 213.852,326.389 215,331.5C 217.384,333.311 219.051,335.645 220,338.5C 221.333,335.833 222.667,333.167 224,330.5C 224.906,332.612 226.406,333.445 228.5,333C 230.317,331.2 231.484,329.034 232,326.5C 234.715,322.219 236.549,322.552 237.5,327.5C 238.99,325.874 240.49,324.208 242,322.5C 243.617,318.694 244.45,314.694 244.5,310.5C 245.822,310.67 246.989,310.337 248,309.5C 249.969,305.768 250.969,301.768 251,297.5C 252.039,295.254 253.206,293.087 254.5,291C 252.058,286.275 251.891,281.441 254,276.5C 256.106,274.623 257.439,272.29 258,269.5C 259.651,273.032 259.485,276.366 257.5,279.5C 259.392,282.044 261.225,282.044 263,279.5C 266.593,272.148 268.093,264.481 267.5,256.5C 265.445,254.445 263.112,252.779 260.5,251.5C 259.522,251.977 258.689,252.643 258,253.5C 257.74,249.75 257.073,246.084 256,242.5C 255.333,243.833 254.667,245.167 254,246.5C 253.035,241.901 251.868,237.401 250.5,233C 250.645,231.774 250.978,230.607 251.5,229.5C 249.576,227.991 248.409,225.991 248,223.5C 247.259,222.359 246.425,222.359 245.5,223.5C 244.251,220.376 242.751,217.376 241,214.5C 241.437,218.443 239.771,220.776 236,221.5C 234.312,219.812 232.645,218.145 231,216.5C 228.828,218.518 226.495,218.851 224,217.5C 222,220.833 219.333,223.5 216,225.5C 213.898,229.929 211.398,234.095 208.5,238C 205.184,238.455 203.018,240.288 202,243.5C 200.989,242.663 199.822,242.33 198.5,242.5C 198.263,245.647 197.43,248.647 196,251.5C 195,252.833 194,252.833 193,251.5C 191.095,253.424 189.928,255.757 189.5,258.5C 188.675,259.386 187.675,259.719 186.5,259.5C 186.54,256.119 186.207,252.786 185.5,249.5C 183.599,249.567 181.766,249.233 180,248.5C 178.416,248.988 177.249,249.988 176.5,251.5C 175.522,251.023 174.689,250.357 174,249.5C 173.392,246.183 172.892,242.849 172.5,239.5C 173.858,233.887 174.358,228.22 174,222.5C 172.951,220.893 171.451,220.227 169.5,220.5C 169.625,224.791 168.958,228.957 167.5,233C 168.562,236.789 168.729,240.623 168,244.5C 167.333,245.167 166.667,245.833 166,246.5C 162.595,237.073 162.929,227.74 167,218.5C 167.718,219.451 168.551,219.617 169.5,219C 168.833,216.333 168.167,213.667 167.5,211C 168.955,205.977 169.788,200.81 170,195.5C 170.388,193.285 171.388,191.952 173,191.5C 173.921,178.147 176.588,165.147 181,152.5C 183.744,150.016 185.744,147.016 187,143.5C 187.899,138.236 189.565,133.236 192,128.5C 199.667,118.833 207.333,109.167 215,99.5C 219.366,94.7993 224.033,90.466 229,86.5C 234.609,77.5575 241.609,69.8908 250,63.5C 252.668,57.3097 257.168,53.1431 263.5,51C 269.1,49.6828 274.767,48.8495 280.5,48.5C 292.494,49.2716 304.494,49.9383 316.5,50.5C 328.981,49.1318 341.481,47.7985 354,46.5C 362.646,46.714 371.146,47.8807 379.5,50C 399.87,67.7018 417.37,87.8684 432,110.5C 441.568,134.242 445.401,158.909 443.5,184.5C 443.454,190.746 444.121,196.913 445.5,203C 444.197,207.113 443.03,211.28 442,215.5C 441.692,216.308 441.192,216.975 440.5,217.5C 437.863,214.584 435.697,214.917 434,218.5C 432.914,215.085 431.581,211.751 430,208.5C 427.417,211.997 425.084,215.664 423,219.5C 421.81,215.619 421.143,211.619 421,207.5C 420.586,207.957 420.086,208.291 419.5,208.5C 418.194,207.088 417.36,205.421 417,203.5C 416,202.833 415,202.167 414,201.5C 412.032,195.568 409.532,189.901 406.5,184.5C 406.005,187.47 404.505,189.804 402,191.5C 401.147,189.875 400.147,189.542 399,190.5C 397.738,186.687 397.071,182.687 397,178.5C 396.632,177.09 395.799,176.09 394.5,175.5C 393.833,177.5 393.167,179.5 392.5,181.5C 391.106,176.822 389.606,172.155 388,167.5C 387.001,172.813 386.668,178.146 387,183.5C 387.915,184.328 388.581,185.328 389,186.5C 390.353,185.315 391.52,183.981 392.5,182.5C 392.833,182.833 393.167,183.167 393.5,183.5C 394.13,187.125 395.13,190.625 396.5,194C 394.444,194.311 392.444,194.811 390.5,195.5C 389.757,194.092 388.923,192.759 388,191.5C 387.667,192.167 387.333,192.833 387,193.5C 385.105,201.839 383.771,210.505 383,219.5C 382.333,220.167 381.667,220.833 381,221.5C 381.445,229.097 380.945,236.763 379.5,244.5 Z"/></g>
<g><path style="opacity:1" fill="#00dec9" d="M 298.5,257.5 C 299.458,257.953 300.292,258.619 301,259.5C 302.511,263.18 302.677,266.846 301.5,270.5C 300.542,270.953 299.708,271.619 299,272.5C 297.224,267.535 297.058,262.535 298.5,257.5 Z"/></g>
<g><path style="opacity:1" fill="#0053e8" d="M 307.5,256.5 C 313.737,256.319 314.403,257.319 309.5,259.5C 308.167,261.5 306.5,263.167 304.5,264.5C 303.248,261.001 304.248,258.335 307.5,256.5 Z"/></g>
<g><path style="opacity:1" fill="#1030e1" d="M 325.5,240.5 C 325.5,241.167 325.5,241.833 325.5,242.5C 325.5,243.5 325.5,244.5 325.5,245.5C 323.821,245.285 322.821,245.952 322.5,247.5C 321.833,246.167 321.167,244.833 320.5,243.5C 321.486,241.592 323.152,240.592 325.5,240.5 Z"/></g>
<g><path style="opacity:1" fill="#0847e4" d="M 305.5,239.5 C 306.5,240.833 307.5,242.167 308.5,243.5C 308.5,244.5 308.5,245.5 308.5,246.5C 303.224,245.707 301.391,242.707 303,237.5C 303.417,238.756 304.25,239.423 305.5,239.5 Z"/></g>
<g><path style="opacity:1" fill="#005afb" d="M 323.5,231.5 C 324.552,231.351 325.552,231.517 326.5,232C 325.939,233.566 326.606,234.899 328.5,236C 323.926,237.47 319.592,239.137 315.5,241C 316.227,239.601 316.727,238.101 317,236.5C 319.071,234.563 321.238,232.896 323.5,231.5 Z"/></g>
<g><path style="opacity:1" fill="#21d680" d="M 349.5,233.5 C 347.926,235.102 347.259,237.102 347.5,239.5C 347.038,236.313 345.538,233.646 343,231.5C 342.601,231.728 342.435,232.062 342.5,232.5C 341.127,232.343 339.793,232.51 338.5,233C 337.642,234.788 336.642,236.622 335.5,238.5C 335.819,236.845 335.485,235.845 334.5,235.5C 333.022,233.355 331.688,231.021 330.5,228.5C 332.095,227.566 333.761,227.566 335.5,228.5C 341.35,228.456 346.35,227.956 350.5,227C 351.061,228.566 350.394,229.899 348.5,231C 349.252,231.671 349.586,232.504 349.5,233.5 Z"/></g>
<g><path style="opacity:1" fill="#1ceabf" d="M 316.5,218.5 C 318.338,217.322 320.005,217.655 321.5,219.5C 320.957,219.56 320.624,219.893 320.5,220.5C 322.788,222.267 324.121,224.6 324.5,227.5C 324.167,227.5 323.833,227.5 323.5,227.5C 322.479,227.899 322.146,229.233 322.5,231.5C 319.901,231.549 317.734,232.549 316,234.5C 315.346,237.008 314.179,239.174 312.5,241C 313.167,241.333 313.833,241.667 314.5,242C 312.496,243.562 310.496,244.062 308.5,243.5C 307.5,242.167 306.5,240.833 305.5,239.5C 307.946,238.608 308.612,237.108 307.5,235C 310.128,231.536 313.461,229.036 317.5,227.5C 318.386,226.675 318.719,225.675 318.5,224.5C 317.5,224.5 316.5,224.5 315.5,224.5C 315.5,224.167 315.5,223.833 315.5,223.5C 317.185,222.816 318.185,221.483 318.5,219.5C 318.043,218.702 317.376,218.369 316.5,218.5 Z"/></g>
<g><path style="opacity:1" fill="#0c41e9" d="M 323.5,227.5 C 323.833,227.5 324.167,227.5 324.5,227.5C 326.679,227.16 328.512,226.16 330,224.5C 330.167,224.833 330.333,225.167 330.5,225.5C 328.632,230.341 326.298,231.007 323.5,227.5 Z"/></g>
<g><path style="opacity:1" fill="#22e322" d="M 315.5,217.5 C 315.5,218.167 315.833,218.5 316.5,218.5C 317.376,218.369 318.043,218.702 318.5,219.5C 318.185,221.483 317.185,222.816 315.5,223.5C 315.141,221.515 314.308,220.849 313,221.5C 312.061,218.985 310.561,218.318 308.5,219.5C 308.5,218.5 308.5,217.5 308.5,216.5C 310.95,216.298 313.283,216.631 315.5,217.5 Z"/></g>
<g><path style="opacity:1" fill="#0054eb" d="M 305.5,218.5 C 306.391,219.11 307.391,219.443 308.5,219.5C 310.561,218.318 312.061,218.985 313,221.5C 314.308,220.849 315.141,221.515 315.5,223.5C 315.5,223.833 315.5,224.167 315.5,224.5C 315.565,224.938 315.399,225.272 315,225.5C 314,224.5 313,223.5 312,222.5C 310.027,223.64 308.193,224.973 306.5,226.5C 305.833,226.167 305.167,225.833 304.5,225.5C 301.167,227.167 297.833,228.833 294.5,230.5C 292.451,233.55 289.784,235.883 286.5,237.5C 281.377,234.977 281.377,232.644 286.5,230.5C 288.416,231.248 290.416,231.248 292.5,230.5C 292.626,227.532 294.126,225.532 297,224.5C 297.494,222.866 297.66,221.199 297.5,219.5C 300.272,218.655 302.938,218.321 305.5,218.5 Z"/></g>
<g><path style="opacity:1" fill="#1a4eb4" d="M 353.5,208.5 C 355.314,210.764 357.147,213.097 359,215.5C 359.667,216.833 359.667,218.167 359,219.5C 358.063,216.976 356.563,215.976 354.5,216.5C 356.207,217.873 357.54,219.539 358.5,221.5C 357.244,221.461 356.244,221.961 355.5,223C 356.945,224.71 357.778,226.544 358,228.5C 356.899,226.606 355.566,225.939 354,226.5C 353.308,227.025 352.808,227.692 352.5,228.5C 353.641,229.425 353.641,230.259 352.5,231C 353.672,231.419 354.672,232.085 355.5,233C 354.251,234.824 353.085,234.657 352,232.5C 351.691,234.391 352.525,235.725 354.5,236.5C 354.291,237.086 353.957,237.586 353.5,238C 355.671,239.174 356.671,241.007 356.5,243.5C 352.26,241.548 349.927,238.215 349.5,233.5C 349.586,232.504 349.252,231.671 348.5,231C 350.394,229.899 351.061,228.566 350.5,227C 346.35,227.956 341.35,228.456 335.5,228.5C 335.918,227.778 336.584,227.278 337.5,227C 331.296,227.007 330.63,226.007 335.5,224C 333.256,222.112 333.256,220.612 335.5,219.5C 341.5,218.167 347.5,218.167 353.5,219.5C 353.785,217.712 353.452,216.045 352.5,214.5C 351.817,214.863 351.15,215.196 350.5,215.5C 350.082,214.778 349.416,214.278 348.5,214C 350.5,213.667 352.5,213.333 354.5,213C 352.285,212.612 350.952,211.612 350.5,210C 351.737,209.768 352.737,209.268 353.5,208.5 Z"/></g>
<g><path style="opacity:1" fill="#29b297" d="M 348.5,219.5 C 349.222,219.918 349.722,220.584 350,221.5C 350.333,221.167 350.667,220.833 351,220.5C 351.772,222.955 350.939,224.622 348.5,225.5C 346.803,225.101 345.137,224.601 343.5,224C 344.833,223.333 344.833,222.667 343.5,222C 344.449,221.383 345.282,221.549 346,222.5C 346.698,221.309 347.531,220.309 348.5,219.5 Z"/></g>
<g><path style="opacity:1" fill="#074ad6" d="M 331.5,218.5 C 333.099,218.232 334.432,218.566 335.5,219.5C 333.143,219.337 330.81,219.503 328.5,220C 328.833,220.333 329.167,220.667 329.5,221C 326.518,221.703 323.851,221.203 321.5,219.5C 322.791,218.458 322.791,217.292 321.5,216C 322.167,215.833 322.833,215.667 323.5,215.5C 326.832,216.409 329.499,217.409 331.5,218.5 Z"/></g>
<g><path style="opacity:1" fill="#0bf0d6" d="M 296.5,211.5 C 297.239,211.369 297.906,211.536 298.5,212C 297.289,212.893 297.289,213.726 298.5,214.5C 299.417,213.873 300.417,213.539 301.5,213.5C 303.3,212.395 304.467,213.061 305,215.5C 305.671,214.748 306.504,214.414 307.5,214.5C 310.502,215.928 313.335,215.595 316,213.5C 316.75,214.126 317.584,214.626 318.5,215C 317.058,215.377 316.058,216.21 315.5,217.5C 313.283,216.631 310.95,216.298 308.5,216.5C 308.5,217.5 308.5,218.5 308.5,219.5C 307.391,219.443 306.391,219.11 305.5,218.5C 304.828,217.733 303.995,217.066 303,216.5C 301.887,217.711 300.72,217.711 299.5,216.5C 297.107,218.323 294.94,220.323 293,222.5C 291.1,221.923 289.267,221.256 287.5,220.5C 287.614,218.282 288.28,216.282 289.5,214.5C 290.117,214.389 290.617,214.056 291,213.5C 291.287,218.023 292.953,219.023 296,216.5C 296.494,214.866 296.66,213.199 296.5,211.5 Z"/></g>
<g><path style="opacity:1" fill="#15d1b7" d="M 334.5,203.5 C 336.258,203.877 337.925,204.544 339.5,205.5C 341.889,203.493 344.556,203.16 347.5,204.5C 347.101,205.521 345.767,205.854 343.5,205.5C 343.452,208.292 344.785,210.125 347.5,211C 347.335,212.117 347.002,213.284 346.5,214.5C 345.624,215.251 344.624,215.751 343.5,216C 345.782,217.297 348.115,217.797 350.5,217.5C 351.463,217.03 351.463,216.363 350.5,215.5C 351.15,215.196 351.817,214.863 352.5,214.5C 353.452,216.045 353.785,217.712 353.5,219.5C 347.5,218.167 341.5,218.167 335.5,219.5C 334.432,218.566 333.099,218.232 331.5,218.5C 332.919,217.549 334.585,217.216 336.5,217.5C 336.5,216.167 336.5,214.833 336.5,213.5C 334.473,213.662 332.473,213.495 330.5,213C 331.191,211.933 331.691,210.766 332,209.5C 333.337,211.004 335.004,212.004 337,212.5C 337.492,211.451 337.326,210.451 336.5,209.5C 337.376,208.749 338.376,208.249 339.5,208C 337.76,206.483 336.094,204.983 334.5,203.5 Z"/></g>
<g><path style="opacity:1" fill="#1fdc54" d="M 308.5,212.5 C 308.167,213.167 307.833,213.833 307.5,214.5C 306.504,214.414 305.671,214.748 305,215.5C 304.467,213.061 303.3,212.395 301.5,213.5C 301.167,212.167 300.833,210.833 300.5,209.5C 302.942,209.881 303.609,209.214 302.5,207.5C 303.833,206.5 305.167,205.5 306.5,204.5C 307.736,205.246 309.07,205.579 310.5,205.5C 310.366,209.153 308.7,210.653 305.5,210C 306.833,210.667 306.833,211.333 305.5,212C 306.448,212.483 307.448,212.649 308.5,212.5 Z"/></g>
<g><path style="opacity:1" fill="#208bd4" d="M 299.5,206.5 C 300.11,207.391 300.443,208.391 300.5,209.5C 300.833,210.833 301.167,212.167 301.5,213.5C 300.417,213.539 299.417,213.873 298.5,214.5C 297.289,213.726 297.289,212.893 298.5,212C 297.906,211.536 297.239,211.369 296.5,211.5C 295.791,210.596 294.791,210.263 293.5,210.5C 294.031,207.221 296.031,205.887 299.5,206.5 Z"/></g>
<g><path style="opacity:1" fill="#0f96d6" d="M 330.5,201.5 C 331.514,202.674 332.847,203.34 334.5,203.5C 336.094,204.983 337.76,206.483 339.5,208C 338.376,208.249 337.376,208.749 336.5,209.5C 337.326,210.451 337.492,211.451 337,212.5C 335.004,212.004 333.337,211.004 332,209.5C 331.691,210.766 331.191,211.933 330.5,213C 332.473,213.495 334.473,213.662 336.5,213.5C 336.5,214.833 336.5,216.167 336.5,217.5C 334.585,217.216 332.919,217.549 331.5,218.5C 329.499,217.409 326.832,216.409 323.5,215.5C 322.833,215.667 322.167,215.833 321.5,216C 322.791,217.292 322.791,218.458 321.5,219.5C 320.005,217.655 318.338,217.322 316.5,218.5C 315.833,218.5 315.5,218.167 315.5,217.5C 316.058,216.21 317.058,215.377 318.5,215C 317.584,214.626 316.75,214.126 316,213.5C 313.335,215.595 310.502,215.928 307.5,214.5C 307.833,213.833 308.167,213.167 308.5,212.5C 309.648,211.836 310.981,211.669 312.5,212C 311.521,210.221 311.854,208.555 313.5,207C 315.769,207.374 318.102,207.374 320.5,207C 323.092,203.87 326.425,202.036 330.5,201.5 Z"/></g>
<g><path style="opacity:1" fill="#004bd2" d="M 327.5,203.5 C 333.84,204.273 333.84,205.939 327.5,208.5C 325.07,206.963 325.07,205.296 327.5,203.5 Z"/></g>
<g><path style="opacity:1" fill="#0dc66f" d="M 343.5,200.5 C 348.189,199.181 349.522,200.514 347.5,204.5C 344.556,203.16 341.889,203.493 339.5,205.5C 337.925,204.544 336.258,203.877 334.5,203.5C 332.847,203.34 331.514,202.674 330.5,201.5C 328.302,200.835 325.969,200.168 323.5,199.5C 322.641,197.461 323.474,196.128 326,195.5C 330.756,197.686 335.422,200.019 340,202.5C 340.816,201.177 341.983,200.511 343.5,200.5 Z"/></g>
<g><path style="opacity:1" fill="#0ba461" d="M 368.5,234.5 C 367.067,233.167 365.733,231.667 364.5,230C 366.001,228.748 367.668,227.748 369.5,227C 367.965,224.376 366.798,221.543 366,218.5C 365.667,219.5 365.333,220.5 365,221.5C 363.979,218.895 363.145,216.228 362.5,213.5C 361.758,212.713 360.925,212.047 360,211.5C 359.896,208.337 359.729,205.337 359.5,202.5C 360.409,199.703 362.076,197.37 364.5,195.5C 366.661,198.642 366.994,201.976 365.5,205.5C 368.836,213.162 371.169,221.162 372.5,229.5C 371.313,229.554 369.98,229.887 368.5,230.5C 369.363,231.726 369.363,233.06 368.5,234.5 Z"/></g>
<g><path style="opacity:1" fill="#02bbaa" d="M 344.5,196.5 C 343.521,195.235 342.521,193.901 341.5,192.5C 338.612,196.058 339.279,198.724 343.5,200.5C 341.983,200.511 340.816,201.177 340,202.5C 335.422,200.019 330.756,197.686 326,195.5C 323.474,196.128 322.641,197.461 323.5,199.5C 325.969,200.168 328.302,200.835 330.5,201.5C 326.425,202.036 323.092,203.87 320.5,207C 318.102,207.374 315.769,207.374 313.5,207C 311.854,208.555 311.521,210.221 312.5,212C 310.981,211.669 309.648,211.836 308.5,212.5C 307.448,212.649 306.448,212.483 305.5,212C 306.833,211.333 306.833,210.667 305.5,210C 308.7,210.653 310.366,209.153 310.5,205.5C 309.07,205.579 307.736,205.246 306.5,204.5C 305.167,205.5 303.833,206.5 302.5,207.5C 303.609,209.214 302.942,209.881 300.5,209.5C 300.443,208.391 300.11,207.391 299.5,206.5C 299.5,205.833 299.5,205.167 299.5,204.5C 296.513,202.892 295.846,200.558 297.5,197.5C 303.579,196.034 309.746,195.034 316,194.5C 316.772,194.645 317.439,194.978 318,195.5C 318.309,194.234 318.809,193.067 319.5,192C 323.712,190.759 327.879,190.592 332,191.5C 334.68,190.33 337.347,189.33 340,188.5C 343.305,190.106 344.805,192.773 344.5,196.5 Z"/></g>
<g><path style="opacity:1" fill="#008bc1" d="M 299.5,204.5 C 297.656,197.391 299.99,195.724 306.5,199.5C 307.249,197.988 308.416,196.988 310,196.5C 312.464,197.161 314.964,197.661 317.5,198C 318.357,198.689 319.023,199.522 319.5,200.5C 316.243,201.236 313.076,202.236 310,203.5C 308.103,203.104 306.603,202.104 305.5,200.5C 304.376,201.914 303.376,203.414 302.5,205C 301.423,205.47 300.423,205.303 299.5,204.5 Z"/></g>
<g><path style="opacity:1" fill="#167db9" d="M 344.5,196.5 C 345.12,198.977 346.12,198.977 347.5,196.5C 349.271,197.035 349.604,197.869 348.5,199C 349.223,201.018 350.223,202.852 351.5,204.5C 352.167,205.833 352.833,207.167 353.5,208.5C 352.737,209.268 351.737,209.768 350.5,210C 350.952,211.612 352.285,212.612 354.5,213C 352.5,213.333 350.5,213.667 348.5,214C 349.416,214.278 350.082,214.778 350.5,215.5C 351.463,216.363 351.463,217.03 350.5,217.5C 348.115,217.797 345.782,217.297 343.5,216C 344.624,215.751 345.624,215.251 346.5,214.5C 347.002,213.284 347.335,212.117 347.5,211C 344.785,210.125 343.452,208.292 343.5,205.5C 345.767,205.854 347.101,205.521 347.5,204.5C 349.522,200.514 348.189,199.181 343.5,200.5C 339.279,198.724 338.612,196.058 341.5,192.5C 342.521,193.901 343.521,195.235 344.5,196.5 Z"/></g>
<g><path style="opacity:1" fill="#02ad5b" d="M 359.5,202.5 C 358.417,202.539 357.417,202.873 356.5,203.5C 354.52,201.205 353.353,198.539 353,195.5C 352.333,196.833 351.667,196.833 351,195.5C 350.54,198.304 351.04,200.971 352.5,203.5C 352.376,204.107 352.043,204.44 351.5,204.5C 350.223,202.852 349.223,201.018 348.5,199C 349.604,197.869 349.271,197.035 347.5,196.5C 346.12,198.977 345.12,198.977 344.5,196.5C 344.805,192.773 343.305,190.106 340,188.5C 337.347,189.33 334.68,190.33 332,191.5C 327.879,190.592 323.712,190.759 319.5,192C 318.809,193.067 318.309,194.234 318,195.5C 317.439,194.978 316.772,194.645 316,194.5C 309.746,195.034 303.579,196.034 297.5,197.5C 295.846,200.558 296.513,202.892 299.5,204.5C 299.5,205.167 299.5,205.833 299.5,206.5C 296.031,205.887 294.031,207.221 293.5,210.5C 294.791,210.263 295.791,210.596 296.5,211.5C 296.66,213.199 296.494,214.866 296,216.5C 292.953,219.023 291.287,218.023 291,213.5C 290.617,214.056 290.117,214.389 289.5,214.5C 287.321,214.84 285.488,215.84 284,217.5C 283.809,223.002 281.476,227.336 277,230.5C 275.833,228.167 274.667,225.833 273.5,223.5C 275.27,222.18 275.603,220.68 274.5,219C 275.249,217.266 275.749,215.433 276,213.5C 277.509,212.91 279.009,212.244 280.5,211.5C 282.037,207.421 283.871,203.421 286,199.5C 289.335,194.511 294.001,191.511 300,190.5C 303.815,190.777 307.648,191.11 311.5,191.5C 315.038,191.036 318.038,189.536 320.5,187C 326.573,186.158 332.573,184.992 338.5,183.5C 343.051,183.991 347.717,184.991 352.5,186.5C 352.687,188.564 353.187,190.564 354,192.5C 357.619,194.863 359.453,198.196 359.5,202.5 Z"/></g>
<g><path style="opacity:1" fill="#00a192" d="M 268.5,86.5 C 272.449,87.2246 275.949,88.8913 279,91.5C 279.383,94.4726 278.883,97.306 277.5,100C 278.479,103.364 277.313,105.864 274,107.5C 273.678,111.826 271.678,115.159 268,117.5C 268.316,121.137 266.982,123.804 264,125.5C 263.313,127.568 263.48,129.568 264.5,131.5C 263.855,132.646 263.022,133.646 262,134.5C 261.517,138.467 260.184,142.134 258,145.5C 253.058,151.445 247.725,157.111 242,162.5C 240.783,164.52 240.617,166.52 241.5,168.5C 239.5,171.5 237.5,174.5 235.5,177.5C 234.808,176.975 234.308,176.308 234,175.5C 232.104,177.53 229.937,179.197 227.5,180.5C 223.501,187.082 220.167,193.915 217.5,201C 216.167,201.667 214.833,201.667 213.5,201C 211.498,198.406 209.998,195.572 209,192.5C 207.52,196.615 205.853,200.615 204,204.5C 202.794,200.845 201.461,197.178 200,193.5C 199.922,191.343 199.755,189.343 199.5,187.5C 199.167,187.167 198.833,186.833 198.5,186.5C 197.248,188.001 196.248,189.668 195.5,191.5C 194.675,192.386 193.675,192.719 192.5,192.5C 193.338,181.658 193.504,170.658 193,159.5C 196.562,151.909 198.562,143.909 199,135.5C 200.08,133.004 201.414,130.67 203,128.5C 213.14,117.027 223.973,106.194 235.5,96C 241.56,94.1364 247.226,91.4698 252.5,88C 258.016,87.8267 263.349,87.3267 268.5,86.5 Z"/></g>
<g><path style="opacity:1" fill="#003aa2" d="M 324.5,82.5 C 329.716,83.8037 335.049,84.637 340.5,85C 344.335,86.8019 346.502,89.6352 347,93.5C 341.634,100.351 341.134,107.185 345.5,114C 348.76,114.975 351.927,116.142 355,117.5C 354.427,119.804 353.26,121.971 351.5,124C 352.861,125.584 353.528,127.418 353.5,129.5C 352.07,129.421 350.736,129.754 349.5,130.5C 348.167,132.833 346.833,135.167 345.5,137.5C 346.19,140.068 346.523,142.568 346.5,145C 345.167,146.333 343.833,147.667 342.5,149C 341.551,149.617 340.718,149.451 340,148.5C 338.983,150.376 338.149,152.376 337.5,154.5C 335.167,155.667 332.833,156.833 330.5,158C 328.963,159.11 328.297,160.61 328.5,162.5C 327.5,162.5 326.5,162.5 325.5,162.5C 325.261,164.467 325.594,166.301 326.5,168C 325.072,170.13 323.405,171.13 321.5,171C 322.627,173.298 322.294,175.465 320.5,177.5C 321.569,177.64 322.736,177.64 324,177.5C 324.465,178.931 325.299,180.097 326.5,181C 323.436,182.932 320.102,183.599 316.5,183C 319.73,181.276 320.064,179.276 317.5,177C 318.218,175.013 319.218,173.179 320.5,171.5C 318.905,170.232 316.905,170.232 314.5,171.5C 314.799,169.396 314.466,167.396 313.5,165.5C 309.56,161.856 305.226,158.69 300.5,156C 300.833,155.667 301.167,155.333 301.5,155C 298.376,151.275 299.043,148.608 303.5,147C 299.416,146.769 295.416,146.102 291.5,145C 294.378,142.299 294.544,139.799 292,137.5C 291.872,134.486 291.872,131.486 292,128.5C 290.341,127.183 289.174,125.517 288.5,123.5C 292.813,122.024 294.979,119.024 295,114.5C 296,113.5 297,112.5 298,111.5C 299.011,112.337 300.178,112.67 301.5,112.5C 301.253,109.413 300.253,106.58 298.5,104C 303.833,100.333 303.833,96.6667 298.5,93C 300.659,88.9141 303.992,86.2474 308.5,85C 313.988,84.2259 319.321,83.3925 324.5,82.5 Z"/></g>
<g><path style="opacity:1" fill="#0000a2" d="M 316.5,109.5 C 322.437,107.956 325.771,110.122 326.5,116C 329.206,117.548 332.04,118.714 335,119.5C 335.667,120.5 335.667,121.5 335,122.5C 333.596,124.394 332.43,126.394 331.5,128.5C 332.845,130.323 333.345,132.323 333,134.5C 331.647,136.434 330.147,138.267 328.5,140C 323.807,140.71 319.64,142.543 316,145.5C 314.667,144.833 313.333,144.167 312,143.5C 312.361,138.697 310.194,136.363 305.5,136.5C 306.011,133.307 306.678,130.141 307.5,127C 307.039,124.801 306.873,122.634 307,120.5C 310.223,119.277 311.889,116.944 312,113.5C 313.397,111.93 314.897,110.596 316.5,109.5 Z"/></g>
<g><path style="opacity:1" fill="#00a091" d="M 347.5,57.5 C 355.894,59.1461 363.894,60.3127 371.5,61C 374.6,62.7802 374.6,65.1135 371.5,68C 372.071,69.2051 372.738,70.3717 373.5,71.5C 376.057,72.4067 378.557,73.4067 381,74.5C 382.319,72.7505 382.819,70.7505 382.5,68.5C 384.564,68.687 386.564,69.187 388.5,70C 394.645,75.9011 400.978,81.5678 407.5,87C 413.879,95.59 420.379,104.09 427,112.5C 429.101,120.497 431.267,128.497 433.5,136.5C 432.9,138.936 431.4,140.602 429,141.5C 428.5,143 428,144.5 427.5,146C 431.32,158.386 431.987,170.886 429.5,183.5C 428.178,183.67 427.011,183.337 426,182.5C 420.973,176.129 416.473,168.796 412.5,160.5C 411.963,164.436 412.629,168.269 414.5,172C 413.365,172.749 412.365,172.583 411.5,171.5C 410.608,168.716 409.442,166.05 408,163.5C 404.104,161.799 400.604,159.466 397.5,156.5C 396.091,152.236 394.925,147.903 394,143.5C 389.946,141.985 385.946,140.319 382,138.5C 380.999,135.827 379.499,133.493 377.5,131.5C 379.501,129.513 380.335,127.18 380,124.5C 377.148,120.796 374.815,116.796 373,112.5C 369.167,110 365.333,107.5 361.5,105C 362.308,102.912 363.308,100.912 364.5,99C 363.344,96.5602 363.344,94.0602 364.5,91.5C 362.209,87.7712 359.543,84.2712 356.5,81C 349.325,78.0346 341.992,75.368 334.5,73C 329.006,72.9892 323.84,71.8226 319,69.5C 309.505,72.7445 300.005,75.7445 290.5,78.5C 289.5,78.1667 288.5,77.8333 287.5,77.5C 288.747,75.9579 288.747,74.4579 287.5,73C 282.701,73.2077 280.868,71.0411 282,66.5C 286.449,63.0538 291.115,62.7205 296,65.5C 298.854,64.886 301.687,64.2193 304.5,63.5C 311.348,63.3528 318.182,63.3528 325,63.5C 332.666,61.7024 340.166,59.7024 347.5,57.5 Z"/></g>
<g><path style="opacity:1" fill="#0000a2" d="M 368.5,257.5 C 369.822,257.33 370.989,257.663 372,258.5C 372.758,260.769 372.591,262.936 371.5,265C 373.476,267.078 374.643,269.245 375,271.5C 376.333,270.833 377.667,270.167 379,269.5C 379.217,266.512 380.217,263.845 382,261.5C 383.571,263.923 385.737,265.256 388.5,265.5C 388.799,267.604 388.466,269.604 387.5,271.5C 382.656,271.952 381.656,273.952 384.5,277.5C 383.726,278.711 382.893,278.711 382,277.5C 378.558,279.772 374.725,280.605 370.5,280C 370.388,276.168 370.388,272.335 370.5,268.5C 368.779,265.092 368.112,261.425 368.5,257.5 Z"/></g>
<g><path style="opacity:1" fill="#16b48a" d="M 389.5,259.5 C 392.022,259.128 394.022,259.961 395.5,262C 391.157,265.621 389.157,264.788 389.5,259.5 Z"/></g>
<g><path style="opacity:1" fill="#13a894" d="M 346.5,246.5 C 346.056,248.113 345.056,249.28 343.5,250C 344.38,251.356 344.714,252.856 344.5,254.5C 345.5,254.5 346.5,254.5 347.5,254.5C 349.066,258.243 348.399,261.576 345.5,264.5C 347.396,265.466 349.396,265.799 351.5,265.5C 352.092,262.873 352.425,260.206 352.5,257.5C 353.5,257.5 354.5,257.5 355.5,257.5C 355.938,257.435 356.272,257.601 356.5,258C 354.82,258.347 353.82,259.347 353.5,261C 354.384,262.098 355.384,262.598 356.5,262.5C 355.11,264.169 354.777,265.836 355.5,267.5C 358.916,265.752 361.25,263.086 362.5,259.5C 364.022,260.191 365.022,261.358 365.5,263C 364.253,267.631 363.42,267.464 363,262.5C 361.199,264.138 361.032,265.972 362.5,268C 361.176,270.494 360.176,272.994 359.5,275.5C 359.66,273.801 359.494,272.134 359,270.5C 358.963,272.974 358.13,274.974 356.5,276.5C 356.179,274.952 355.179,274.285 353.5,274.5C 353.804,273.85 354.137,273.183 354.5,272.5C 352.78,271.066 350.78,270.233 348.5,270C 347.953,269.075 347.287,268.242 346.5,267.5C 345.05,268.655 344.05,270.155 343.5,272C 345.112,272.72 346.612,272.554 348,271.5C 348.5,272 349,272.5 349.5,273C 348.29,274.039 347.29,275.206 346.5,276.5C 344.177,274.509 341.511,273.176 338.5,272.5C 336.393,273.034 334.393,272.367 332.5,270.5C 332.968,268.866 333.968,267.7 335.5,267C 334.953,266.075 334.287,265.242 333.5,264.5C 332.145,266.521 330.479,268.188 328.5,269.5C 328.481,267.94 328.148,266.44 327.5,265C 328.071,263.401 329.071,262.234 330.5,261.5C 331.864,259.78 332.864,257.78 333.5,255.5C 335.369,254.376 337.369,253.543 339.5,253C 340.945,251.29 341.778,249.456 342,247.5C 340.658,248.902 339.824,248.569 339.5,246.5C 340.115,242.086 341.115,241.753 342.5,245.5C 344.012,246.088 345.345,246.422 346.5,246.5 Z"/></g>
<g><path style="opacity:1" fill="#056e9d" d="M 340.5,255.5 C 341.411,257.916 342.411,260.416 343.5,263C 342.972,265.862 342.305,268.696 341.5,271.5C 338.088,266.418 337.755,261.085 340.5,255.5 Z"/></g>
<g><path style="opacity:1" fill="#2aec00" d="M 365.5,268.5 C 365.737,269.791 365.404,270.791 364.5,271.5C 362.883,268.924 363.217,267.924 365.5,268.5 Z"/></g>
<g><path style="opacity:1" fill="#1578c1" d="M 353.5,274.5 C 351.5,275.167 349.5,275.833 347.5,276.5C 347.167,276.5 346.833,276.5 346.5,276.5C 347.29,275.206 348.29,274.039 349.5,273C 349,272.5 348.5,272 348,271.5C 346.612,272.554 345.112,272.72 343.5,272C 344.05,270.155 345.05,268.655 346.5,267.5C 347.287,268.242 347.953,269.075 348.5,270C 350.78,270.233 352.78,271.066 354.5,272.5C 354.137,273.183 353.804,273.85 353.5,274.5 Z"/></g>
<g><path style="opacity:1" fill="#003eae" d="M 359.5,275.5 C 360.234,276.708 360.567,278.041 360.5,279.5C 358.801,279.66 357.134,279.494 355.5,279C 356.252,278.329 356.586,277.496 356.5,276.5C 358.13,274.974 358.963,272.974 359,270.5C 359.494,272.134 359.66,273.801 359.5,275.5 Z"/></g>
<g><path style="opacity:1" fill="#09a527" d="M 338.5,272.5 C 341.511,273.176 344.177,274.509 346.5,276.5C 346.833,276.5 347.167,276.5 347.5,276.5C 348.071,277.973 348.071,279.64 347.5,281.5C 346.391,281.443 345.391,281.11 344.5,280.5C 343.167,278.833 341.833,277.167 340.5,275.5C 339.449,274.778 338.782,273.778 338.5,272.5 Z"/></g>
<g><path style="opacity:1" fill="#0979a0" d="M 338.5,272.5 C 338.782,273.778 339.449,274.778 340.5,275.5C 339.522,275.811 338.855,276.478 338.5,277.5C 339.5,279.833 341.167,281.5 343.5,282.5C 341.747,284.7 339.414,285.867 336.5,286C 335.663,287.011 335.33,288.178 335.5,289.5C 334.833,290.167 334.167,290.833 333.5,291.5C 333.586,290.504 333.252,289.671 332.5,289C 333.167,288.667 333.833,288.333 334.5,288C 331.956,286.437 331.956,284.937 334.5,283.5C 333.675,282.614 332.675,282.281 331.5,282.5C 330.194,281.533 329.527,280.199 329.5,278.5C 331.854,278.162 334.187,277.662 336.5,277C 335.929,275.795 335.262,274.628 334.5,273.5C 333.482,274.193 332.482,274.859 331.5,275.5C 330.504,275.414 329.671,275.748 329,276.5C 328.667,274.833 328.333,273.167 328,271.5C 326.333,272.833 324.667,272.833 323,271.5C 323.038,266.693 324.704,266.36 328,270.5C 328.399,270.272 328.565,269.938 328.5,269.5C 330.479,268.188 332.145,266.521 333.5,264.5C 334.287,265.242 334.953,266.075 335.5,267C 333.968,267.7 332.968,268.866 332.5,270.5C 334.393,272.367 336.393,273.034 338.5,272.5 Z"/></g>
<g><path style="opacity:1" fill="#15a1a1" d="M 353.5,274.5 C 353.047,275.458 352.381,276.292 351.5,277C 355.325,278.768 355.325,280.768 351.5,283C 352.056,283.383 352.389,283.883 352.5,284.5C 350.152,284.408 348.486,283.408 347.5,281.5C 348.071,279.64 348.071,277.973 347.5,276.5C 349.5,275.833 351.5,275.167 353.5,274.5 Z"/></g>
<g><path style="opacity:1" fill="#0336a8" d="M 331.5,282.5 C 326.933,285.664 325.267,284.664 326.5,279.5C 328.349,278.407 330.016,277.074 331.5,275.5C 332.482,274.859 333.482,274.193 334.5,273.5C 335.262,274.628 335.929,275.795 336.5,277C 334.187,277.662 331.854,278.162 329.5,278.5C 329.527,280.199 330.194,281.533 331.5,282.5 Z"/></g>
<g><path style="opacity:1" fill="#004eda" d="M 305.5,284.5 C 305.5,284.833 305.5,285.167 305.5,285.5C 300.392,284.678 299.392,282.345 302.5,278.5C 303.518,280.594 304.518,282.594 305.5,284.5 Z"/></g>
<g><path style="opacity:1" fill="#0074a0" d="M 413.5,459.5 C 408.559,460.986 403.559,462.319 398.5,463.5C 398.67,462.178 398.337,461.011 397.5,460C 394.833,459.333 392.167,459.333 389.5,460C 364.867,466.322 340.534,473.655 316.5,482C 285.032,488.283 254.032,496.283 223.5,506C 220.156,507.767 219.156,510.267 220.5,513.5C 214.5,515.167 208.5,516.833 202.5,518.5C 201.332,515.496 201.332,512.496 202.5,509.5C 202.077,506.892 201.077,504.558 199.5,502.5C 183.134,498.399 169.301,490.066 158,477.5C 151,464.833 144,452.167 137,439.5C 131.781,428.395 127.114,417.062 123,405.5C 121.846,397.065 120.18,388.731 118,380.5C 117.001,371.516 116.168,362.516 115.5,353.5C 115.744,347.381 116.577,341.381 118,335.5C 118.333,337.167 118.667,338.833 119,340.5C 126.347,352.873 132.347,365.873 137,379.5C 142,386.833 147,394.167 152,401.5C 156.879,414.253 162.545,426.587 169,438.5C 177.192,445.936 185.192,453.603 193,461.5C 197.667,468.167 202.333,474.833 207,481.5C 211.314,486.073 216.48,489.239 222.5,491C 227.932,491.921 233.265,493.255 238.5,495C 241.833,495.667 245.167,495.667 248.5,495C 271.285,488.776 294.285,483.443 317.5,479C 336.66,472.419 355.993,466.419 375.5,461C 386.911,454.086 397.911,446.586 408.5,438.5C 416.271,427.298 422.771,415.298 428,402.5C 434.251,393.001 440.251,383.334 446,373.5C 456.326,346.188 465.66,318.522 474,290.5C 475.497,286.835 477.497,283.502 480,280.5C 480.667,288.833 480.667,297.167 480,305.5C 478.075,315.125 476.408,324.791 475,334.5C 469.002,355.494 462.002,376.161 454,396.5C 447.853,408.966 440.52,420.633 432,431.5C 427,435.833 422,440.167 417,444.5C 414.878,449.274 413.712,454.274 413.5,459.5 Z"/></g>
<g><path style="opacity:1" fill="#31a78e" d="M 326.5,279.5 C 325.267,284.664 326.933,285.664 331.5,282.5C 332.675,282.281 333.675,282.614 334.5,283.5C 331.956,284.937 331.956,286.437 334.5,288C 333.833,288.333 333.167,288.667 332.5,289C 333.252,289.671 333.586,290.504 333.5,291.5C 333.517,293.028 334.184,293.528 335.5,293C 336.684,291.855 336.684,290.688 335.5,289.5C 335.33,288.178 335.663,287.011 336.5,286C 339.414,285.867 341.747,284.7 343.5,282.5C 341.167,281.5 339.5,279.833 338.5,277.5C 338.855,276.478 339.522,275.811 340.5,275.5C 341.833,277.167 343.167,278.833 344.5,280.5C 344.945,283.365 344.278,285.865 342.5,288C 344.437,288.122 345.77,288.955 346.5,290.5C 345.5,290.833 344.833,291.5 344.5,292.5C 343.571,293.315 342.571,294.148 341.5,295C 342.449,295.617 343.282,295.451 344,294.5C 347.205,297.6 346.538,298.267 342,296.5C 339.708,296.781 337.542,297.448 335.5,298.5C 338.372,301.775 337.538,303.775 333,304.5C 331.605,304.22 330.438,303.553 329.5,302.5C 330.826,302.795 332.159,302.295 333.5,301C 329.488,299.197 329.822,298.197 334.5,298C 332.809,296.595 330.976,295.428 329,294.5C 327.484,297.051 326.651,296.718 326.5,293.5C 327.738,293.19 327.738,292.69 326.5,292C 324.833,291.167 323.167,290.333 321.5,289.5C 320.232,290.428 318.899,290.595 317.5,290C 317.36,288.736 317.36,287.569 317.5,286.5C 316.914,286.709 316.414,287.043 316,287.5C 312.463,285.895 308.963,285.228 305.5,285.5C 305.5,285.167 305.5,284.833 305.5,284.5C 305.5,283.5 305.5,282.5 305.5,281.5C 306.833,281.5 308.167,281.5 309.5,281.5C 310.5,281.5 311.5,281.5 312.5,281.5C 312.238,282.978 312.571,284.311 313.5,285.5C 314.72,284.289 315.887,284.289 317,285.5C 317.833,283.833 318.667,282.167 319.5,280.5C 317.543,276.672 318.543,274.838 322.5,275C 321.027,275.71 320.36,276.876 320.5,278.5C 322.5,278.833 324.5,279.167 326.5,279.5 Z"/></g>
<g><path style="opacity:1" fill="#0239aa" d="M 286.5,287.5 C 285.391,287.557 284.391,287.89 283.5,288.5C 282.5,288.5 281.5,288.5 280.5,288.5C 280.5,287.5 280.5,286.5 280.5,285.5C 283.082,285.025 285.082,285.692 286.5,287.5 Z"/></g>
<g><path style="opacity:1" fill="#1687bb" d="M 344.5,280.5 C 345.391,281.11 346.391,281.443 347.5,281.5C 348.486,283.408 350.152,284.408 352.5,284.5C 354.355,284.272 355.188,284.939 355,286.5C 352.17,288.787 349.337,290.121 346.5,290.5C 345.77,288.955 344.437,288.122 342.5,288C 344.278,285.865 344.945,283.365 344.5,280.5 Z"/></g>
<g><path style="opacity:1" fill="#127aa9" d="M 286.5,287.5 C 287.167,287.5 287.833,287.5 288.5,287.5C 287.027,289.593 287.527,291.26 290,292.5C 290.893,291.289 291.726,291.289 292.5,292.5C 291.273,293.59 290.44,294.924 290,296.5C 287.619,294.279 285.119,292.279 282.5,290.5C 283.338,290.158 283.672,289.492 283.5,288.5C 284.391,287.89 285.391,287.557 286.5,287.5 Z"/></g>
<g><path style="opacity:1" fill="#17a27f" d="M 383.5,286.5 C 384.354,288.035 384.354,289.368 383.5,290.5C 381.621,290.393 381.288,290.893 382.5,292C 379.5,292.667 376.5,292.667 373.5,292C 374.772,290.754 375.105,289.587 374.5,288.5C 372.565,291.569 370.898,291.736 369.5,289C 370.956,288.577 371.456,287.744 371,286.5C 369.927,287.28 368.76,287.113 367.5,286C 370.363,285.677 373.196,284.51 376,282.5C 378.055,283.692 380.055,283.692 382,282.5C 383.188,283.563 383.688,284.897 383.5,286.5 Z"/></g>
<g><path style="opacity:1" fill="#26c861" d="M 353.5,274.5 C 355.179,274.285 356.179,274.952 356.5,276.5C 356.586,277.496 356.252,278.329 355.5,279C 357.134,279.494 358.801,279.66 360.5,279.5C 360.084,281.752 358.751,283.252 356.5,284C 358.593,285.927 360.593,285.76 362.5,283.5C 363.524,284.853 364.857,285.52 366.5,285.5C 366.5,286.833 366.5,288.167 366.5,289.5C 364.128,290.914 361.961,290.58 360,288.5C 358.833,290.167 357.667,291.833 356.5,293.5C 356.346,292.091 356.179,290.424 356,288.5C 354.513,289.253 354.346,290.086 355.5,291C 353.926,291.336 352.592,292.169 351.5,293.5C 352.376,294.251 353.376,294.751 354.5,295C 353.619,295.708 352.953,296.542 352.5,297.5C 351.007,300.935 349.34,301.101 347.5,298C 348.624,297.751 349.624,297.251 350.5,296.5C 350.062,295.494 349.396,295.494 348.5,296.5C 346.997,295.41 346.664,294.243 347.5,293C 346.552,292.517 345.552,292.351 344.5,292.5C 344.833,291.5 345.5,290.833 346.5,290.5C 349.337,290.121 352.17,288.787 355,286.5C 355.188,284.939 354.355,284.272 352.5,284.5C 352.389,283.883 352.056,283.383 351.5,283C 355.325,280.768 355.325,278.768 351.5,277C 352.381,276.292 353.047,275.458 353.5,274.5 Z"/></g>
<g><path style="opacity:1" fill="#071dc9" d="M 335.5,289.5 C 336.684,290.688 336.684,291.855 335.5,293C 334.184,293.528 333.517,293.028 333.5,291.5C 334.167,290.833 334.833,290.167 335.5,289.5 Z"/></g>
<g><path style="opacity:1" fill="#0341b0" d="M 301.5,294.5 C 304.302,296.35 307.302,298.183 310.5,300C 307.778,303.614 308.611,304.781 313,303.5C 314.188,304.563 314.688,305.897 314.5,307.5C 313.127,307.343 311.793,307.51 310.5,308C 311.597,310.3 313.431,311.467 316,311.5C 318.349,309.243 321.182,307.91 324.5,307.5C 325.045,309.042 326.711,309.875 329.5,310C 327.45,311.332 325.45,311.498 323.5,310.5C 320.361,310.8 318.695,312.133 318.5,314.5C 317.5,313.833 316.5,313.167 315.5,312.5C 313.902,313.485 312.235,313.651 310.5,313C 306.906,309.289 302.739,306.456 298,304.5C 297.312,303.668 297.479,303.002 298.5,302.5C 300.332,301.752 301.999,300.752 303.5,299.5C 302.224,298.355 300.891,298.355 299.5,299.5C 298.735,298.388 297.735,297.721 296.5,297.5C 292.874,295.926 292.874,294.593 296.5,293.5C 296.109,294.891 296.942,295.891 299,296.5C 299.708,295.619 300.542,294.953 301.5,294.5 Z"/></g>
<g><path style="opacity:1" fill="#00a257" d="M 288.5,287.5 C 287.833,287.5 287.167,287.5 286.5,287.5C 285.082,285.692 283.082,285.025 280.5,285.5C 280.5,286.5 280.5,287.5 280.5,288.5C 281.5,288.5 282.5,288.5 283.5,288.5C 283.672,289.492 283.338,290.158 282.5,290.5C 279.728,290.78 277.228,290.113 275,288.5C 274.219,289.729 273.719,291.062 273.5,292.5C 274.959,294.583 276.292,296.75 277.5,299C 279.035,299.496 280.535,299.33 282,298.5C 283.964,299.852 286.131,300.686 288.5,301C 277.671,301.745 276.838,304.578 286,309.5C 286.595,310.899 286.428,312.232 285.5,313.5C 288.524,317.034 291.19,320.867 293.5,325C 295.917,326.3 298.417,326.134 301,324.5C 301.36,326.608 302.027,328.608 303,330.5C 304.814,329.24 306.647,329.24 308.5,330.5C 306.042,334.715 302.875,335.715 299,333.5C 298.667,333.833 298.333,334.167 298,334.5C 296.416,333.139 294.582,332.472 292.5,332.5C 292.5,331.5 292.5,330.5 292.5,329.5C 291.448,329.649 290.448,329.483 289.5,329C 288.072,326.815 286.405,324.815 284.5,323C 282.473,323.498 280.473,323.331 278.5,322.5C 276.882,318.719 274.382,315.719 271,313.5C 269.123,308.711 269.29,304.044 271.5,299.5C 269.655,293.794 268.321,287.961 267.5,282C 268.623,276.885 269.29,271.719 269.5,266.5C 270.755,260.657 271.922,254.657 273,248.5C 273.667,249.833 274.333,249.833 275,248.5C 276.259,251.026 276.259,253.359 275,255.5C 274.625,264.938 273.958,274.271 273,283.5C 273.915,284.328 274.581,285.328 275,286.5C 275.956,285.421 276.789,284.255 277.5,283C 278.784,282.316 279.951,282.483 281,283.5C 281.725,280.623 281.225,277.957 279.5,275.5C 282.033,270.432 284.2,270.432 286,275.5C 286.711,277.899 286.544,280.232 285.5,282.5C 287.278,283.726 288.278,285.393 288.5,287.5 Z"/></g>
<g><path style="opacity:1" fill="#10b08d" d="M 323.5,303.5 C 323.5,304.167 323.5,304.833 323.5,305.5C 319.396,306.534 316.396,305.034 314.5,301C 317.664,301.042 320.664,301.876 323.5,303.5 Z"/></g>
<g><path style="opacity:1" fill="#176695" d="M 326.5,293.5 C 326.651,296.718 327.484,297.051 329,294.5C 330.976,295.428 332.809,296.595 334.5,298C 329.822,298.197 329.488,299.197 333.5,301C 332.159,302.295 330.826,302.795 329.5,302.5C 330.438,303.553 331.605,304.22 333,304.5C 337.538,303.775 338.372,301.775 335.5,298.5C 337.542,297.448 339.708,296.781 342,296.5C 346.538,298.267 347.205,297.6 344,294.5C 343.282,295.451 342.449,295.617 341.5,295C 342.571,294.148 343.571,293.315 344.5,292.5C 345.552,292.351 346.552,292.517 347.5,293C 346.664,294.243 346.997,295.41 348.5,296.5C 349.396,295.494 350.062,295.494 350.5,296.5C 349.624,297.251 348.624,297.751 347.5,298C 349.34,301.101 351.007,300.935 352.5,297.5C 353.534,299.101 353.867,301.101 353.5,303.5C 352.099,304.521 350.765,305.521 349.5,306.5C 348.504,306.586 347.671,306.252 347,305.5C 346.798,303.744 346.298,302.078 345.5,300.5C 344.549,299.674 343.549,299.508 342.5,300C 342.833,300.333 343.167,300.667 343.5,301C 342.167,301.667 340.833,302.333 339.5,303C 341.283,304.067 341.783,305.567 341,307.5C 340.439,306.978 339.772,306.645 339,306.5C 329.17,310.673 329.503,311.673 340,309.5C 341.762,309.944 341.595,310.444 339.5,311C 340.056,311.383 340.389,311.883 340.5,312.5C 337.652,313.772 334.652,314.605 331.5,315C 329.18,317.162 326.513,318.662 323.5,319.5C 322.844,318.722 322.011,318.056 321,317.5C 320.235,317.57 319.735,317.903 319.5,318.5C 319.167,318.5 318.833,318.5 318.5,318.5C 318.062,318.565 317.728,318.399 317.5,318C 318.957,316.303 320.623,314.803 322.5,313.5C 323.386,312.675 323.719,311.675 323.5,310.5C 325.45,311.498 327.45,311.332 329.5,310C 326.711,309.875 325.045,309.042 324.5,307.5C 324.672,306.508 324.338,305.842 323.5,305.5C 323.5,304.833 323.5,304.167 323.5,303.5C 324.967,304.292 326.3,304.292 327.5,303.5C 326.385,302.402 326.385,301.235 327.5,300C 326.244,298.155 325.244,296.155 324.5,294C 324.683,292.316 325.35,292.15 326.5,293.5 Z"/></g>
<g><path style="opacity:1" fill="#009f90" d="M 420.5,308.5 C 422.371,308.859 423.871,309.859 425,311.5C 426.075,315.858 425.408,319.858 423,323.5C 423.364,334.189 421.197,344.189 416.5,353.5C 418.504,361.117 417.171,368.117 412.5,374.5C 411.575,375.641 410.741,375.641 410,374.5C 407.977,377.52 405.31,379.854 402,381.5C 398.227,390.885 393.06,399.385 386.5,407C 382.926,409.536 379.092,410.37 375,409.5C 365.2,413.817 360.367,410.817 360.5,400.5C 363.279,395.219 367.446,391.552 373,389.5C 374.187,387.956 374.52,386.289 374,384.5C 372.817,385.731 371.651,385.731 370.5,384.5C 371.641,383.575 371.641,382.741 370.5,382C 373.688,380.066 375.188,377.232 375,373.5C 376.141,371.391 377.641,369.558 379.5,368C 378.24,366.186 378.24,364.353 379.5,362.5C 381.485,360.543 382.985,358.21 384,355.5C 388.145,354.359 390.478,351.692 391,347.5C 393.629,345.527 395.129,342.861 395.5,339.5C 397.574,336.118 399.741,332.785 402,329.5C 402.923,330.759 403.757,332.092 404.5,333.5C 406.621,332.65 408.788,331.65 411,330.5C 413.584,325.834 415.751,321.001 417.5,316C 420.04,314.187 421.04,311.687 420.5,308.5 Z"/></g>
<g><path style="opacity:1" fill="#0375a4" d="M 288.5,302.5 C 290.936,305.603 293.102,308.936 295,312.5C 296,313.833 297,313.833 298,312.5C 299.158,312.998 299.991,313.831 300.5,315C 299.965,317.936 299.965,320.603 300.5,323C 298.765,323.651 297.098,323.485 295.5,322.5C 293.093,319.098 290.426,315.931 287.5,313C 289.223,309.592 288.223,307.259 284.5,306C 285.591,304.45 286.924,303.283 288.5,302.5 Z"/></g>
<g><path style="opacity:1" fill="#18818f" d="M 296.5,297.5 C 297.735,297.721 298.735,298.388 299.5,299.5C 300.891,298.355 302.224,298.355 303.5,299.5C 301.999,300.752 300.332,301.752 298.5,302.5C 297.479,303.002 297.312,303.668 298,304.5C 302.739,306.456 306.906,309.289 310.5,313C 312.235,313.651 313.902,313.485 315.5,312.5C 316.5,313.167 317.5,313.833 318.5,314.5C 318.695,312.133 320.361,310.8 323.5,310.5C 323.719,311.675 323.386,312.675 322.5,313.5C 320.623,314.803 318.957,316.303 317.5,318C 317.728,318.399 318.062,318.565 318.5,318.5C 317.329,319.345 315.995,320.011 314.5,320.5C 313.167,320.5 311.833,320.5 310.5,320.5C 312.116,319.011 314.116,318.011 316.5,317.5C 316.113,316.28 315.28,315.613 314,315.5C 310.785,316.809 308.618,315.809 307.5,312.5C 303.995,309.486 300.162,306.819 296,304.5C 295.821,301.812 295.988,299.478 296.5,297.5 Z"/></g>
<g><path style="opacity:1" fill="#0c8077" d="M 349.5,306.5 C 352.598,306.413 352.932,306.913 350.5,308C 353.167,308.667 353.167,309.333 350.5,310C 350.957,310.414 351.291,310.914 351.5,311.5C 350.441,313.534 349.441,315.534 348.5,317.5C 346.528,320.582 343.695,322.582 340,323.5C 339.195,321.099 338.362,321.266 337.5,324C 333.835,325.497 330.502,327.497 327.5,330C 323.83,328.954 320.33,329.454 317,331.5C 316.448,328.72 315.948,326.22 315.5,324C 317.464,322.549 318.797,320.716 319.5,318.5C 319.735,317.903 320.235,317.57 321,317.5C 322.011,318.056 322.844,318.722 323.5,319.5C 320.948,321.163 321.114,322.83 324,324.5C 326.927,321.494 329.927,321.161 333,323.5C 336.69,320.309 340.523,317.309 344.5,314.5C 344.167,314.167 343.833,313.833 343.5,313.5C 342.131,315.124 340.464,315.624 338.5,315C 339.672,314.581 340.672,313.915 341.5,313C 341.272,312.601 340.938,312.435 340.5,312.5C 340.389,311.883 340.056,311.383 339.5,311C 341.595,310.444 341.762,309.944 340,309.5C 329.503,311.673 329.17,310.673 339,306.5C 339.772,306.645 340.439,306.978 341,307.5C 341.783,305.567 341.283,304.067 339.5,303C 340.833,302.333 342.167,301.667 343.5,301C 343.167,300.667 342.833,300.333 342.5,300C 343.549,299.508 344.549,299.674 345.5,300.5C 346.298,302.078 346.798,303.744 347,305.5C 347.671,306.252 348.504,306.586 349.5,306.5 Z"/></g>
<g><path style="opacity:1" fill="#13a390" d="M 366.5,289.5 C 368.355,288.206 368.689,288.539 367.5,290.5C 365.452,291.456 363.452,292.456 361.5,293.5C 363.836,296.355 365.669,296.022 367,292.5C 367.167,292.833 367.333,293.167 367.5,293.5C 366.109,295.62 365.442,297.953 365.5,300.5C 367.149,304.866 365.816,307.866 361.5,309.5C 361.344,305.865 360.178,305.532 358,308.5C 355.965,314.235 353.132,319.569 349.5,324.5C 350.485,326.098 350.651,327.765 350,329.5C 349.667,329.167 349.333,328.833 349,328.5C 348.721,334.109 346.054,338.109 341,340.5C 339.149,338.219 337.482,338.219 336,340.5C 333.961,339.022 333.128,337.022 333.5,334.5C 331.833,334.5 330.167,334.5 328.5,334.5C 331.327,332.595 334.16,330.595 337,328.5C 338.868,329.672 340.702,329.505 342.5,328C 346.369,324.466 349.869,320.633 353,316.5C 354.885,314.086 355.552,311.419 355,308.5C 353.802,312.24 351.635,315.24 348.5,317.5C 349.441,315.534 350.441,313.534 351.5,311.5C 351.291,310.914 350.957,310.414 350.5,310C 353.167,309.333 353.167,308.667 350.5,308C 352.932,306.913 352.598,306.413 349.5,306.5C 350.765,305.521 352.099,304.521 353.5,303.5C 353.867,301.101 353.534,299.101 352.5,297.5C 352.953,296.542 353.619,295.708 354.5,295C 353.376,294.751 352.376,294.251 351.5,293.5C 352.592,292.169 353.926,291.336 355.5,291C 354.346,290.086 354.513,289.253 356,288.5C 356.179,290.424 356.346,292.091 356.5,293.5C 357.667,291.833 358.833,290.167 360,288.5C 361.961,290.58 364.128,290.914 366.5,289.5 Z"/></g>
<g><path style="opacity:1" fill="#16a63f" d="M 307.5,312.5 C 308.618,315.809 310.785,316.809 314,315.5C 315.28,315.613 316.113,316.28 316.5,317.5C 314.116,318.011 312.116,319.011 310.5,320.5C 309.374,319.286 308.041,318.286 306.5,317.5C 304.962,317.453 303.962,318.12 303.5,319.5C 302.371,317.372 302.204,315.039 303,312.5C 304.299,312.034 305.799,312.034 307.5,312.5 Z"/></g>
<g><path style="opacity:1" fill="#077c53" d="M 340.5,312.5 C 340.938,312.435 341.272,312.601 341.5,313C 340.672,313.915 339.672,314.581 338.5,315C 340.464,315.624 342.131,315.124 343.5,313.5C 343.833,313.833 344.167,314.167 344.5,314.5C 340.523,317.309 336.69,320.309 333,323.5C 329.927,321.161 326.927,321.494 324,324.5C 321.114,322.83 320.948,321.163 323.5,319.5C 326.513,318.662 329.18,317.162 331.5,315C 334.652,314.605 337.652,313.772 340.5,312.5 Z"/></g>
<g><path style="opacity:1" fill="#135b9d" d="M 310.5,320.5 C 311.833,320.5 313.167,320.5 314.5,320.5C 314.5,320.833 314.5,321.167 314.5,321.5C 312.886,322.271 311.386,323.271 310,324.5C 308.128,323.932 306.295,323.265 304.5,322.5C 303.614,321.675 303.281,320.675 303.5,319.5C 303.962,318.12 304.962,317.453 306.5,317.5C 308.041,318.286 309.374,319.286 310.5,320.5 Z"/></g>
<g><path style="opacity:1" fill="#04994c" d="M 328.5,334.5 C 324.388,336.065 320.054,337.065 315.5,337.5C 312.641,337.101 309.974,336.267 307.5,335C 310.251,330.656 312.918,326.323 315.5,322C 315.272,321.601 314.938,321.435 314.5,321.5C 314.5,321.167 314.5,320.833 314.5,320.5C 315.995,320.011 317.329,319.345 318.5,318.5C 318.833,318.5 319.167,318.5 319.5,318.5C 318.797,320.716 317.464,322.549 315.5,324C 315.948,326.22 316.448,328.72 317,331.5C 320.33,329.454 323.83,328.954 327.5,330C 330.502,327.497 333.835,325.497 337.5,324C 338.362,321.266 339.195,321.099 340,323.5C 343.695,322.582 346.528,320.582 348.5,317.5C 351.635,315.24 353.802,312.24 355,308.5C 355.552,311.419 354.885,314.086 353,316.5C 349.869,320.633 346.369,324.466 342.5,328C 340.702,329.505 338.868,329.672 337,328.5C 334.16,330.595 331.327,332.595 328.5,334.5 Z"/></g>
<g><path style="opacity:1" fill="#00a090" d="M 187.5,336.5 C 191.741,340.4 196.074,344.4 200.5,348.5C 202.045,349.452 203.712,349.785 205.5,349.5C 205.151,346.537 206.151,344.204 208.5,342.5C 210.23,349.525 212.064,356.525 214,363.5C 217.513,366.009 221.346,366.842 225.5,366C 228.125,368.681 231.125,371.015 234.5,373C 236.294,376.088 237.961,379.254 239.5,382.5C 244.835,386.013 250.002,389.68 255,393.5C 254.22,395.73 253.387,398.063 252.5,400.5C 258.552,399.314 259.052,400.981 254,405.5C 253.333,406.833 253.333,408.167 254,409.5C 256.947,410.781 259.281,412.781 261,415.5C 262.599,413.964 264.433,413.464 266.5,414C 265.833,414.667 265.167,415.333 264.5,416C 265.949,417.117 267.616,417.784 269.5,418C 271.015,419.726 272.682,421.226 274.5,422.5C 273.318,424.761 271.651,426.595 269.5,428C 270.167,429.667 270.833,431.333 271.5,433C 265.328,444.957 268.328,447.457 280.5,440.5C 282.881,442.769 285.381,442.769 288,440.5C 289.012,442.864 290.345,444.198 292,444.5C 298.769,441.59 305.769,440.923 313,442.5C 320.271,439.396 327.438,436.063 334.5,432.5C 337.67,432.638 340.837,432.971 344,433.5C 344.855,436.956 343.689,439.456 340.5,441C 320.745,444.785 301.745,450.785 283.5,459C 277.684,460.409 272.517,459.242 268,455.5C 267.667,454.167 267.333,452.833 267,451.5C 265.504,449.243 263.837,447.243 262,445.5C 256.43,445.785 251.096,445.785 246,445.5C 242.335,445.789 239.168,447.123 236.5,449.5C 220.507,441.678 206.673,431.011 195,417.5C 191.667,410.167 188.333,402.833 185,395.5C 186.392,383.172 186.892,370.839 186.5,358.5C 183.761,350.955 184.094,343.621 187.5,336.5 Z"/></g>
<g><path style="opacity:1" fill="#00389e" d="M 312.5,348.5 C 317.779,350.309 323.112,351.142 328.5,351C 330.278,353.135 330.945,355.635 330.5,358.5C 334.462,358.067 337.628,359.4 340,362.5C 341.685,360.012 343.019,360.345 344,363.5C 344.689,362.643 345.522,361.977 346.5,361.5C 347.112,362.995 347.112,364.662 346.5,366.5C 347.615,369.116 348.949,371.616 350.5,374C 346.207,377.581 342.874,381.914 340.5,387C 341.026,389.972 342.359,392.472 344.5,394.5C 343.571,397.412 342.238,400.079 340.5,402.5C 341.219,404.728 342.552,406.561 344.5,408C 342.232,409.558 341.066,411.724 341,414.5C 338.257,416.788 335.423,418.955 332.5,421C 327.261,422.413 322.261,424.413 317.5,427C 309.433,429.846 301.433,430.013 293.5,427.5C 292.446,427.68 291.446,428.013 290.5,428.5C 289.245,423.66 289.245,418.827 290.5,414C 285.723,410.169 280.889,406.336 276,402.5C 275.404,397.856 276.904,394.023 280.5,391C 277.174,385.639 278.34,381.473 284,378.5C 285.588,380.968 287.422,381.134 289.5,379C 288.692,378.692 288.025,378.192 287.5,377.5C 288.098,376.205 288.598,374.872 289,373.5C 291.854,370.72 295.021,368.386 298.5,366.5C 296.355,365.318 296.355,363.818 298.5,362C 301.362,361.07 303.695,359.403 305.5,357C 308.257,356.122 310.924,355.122 313.5,354C 312.127,352.139 311.794,350.306 312.5,348.5 Z"/></g>
<g><path style="opacity:1" fill="#00009e" d="M 319.5,369.5 C 322.288,369.077 324.288,370.077 325.5,372.5C 324.248,374.001 323.248,375.668 322.5,377.5C 324.341,378.23 326.175,378.897 328,379.5C 328.958,385.764 327.291,391.097 323,395.5C 323.768,403.391 320.268,407.558 312.5,408C 310.549,409.734 309.549,411.901 309.5,414.5C 307.833,414.5 306.167,414.5 304.5,414.5C 304.727,411.423 305.727,408.59 307.5,406C 307.355,405.228 307.022,404.561 306.5,404C 304.866,403.506 303.199,403.34 301.5,403.5C 301.944,398.933 299.944,395.933 295.5,394.5C 296.306,391.554 297.639,388.888 299.5,386.5C 298.572,385.232 298.405,383.899 299,382.5C 301.258,380.57 303.758,379.07 306.5,378C 307.743,376.846 308.743,375.512 309.5,374C 313.015,372.778 316.348,371.278 319.5,369.5 Z"/></g>
<g><path style="opacity:1" fill="#0039a0" d="M 476.5,376.5 C 477.5,376.5 478.5,376.5 479.5,376.5C 480.308,387.426 476.642,396.426 468.5,403.5C 466.796,393.233 469.462,384.233 476.5,376.5 Z"/></g>
<g><path style="opacity:1" fill="#00a191" d="M 443.5,393.5 C 444.88,393.962 445.547,394.962 445.5,396.5C 443.645,401.678 440.645,406.011 436.5,409.5C 435.417,408.635 435.251,407.635 436,406.5C 438.224,401.976 440.724,397.643 443.5,393.5 Z"/></g>
<g><path style="opacity:1" fill="#003aa0" d="M 104.5,438.5 C 108.16,443.153 110.827,448.487 112.5,454.5C 110.427,458.076 107.927,458.409 105,455.5C 104.501,449.843 104.334,444.176 104.5,438.5 Z"/></g>
<g><path style="opacity:1" fill="#0000a1" d="M 371.5,451.5 C 376.244,451.038 377.244,452.538 374.5,456C 346.629,466.846 317.962,474.846 288.5,480C 277.934,482.224 267.601,485.224 257.5,489C 254.5,489.667 251.5,489.667 248.5,489C 247.521,487.221 247.854,485.555 249.5,484C 260.505,481.426 271.505,478.76 282.5,476C 306.037,465.282 330.704,458.615 356.5,456C 361.664,454.631 366.664,453.131 371.5,451.5 Z"/></g>
<g><path style="opacity:1" fill="#00a191" d="M 398.5,463.5 C 391.27,465.808 383.937,467.808 376.5,469.5C 377.859,467.991 377.359,467.324 375,467.5C 362.633,470.3 350.467,473.8 338.5,478C 339.044,478.717 339.711,479.217 340.5,479.5C 324.638,484.339 308.638,489.006 292.5,493.5C 292.5,492.5 292.5,491.5 292.5,490.5C 275.334,493.611 258.668,498.444 242.5,505C 243.056,505.383 243.389,505.883 243.5,506.5C 235.989,509.001 228.322,511.334 220.5,513.5C 219.156,510.267 220.156,507.767 223.5,506C 254.032,496.283 285.032,488.283 316.5,482C 340.534,473.655 364.867,466.322 389.5,460C 392.167,459.333 394.833,459.333 397.5,460C 398.337,461.011 398.67,462.178 398.5,463.5 Z"/></g>
<g><path style="opacity:1" fill="#003aa0" d="M 115.5,460.5 C 120.896,460.645 125.063,463.312 128,468.5C 132.076,476.126 133.909,484.126 133.5,492.5C 131.143,492.663 128.81,492.497 126.5,492C 123.631,488.796 120.465,485.963 117,483.5C 113.118,475.942 112.618,468.275 115.5,460.5 Z"/></g>
<g><path style="opacity:1" fill="#00a091" d="M 170.5,461.5 C 176.103,460.918 180.603,462.918 184,467.5C 185.141,475.008 181.974,477.508 174.5,475C 171.599,472.033 169.599,468.533 168.5,464.5C 168.942,463.261 169.609,462.261 170.5,461.5 Z"/></g>
<g><path style="opacity:1" fill="#00a158" d="M 376.5,469.5 C 364.767,473.405 352.767,476.739 340.5,479.5C 339.711,479.217 339.044,478.717 338.5,478C 350.467,473.8 362.633,470.3 375,467.5C 377.359,467.324 377.859,467.991 376.5,469.5 Z"/></g>
<g><path style="opacity:1" fill="#00a158" d="M 292.5,493.5 C 276.216,498.039 259.883,502.373 243.5,506.5C 243.389,505.883 243.056,505.383 242.5,505C 258.668,498.444 275.334,493.611 292.5,490.5C 292.5,491.5 292.5,492.5 292.5,493.5 Z"/></g>
</svg>
