<?xml version="1.0" encoding="UTF-8"?>
<!DOCTYPE svg PUBLIC "-//W3C//DTD SVG 1.1//EN" "http://www.w3.org/Graphics/SVG/1.1/DTD/svg11.dtd">
<svg xmlns="http://www.w3.org/2000/svg" version="1.1" width="993px" height="579px" style="shape-rendering:geometricPrecision; text-rendering:geometricPrecision; image-rendering:optimizeQuality; fill-rule:evenodd; clip-rule:evenodd" xmlns:xlink="http://www.w3.org/1999/xlink">
<g><path style="opacity:1" fill="#2b333b" d="M -0.5,-0.5 C 330.5,-0.5 661.5,-0.5 992.5,-0.5C 992.5,192.5 992.5,385.5 992.5,578.5C 661.5,578.5 330.5,578.5 -0.5,578.5C -0.5,385.5 -0.5,192.5 -0.5,-0.5 Z"/></g>
<g><path style="opacity:1" fill="#0000a0" d="M 507.5,14.5 C 517.55,14.1687 527.55,14.6687 537.5,16C 532.336,153.755 527.669,291.589 523.5,429.5C 363.518,473.826 203.518,518.159 43.5,562.5C 38.3011,561.434 33.3011,559.767 28.5,557.5C 25.8078,392.173 23.4744,226.839 21.5,61.5C 21.8333,49.5 22.1667,37.5 22.5,25.5C 184.294,21.8446 345.961,18.178 507.5,14.5 Z"/></g>
<g><path style="opacity:1" fill="#0039a0" d="M 322.5,62.5 C 337.172,62.2217 351.172,65.055 364.5,71C 379.007,79.007 392.173,88.8404 404,100.5C 423.633,129.733 434.3,162.067 436,197.5C 437.103,228.901 436.103,260.234 433,291.5C 428.094,327.945 415.427,361.279 395,391.5C 379.728,407.111 363.561,421.611 346.5,435C 323.98,445.548 300.313,450.548 275.5,450C 259.035,445.6 243.368,439.266 228.5,431C 205.284,409.412 190.784,382.912 185,351.5C 178.887,309.977 177.887,268.31 182,226.5C 186.565,190.803 197.899,157.47 216,126.5C 223.565,114.547 233.065,104.38 244.5,96C 256.34,88.247 268.007,80.247 279.5,72C 293.471,66.5751 307.805,63.4084 322.5,62.5 Z"/></g>
<g><path style="opacity:1" fill="#0074a0" d="M 364.5,88.5 C 373.486,89.1588 381.486,92.3255 388.5,98C 410.386,118.831 421.72,144.331 422.5,174.5C 416.881,164.928 412.048,154.928 408,144.5C 404.667,139.167 401.333,133.833 398,128.5C 386.5,115.667 375,102.833 363.5,90C 364.056,89.6174 364.389,89.1174 364.5,88.5 Z"/></g>
<g><path style="opacity:1" fill="#0000a0" d="M 317.5,89.5 C 331.514,88.6277 344.847,91.1277 357.5,97C 396.373,126.557 418.873,165.724 425,214.5C 429.407,289.642 404.573,353.142 350.5,405C 331.109,420.008 309.109,426.342 284.5,424C 254.703,413.546 232.203,394.38 217,366.5C 189.331,312.779 186.664,257.779 209,201.5C 222.503,162.978 245.003,130.811 276.5,105C 288.849,96.164 302.516,90.9974 317.5,89.5 Z"/></g>
<g><path style="opacity:1" fill="#00739f" d="M 273.5,91.5 C 274.552,91.3505 275.552,91.5172 276.5,92C 267.077,104.094 256.91,115.594 246,126.5C 226.17,151.81 210.17,179.476 198,209.5C 196.496,205.961 196.163,202.295 197,198.5C 200.2,176.771 207.866,156.771 220,138.5C 226.073,128.193 233.24,118.693 241.5,110C 250.881,101.48 261.548,95.3137 273.5,91.5 Z"/></g>
<g><path style="opacity:1" fill="#0039a0" d="M 326.5,102.5 C 345.581,101.47 361.747,107.803 375,121.5C 412.404,165.102 426.071,215.435 416,272.5C 409.335,315.489 391.668,353.156 363,385.5C 353.828,394.332 343.328,401.165 331.5,406C 321.112,408.078 310.778,410.411 300.5,413C 281.766,414.902 265.433,409.569 251.5,397C 226.174,372.851 211.007,343.351 206,308.5C 196.427,242.595 212.76,184.262 255,133.5C 274.357,112.566 298.19,102.232 326.5,102.5 Z"/></g>
<g><path style="opacity:1" fill="#0074a0" d="M 321.5,108.5 C 335.849,106.944 349.182,109.777 361.5,117C 381.964,135.075 397.131,156.908 407,182.5C 425.86,255.425 411.526,320.758 364,378.5C 356.245,387.259 347.078,394.092 336.5,399C 325.458,401.51 314.458,404.177 303.5,407C 287.971,409.818 273.971,406.485 261.5,397C 232.319,373.444 215.485,342.944 211,305.5C 200.686,242.387 216.02,186.721 257,138.5C 273.905,118.293 295.405,108.293 321.5,108.5 Z"/></g>
<g><path style="opacity:1" fill="#00a091" d="M 332.5,114.5 C 344.679,113.504 355.346,117.004 364.5,125C 387.803,147.102 402.636,173.935 409,205.5C 408.974,230.83 408.641,256.163 408,281.5C 399.914,321.18 381.747,355.346 353.5,384C 342.394,392.617 329.728,396.951 315.5,397C 308.554,399.205 301.554,401.205 294.5,403C 282.561,403.131 271.895,399.465 262.5,392C 240.99,373.473 226.157,350.64 218,323.5C 216.177,315.429 215.011,307.262 214.5,299C 215.826,279.501 215.826,260.001 214.5,240.5C 216.021,217.438 222.854,196.104 235,176.5C 246.905,154.927 262.738,136.761 282.5,122C 286.271,119.781 290.271,118.115 294.5,117C 304.833,116.667 315.167,116.333 325.5,116C 328.036,115.814 330.369,115.314 332.5,114.5 Z"/></g>
<g><path style="opacity:1" fill="#00a057" d="M 363.5,246.5 C 361.685,247.939 361.018,249.606 361.5,251.5C 361.167,251.5 360.833,251.5 360.5,251.5C 360.769,249.571 360.269,247.905 359,246.5C 358.36,250.461 357.86,251.461 357.5,249.5C 356.402,248.603 356.402,247.77 357.5,247C 356.309,246.302 355.309,245.469 354.5,244.5C 354.5,244.167 354.5,243.833 354.5,243.5C 354.932,242.29 355.599,241.29 356.5,240.5C 357.472,241.751 358.139,241.418 358.5,239.5C 357.749,237.004 356.749,234.67 355.5,232.5C 356.575,231.438 357.575,231.438 358.5,232.5C 359.072,237.04 360.238,241.374 362,245.5C 365.311,239.163 365.144,232.996 361.5,227C 362.097,225.938 362.43,224.772 362.5,223.5C 361.398,215.489 360.231,207.489 359,199.5C 356.867,194.199 353.033,190.866 347.5,189.5C 341.038,189.721 335.205,192.054 330,196.5C 331.486,201.773 334.319,206.44 338.5,210.5C 342.928,208.921 345.262,210.588 345.5,215.5C 344.761,215.369 344.094,215.536 343.5,216C 343.493,217.583 343.826,219.249 344.5,221C 343.965,223.109 342.965,223.609 341.5,222.5C 340.289,221.726 340.289,220.893 341.5,220C 340.692,219.692 340.025,219.192 339.5,218.5C 339.723,217.033 340.056,215.533 340.5,214C 337.754,212.671 335.421,210.837 333.5,208.5C 332.806,205.912 331.64,203.579 330,201.5C 328.603,204.068 327.436,203.901 326.5,201C 327.486,197.346 329.319,194.18 332,191.5C 336.245,189.26 339.912,186.26 343,182.5C 343.772,182.645 344.439,182.978 345,183.5C 351.029,178.904 350.695,174.571 344,170.5C 343.667,167.833 343.333,165.167 343,162.5C 341.333,159.833 339.667,157.167 338,154.5C 338.354,150.522 337.688,146.522 336,142.5C 332.581,138.669 329.914,134.335 328,129.5C 328.542,122.975 332.209,119.975 339,120.5C 348.035,120.77 355.868,123.936 362.5,130C 385.98,151.122 400.48,177.289 406,208.5C 406.667,213.167 406.667,217.833 406,222.5C 405.594,224.779 404.261,226.113 402,226.5C 396.515,222.415 391.182,218.081 386,213.5C 383.737,208.574 380.404,204.574 376,201.5C 372.467,193.438 371.967,193.605 374.5,202C 374.054,203.726 373.221,205.226 372,206.5C 367.516,201.995 364.682,202.828 363.5,209C 365.449,221.565 365.449,234.065 363.5,246.5 Z"/></g>
<g><path style="opacity:1" fill="#09a018" d="M 343.5,128.5 C 350.305,129.069 356.305,131.569 361.5,136C 380.434,152.617 393.268,173.117 400,197.5C 401.531,210.157 397.031,212.657 386.5,205C 380.526,194.883 374.693,184.716 369,174.5C 366.5,172 364,169.5 361.5,167C 353.77,163.595 347.603,158.429 343,151.5C 341.88,144.455 340.88,137.455 340,130.5C 341.302,129.915 342.469,129.249 343.5,128.5 Z"/></g>
<g><path style="opacity:1" fill="#02a459" d="M 315.5,224.5 C 317.048,224.821 317.715,225.821 317.5,227.5C 315.05,227.298 312.717,227.631 310.5,228.5C 308.427,224.692 306.094,221.026 303.5,217.5C 303.977,216.522 304.643,215.689 305.5,215C 310.446,214.197 314.446,211.863 317.5,208C 316.619,207.292 315.953,206.458 315.5,205.5C 316.695,205.134 317.361,204.301 317.5,203C 315.713,199.928 314.047,196.761 312.5,193.5C 307.255,190.31 302.921,191.144 299.5,196C 290.606,198.225 284.773,204.058 282,213.5C 277.608,216.377 275.108,220.377 274.5,225.5C 275.5,227.5 276.5,229.5 277.5,231.5C 276.876,234.844 275.876,238.011 274.5,241C 274.706,242.366 275.04,243.699 275.5,245C 275.85,246.257 276.517,246.591 277.5,246C 280.412,244.142 281.912,241.642 282,238.5C 280.927,239.28 279.76,239.113 278.5,238C 282.489,235.578 284.489,236.412 284.5,240.5C 286.45,241.372 288.45,242.039 290.5,242.5C 291.338,242.842 291.672,243.508 291.5,244.5C 292.687,245.534 293.52,246.867 294,248.5C 294.414,248.043 294.914,247.709 295.5,247.5C 297.002,249.252 298.002,251.252 298.5,253.5C 298.77,258.347 298.77,263.347 298.5,268.5C 297.4,269.558 296.066,270.392 294.5,271C 295.264,273.069 295.764,275.236 296,277.5C 297.255,278.211 298.421,279.044 299.5,280C 299.167,280.333 298.833,280.667 298.5,281C 299.944,281.781 301.277,281.614 302.5,280.5C 302.994,278.974 303.661,277.641 304.5,276.5C 305.931,276.119 306.764,275.119 307,273.5C 307.333,273.833 307.667,274.167 308,274.5C 308.495,272.527 308.662,270.527 308.5,268.5C 309.5,268.5 310.5,268.5 311.5,268.5C 311.232,270.099 311.566,271.432 312.5,272.5C 314.379,272.393 314.712,272.893 313.5,274C 314,274.5 314.5,275 315,275.5C 316.737,273.375 318.904,272.542 321.5,273C 321.167,273.333 320.833,273.667 320.5,274C 321.5,274.333 322.5,274.667 323.5,275C 324.833,275.667 324.833,276.333 323.5,277C 324.448,277.483 325.448,277.649 326.5,277.5C 326.746,274.53 328.412,273.197 331.5,273.5C 331.5,272.167 331.5,270.833 331.5,269.5C 331.106,268.033 330.773,266.533 330.5,265C 330.755,263.674 331.422,262.674 332.5,262C 330.321,261.558 329.655,260.558 330.5,259C 329.027,258.29 328.36,257.124 328.5,255.5C 330.146,254.917 332.146,254.083 334.5,253C 333.594,251.301 333.261,249.467 333.5,247.5C 334.931,247.119 335.764,246.119 336,244.5C 336.671,245.252 337.504,245.586 338.5,245.5C 338.5,246.5 338.5,247.5 338.5,248.5C 337.209,248.263 336.209,248.596 335.5,249.5C 335.786,254.315 336.119,259.149 336.5,264C 335.763,266.799 334.93,266.966 334,264.5C 333.833,265.333 333.667,266.167 333.5,267C 334.797,267.799 335.797,269.466 336.5,272C 335.045,274.363 334.545,276.863 335,279.5C 336.16,277.203 337.16,277.536 338,280.5C 339.432,278.069 340.932,278.069 342.5,280.5C 343.167,281.167 343.833,281.833 344.5,282.5C 345.745,284.989 344.745,286.322 341.5,286.5C 341.307,282.551 340.807,282.551 340,286.5C 339.411,284.137 337.911,283.137 335.5,283.5C 335.452,286.292 336.785,288.125 339.5,289C 338.124,291.543 336.957,291.709 336,289.5C 334.926,290.618 333.76,291.618 332.5,292.5C 333.807,293.865 333.807,295.198 332.5,296.5C 331.127,296.343 329.793,296.51 328.5,297C 330.044,297.29 331.377,297.956 332.5,299C 329.414,301.244 327.414,300.411 326.5,296.5C 328.316,295.185 329.983,293.685 331.5,292C 328.094,292.638 325.26,294.472 323,297.5C 321.961,296.756 321.461,295.756 321.5,294.5C 322.683,293.496 324.016,292.662 325.5,292C 325.167,291.667 324.833,291.333 324.5,291C 325.618,289.926 326.618,288.76 327.5,287.5C 328.183,287.863 328.85,288.196 329.5,288.5C 332.36,286.283 332.027,284.783 328.5,284C 329.833,282.667 331.167,281.333 332.5,280C 331.975,279.308 331.308,278.808 330.5,278.5C 327.531,281.718 324.197,282.218 320.5,280C 321.451,279.282 321.617,278.449 321,277.5C 320.167,278.5 319.333,279.5 318.5,280.5C 317.205,279.902 315.872,279.402 314.5,279C 315.696,278.346 315.696,277.846 314.5,277.5C 313.808,278.025 313.308,278.692 313,279.5C 311.951,278.483 310.784,278.316 309.5,279C 311.686,279.604 311.852,280.77 310,282.5C 309.617,281.944 309.117,281.611 308.5,281.5C 308.435,276.304 307.768,276.304 306.5,281.5C 305.398,282.176 304.398,282.842 303.5,283.5C 301.952,283.821 301.285,284.821 301.5,286.5C 302.5,286.5 303.5,286.5 304.5,286.5C 304.337,288.857 304.503,291.19 305,293.5C 306.707,294.138 308.54,294.138 310.5,293.5C 311.69,296.741 312.69,300.074 313.5,303.5C 313.137,304.183 312.804,304.85 312.5,305.5C 311.833,305.5 311.167,305.5 310.5,305.5C 310.611,304.883 310.944,304.383 311.5,304C 310.751,302.266 310.251,300.433 310,298.5C 305.129,297.3 301.796,294.3 300,289.5C 296.38,291.183 292.546,291.85 288.5,291.5C 288.753,289.173 288.086,287.173 286.5,285.5C 286.833,284.833 287.167,284.167 287.5,283.5C 280.095,278.194 277.429,279.86 279.5,288.5C 282.153,289.285 282.82,290.785 281.5,293C 279.899,293.273 278.399,293.773 277,294.5C 275.108,300.217 275.275,305.884 277.5,311.5C 276.652,313.409 276.318,315.409 276.5,317.5C 279.614,318.091 282.114,319.758 284,322.5C 285.512,321.743 286.846,320.743 288,319.5C 292.435,320.594 296.435,322.594 300,325.5C 302.667,321.547 305.833,320.88 309.5,323.5C 310.86,322.82 312.193,322.153 313.5,321.5C 313.833,321.5 314.167,321.5 314.5,321.5C 312.528,326.212 309.528,327.212 305.5,324.5C 304.833,324.667 304.167,324.833 303.5,325C 302.215,327.423 300.382,329.256 298,330.5C 295.967,327.973 293.467,325.973 290.5,324.5C 288.259,325.071 286.592,326.404 285.5,328.5C 283.677,327.253 281.677,326.586 279.5,326.5C 279.67,327.822 279.337,328.989 278.5,330C 276.754,330.471 275.087,331.138 273.5,332C 275.547,335.464 277.213,339.13 278.5,343C 278.167,343.333 277.833,343.667 277.5,344C 280.663,348.691 284.497,352.858 289,356.5C 292.567,363.63 295.567,370.963 298,378.5C 300.874,381.753 303.374,385.253 305.5,389C 303.957,393.874 300.623,396.541 295.5,397C 282.771,397.804 271.771,393.804 262.5,385C 246.103,370.613 233.603,353.447 225,333.5C 219.008,319.242 217.342,304.576 220,289.5C 221.458,288.253 222.958,288.253 224.5,289.5C 226.732,293.96 230.398,296.46 235.5,297C 238.781,301.119 242.781,304.285 247.5,306.5C 250.357,305.804 252.857,304.471 255,302.5C 256.498,304.614 258.331,305.114 260.5,304C 262.555,310.706 264.055,317.539 265,324.5C 265.333,324.833 265.667,325.167 266,325.5C 268.273,323.108 270.44,323.108 272.5,325.5C 272.833,325.333 273.167,325.167 273.5,325C 271.239,318.773 271.239,312.773 273.5,307C 273.394,300.985 273.394,294.985 273.5,289C 275.87,283.692 277.703,278.192 279,272.5C 281.686,280.718 285.353,281.385 290,274.5C 291.627,270.658 291.46,266.825 289.5,263C 290.003,259.991 291.003,257.158 292.5,254.5C 291.312,253.16 289.812,252.493 288,252.5C 284.768,254.05 281.768,256.05 279,258.5C 278.25,257.874 277.416,257.374 276.5,257C 277.672,255.132 277.505,253.298 276,251.5C 270.783,249.281 267.283,245.448 265.5,240C 266.919,235.917 267.419,231.75 267,227.5C 265.333,226.5 263.667,225.5 262,224.5C 260.184,227.598 258.184,230.598 256,233.5C 255.311,232.643 254.478,231.977 253.5,231.5C 250.932,233.717 247.932,234.884 244.5,235C 242.15,240.173 238.15,242.84 232.5,243C 229.616,246.586 226.283,249.252 222.5,251C 219.474,231.953 221.974,213.453 230,195.5C 241.711,171.798 257.211,150.964 276.5,133C 284.871,126.806 294.204,124.14 304.5,125C 306.455,125.953 308.122,127.287 309.5,129C 304.852,137.797 300.352,146.63 296,155.5C 295.818,160.161 294.985,164.661 293.5,169C 295.658,170.312 295.991,171.978 294.5,174C 300.668,176.777 306.168,180.611 311,185.5C 314.774,192.061 317.774,199.061 320,206.5C 323.071,208.071 326.238,209.571 329.5,211C 330.38,212.356 330.714,213.856 330.5,215.5C 326.99,215.668 323.49,216.001 320,216.5C 318.019,216.371 316.353,215.704 315,214.5C 312.34,215.834 309.506,216.668 306.5,217C 305.85,218.609 306.35,220.109 308,221.5C 308.308,220.692 308.808,220.025 309.5,219.5C 311.563,221.242 313.563,222.909 315.5,224.5 Z"/></g>
<g><path style="opacity:1" fill="#00a11d" d="M 285.5,135.5 C 287.527,135.338 289.527,135.505 291.5,136C 292.804,136.804 293.471,137.971 293.5,139.5C 291.948,146.38 289.781,153.047 287,159.5C 281.429,165.648 276.096,171.981 271,178.5C 270.5,178 270,177.5 269.5,177C 270.769,174.861 270.769,172.695 269.5,170.5C 261.566,175.944 256.066,183.277 253,192.5C 251.855,195.432 251.022,198.432 250.5,201.5C 251.5,201.5 252.5,201.5 253.5,201.5C 253.214,210.013 250.214,217.346 244.5,223.5C 243.186,222.687 242.019,221.687 241,220.5C 240.051,223.2 238.217,224.033 235.5,223C 232.804,221.146 231.137,218.646 230.5,215.5C 233.029,202.773 237.529,190.773 244,179.5C 250.176,169.815 256.843,160.481 264,151.5C 270.273,144.695 277.439,139.361 285.5,135.5 Z"/></g>
<g><path style="opacity:1" fill="#0076a3" d="M 315.5,137.5 C 327.789,138.291 334.289,144.958 335,157.5C 338.258,159.737 338.758,162.237 336.5,165C 337.26,166.441 337.926,167.941 338.5,169.5C 334.732,171.915 334.566,174.581 338,177.5C 338.667,178.5 338.667,179.5 338,180.5C 335.445,182.055 333.612,184.222 332.5,187C 331.234,187.309 330.067,187.809 329,188.5C 328.202,191.893 327.202,195.226 326,198.5C 324.643,202.787 326.143,205.453 330.5,206.5C 327.1,207.886 324.1,207.219 321.5,204.5C 318.243,197.415 315.743,190.082 314,182.5C 312.333,180.833 310.667,179.167 309,177.5C 307.664,171.642 305.498,166.142 302.5,161C 304.297,155.591 306.463,150.425 309,145.5C 310.946,142.58 313.113,139.913 315.5,137.5 Z"/></g>
<g><path style="opacity:1" fill="#003aa3" d="M 318.5,144.5 C 324.638,143.801 327.805,146.468 328,152.5C 329.659,153.817 330.826,155.483 331.5,157.5C 332.154,162.908 331.487,168.242 329.5,173.5C 329.76,175.187 330.427,176.687 331.5,178C 329.781,179.057 327.947,179.89 326,180.5C 325.394,183.076 325.894,185.41 327.5,187.5C 325.887,192.732 324.72,198.065 324,203.5C 323.385,201.884 322.385,200.551 321,199.5C 320.098,195.247 318.931,191.08 317.5,187C 320.62,183.062 319.787,180.229 315,178.5C 314.354,172.076 312.521,166.076 309.5,160.5C 311.391,154.445 314.391,149.111 318.5,144.5 Z"/></g>
<g><path style="opacity:1" fill="#0000a3" d="M 321.5,157.5 C 324.553,158.056 325.886,159.889 325.5,163C 325.238,165.547 324.738,168.047 324,170.5C 322.32,171.603 320.82,171.27 319.5,169.5C 316.214,164.429 316.88,160.429 321.5,157.5 Z"/></g>
<g><path style="opacity:1" fill="#00a494" d="M 286.5,181.5 C 288.468,182.819 290.468,182.819 292.5,181.5C 292.833,182.167 293.167,182.833 293.5,183.5C 291.147,185.488 288.814,187.988 286.5,191C 286.667,191.5 286.833,192 287,192.5C 288.512,191.743 289.846,190.743 291,189.5C 290.52,194.948 288.02,199.448 283.5,203C 284.066,205.361 283.066,207.194 280.5,208.5C 279.24,206.647 279.24,204.814 280.5,203C 279.251,201.176 278.085,201.343 277,203.5C 276.273,207.374 274.607,210.707 272,213.5C 270.831,212.991 269.998,212.158 269.5,211C 270.747,209.542 270.747,208.042 269.5,206.5C 271.905,201.693 273.739,196.693 275,191.5C 279.026,188.302 282.859,184.968 286.5,181.5 Z"/></g>
<g><path style="opacity:1" fill="#1d9f15" d="M 355.5,232.5 C 355.672,231.508 355.338,230.842 354.5,230.5C 352.895,227.393 350.728,224.726 348,222.5C 346.864,220.257 346.03,217.924 345.5,215.5C 345.262,210.588 342.928,208.921 338.5,210.5C 334.319,206.44 331.486,201.773 330,196.5C 335.205,192.054 341.038,189.721 347.5,189.5C 353.033,190.866 356.867,194.199 359,199.5C 360.231,207.489 361.398,215.489 362.5,223.5C 362.43,224.772 362.097,225.938 361.5,227C 365.144,232.996 365.311,239.163 362,245.5C 360.238,241.374 359.072,237.04 358.5,232.5C 357.575,231.438 356.575,231.438 355.5,232.5 Z"/></g>
<g><path style="opacity:1" fill="#18a81a" d="M 315.5,205.5 C 313.08,205.708 310.747,205.374 308.5,204.5C 306.187,206.594 303.52,208.094 300.5,209C 297.016,213.609 293.516,218.776 290,224.5C 288.022,229.299 287.188,234.299 287.5,239.5C 288.5,239.5 289.5,239.5 290.5,239.5C 290.5,240.5 290.5,241.5 290.5,242.5C 288.45,242.039 286.45,241.372 284.5,240.5C 284.489,236.412 282.489,235.578 278.5,238C 279.76,239.113 280.927,239.28 282,238.5C 281.912,241.642 280.412,244.142 277.5,246C 276.517,246.591 275.85,246.257 275.5,245C 275.04,243.699 274.706,242.366 274.5,241C 275.876,238.011 276.876,234.844 277.5,231.5C 276.5,229.5 275.5,227.5 274.5,225.5C 275.108,220.377 277.608,216.377 282,213.5C 284.773,204.058 290.606,198.225 299.5,196C 302.921,191.144 307.255,190.31 312.5,193.5C 314.047,196.761 315.713,199.928 317.5,203C 317.361,204.301 316.695,205.134 315.5,205.5 Z"/></g>
<g><path style="opacity:1" fill="#95a000" d="M 290.5,209.5 C 292.665,209.116 294.332,209.783 295.5,211.5C 292.857,216.132 289.857,220.465 286.5,224.5C 283.911,223.278 283.077,221.278 284,218.5C 285.581,215.084 287.748,212.084 290.5,209.5 Z"/></g>
<g><path style="opacity:1" fill="#30c313" d="M 315.5,205.5 C 315.953,206.458 316.619,207.292 317.5,208C 314.446,211.863 310.446,214.197 305.5,215C 304.643,215.689 303.977,216.522 303.5,217.5C 306.094,221.026 308.427,224.692 310.5,228.5C 304.478,234.187 298.145,239.521 291.5,244.5C 291.672,243.508 291.338,242.842 290.5,242.5C 290.5,241.5 290.5,240.5 290.5,239.5C 289.5,239.5 288.5,239.5 287.5,239.5C 287.188,234.299 288.022,229.299 290,224.5C 293.516,218.776 297.016,213.609 300.5,209C 303.52,208.094 306.187,206.594 308.5,204.5C 310.747,205.374 313.08,205.708 315.5,205.5 Z"/></g>
<g><path style="opacity:1" fill="#00729e" d="M 363.5,257.5 C 364.423,258.303 365.423,258.47 366.5,258C 367.304,256.229 368.471,254.729 370,253.5C 371.973,255.473 373.973,257.473 376,259.5C 376.701,262.327 377.701,264.994 379,267.5C 379.368,266.09 380.201,265.09 381.5,264.5C 382.281,265.737 383.281,266.737 384.5,267.5C 387.415,266.296 389.581,264.296 391,261.5C 395.891,249.7 394.891,238.367 388,227.5C 386.027,226.36 384.193,225.027 382.5,223.5C 379.908,223.936 377.575,224.936 375.5,226.5C 374.252,225.96 373.085,225.293 372,224.5C 369.675,227.742 369.342,231.076 371,234.5C 371.667,237.167 371.667,239.833 371,242.5C 369.853,241.542 368.853,241.875 368,243.5C 365.811,246.523 364.311,249.856 363.5,253.5C 363.167,253.5 362.833,253.5 362.5,253.5C 362.672,252.508 362.338,251.842 361.5,251.5C 361.018,249.606 361.685,247.939 363.5,246.5C 364.79,245.942 365.623,244.942 366,243.5C 366.226,240.905 366.726,238.405 367.5,236C 366.635,232.624 366.968,229.29 368.5,226C 367.371,221.921 367.204,217.755 368,213.5C 376.009,212.872 383.009,215.872 389,222.5C 391.606,227.435 394.606,232.102 398,236.5C 399.05,244.663 398.383,252.663 396,260.5C 392.821,265.533 389.654,270.533 386.5,275.5C 384.51,276.873 382.343,277.873 380,278.5C 379.279,282.342 377.613,285.676 375,288.5C 373.977,287.4 373.477,286.067 373.5,284.5C 374.415,280.856 374.581,277.19 374,273.5C 371.208,272.085 369.708,269.751 369.5,266.5C 365.256,265.016 363.256,262.016 363.5,257.5 Z"/></g>
<g><path style="opacity:1" fill="#00389e" d="M 363.5,257.5 C 363.5,256.167 363.5,254.833 363.5,253.5C 364.311,249.856 365.811,246.523 368,243.5C 368.853,241.875 369.853,241.542 371,242.5C 371.667,239.833 371.667,237.167 371,234.5C 369.342,231.076 369.675,227.742 372,224.5C 373.085,225.293 374.252,225.96 375.5,226.5C 377.575,224.936 379.908,223.936 382.5,223.5C 384.193,225.027 386.027,226.36 388,227.5C 394.891,238.367 395.891,249.7 391,261.5C 389.581,264.296 387.415,266.296 384.5,267.5C 383.281,266.737 382.281,265.737 381.5,264.5C 380.201,265.09 379.368,266.09 379,267.5C 377.701,264.994 376.701,262.327 376,259.5C 373.973,257.473 371.973,255.473 370,253.5C 368.471,254.729 367.304,256.229 366.5,258C 365.423,258.47 364.423,258.303 363.5,257.5 Z"/></g>
<g><path style="opacity:1" fill="#1bd6bc" d="M 343.5,227.5 C 342.262,227.81 342.262,228.31 343.5,229C 342.216,229.684 341.049,229.517 340,228.5C 339.692,229.308 339.192,229.975 338.5,230.5C 336.765,229.943 335.098,229.61 333.5,229.5C 330.869,231.005 331.203,231.671 334.5,231.5C 335.927,233.9 335.427,234.567 333,233.5C 332.221,234.728 331.221,235.728 330,236.5C 329.235,236.43 328.735,236.097 328.5,235.5C 327.122,234.766 325.622,234.099 324,233.5C 323.508,232.451 323.674,231.451 324.5,230.5C 322.665,229.572 322.332,228.406 323.5,227C 321.027,224.898 320.36,225.232 321.5,228C 320.764,230.139 319.764,232.139 318.5,234C 319.772,235.307 320.772,236.807 321.5,238.5C 322.192,237.975 322.692,237.308 323,236.5C 324.011,237.337 325.178,237.67 326.5,237.5C 331.723,239.427 331.723,241.261 326.5,243C 328.598,243.678 330.598,243.511 332.5,242.5C 331.543,245.15 329.876,245.817 327.5,244.5C 326.508,244.328 325.842,244.662 325.5,245.5C 323.466,245.534 321.466,245.534 319.5,245.5C 318.791,244.596 317.791,244.263 316.5,244.5C 316.615,240.113 314.449,237.78 310,237.5C 308.933,238.191 307.766,238.691 306.5,239C 309.762,241.767 312.762,244.601 315.5,247.5C 314.181,249.468 314.181,251.468 315.5,253.5C 314.007,254.141 313.007,255.141 312.5,256.5C 310.273,257.401 309.273,259.067 309.5,261.5C 308.167,261.5 306.833,261.5 305.5,261.5C 307.429,258.608 309.096,255.442 310.5,252C 309.975,251.308 309.308,250.808 308.5,250.5C 307.019,251.48 305.685,252.647 304.5,254C 300.565,255.226 299.232,254.059 300.5,250.5C 296.718,247.06 296.552,243.393 300,239.5C 300.423,240.956 301.256,241.456 302.5,241C 303.614,239.43 304.947,238.097 306.5,237C 306.167,236.667 305.833,236.333 305.5,236C 309.259,234.999 310.926,232.499 310.5,228.5C 312.717,227.631 315.05,227.298 317.5,227.5C 317.715,225.821 317.048,224.821 315.5,224.5C 317.331,222.848 319.164,221.181 321,219.5C 322.261,219.759 323.261,220.426 324,221.5C 324.414,221.043 324.914,220.709 325.5,220.5C 328.762,224.647 332.762,225.814 337.5,224C 335.5,223.667 333.5,223.333 331.5,223C 330.663,221.989 330.33,220.822 330.5,219.5C 334.932,220.642 338.765,222.975 342,226.5C 343.107,225.288 343.607,225.621 343.5,227.5 Z"/></g>
<g><path style="opacity:1" fill="#1e60a6" d="M 343.5,227.5 C 345.742,229.452 346.076,231.785 344.5,234.5C 343.542,234.047 342.708,233.381 342,232.5C 341.517,233.448 341.351,234.448 341.5,235.5C 339.911,232.92 337.578,231.587 334.5,231.5C 331.203,231.671 330.869,231.005 333.5,229.5C 335.098,229.61 336.765,229.943 338.5,230.5C 339.192,229.975 339.692,229.308 340,228.5C 341.049,229.517 342.216,229.684 343.5,229C 342.262,228.31 342.262,227.81 343.5,227.5 Z"/></g>
<g><path style="opacity:1" fill="#00009e" d="M 383.5,232.5 C 386.714,233.528 388.548,235.862 389,239.5C 389.667,243.833 389.667,248.167 389,252.5C 386.335,252.703 383.502,253.37 380.5,254.5C 379.636,251.711 378.136,249.378 376,247.5C 375.501,243.514 375.334,239.514 375.5,235.5C 377.541,235.146 379.374,235.146 381,235.5C 382.045,234.627 382.878,233.627 383.5,232.5 Z"/></g>
<g><path style="opacity:1" fill="#10d66c" d="M 328.5,235.5 C 327.167,235.5 326.5,236.167 326.5,237.5C 325.178,237.67 324.011,237.337 323,236.5C 322.692,237.308 322.192,237.975 321.5,238.5C 320.772,236.807 319.772,235.307 318.5,234C 319.764,232.139 320.764,230.139 321.5,228C 320.36,225.232 321.027,224.898 323.5,227C 322.332,228.406 322.665,229.572 324.5,230.5C 323.674,231.451 323.508,232.451 324,233.5C 325.622,234.099 327.122,234.766 328.5,235.5 Z"/></g>
<g><path style="opacity:1" fill="#106397" d="M 354.5,230.5 C 355.338,230.842 355.672,231.508 355.5,232.5C 356.749,234.67 357.749,237.004 358.5,239.5C 358.139,241.418 357.472,241.751 356.5,240.5C 356.44,239.957 356.107,239.624 355.5,239.5C 354.482,240.193 353.482,240.859 352.5,241.5C 352.762,240.022 352.429,238.689 351.5,237.5C 349.974,237.006 348.641,236.339 347.5,235.5C 346.105,234.352 346.272,233.352 348,232.5C 348.556,234.595 349.056,234.762 349.5,233C 348.107,231.699 347.607,230.199 348,228.5C 349.016,229.634 349.683,229.301 350,227.5C 351.11,229.397 351.276,231.23 350.5,233C 351.025,233.692 351.692,234.192 352.5,234.5C 352.387,233.141 353.053,231.807 354.5,230.5 Z"/></g>
<g><path style="opacity:1" fill="#1892d9" d="M 319.5,245.5 C 318.167,245.5 317.5,246.167 317.5,247.5C 316.833,247.5 316.167,247.5 315.5,247.5C 312.762,244.601 309.762,241.767 306.5,239C 307.766,238.691 308.933,238.191 310,237.5C 314.449,237.78 316.615,240.113 316.5,244.5C 317.791,244.263 318.791,244.596 319.5,245.5 Z"/></g>
<g><path style="opacity:1" fill="#1f9a4f" d="M 344.5,234.5 C 345.268,235.263 345.768,236.263 346,237.5C 346.278,236.584 346.778,235.918 347.5,235.5C 348.641,236.339 349.974,237.006 351.5,237.5C 352.429,238.689 352.762,240.022 352.5,241.5C 351.739,242.391 350.739,243.058 349.5,243.5C 347.591,242.652 345.591,242.318 343.5,242.5C 342.833,240.167 342.167,237.833 341.5,235.5C 341.351,234.448 341.517,233.448 342,232.5C 342.708,233.381 343.542,234.047 344.5,234.5 Z"/></g>
<g><path style="opacity:1" fill="#0b79b2" d="M 338.5,245.5 C 337.504,245.586 336.671,245.252 336,244.5C 335.764,246.119 334.931,247.119 333.5,247.5C 330.985,247.231 328.985,246.231 327.5,244.5C 329.876,245.817 331.543,245.15 332.5,242.5C 331.537,241.637 331.537,240.97 332.5,240.5C 334.368,243.98 336.202,243.647 338,239.5C 339.8,241.365 339.966,243.365 338.5,245.5 Z"/></g>
<g><path style="opacity:1" fill="#0ea18f" d="M 334.5,231.5 C 337.578,231.587 339.911,232.92 341.5,235.5C 342.167,237.833 342.833,240.167 343.5,242.5C 345.591,242.318 347.591,242.652 349.5,243.5C 350.739,243.058 351.739,242.391 352.5,241.5C 353.482,240.859 354.482,240.193 355.5,239.5C 356.107,239.624 356.44,239.957 356.5,240.5C 355.599,241.29 354.932,242.29 354.5,243.5C 352.4,243.477 350.567,244.144 349,245.5C 347.715,245.05 346.548,244.383 345.5,243.5C 343.574,244.675 341.907,245.341 340.5,245.5C 339.833,245.5 339.167,245.5 338.5,245.5C 339.966,243.365 339.8,241.365 338,239.5C 336.202,243.647 334.368,243.98 332.5,240.5C 331.537,240.97 331.537,241.637 332.5,242.5C 330.598,243.511 328.598,243.678 326.5,243C 331.723,241.261 331.723,239.427 326.5,237.5C 326.5,236.167 327.167,235.5 328.5,235.5C 328.735,236.097 329.235,236.43 330,236.5C 331.221,235.728 332.221,234.728 333,233.5C 335.427,234.567 335.927,233.9 334.5,231.5 Z"/></g>
<g><path style="opacity:1" fill="#0338a1" d="M 354.5,244.5 C 355.309,245.469 356.309,246.302 357.5,247C 356.402,247.77 356.402,248.603 357.5,249.5C 355.75,250.742 354.083,252.242 352.5,254C 348.363,253.797 346.863,255.63 348,259.5C 349.385,258.449 350.385,257.116 351,255.5C 351.315,258.147 352.482,258.813 354.5,257.5C 355.855,254.812 357.855,252.812 360.5,251.5C 360.833,251.5 361.167,251.5 361.5,251.5C 362.338,251.842 362.672,252.508 362.5,253.5C 361.494,253.938 361.494,254.604 362.5,255.5C 361.883,255.611 361.383,255.944 361,256.5C 360.502,259.817 360.335,263.15 360.5,266.5C 357.878,269.824 355.711,273.49 354,277.5C 352.68,277.201 351.18,277.034 349.5,277C 348.167,276 348.167,275 349.5,274C 348.552,273.517 347.552,273.351 346.5,273.5C 346.58,276.781 345.913,279.781 344.5,282.5C 343.833,281.833 343.167,281.167 342.5,280.5C 341.56,278.428 340.06,276.761 338,275.5C 338.142,266.442 337.309,257.775 335.5,249.5C 336.209,248.596 337.209,248.263 338.5,248.5C 338.5,247.5 338.5,246.5 338.5,245.5C 339.167,245.5 339.833,245.5 340.5,245.5C 341.247,249.193 342.58,249.193 344.5,245.5C 345.5,246.167 346.5,246.833 347.5,247.5C 350.238,247.113 352.572,246.113 354.5,244.5 Z"/></g>
<g><path style="opacity:1" fill="#01719d" d="M 354.5,243.5 C 354.5,243.833 354.5,244.167 354.5,244.5C 352.572,246.113 350.238,247.113 347.5,247.5C 346.5,246.833 345.5,246.167 344.5,245.5C 342.58,249.193 341.247,249.193 340.5,245.5C 341.907,245.341 343.574,244.675 345.5,243.5C 346.548,244.383 347.715,245.05 349,245.5C 350.567,244.144 352.4,243.477 354.5,243.5 Z"/></g>
<g><path style="opacity:1" fill="#11a8a8" d="M 327.5,244.5 C 328.985,246.231 330.985,247.231 333.5,247.5C 333.261,249.467 333.594,251.301 334.5,253C 332.146,254.083 330.146,254.917 328.5,255.5C 327.957,255.44 327.624,255.107 327.5,254.5C 331.385,251.141 331.052,248.974 326.5,248C 325.748,247.329 325.414,246.496 325.5,245.5C 325.842,244.662 326.508,244.328 327.5,244.5 Z"/></g>
<g><path style="opacity:1" fill="#17e96e" d="M 315.5,247.5 C 316.167,247.5 316.833,247.5 317.5,247.5C 318.108,248.8 318.775,250.133 319.5,251.5C 319.41,253.425 318.41,254.592 316.5,255C 316.957,255.414 317.291,255.914 317.5,256.5C 315.905,257.434 314.239,257.434 312.5,256.5C 313.007,255.141 314.007,254.141 315.5,253.5C 314.181,251.468 314.181,249.468 315.5,247.5 Z"/></g>
<g><path style="opacity:1" fill="#03719f" d="M 335.5,249.5 C 337.309,257.775 338.142,266.442 338,275.5C 340.06,276.761 341.56,278.428 342.5,280.5C 340.932,278.069 339.432,278.069 338,280.5C 337.16,277.536 336.16,277.203 335,279.5C 334.545,276.863 335.045,274.363 336.5,272C 335.797,269.466 334.797,267.799 333.5,267C 333.667,266.167 333.833,265.333 334,264.5C 334.93,266.966 335.763,266.799 336.5,264C 336.119,259.149 335.786,254.315 335.5,249.5 Z"/></g>
<g><path style="opacity:1" fill="#007ba9" d="M 360.5,251.5 C 357.855,252.812 355.855,254.812 354.5,257.5C 352.482,258.813 351.315,258.147 351,255.5C 350.385,257.116 349.385,258.449 348,259.5C 346.863,255.63 348.363,253.797 352.5,254C 354.083,252.242 355.75,250.742 357.5,249.5C 357.86,251.461 358.36,250.461 359,246.5C 360.269,247.905 360.769,249.571 360.5,251.5 Z"/></g>
<g><path style="opacity:1" fill="#07d371" d="M 310.5,228.5 C 310.926,232.499 309.259,234.999 305.5,236C 305.833,236.333 306.167,236.667 306.5,237C 304.947,238.097 303.614,239.43 302.5,241C 301.256,241.456 300.423,240.956 300,239.5C 296.552,243.393 296.718,247.06 300.5,250.5C 299.232,254.059 300.565,255.226 304.5,254C 305.685,252.647 307.019,251.48 308.5,250.5C 309.308,250.808 309.975,251.308 310.5,252C 309.096,255.442 307.429,258.608 305.5,261.5C 306.833,261.5 308.167,261.5 309.5,261.5C 309.273,259.067 310.273,257.401 312.5,256.5C 313.562,258.234 313.562,259.901 312.5,261.5C 312.762,262.978 312.429,264.311 311.5,265.5C 310.145,266.188 309.145,267.188 308.5,268.5C 308.662,270.527 308.495,272.527 308,274.5C 307.667,274.167 307.333,273.833 307,273.5C 306.764,275.119 305.931,276.119 304.5,276.5C 303.286,274.192 303.286,271.859 304.5,269.5C 305.975,267.191 307.642,265.024 309.5,263C 308.833,262.833 308.167,262.667 307.5,262.5C 304.394,264.357 301.394,266.357 298.5,268.5C 298.77,263.347 298.77,258.347 298.5,253.5C 298.002,251.252 297.002,249.252 295.5,247.5C 294.914,247.709 294.414,248.043 294,248.5C 293.52,246.867 292.687,245.534 291.5,244.5C 298.145,239.521 304.478,234.187 310.5,228.5 Z"/></g>
<g><path style="opacity:1" fill="#0fc2b2" d="M 317.5,247.5 C 319.371,247.859 320.871,248.859 322,250.5C 322.77,253.206 323.937,255.706 325.5,258C 324.968,260.02 323.635,260.853 321.5,260.5C 321.5,259.5 321.5,258.5 321.5,257.5C 319.41,257.45 318.077,258.45 317.5,260.5C 315.955,261.452 314.288,261.785 312.5,261.5C 313.562,259.901 313.562,258.234 312.5,256.5C 314.239,257.434 315.905,257.434 317.5,256.5C 317.291,255.914 316.957,255.414 316.5,255C 318.41,254.592 319.41,253.425 319.5,251.5C 318.775,250.133 318.108,248.8 317.5,247.5 Z"/></g>
<g><path style="opacity:1" fill="#0076a3" d="M 247.5,241.5 C 251.646,242.275 255.812,243.275 260,244.5C 261.655,247.129 263.488,249.629 265.5,252C 268.167,252.333 270.833,252.667 273.5,253C 275.527,254.396 275.86,256.062 274.5,258C 279.915,263.463 283.582,262.63 285.5,255.5C 288.775,255.233 289.608,256.233 288,258.5C 287.291,262.868 287.458,267.201 288.5,271.5C 287.864,274.794 285.864,276.127 282.5,275.5C 283.639,272.996 284.306,270.33 284.5,267.5C 282.076,267.192 279.743,267.526 277.5,268.5C 276.512,271.45 275.679,274.45 275,277.5C 272.208,278.915 270.708,281.249 270.5,284.5C 269.726,285.711 268.893,285.711 268,284.5C 266.986,288.099 266.153,291.765 265.5,295.5C 264.167,294.167 262.833,292.833 261.5,291.5C 259.205,292.432 256.871,293.265 254.5,294C 252.957,295.878 251.124,297.378 249,298.5C 247.174,296.926 245.007,296.093 242.5,296C 238.815,291.067 234.981,286.234 231,281.5C 226.646,269.624 229.312,259.624 239,251.5C 239.167,248.667 240.667,247.167 243.5,247C 245.439,245.568 246.772,243.735 247.5,241.5 Z"/></g>
<g><path style="opacity:1" fill="#15af49" d="M 325.5,245.5 C 325.414,246.496 325.748,247.329 326.5,248C 331.052,248.974 331.385,251.141 327.5,254.5C 327.624,255.107 327.957,255.44 328.5,255.5C 328.36,257.124 329.027,258.29 330.5,259C 329.655,260.558 330.321,261.558 332.5,262C 331.422,262.674 330.755,263.674 330.5,265C 330.773,266.533 331.106,268.033 331.5,269.5C 330.069,269.119 329.236,268.119 329,266.5C 327.936,268.959 326.602,271.292 325,273.5C 323.488,272.743 322.154,271.743 321,270.5C 319.187,271.609 318.354,270.942 318.5,268.5C 319.138,266.54 319.138,264.707 318.5,263C 320.119,262.764 321.119,261.931 321.5,260.5C 323.635,260.853 324.968,260.02 325.5,258C 323.937,255.706 322.77,253.206 322,250.5C 320.871,248.859 319.371,247.859 317.5,247.5C 317.5,246.167 318.167,245.5 319.5,245.5C 321.466,245.534 323.466,245.534 325.5,245.5 Z"/></g>
<g><path style="opacity:1" fill="#003aa2" d="M 249.5,251.5 C 252.495,252.065 255.329,253.065 258,254.5C 258.772,254.355 259.439,254.022 260,253.5C 262.462,258.262 265.295,262.762 268.5,267C 266.558,271.656 264.892,276.489 263.5,281.5C 260.018,282.917 257.018,285.083 254.5,288C 252.129,288.735 249.795,289.568 247.5,290.5C 245.323,287.157 242.49,284.49 239,282.5C 232.348,269.971 235.181,260.638 247.5,254.5C 248.425,253.643 249.092,252.643 249.5,251.5 Z"/></g>
<g><path style="opacity:1" fill="#003aa3" d="M 271.5,260.5 C 274.189,262.11 277.189,262.943 280.5,263C 278.833,264 277.167,265 275.5,266C 276.335,269.703 275.169,272.87 272,275.5C 271.974,271.892 271.141,268.558 269.5,265.5C 270.456,263.925 271.123,262.258 271.5,260.5 Z"/></g>
<g><path style="opacity:1" fill="#177fca" d="M 321.5,260.5 C 321.119,261.931 320.119,262.764 318.5,263C 319.138,264.707 319.138,266.54 318.5,268.5C 316.21,266.967 315.544,267.3 316.5,269.5C 315.099,270.521 313.765,271.521 312.5,272.5C 311.566,271.432 311.232,270.099 311.5,268.5C 310.5,268.5 309.5,268.5 308.5,268.5C 309.145,267.188 310.145,266.188 311.5,265.5C 312.429,264.311 312.762,262.978 312.5,261.5C 314.288,261.785 315.955,261.452 317.5,260.5C 318.077,258.45 319.41,257.45 321.5,257.5C 321.5,258.5 321.5,259.5 321.5,260.5 Z"/></g>
<g><path style="opacity:1" fill="#0000a2" d="M 249.5,263.5 C 250.552,263.351 251.552,263.517 252.5,264C 253.208,266.768 254.708,267.601 257,266.5C 261.019,274.141 258.686,279.141 250,281.5C 248.893,281.415 247.893,281.081 247,280.5C 244.818,274.268 245.652,268.601 249.5,263.5 Z"/></g>
<g><path style="opacity:1" fill="#009e55" d="M 362.5,255.5 C 363.506,262.201 363.506,268.868 362.5,275.5C 362.833,275.833 363.167,276.167 363.5,276.5C 364.584,275.335 365.417,274.002 366,272.5C 366.692,273.025 367.192,273.692 367.5,274.5C 366.023,277.469 364.357,280.303 362.5,283C 363.022,283.561 363.355,284.228 363.5,285C 361.981,287.578 361.148,290.411 361,293.5C 358.667,298.5 356.333,303.5 354,308.5C 353.222,311.275 353.722,313.775 355.5,316C 351.463,318.559 350.13,322.059 351.5,326.5C 352.874,325.289 354.374,324.289 356,323.5C 358.25,327.043 361.417,328.543 365.5,328C 371.93,322.458 374.264,315.625 372.5,307.5C 374.495,302.202 376.495,296.868 378.5,291.5C 382.534,290.652 385.368,287.985 387,283.5C 388.667,282.5 390.333,281.5 392,280.5C 394.039,276.255 396.206,272.088 398.5,268C 399.872,267.598 401.205,267.098 402.5,266.5C 403.969,269.114 404.636,271.948 404.5,275C 398.787,314.425 382.121,348.425 354.5,377C 347.191,383.158 338.858,386.825 329.5,388C 328.39,385.263 328.223,382.429 329,379.5C 333.476,369.88 338.476,360.547 344,351.5C 344.257,347.623 345.257,343.957 347,340.5C 347.667,338.833 347.667,337.167 347,335.5C 345.732,338.062 343.898,338.728 341.5,337.5C 342.5,334.167 343.5,330.833 344.5,327.5C 342.896,325.821 342.229,323.821 342.5,321.5C 341.5,321.5 340.5,321.5 339.5,321.5C 339.171,318.772 339.837,316.438 341.5,314.5C 341.418,316.252 342.251,317.252 344,317.5C 345.944,316.561 347.611,315.227 349,313.5C 351.892,306.926 355.225,300.592 359,294.5C 358.916,290.121 359.082,285.788 359.5,281.5C 359.332,279.829 358.665,278.496 357.5,277.5C 358.2,273.763 359.2,270.096 360.5,266.5C 360.335,263.15 360.502,259.817 361,256.5C 361.383,255.944 361.883,255.611 362.5,255.5 Z"/></g>
<g><path style="opacity:1" fill="#139da0" d="M 331.5,269.5 C 331.5,270.833 331.5,272.167 331.5,273.5C 328.412,273.197 326.746,274.53 326.5,277.5C 325.448,277.649 324.448,277.483 323.5,277C 324.833,276.333 324.833,275.667 323.5,275C 322.5,274.667 321.5,274.333 320.5,274C 320.833,273.667 321.167,273.333 321.5,273C 318.904,272.542 316.737,273.375 315,275.5C 314.5,275 314,274.5 313.5,274C 314.712,272.893 314.379,272.393 312.5,272.5C 313.765,271.521 315.099,270.521 316.5,269.5C 315.544,267.3 316.21,266.967 318.5,268.5C 318.354,270.942 319.187,271.609 321,270.5C 322.154,271.743 323.488,272.743 325,273.5C 326.602,271.292 327.936,268.959 329,266.5C 329.236,268.119 330.069,269.119 331.5,269.5 Z"/></g>
<g><path style="opacity:1" fill="#0eb6b1" d="M 304.5,276.5 C 303.661,277.641 302.994,278.974 302.5,280.5C 301.277,281.614 299.944,281.781 298.5,281C 298.833,280.667 299.167,280.333 299.5,280C 298.421,279.044 297.255,278.211 296,277.5C 295.764,275.236 295.264,273.069 294.5,271C 296.066,270.392 297.4,269.558 298.5,268.5C 301.394,266.357 304.394,264.357 307.5,262.5C 308.167,262.667 308.833,262.833 309.5,263C 307.642,265.024 305.975,267.191 304.5,269.5C 303.286,271.859 303.286,274.192 304.5,276.5 Z"/></g>
<g><path style="opacity:1" fill="#0f80ae" d="M 329.5,288.5 C 328.514,286.592 326.848,285.592 324.5,285.5C 324.804,284.85 325.137,284.183 325.5,283.5C 323.604,282.534 321.604,282.201 319.5,282.5C 317.883,281.962 316.216,281.629 314.5,281.5C 314.44,280.957 314.107,280.624 313.5,280.5C 312.784,282.482 311.617,284.149 310,285.5C 308.812,284.437 308.312,283.103 308.5,281.5C 309.117,281.611 309.617,281.944 310,282.5C 311.852,280.77 311.686,279.604 309.5,279C 310.784,278.316 311.951,278.483 313,279.5C 313.308,278.692 313.808,278.025 314.5,277.5C 315.696,277.846 315.696,278.346 314.5,279C 315.872,279.402 317.205,279.902 318.5,280.5C 319.333,279.5 320.167,278.5 321,277.5C 321.617,278.449 321.451,279.282 320.5,280C 324.197,282.218 327.531,281.718 330.5,278.5C 331.308,278.808 331.975,279.308 332.5,280C 331.167,281.333 329.833,282.667 328.5,284C 332.027,284.783 332.36,286.283 329.5,288.5 Z"/></g>
<g><path style="opacity:1" fill="#1bb85c" d="M 314.5,281.5 C 316.216,281.629 317.883,281.962 319.5,282.5C 320.441,284.05 321.107,285.716 321.5,287.5C 318.858,289.741 316.025,291.075 313,291.5C 305.722,289.039 305.889,287.039 313.5,285.5C 314.246,284.264 314.579,282.93 314.5,281.5 Z"/></g>
<g><path style="opacity:1" fill="#1353b5" d="M 308.5,281.5 C 307.221,282.968 305.554,283.635 303.5,283.5C 304.398,282.842 305.398,282.176 306.5,281.5C 307.768,276.304 308.435,276.304 308.5,281.5 Z"/></g>
<g><path style="opacity:1" fill="#023aad" d="M 319.5,282.5 C 321.604,282.201 323.604,282.534 325.5,283.5C 325.137,284.183 324.804,284.85 324.5,285.5C 323.778,286.551 322.778,287.218 321.5,287.5C 321.107,285.716 320.441,284.05 319.5,282.5 Z"/></g>
<g><path style="opacity:1" fill="#18869b" d="M 360.5,266.5 C 359.2,270.096 358.2,273.763 357.5,277.5C 356.596,278.209 356.263,279.209 356.5,280.5C 355.022,280.238 353.689,280.571 352.5,281.5C 353.609,282.965 353.109,283.965 351,284.5C 350.707,287.954 349.374,288.288 347,285.5C 346.544,286.744 347.044,287.577 348.5,288C 347.956,288.717 347.289,289.217 346.5,289.5C 345.087,288.065 343.42,287.065 341.5,286.5C 344.745,286.322 345.745,284.989 344.5,282.5C 345.913,279.781 346.58,276.781 346.5,273.5C 347.552,273.351 348.552,273.517 349.5,274C 348.167,275 348.167,276 349.5,277C 351.18,277.034 352.68,277.201 354,277.5C 355.711,273.49 357.878,269.824 360.5,266.5 Z"/></g>
<g><path style="opacity:1" fill="#00719d" d="M 368.5,284.5 C 369.947,285.134 370.613,286.301 370.5,288C 369.48,291.209 368.314,294.376 367,297.5C 366.009,296.57 365.509,295.404 365.5,294C 366.603,290.859 367.603,287.693 368.5,284.5 Z"/></g>
<g><path style="opacity:1" fill="#2a9215" d="M 357.5,277.5 C 358.665,278.496 359.332,279.829 359.5,281.5C 359.082,285.788 358.916,290.121 359,294.5C 355.225,300.592 351.892,306.926 349,313.5C 347.611,315.227 345.944,316.561 344,317.5C 342.251,317.252 341.418,316.252 341.5,314.5C 341.402,312.447 342.069,310.78 343.5,309.5C 346.322,308.211 346.989,306.211 345.5,303.5C 339.545,304.772 339.378,303.438 345,299.5C 345.47,298.423 345.303,297.423 344.5,296.5C 343.499,295.211 343.666,293.878 345,292.5C 345.333,292.833 345.667,293.167 346,293.5C 346.49,292.207 346.657,290.873 346.5,289.5C 347.289,289.217 347.956,288.717 348.5,288C 347.044,287.577 346.544,286.744 347,285.5C 349.374,288.288 350.707,287.954 351,284.5C 353.109,283.965 353.609,282.965 352.5,281.5C 353.689,280.571 355.022,280.238 356.5,280.5C 356.263,279.209 356.596,278.209 357.5,277.5 Z"/></g>
<g><path style="opacity:1" fill="#0f7d6d" d="M 341.5,286.5 C 343.42,287.065 345.087,288.065 346.5,289.5C 346.657,290.873 346.49,292.207 346,293.5C 345.667,293.167 345.333,292.833 345,292.5C 343.666,293.878 343.499,295.211 344.5,296.5C 343.185,297.476 341.852,298.476 340.5,299.5C 339.676,297.252 338.676,297.086 337.5,299C 337.833,299.333 338.167,299.667 338.5,300C 337.552,300.483 336.552,300.649 335.5,300.5C 335.423,299.25 334.756,298.417 333.5,298C 334.712,296.893 334.379,296.393 332.5,296.5C 333.807,295.198 333.807,293.865 332.5,292.5C 333.76,291.618 334.926,290.618 336,289.5C 336.957,291.709 338.124,291.543 339.5,289C 336.785,288.125 335.452,286.292 335.5,283.5C 337.911,283.137 339.411,284.137 340,286.5C 340.807,282.551 341.307,282.551 341.5,286.5 Z"/></g>
<g><path style="opacity:1" fill="#009f1c" d="M 395.5,291.5 C 396.139,292.097 396.472,292.93 396.5,294C 390.38,322.412 377.047,346.745 356.5,367C 353.5,368.833 350.5,370.667 347.5,372.5C 347.466,369.945 346.466,367.445 344.5,365C 345.078,363.189 345.578,361.355 346,359.5C 353.691,350.81 361.691,342.477 370,334.5C 377.418,322.262 384.084,309.596 390,296.5C 390.333,297.167 390.667,297.833 391,298.5C 392,297.167 393,295.833 394,294.5C 394.333,294.833 394.667,295.167 395,295.5C 395.49,294.207 395.657,292.873 395.5,291.5 Z"/></g>
<g><path style="opacity:1" fill="#0aa395" d="M 314.5,281.5 C 314.579,282.93 314.246,284.264 313.5,285.5C 305.889,287.039 305.722,289.039 313,291.5C 316.025,291.075 318.858,289.741 321.5,287.5C 322.778,287.218 323.778,286.551 324.5,285.5C 326.848,285.592 328.514,286.592 329.5,288.5C 328.85,288.196 328.183,287.863 327.5,287.5C 326.618,288.76 325.618,289.926 324.5,291C 324.833,291.333 325.167,291.667 325.5,292C 324.016,292.662 322.683,293.496 321.5,294.5C 321.649,293.448 321.483,292.448 321,291.5C 318.297,293.034 315.797,294.201 313.5,295C 315.62,296.523 315.953,298.356 314.5,300.5C 315.325,301.386 316.325,301.719 317.5,301.5C 315.455,302.923 314.455,304.923 314.5,307.5C 311.402,307.587 311.068,307.087 313.5,306C 313.272,305.601 312.938,305.435 312.5,305.5C 312.804,304.85 313.137,304.183 313.5,303.5C 312.69,300.074 311.69,296.741 310.5,293.5C 308.54,294.138 306.707,294.138 305,293.5C 304.503,291.19 304.337,288.857 304.5,286.5C 303.5,286.5 302.5,286.5 301.5,286.5C 301.285,284.821 301.952,283.821 303.5,283.5C 305.554,283.635 307.221,282.968 308.5,281.5C 308.312,283.103 308.812,284.437 310,285.5C 311.617,284.149 312.784,282.482 313.5,280.5C 314.107,280.624 314.44,280.957 314.5,281.5 Z"/></g>
<g><path style="opacity:1" fill="#157688" d="M 321.5,294.5 C 321.461,295.756 321.961,296.756 323,297.5C 325.26,294.472 328.094,292.638 331.5,292C 329.983,293.685 328.316,295.185 326.5,296.5C 327.414,300.411 329.414,301.244 332.5,299C 331.377,297.956 330.044,297.29 328.5,297C 329.793,296.51 331.127,296.343 332.5,296.5C 334.379,296.393 334.712,296.893 333.5,298C 334.756,298.417 335.423,299.25 335.5,300.5C 333.436,300.762 332.103,301.929 331.5,304C 328.51,304.897 325.51,305.731 322.5,306.5C 321.289,305.726 321.289,304.893 322.5,304C 321.692,303.692 321.025,303.192 320.5,302.5C 321.313,301.186 322.313,300.019 323.5,299C 320.23,296.802 318.23,297.635 317.5,301.5C 316.325,301.719 315.325,301.386 314.5,300.5C 315.953,298.356 315.62,296.523 313.5,295C 315.797,294.201 318.297,293.034 321,291.5C 321.483,292.448 321.649,293.448 321.5,294.5 Z"/></g>
<g><path style="opacity:1" fill="#078b4e" d="M 344.5,296.5 C 345.303,297.423 345.47,298.423 345,299.5C 339.378,303.438 339.545,304.772 345.5,303.5C 346.989,306.211 346.322,308.211 343.5,309.5C 343.906,307.891 343.906,306.557 343.5,305.5C 341.142,307.024 339.309,309.024 338,311.5C 336.757,310.664 335.59,310.997 334.5,312.5C 333.36,314.078 332.86,315.744 333,317.5C 334.574,316.016 335.907,314.349 337,312.5C 336.799,315.777 336.632,319.111 336.5,322.5C 334.173,322.247 332.173,322.914 330.5,324.5C 329.5,324.167 328.833,323.5 328.5,322.5C 329.165,320.899 329.499,319.399 329.5,318C 328.004,317.493 326.837,317.993 326,319.5C 325.25,318.874 324.416,318.374 323.5,318C 325.373,315.791 327.54,313.958 330,312.5C 330.612,310.763 329.946,309.763 328,309.5C 324.924,309.756 321.758,309.923 318.5,310C 316.773,311.389 315.439,313.056 314.5,315C 315.414,316.406 316.08,317.906 316.5,319.5C 316.672,320.492 316.338,321.158 315.5,321.5C 315.167,321.5 314.833,321.5 314.5,321.5C 314.167,321.5 313.833,321.5 313.5,321.5C 314.303,320.577 314.47,319.577 314,318.5C 311.305,316.306 308.472,314.306 305.5,312.5C 306.804,309.87 308.47,307.537 310.5,305.5C 311.167,305.5 311.833,305.5 312.5,305.5C 312.938,305.435 313.272,305.601 313.5,306C 311.068,307.087 311.402,307.587 314.5,307.5C 314.455,304.923 315.455,302.923 317.5,301.5C 318.23,297.635 320.23,296.802 323.5,299C 322.313,300.019 321.313,301.186 320.5,302.5C 321.025,303.192 321.692,303.692 322.5,304C 321.289,304.893 321.289,305.726 322.5,306.5C 325.51,305.731 328.51,304.897 331.5,304C 332.103,301.929 333.436,300.762 335.5,300.5C 336.552,300.649 337.552,300.483 338.5,300C 338.167,299.667 337.833,299.333 337.5,299C 338.676,297.086 339.676,297.252 340.5,299.5C 341.852,298.476 343.185,297.476 344.5,296.5 Z"/></g>
<g><path style="opacity:1" fill="#239f0f" d="M 310.5,305.5 C 308.47,307.537 306.804,309.87 305.5,312.5C 308.472,314.306 311.305,316.306 314,318.5C 314.47,319.577 314.303,320.577 313.5,321.5C 312.193,322.153 310.86,322.82 309.5,323.5C 305.833,320.88 302.667,321.547 300,325.5C 296.435,322.594 292.435,320.594 288,319.5C 286.846,320.743 285.512,321.743 284,322.5C 282.114,319.758 279.614,318.091 276.5,317.5C 276.318,315.409 276.652,313.409 277.5,311.5C 275.275,305.884 275.108,300.217 277,294.5C 278.399,293.773 279.899,293.273 281.5,293C 282.82,290.785 282.153,289.285 279.5,288.5C 277.429,279.86 280.095,278.194 287.5,283.5C 287.167,284.167 286.833,284.833 286.5,285.5C 288.086,287.173 288.753,289.173 288.5,291.5C 292.546,291.85 296.38,291.183 300,289.5C 301.796,294.3 305.129,297.3 310,298.5C 310.251,300.433 310.751,302.266 311.5,304C 310.944,304.383 310.611,304.883 310.5,305.5 Z"/></g>
<g><path style="opacity:1" fill="#07a019" d="M 234.5,308.5 C 243.038,312.548 248.538,319.215 251,328.5C 255.333,333.5 259.667,338.5 264,343.5C 264.741,342.359 265.575,342.359 266.5,343.5C 271.77,351.605 278.27,358.605 286,364.5C 288.216,369.981 289.716,375.647 290.5,381.5C 289.41,385.813 286.577,388.146 282,388.5C 271.701,384.55 262.701,378.55 255,370.5C 245.187,359.547 236.854,347.547 230,334.5C 225.934,326.919 224.434,318.919 225.5,310.5C 228.64,309.911 231.64,309.244 234.5,308.5 Z"/></g>
<g><path style="opacity:1" fill="#0074a1" d="M 419.5,308.5 C 420.641,311.64 420.808,314.973 420,318.5C 414.444,343.94 403.778,366.94 388,387.5C 380.848,396.181 372.015,402.181 361.5,405.5C 361.608,403.217 362.441,401.217 364,399.5C 377.208,384.962 388.874,369.296 399,352.5C 406.137,337.897 412.971,323.23 419.5,308.5 Z"/></g>
<g><path style="opacity:1" fill="#00719d" d="M 315.5,321.5 C 316.338,321.158 316.672,320.492 316.5,319.5C 318.442,317.315 319.442,314.981 319.5,312.5C 321.749,312.597 324.082,312.43 326.5,312C 325.025,314.309 323.358,316.476 321.5,318.5C 323.318,319.774 324.985,321.274 326.5,323C 326.045,325.55 325.711,328.384 325.5,331.5C 327.981,333.023 330.481,334.69 333,336.5C 332.503,338.198 332.67,339.865 333.5,341.5C 335.337,342.838 337.003,344.338 338.5,346C 335.439,356.957 330.439,366.791 323.5,375.5C 316.251,381.11 309.417,380.776 303,374.5C 301.435,370.6 299.435,366.934 297,363.5C 296.603,357.802 294.603,352.802 291,348.5C 290.975,345.083 290.808,341.75 290.5,338.5C 290.737,335.937 291.237,335.937 292,338.5C 292.971,337.802 294.137,337.802 295.5,338.5C 305.281,336.378 311.948,330.711 315.5,321.5 Z"/></g>
<g><path style="opacity:1" fill="#00379c" d="M 319.5,321.5 C 320.833,321.5 322.167,321.5 323.5,321.5C 324,327.329 321.334,329.663 315.5,328.5C 315.961,325.697 317.295,323.363 319.5,321.5 Z"/></g>
<g><path style="opacity:1" fill="#00389d" d="M 313.5,330.5 C 314.216,332.556 314.883,334.723 315.5,337C 321.828,338.646 327.161,341.979 331.5,347C 330.462,357.414 325.795,365.747 317.5,372C 314.036,372.817 310.702,372.483 307.5,371C 306.751,369.266 306.251,367.433 306,365.5C 303.597,364.219 301.763,362.386 300.5,360C 303.742,355.778 303.742,351.778 300.5,348C 303.681,343.154 307.848,339.321 313,336.5C 312.386,334.46 312.552,332.46 313.5,330.5 Z"/></g>
<g><path style="opacity:1" fill="#00009d" d="M 312.5,343.5 C 316.332,345.388 319.999,347.555 323.5,350C 323.047,353.227 322.047,356.227 320.5,359C 322.022,363.35 320.355,365.85 315.5,366.5C 313.338,363.506 310.672,361.006 307.5,359C 308.167,357.333 308.833,355.667 309.5,354C 308.01,349.807 309.01,346.307 312.5,343.5 Z"/></g>
<g><path style="opacity:1" fill="#0074a0" d="M 197.5,347.5 C 200.168,349.336 202.334,351.669 204,354.5C 216.446,382.943 235.446,405.943 261,423.5C 263.435,425.437 263.602,427.27 261.5,429C 254.491,430.195 247.825,429.195 241.5,426C 223.418,414.718 210.918,398.885 204,378.5C 200.088,368.52 197.921,358.186 197.5,347.5 Z"/></g>
</svg>
