<?xml version="1.0" encoding="UTF-8"?>
<!DOCTYPE svg PUBLIC "-//W3C//DTD SVG 1.1//EN" "http://www.w3.org/Graphics/SVG/1.1/DTD/svg11.dtd">
<svg xmlns="http://www.w3.org/2000/svg" version="1.1" width="993px" height="579px" style="shape-rendering:geometricPrecision; text-rendering:geometricPrecision; image-rendering:optimizeQuality; fill-rule:evenodd; clip-rule:evenodd" xmlns:xlink="http://www.w3.org/1999/xlink">
<g><path style="opacity:1" fill="#2b333b" d="M -0.5,-0.5 C 330.5,-0.5 661.5,-0.5 992.5,-0.5C 992.5,192.5 992.5,385.5 992.5,578.5C 661.5,578.5 330.5,578.5 -0.5,578.5C -0.5,385.5 -0.5,192.5 -0.5,-0.5 Z"/></g>
<g><path style="opacity:1" fill="#0000a0" d="M 507.5,14.5 C 517.55,14.1687 527.55,14.6687 537.5,16C 532.336,153.755 527.669,291.589 523.5,429.5C 363.518,473.826 203.518,518.159 43.5,562.5C 38.3011,561.434 33.3011,559.767 28.5,557.5C 25.8078,392.173 23.4744,226.839 21.5,61.5C 21.8333,49.5 22.1667,37.5 22.5,25.5C 184.294,21.8446 345.961,18.178 507.5,14.5 Z"/></g>
<g><path style="opacity:1" fill="#0039a0" d="M 324.5,143.5 C 331.508,143.334 338.508,143.5 345.5,144C 355.446,147.233 363.612,153.067 370,161.5C 381.466,176.213 388.466,192.88 391,211.5C 391.913,234.863 391.58,258.196 390,281.5C 383.923,311.554 370.089,337.387 348.5,359C 342.101,363.365 335.101,366.365 327.5,368C 318.772,369.349 310.106,371.015 301.5,373C 284.629,375.148 270.795,369.648 260,356.5C 246.001,340.154 238.335,321.154 237,299.5C 227.552,247.266 239.886,201.266 274,161.5C 288.157,147.97 304.991,141.97 324.5,143.5 Z"/></g>
<g><path style="opacity:1" fill="#0074a0" d="M 329.5,148.5 C 339.441,147.647 348.441,150.147 356.5,156C 375.584,172.333 386.084,193.166 388,218.5C 388.795,240.217 388.128,261.883 386,283.5C 380.388,310.234 367.888,333.067 348.5,352C 343.666,355.252 338.666,358.252 333.5,361C 319.685,364.765 305.685,367.098 291.5,368C 277.403,364.868 266.236,357.368 258,345.5C 248.394,332.019 242.727,317.019 241,300.5C 240.08,278.467 240.413,256.467 242,234.5C 247.216,205.894 260.383,181.727 281.5,162C 287.01,157.832 293.01,154.498 299.5,152C 309.595,150.418 319.595,149.252 329.5,148.5 Z"/></g>
<g><path style="opacity:1" fill="#00a091" d="M 335.5,153.5 C 342.976,153.202 349.642,155.368 355.5,160C 375.265,177.532 384.931,199.532 384.5,226C 383.464,239.841 383.464,253.674 384.5,267.5C 382.748,299.833 370.081,327 346.5,349C 337.546,355.406 327.546,358.072 316.5,357C 310.259,359.287 303.926,361.287 297.5,363C 289.885,364.013 282.885,362.346 276.5,358C 254.46,341.08 243.793,318.58 244.5,290.5C 245.75,276.498 245.75,262.498 244.5,248.5C 246.035,215.265 259.035,187.432 283.5,165C 293.595,157.144 304.928,154.644 317.5,157.5C 323.6,156.139 329.6,154.806 335.5,153.5 Z"/></g>
<g><path style="opacity:1" fill="#32991d" d="M 359.5,239.5 C 360.167,239.5 360.833,239.5 361.5,239.5C 361.5,244.167 359.167,246.5 354.5,246.5C 353.632,250.808 353.466,255.141 354,259.5C 355.011,260.337 356.178,260.67 357.5,260.5C 356.013,264.117 354.68,267.784 353.5,271.5C 352.89,272.391 352.557,273.391 352.5,274.5C 351.559,276.05 350.893,277.716 350.5,279.5C 350.5,280.167 350.167,280.5 349.5,280.5C 347.233,283.271 344.733,285.938 342,288.5C 340.527,292.779 338.527,296.779 336,300.5C 335.617,299.944 335.117,299.611 334.5,299.5C 332.565,302.371 330.899,305.371 329.5,308.5C 328.5,308.5 327.5,308.5 326.5,308.5C 328.485,305.261 329.151,301.927 328.5,298.5C 329.833,295.167 332.167,292.833 335.5,291.5C 337.097,290.263 338.263,288.596 339,286.5C 339.893,287.711 340.726,287.711 341.5,286.5C 343.494,284.184 344.494,281.518 344.5,278.5C 346.065,275.021 345.732,272.521 343.5,271C 344.596,268.853 346.096,268.353 348,269.5C 348.837,267.179 349.17,264.845 349,262.5C 348.667,263.167 348.333,263.833 348,264.5C 347.149,261.947 347.482,259.614 349,257.5C 349.333,258.167 349.667,258.833 350,259.5C 350.638,258.391 351.138,257.225 351.5,256C 350.189,252.569 349.189,249.069 348.5,245.5C 348.75,242.786 348.917,240.119 349,237.5C 348.424,240.124 347.09,240.791 345,239.5C 344.667,240.167 344.333,240.833 344,241.5C 343.667,239.833 343.333,238.167 343,236.5C 342,237.833 341,237.833 340,236.5C 338.372,237.962 338.205,239.628 339.5,241.5C 338.141,240.993 337.141,239.993 336.5,238.5C 335.893,238.624 335.56,238.957 335.5,239.5C 335.167,239.5 334.833,239.5 334.5,239.5C 332.143,239.663 329.81,239.497 327.5,239C 326.748,238.329 326.414,237.496 326.5,236.5C 328.379,236.607 328.712,236.107 327.5,235C 328.416,234.722 329.082,234.222 329.5,233.5C 329.567,232.041 329.234,230.708 328.5,229.5C 329.791,229.737 330.791,229.404 331.5,228.5C 332.117,228.389 332.617,228.056 333,227.5C 333.639,230.112 334.806,232.446 336.5,234.5C 337.736,233.754 339.07,233.421 340.5,233.5C 340.5,232.5 340.5,231.5 340.5,230.5C 340.821,229.183 341.154,227.849 341.5,226.5C 339.908,223.725 338.908,220.725 338.5,217.5C 337.833,217.167 337.167,216.833 336.5,216.5C 332.987,212.097 331.82,207.097 333,201.5C 338.457,198.73 343.624,199.396 348.5,203.5C 351.444,207.053 353.61,211.053 355,215.5C 356.823,223.105 357.823,230.771 358,238.5C 355.724,241.064 353.724,240.73 352,237.5C 350.833,241.667 352.333,243.167 356.5,242C 357.571,241.148 358.571,240.315 359.5,239.5 Z"/></g>
<g><path style="opacity:1" fill="#003aa1" d="M 334.5,239.5 C 334.833,239.5 335.167,239.5 335.5,239.5C 336.613,240.946 336.78,242.613 336,244.5C 334.647,245.685 333.48,247.019 332.5,248.5C 333.868,249.594 335.035,249.26 336,247.5C 337.892,248.617 338.725,250.284 338.5,252.5C 341.142,252.512 342.475,251.179 342.5,248.5C 347.336,251.947 347.336,255.28 342.5,258.5C 341.638,261.823 340.972,265.323 340.5,269C 341.817,273.192 340.484,276.359 336.5,278.5C 335.883,278.611 335.383,278.944 335,279.5C 334.689,277.444 334.189,275.444 333.5,273.5C 333.5,268.5 333.5,263.5 333.5,258.5C 331.902,256.027 330.402,256.027 329,258.5C 328.218,261.257 328.718,263.757 330.5,266C 329.692,267.706 328.359,268.539 326.5,268.5C 326.022,271.278 327.022,273.278 329.5,274.5C 328.84,276.815 327.507,278.481 325.5,279.5C 325.565,279.938 325.399,280.272 325,280.5C 324.764,278.881 323.931,277.881 322.5,277.5C 322.5,277.167 322.5,276.833 322.5,276.5C 323.478,276.189 324.145,275.522 324.5,274.5C 323.309,271.363 322.309,268.197 321.5,265C 322.092,259.841 322.425,254.674 322.5,249.5C 323.948,247.445 325.281,245.278 326.5,243C 329.572,242.422 332.239,241.255 334.5,239.5 Z"/></g>
<g><path style="opacity:1" fill="#19915b" d="M 348.5,245.5 C 347.642,251.017 346.809,256.683 346,262.5C 345,263.833 344,263.833 343,262.5C 342.51,261.207 342.343,259.873 342.5,258.5C 347.336,255.28 347.336,251.947 342.5,248.5C 341.758,246.02 340.758,243.687 339.5,241.5C 338.205,239.628 338.372,237.962 340,236.5C 341,237.833 342,237.833 343,236.5C 343.333,238.167 343.667,239.833 344,241.5C 344.333,240.833 344.667,240.167 345,239.5C 347.09,240.791 348.424,240.124 349,237.5C 348.917,240.119 348.75,242.786 348.5,245.5 Z"/></g>
<g><path style="opacity:1" fill="#00709b" d="M 363.5,241.5 C 366.1,242.919 368.6,244.585 371,246.5C 372.446,252.099 370.613,256.099 365.5,258.5C 362.771,255.15 359.771,254.817 356.5,257.5C 354.539,253.201 355.706,250.201 360,248.5C 361.18,246.14 362.347,243.807 363.5,241.5 Z"/></g>
<g><path style="opacity:1" fill="#14aa41" d="M 321.5,243.5 C 322.097,243.735 322.43,244.235 322.5,245C 320.538,247.311 319.205,249.478 318.5,251.5C 317.596,252.209 317.263,253.209 317.5,254.5C 317.649,255.552 317.483,256.552 317,257.5C 313.431,256.557 309.931,255.557 306.5,254.5C 307.609,253.71 308.942,253.21 310.5,253C 309.258,250.339 307.424,249.839 305,251.5C 303.97,251.164 303.47,250.497 303.5,249.5C 309.124,249.258 312.958,246.591 315,241.5C 316.333,243.167 317.667,244.833 319,246.5C 319.236,244.881 320.069,243.881 321.5,243.5 Z"/></g>
<g><path style="opacity:1" fill="#109898" d="M 324.5,233.5 C 323.086,235.598 323.752,236.598 326.5,236.5C 326.414,237.496 326.748,238.329 327.5,239C 329.81,239.497 332.143,239.663 334.5,239.5C 332.239,241.255 329.572,242.422 326.5,243C 325.281,245.278 323.948,247.445 322.5,249.5C 321.733,250.172 321.066,251.005 320.5,252C 319.563,252.692 318.897,252.525 318.5,251.5C 319.205,249.478 320.538,247.311 322.5,245C 322.43,244.235 322.097,243.735 321.5,243.5C 321.69,239.705 322.69,236.372 324.5,233.5 Z"/></g>
<g><path style="opacity:1" fill="#0d6ca1" d="M 335.5,239.5 C 335.56,238.957 335.893,238.624 336.5,238.5C 337.141,239.993 338.141,240.993 339.5,241.5C 340.758,243.687 341.758,246.02 342.5,248.5C 342.475,251.179 341.142,252.512 338.5,252.5C 338.725,250.284 337.892,248.617 336,247.5C 335.035,249.26 333.868,249.594 332.5,248.5C 333.48,247.019 334.647,245.685 336,244.5C 336.78,242.613 336.613,240.946 335.5,239.5 Z"/></g>
<g><path style="opacity:1" fill="#00389c" d="M 363.5,246.5 C 364.5,246.5 365.5,246.5 366.5,246.5C 366.662,248.527 366.495,250.527 366,252.5C 363.875,253.851 362.708,253.185 362.5,250.5C 362.846,249.151 363.179,247.817 363.5,246.5 Z"/></g>
<g><path style="opacity:1" fill="#0874a2" d="M 322.5,249.5 C 322.425,254.674 322.092,259.841 321.5,265C 322.309,268.197 323.309,271.363 324.5,274.5C 324.145,275.522 323.478,276.189 322.5,276.5C 322.688,274.897 322.188,273.563 321,272.5C 320.667,273.167 320.333,273.833 320,274.5C 318.519,273.529 317.685,272.196 317.5,270.5C 318.705,267.259 320.038,264.092 321.5,261C 321.357,258.849 320.357,257.182 318.5,256C 319.712,254.893 319.379,254.393 317.5,254.5C 317.263,253.209 317.596,252.209 318.5,251.5C 318.897,252.525 319.563,252.692 320.5,252C 321.066,251.005 321.733,250.172 322.5,249.5 Z"/></g>
<g><path style="opacity:1" fill="#12808a" d="M 348.5,245.5 C 349.189,249.069 350.189,252.569 351.5,256C 351.138,257.225 350.638,258.391 350,259.5C 349.667,258.833 349.333,258.167 349,257.5C 347.482,259.614 347.149,261.947 348,264.5C 348.333,263.833 348.667,263.167 349,262.5C 349.17,264.845 348.837,267.179 348,269.5C 346.096,268.353 344.596,268.853 343.5,271C 345.732,272.521 346.065,275.021 344.5,278.5C 343.691,276.987 343.524,275.32 344,273.5C 342.375,276.295 340.541,278.962 338.5,281.5C 337.893,281.376 337.56,281.043 337.5,280.5C 337.167,279.833 336.833,279.167 336.5,278.5C 340.484,276.359 341.817,273.192 340.5,269C 340.972,265.323 341.638,261.823 342.5,258.5C 342.343,259.873 342.51,261.207 343,262.5C 344,263.833 345,263.833 346,262.5C 346.809,256.683 347.642,251.017 348.5,245.5 Z"/></g>
<g><path style="opacity:1" fill="#107ea7" d="M 306.5,254.5 C 309.086,255.415 311.086,257.082 312.5,259.5C 310.501,260.857 309.335,260.19 309,257.5C 308.601,257.728 308.435,258.062 308.5,258.5C 307.5,259.167 306.5,259.833 305.5,260.5C 305.657,259.127 305.49,257.793 305,256.5C 304.617,257.056 304.117,257.389 303.5,257.5C 303.5,255.5 304.5,254.5 306.5,254.5 Z"/></g>
<g><path style="opacity:1" fill="#16a184" d="M 306.5,254.5 C 309.931,255.557 313.431,256.557 317,257.5C 317.483,256.552 317.649,255.552 317.5,254.5C 319.379,254.393 319.712,254.893 318.5,256C 320.357,257.182 321.357,258.849 321.5,261C 320.038,264.092 318.705,267.259 317.5,270.5C 315.9,268.702 315.566,266.702 316.5,264.5C 315.478,263.646 314.645,262.646 314,261.5C 313.667,261.833 313.333,262.167 313,262.5C 312.517,261.552 312.351,260.552 312.5,259.5C 311.086,257.082 309.086,255.415 306.5,254.5 Z"/></g>
<g><path style="opacity:1" fill="#00729e" d="M 336.5,278.5 C 336.833,279.167 337.167,279.833 337.5,280.5C 335.876,280.36 334.71,281.027 334,282.5C 333.617,281.944 333.117,281.611 332.5,281.5C 333.963,279.402 333.796,277.402 332,275.5C 329.957,277.208 328.29,279.208 327,281.5C 326.722,280.584 326.222,279.918 325.5,279.5C 327.507,278.481 328.84,276.815 329.5,274.5C 327.022,273.278 326.022,271.278 326.5,268.5C 328.359,268.539 329.692,267.706 330.5,266C 328.718,263.757 328.218,261.257 329,258.5C 330.402,256.027 331.902,256.027 333.5,258.5C 333.5,263.5 333.5,268.5 333.5,273.5C 334.189,275.444 334.689,277.444 335,279.5C 335.383,278.944 335.883,278.611 336.5,278.5 Z"/></g>
<g><path style="opacity:1" fill="#0077a4" d="M 267.5,258.5 C 270.374,259.363 273.041,260.697 275.5,262.5C 279.134,261.404 282.801,260.904 286.5,261C 288.051,264.572 287.051,267.239 283.5,269C 279.557,270.223 275.89,271.89 272.5,274C 258.963,272.143 257.296,266.976 267.5,258.5 Z"/></g>
<g><path style="opacity:1" fill="#003ba3" d="M 268.5,263.5 C 269.467,264.806 270.801,265.473 272.5,265.5C 272.55,267.59 271.55,268.923 269.5,269.5C 267.261,267.867 266.928,265.867 268.5,263.5 Z"/></g>
<g><path style="opacity:1" fill="#27a23f" d="M 305.5,260.5 C 305.821,262.048 306.821,262.715 308.5,262.5C 308.5,261.167 308.5,259.833 308.5,258.5C 308.435,258.062 308.601,257.728 309,257.5C 309.335,260.19 310.501,260.857 312.5,259.5C 312.351,260.552 312.517,261.552 313,262.5C 313.333,262.167 313.667,261.833 314,261.5C 314.645,262.646 315.478,263.646 316.5,264.5C 315.566,266.702 315.9,268.702 317.5,270.5C 317.685,272.196 318.519,273.529 320,274.5C 320.333,273.833 320.667,273.167 321,272.5C 322.188,273.563 322.688,274.897 322.5,276.5C 322.5,276.833 322.5,277.167 322.5,277.5C 318.69,277.012 315.524,275.346 313,272.5C 312.05,273.022 311.216,273.689 310.5,274.5C 308.477,272.827 306.144,272.16 303.5,272.5C 303.5,271.5 303.5,270.5 303.5,269.5C 304.5,269.5 305.5,269.5 306.5,269.5C 306.5,268.5 306.5,267.5 306.5,266.5C 305.325,266.719 304.325,266.386 303.5,265.5C 304.705,264.005 304.705,262.672 303.5,261.5C 302.167,260.167 302.167,258.833 303.5,257.5C 304.117,257.389 304.617,257.056 305,256.5C 305.49,257.793 305.657,259.127 305.5,260.5 Z"/></g>
<g><path style="opacity:1" fill="#139d8c" d="M 303.5,249.5 C 303.47,250.497 303.97,251.164 305,251.5C 307.424,249.839 309.258,250.339 310.5,253C 308.942,253.21 307.609,253.71 306.5,254.5C 304.5,254.5 303.5,255.5 303.5,257.5C 302.167,258.833 302.167,260.167 303.5,261.5C 300.982,264.296 300.982,266.963 303.5,269.5C 303.5,270.5 303.5,271.5 303.5,272.5C 306.144,272.16 308.477,272.827 310.5,274.5C 311.216,273.689 312.05,273.022 313,272.5C 315.524,275.346 318.69,277.012 322.5,277.5C 323.931,277.881 324.764,278.881 325,280.5C 325.399,280.272 325.565,279.938 325.5,279.5C 326.222,279.918 326.722,280.584 327,281.5C 328.29,279.208 329.957,277.208 332,275.5C 333.796,277.402 333.963,279.402 332.5,281.5C 331.883,281.389 331.383,281.056 331,280.5C 330.228,281.849 329.061,282.682 327.5,283C 326.663,284.011 326.33,285.178 326.5,286.5C 322.055,286.137 319.721,283.803 319.5,279.5C 317.669,280.052 316.003,280.052 314.5,279.5C 313.094,280.951 311.594,282.284 310,283.5C 309.392,281.934 308.558,280.6 307.5,279.5C 305.745,278.208 303.745,277.208 301.5,276.5C 302.791,275.473 302.791,274.473 301.5,273.5C 301.611,272.883 301.944,272.383 302.5,272C 298.924,268.576 298.591,264.742 301.5,260.5C 301.125,258.541 300.459,256.707 299.5,255C 300.329,253.184 301.163,251.351 302,249.5C 302.69,248.262 303.19,248.262 303.5,249.5 Z"/></g>
<g><path style="opacity:1" fill="#01a157" d="M 361.5,239.5 C 361.047,233.317 361.547,227.317 363,221.5C 366.401,225.957 369.568,230.623 372.5,235.5C 374.995,233.851 376.495,231.517 377,228.5C 379.134,205.226 371.634,185.726 354.5,170C 346.89,165.968 339.056,165.468 331,168.5C 330.163,170.351 329.329,172.184 328.5,174C 331.804,178.645 335.137,183.312 338.5,188C 335.325,190.843 332.491,194.01 330,197.5C 329.042,202.839 329.542,208.006 331.5,213C 330.711,214.626 329.711,216.126 328.5,217.5C 330.727,218.191 333.394,218.524 336.5,218.5C 336.034,222.162 336.701,225.495 338.5,228.5C 337.5,228.5 336.5,228.5 335.5,228.5C 335.649,227.448 335.483,226.448 335,225.5C 334.667,225.833 334.333,226.167 334,226.5C 332.281,223.781 329.947,221.781 327,220.5C 324.912,221.988 324.078,223.655 324.5,225.5C 325.625,227 326.959,228.333 328.5,229.5C 329.234,230.708 329.567,232.041 329.5,233.5C 327.833,233.5 326.167,233.5 324.5,233.5C 322.69,236.372 321.69,239.705 321.5,243.5C 320.069,243.881 319.236,244.881 319,246.5C 317.667,244.833 316.333,243.167 315,241.5C 312.958,246.591 309.124,249.258 303.5,249.5C 303.19,248.262 302.69,248.262 302,249.5C 301.163,251.351 300.329,253.184 299.5,255C 300.459,256.707 301.125,258.541 301.5,260.5C 298.591,264.742 298.924,268.576 302.5,272C 301.944,272.383 301.611,272.883 301.5,273.5C 296.764,268.163 293.097,268.996 290.5,276C 288.105,276.156 285.771,275.656 283.5,274.5C 279.896,274.549 277.396,276.216 276,279.5C 275.537,284.072 274.704,288.572 273.5,293C 275.149,295.895 274.815,298.395 272.5,300.5C 268.696,294.862 264.696,289.362 260.5,284C 258.255,284.195 256.422,285.362 255,287.5C 250.493,311.635 257.659,331.468 276.5,347C 284.492,352.099 292.826,352.766 301.5,349C 306.28,345.028 306.78,340.528 303,335.5C 298.552,333.386 295.052,330.219 292.5,326C 299.183,326.102 305.35,323.935 311,319.5C 313.76,315.596 314.594,311.43 313.5,307C 315.051,303.453 317.051,300.286 319.5,297.5C 322.312,297.312 325.312,297.645 328.5,298.5C 329.151,301.927 328.485,305.261 326.5,308.5C 325.995,311.521 325.328,314.521 324.5,317.5C 325.633,320.283 327.3,322.617 329.5,324.5C 323.354,341.52 328.687,347.02 345.5,341C 356.304,330.919 364.804,319.085 371,305.5C 376.805,293.115 377.805,280.449 374,267.5C 370.541,266.867 367.041,266.2 363.5,265.5C 362.05,264.15 361.383,262.484 361.5,260.5C 360.167,260.5 358.833,260.5 357.5,260.5C 357.418,258.748 358.251,257.748 360,257.5C 361.667,259.167 363.333,260.833 365,262.5C 369.074,262.152 372.407,260.485 375,257.5C 378.708,264.112 380.541,271.279 380.5,279C 376.771,306.466 364.438,329.132 343.5,347C 334.96,351.357 327.626,350.023 321.5,343C 323.014,341.561 323.347,340.061 322.5,338.5C 326.149,331.703 326.149,325.037 322.5,318.5C 323.397,313.833 324.73,309.333 326.5,305C 323.279,304.203 320.279,304.703 317.5,306.5C 315.92,313.66 312.753,319.993 308,325.5C 309.498,329.927 310.331,334.593 310.5,339.5C 310.713,347.475 307.046,352.975 299.5,356C 289.904,359.145 281.237,357.478 273.5,351C 251.988,332.138 244.821,308.971 252,281.5C 255.645,277.057 260.145,275.39 265.5,276.5C 267.415,277.709 269.248,279.042 271,280.5C 273.487,278.729 275.654,276.562 277.5,274C 281.159,272.72 284.659,271.22 288,269.5C 290.245,266.119 290.912,262.452 290,258.5C 288.991,257.342 287.658,256.675 286,256.5C 282.78,257.642 279.447,258.642 276,259.5C 273.822,257.757 271.656,256.09 269.5,254.5C 264.819,255.344 260.486,257.01 256.5,259.5C 250.772,252.614 248.105,244.614 248.5,235.5C 252.231,210.202 263.231,188.702 281.5,171C 287.607,164.853 294.94,162.52 303.5,164C 308.207,165.207 311.541,168.04 313.5,172.5C 312.857,177.698 312.19,182.865 311.5,188C 315.333,196.253 317.5,204.753 318,213.5C 318.893,214.081 319.893,214.415 321,214.5C 323.628,213.169 326.462,212.336 329.5,212C 326.709,204.59 327.042,197.257 330.5,190C 327.25,183.998 324.917,177.664 323.5,171C 330.743,159.771 340.41,157.105 352.5,163C 372.721,179.281 382.221,200.448 381,226.5C 380.52,232.432 378.52,237.765 375,242.5C 370.768,241.298 367.268,238.965 364.5,235.5C 363.141,236.624 362.141,237.958 361.5,239.5 Z"/></g>
<g><path style="opacity:1" fill="#549c00" d="M 329.5,308.5 C 330.899,305.371 332.565,302.371 334.5,299.5C 333.939,302.462 332.939,305.295 331.5,308C 331.828,310.025 331.994,312.191 332,314.5C 336.979,309.189 342.313,304.189 348,299.5C 351.658,290.511 355.158,281.511 358.5,272.5C 358.333,272.167 358.167,271.833 358,271.5C 357,272.5 356,273.5 355,274.5C 354.23,273.402 353.397,273.402 352.5,274.5C 352.557,273.391 352.89,272.391 353.5,271.5C 356.115,270.55 358.115,268.883 359.5,266.5C 359.833,267.333 360.167,268.167 360.5,269C 359.106,275.29 357.273,281.457 355,287.5C 354.983,292.09 354.817,296.59 354.5,301C 355.126,301.75 355.626,302.584 356,303.5C 360.481,296.741 363.814,289.407 366,281.5C 366.414,281.043 366.914,280.709 367.5,280.5C 365.983,300.032 357.649,316.198 342.5,329C 336.231,331.45 335.064,329.95 339,324.5C 344.213,320.954 348.38,316.454 351.5,311C 349.744,310.86 348.078,311.36 346.5,312.5C 345.571,311.311 345.238,309.978 345.5,308.5C 342.532,308.626 340.532,310.126 339.5,313C 336.603,314.365 333.77,315.865 331,317.5C 330.228,317.355 329.561,317.022 329,316.5C 328.398,313.779 328.565,311.113 329.5,308.5 Z"/></g>
<g><path style="opacity:1" fill="#158e3b" d="M 344.5,278.5 C 344.494,281.518 343.494,284.184 341.5,286.5C 340.726,287.711 339.893,287.711 339,286.5C 338.263,288.596 337.097,290.263 335.5,291.5C 335.678,290.305 336.011,289.138 336.5,288C 334.884,286.91 334.217,285.743 334.5,284.5C 333.395,286.969 331.562,288.636 329,289.5C 329.077,290.738 328.911,291.738 328.5,292.5C 327.5,291.167 326.5,291.167 325.5,292.5C 324.833,291.833 324.167,291.167 323.5,290.5C 320.93,291.634 318.264,292.468 315.5,293C 317.577,293.192 319.577,293.692 321.5,294.5C 321.376,295.107 321.043,295.44 320.5,295.5C 318.507,294.463 316.507,294.797 314.5,296.5C 313.815,294.219 313.649,291.886 314,289.5C 312.989,288.663 311.822,288.33 310.5,288.5C 310.5,287.5 310.5,286.5 310.5,285.5C 309.5,285.5 308.5,285.5 307.5,285.5C 307.5,283.5 307.5,281.5 307.5,279.5C 308.558,280.6 309.392,281.934 310,283.5C 311.594,282.284 313.094,280.951 314.5,279.5C 316.003,280.052 317.669,280.052 319.5,279.5C 319.721,283.803 322.055,286.137 326.5,286.5C 326.33,285.178 326.663,284.011 327.5,283C 329.061,282.682 330.228,281.849 331,280.5C 331.383,281.056 331.883,281.389 332.5,281.5C 333.117,281.611 333.617,281.944 334,282.5C 334.71,281.027 335.876,280.36 337.5,280.5C 337.56,281.043 337.893,281.376 338.5,281.5C 340.541,278.962 342.375,276.295 344,273.5C 343.524,275.32 343.691,276.987 344.5,278.5 Z"/></g>
<g><path style="opacity:1" fill="#926a00" d="M 349.5,280.5 C 350.167,280.5 350.5,280.167 350.5,279.5C 351.117,279.389 351.617,279.056 352,278.5C 351.779,287.48 348.279,294.98 341.5,301C 340.5,301.667 339.5,301.667 338.5,301C 339.872,296.638 342.372,293.138 346,290.5C 347.075,287.106 348.242,283.772 349.5,280.5 Z"/></g>
<g><path style="opacity:1" fill="#169d0a" d="M 357.5,260.5 C 358.833,260.5 360.167,260.5 361.5,260.5C 361.383,262.484 362.05,264.15 363.5,265.5C 367.041,266.2 370.541,266.867 374,267.5C 377.805,280.449 376.805,293.115 371,305.5C 364.804,319.085 356.304,330.919 345.5,341C 328.687,347.02 323.354,341.52 329.5,324.5C 327.3,322.617 325.633,320.283 324.5,317.5C 325.328,314.521 325.995,311.521 326.5,308.5C 327.5,308.5 328.5,308.5 329.5,308.5C 328.565,311.113 328.398,313.779 329,316.5C 329.561,317.022 330.228,317.355 331,317.5C 333.77,315.865 336.603,314.365 339.5,313C 340.532,310.126 342.532,308.626 345.5,308.5C 345.238,309.978 345.571,311.311 346.5,312.5C 348.078,311.36 349.744,310.86 351.5,311C 348.38,316.454 344.213,320.954 339,324.5C 335.064,329.95 336.231,331.45 342.5,329C 357.649,316.198 365.983,300.032 367.5,280.5C 366.914,280.709 366.414,281.043 366,281.5C 363.814,289.407 360.481,296.741 356,303.5C 355.626,302.584 355.126,301.75 354.5,301C 354.817,296.59 354.983,292.09 355,287.5C 357.273,281.457 359.106,275.29 360.5,269C 360.167,268.167 359.833,267.333 359.5,266.5C 358.115,268.883 356.115,270.55 353.5,271.5C 354.68,267.784 356.013,264.117 357.5,260.5 Z"/></g>
<g><path style="opacity:1" fill="#1272b1" d="M 303.5,261.5 C 304.705,262.672 304.705,264.005 303.5,265.5C 304.325,266.386 305.325,266.719 306.5,266.5C 306.5,267.5 306.5,268.5 306.5,269.5C 305.5,269.5 304.5,269.5 303.5,269.5C 300.982,266.963 300.982,264.296 303.5,261.5 Z"/></g>
<g><path style="opacity:1" fill="#0519a2" d="M 308.5,258.5 C 308.5,259.833 308.5,261.167 308.5,262.5C 306.821,262.715 305.821,262.048 305.5,260.5C 306.5,259.833 307.5,259.167 308.5,258.5 Z"/></g>
<g><path style="opacity:1" fill="#1565a7" d="M 324.5,233.5 C 326.167,233.5 327.833,233.5 329.5,233.5C 329.082,234.222 328.416,234.722 327.5,235C 328.712,236.107 328.379,236.607 326.5,236.5C 323.752,236.598 323.086,235.598 324.5,233.5 Z"/></g>
<g><path style="opacity:1" fill="#139895" d="M 338.5,228.5 C 338.5,229.833 339.167,230.5 340.5,230.5C 340.5,231.5 340.5,232.5 340.5,233.5C 339.07,233.421 337.736,233.754 336.5,234.5C 334.806,232.446 333.639,230.112 333,227.5C 332.617,228.056 332.117,228.389 331.5,228.5C 331.249,223.662 328.916,222.662 324.5,225.5C 324.078,223.655 324.912,221.988 327,220.5C 329.947,221.781 332.281,223.781 334,226.5C 334.333,226.167 334.667,225.833 335,225.5C 335.483,226.448 335.649,227.448 335.5,228.5C 336.5,228.5 337.5,228.5 338.5,228.5 Z"/></g>
<g><path style="opacity:1" fill="#1270af" d="M 331.5,228.5 C 330.791,229.404 329.791,229.737 328.5,229.5C 326.959,228.333 325.625,227 324.5,225.5C 328.916,222.662 331.249,223.662 331.5,228.5 Z"/></g>
<g><path style="opacity:1" fill="#909f00" d="M 351.5,231.5 C 348.335,231.171 345.502,231.171 343,231.5C 342.66,227.442 341.993,223.442 341,219.5C 340.292,218.619 339.458,217.953 338.5,217.5C 337.011,214.522 335.511,211.522 334,208.5C 333.257,206.559 333.424,204.726 334.5,203C 345.448,202.559 351.948,207.725 354,218.5C 354.51,223.884 355.344,229.217 356.5,234.5C 356.462,237.187 355.462,237.854 353.5,236.5C 352.05,235.15 351.383,233.484 351.5,231.5 Z"/></g>
<g><path style="opacity:1" fill="#9f7300" d="M 351.5,231.5 C 349.575,227.567 347.742,223.567 346,219.5C 345.333,220.167 344.667,220.833 344,221.5C 340.539,217.208 337.706,212.541 335.5,207.5C 336.242,206.713 337.075,206.047 338,205.5C 349.341,211.357 354.508,220.691 353.5,233.5C 352.818,232.757 352.151,232.091 351.5,231.5 Z"/></g>
<g><path style="opacity:1" fill="#0077a4" d="M 318.5,177.5 C 319.496,177.414 320.329,177.748 321,178.5C 322.399,181.629 324.065,184.629 326,187.5C 326.652,192.285 326.152,196.951 324.5,201.5C 325.835,205.337 325.001,208.67 322,211.5C 319.593,208.8 318.76,205.8 319.5,202.5C 318.144,197.205 316.477,192.038 314.5,187C 315.355,183.595 316.688,180.428 318.5,177.5 Z"/></g>
<g><path style="opacity:1" fill="#003ba4" d="M 319.5,186.5 C 321.124,186.36 322.29,187.027 323,188.5C 323.458,191.558 323.124,194.558 322,197.5C 321.74,195.382 320.74,193.716 319,192.5C 318.322,190.402 318.489,188.402 319.5,186.5 Z"/></g>
<g><path style="opacity:1" fill="#1ca000" d="M 359.5,239.5 C 358.571,240.315 357.571,241.148 356.5,242C 352.333,243.167 350.833,241.667 352,237.5C 353.724,240.73 355.724,241.064 358,238.5C 357.823,230.771 356.823,223.105 355,215.5C 353.61,211.053 351.444,207.053 348.5,203.5C 343.624,199.396 338.457,198.73 333,201.5C 331.82,207.097 332.987,212.097 336.5,216.5C 335.504,216.586 334.671,216.252 334,215.5C 328.908,208.434 329.408,201.934 335.5,196C 339.092,195.603 342.592,196.103 346,197.5C 351.66,194.877 351.493,192.21 345.5,189.5C 344.167,186.833 342.833,184.167 341.5,181.5C 342.242,180.713 343.075,180.047 344,179.5C 344.853,177.065 345.853,174.731 347,172.5C 361.616,181.196 370.45,194.029 373.5,211C 372.953,211.925 372.287,212.758 371.5,213.5C 370.575,212.359 369.741,212.359 369,213.5C 368.42,218.401 366.753,218.735 364,214.5C 363,212.167 362,209.833 361,207.5C 359.89,205.963 358.39,205.297 356.5,205.5C 357.503,215.526 358.837,225.526 360.5,235.5C 360.154,236.849 359.821,238.183 359.5,239.5 Z"/></g>
<g><path style="opacity:1" fill="#00a31d" d="M 303.5,242.5 C 304.26,238.919 304.76,235.252 305,231.5C 306.892,230.87 308.559,229.87 310,228.5C 311.722,222.778 312.889,216.945 313.5,211C 313.665,208.083 312.998,205.417 311.5,203C 311.986,198.504 309.986,195.337 305.5,193.5C 304.781,190.914 304.781,188.247 305.5,185.5C 305.642,179.977 302.976,176.977 297.5,176.5C 286.38,177.644 277.88,182.977 272,192.5C 265.48,201.04 260.98,210.54 258.5,221C 259.663,225.938 259.663,230.938 258.5,236C 260.462,248.013 264.795,249.179 271.5,239.5C 273.43,242.872 274.596,246.539 275,250.5C 277.034,252.56 279.034,252.226 281,249.5C 283.687,251.567 286.354,251.234 289,248.5C 289.333,248.833 289.667,249.167 290,249.5C 291.389,247.773 293.056,246.439 295,245.5C 296.168,246.509 297.335,247.509 298.5,248.5C 299.288,247.23 300.288,246.23 301.5,245.5C 299.852,248.823 298.185,252.156 296.5,255.5C 294.203,253.59 291.537,252.59 288.5,252.5C 284.703,253.433 281.036,254.766 277.5,256.5C 274.806,254.473 272.473,252.139 270.5,249.5C 266.137,251.238 261.804,251.405 257.5,250C 256.299,249.097 255.465,247.931 255,246.5C 251.265,230.094 253.932,214.76 263,200.5C 268.651,191.37 275.151,182.87 282.5,175C 288.698,170.047 295.698,168.38 303.5,170C 304.667,171.167 305.833,172.333 307,173.5C 308.539,178.668 309.039,183.835 308.5,189C 310.56,191.493 312.06,194.326 313,197.5C 314.531,203.645 315.698,209.812 316.5,216C 316.043,216.414 315.709,216.914 315.5,217.5C 318.317,220.101 318.984,223.101 317.5,226.5C 315.801,226.34 314.134,226.506 312.5,227C 312.957,227.414 313.291,227.914 313.5,228.5C 311.542,233.977 309.875,239.311 308.5,244.5C 305.799,246.159 304.132,245.492 303.5,242.5 Z"/></g>
<g><path style="opacity:1" fill="#1da400" d="M 303.5,242.5 C 301.952,242.821 301.285,243.821 301.5,245.5C 300.288,246.23 299.288,247.23 298.5,248.5C 297.335,247.509 296.168,246.509 295,245.5C 293.056,246.439 291.389,247.773 290,249.5C 289.667,249.167 289.333,248.833 289,248.5C 286.354,251.234 283.687,251.567 281,249.5C 279.034,252.226 277.034,252.56 275,250.5C 274.596,246.539 273.43,242.872 271.5,239.5C 264.795,249.179 260.462,248.013 258.5,236C 259.663,230.938 259.663,225.938 258.5,221C 260.98,210.54 265.48,201.04 272,192.5C 277.88,182.977 286.38,177.644 297.5,176.5C 302.976,176.977 305.642,179.977 305.5,185.5C 304.781,188.247 304.781,190.914 305.5,193.5C 309.986,195.337 311.986,198.504 311.5,203C 312.998,205.417 313.665,208.083 313.5,211C 312.889,216.945 311.722,222.778 310,228.5C 308.559,229.87 306.892,230.87 305,231.5C 304.76,235.252 304.26,238.919 303.5,242.5 Z"/></g>
<g><path style="opacity:1" fill="#59a500" d="M 294.5,182.5 C 299.472,182.242 300.639,184.242 298,188.5C 295.766,190.7 293.266,192.533 290.5,194C 286.848,196.274 285.015,199.441 285,203.5C 286.584,202.139 288.418,201.472 290.5,201.5C 290.5,202.5 290.5,203.5 290.5,204.5C 296.165,203.674 301.331,201.674 306,198.5C 308.518,199.531 309.351,201.198 308.5,203.5C 310.027,205.193 311.36,207.027 312.5,209C 310.572,215.546 308.739,222.046 307,228.5C 305.488,229.257 304.154,230.257 303,231.5C 302.759,234.289 302.092,236.956 301,239.5C 299.23,238.724 297.397,238.89 295.5,240C 292.76,244.125 289.093,246.458 284.5,247C 283.874,246.25 283.374,245.416 283,244.5C 281.255,245.956 279.422,247.289 277.5,248.5C 277.167,247.667 276.833,246.833 276.5,246C 277.941,238.767 280.274,231.934 283.5,225.5C 282.652,223.591 282.318,221.591 282.5,219.5C 280.08,219.708 277.747,219.374 275.5,218.5C 274.186,219.313 273.019,220.313 272,221.5C 270.717,227.67 268.384,233.337 265,238.5C 263.18,233.605 263.18,228.605 265,223.5C 270.056,206.295 279.889,192.628 294.5,182.5 Z"/></g>
<g><path style="opacity:1" fill="#99a900" d="M 300.5,206.5 C 307.355,205.852 310.188,208.852 309,215.5C 307.401,217.056 305.901,218.723 304.5,220.5C 305.52,222.432 305.687,224.432 305,226.5C 302.71,229.58 300.543,232.747 298.5,236C 296.888,236.72 295.388,236.554 294,235.5C 292.844,239.496 290.344,241.83 286.5,242.5C 285.911,239.496 284.911,236.663 283.5,234C 285.716,228.309 287.549,222.476 289,216.5C 292.384,212.613 296.218,209.28 300.5,206.5 Z"/></g>
<g><path style="opacity:1" fill="#a97700" d="M 299.5,210.5 C 301.639,212.139 301.973,214.139 300.5,216.5C 301.468,219.826 301.968,223.159 302,226.5C 300.833,228.167 299.667,229.833 298.5,231.5C 295.429,232.785 292.596,234.451 290,236.5C 287.677,225.772 290.844,217.106 299.5,210.5 Z"/></g>
<g><path style="opacity:1" fill="#00a01c" d="M 361.5,239.5 C 360.833,239.5 360.167,239.5 359.5,239.5C 359.821,238.183 360.154,236.849 360.5,235.5C 358.837,225.526 357.503,215.526 356.5,205.5C 358.39,205.297 359.89,205.963 361,207.5C 362,209.833 363,212.167 364,214.5C 366.753,218.735 368.42,218.401 369,213.5C 369.741,212.359 370.575,212.359 371.5,213.5C 372.287,212.758 372.953,211.925 373.5,211C 370.45,194.029 361.616,181.196 347,172.5C 345.853,174.731 344.853,177.065 344,179.5C 343.075,180.047 342.242,180.713 341.5,181.5C 342.833,184.167 344.167,186.833 345.5,189.5C 351.493,192.21 351.66,194.877 346,197.5C 342.592,196.103 339.092,195.603 335.5,196C 329.408,201.934 328.908,208.434 334,215.5C 334.671,216.252 335.504,216.586 336.5,216.5C 337.167,216.833 337.833,217.167 338.5,217.5C 338.908,220.725 339.908,223.725 341.5,226.5C 341.154,227.849 340.821,229.183 340.5,230.5C 339.167,230.5 338.5,229.833 338.5,228.5C 336.701,225.495 336.034,222.162 336.5,218.5C 333.394,218.524 330.727,218.191 328.5,217.5C 329.711,216.126 330.711,214.626 331.5,213C 329.542,208.006 329.042,202.839 330,197.5C 332.491,194.01 335.325,190.843 338.5,188C 335.137,183.312 331.804,178.645 328.5,174C 329.329,172.184 330.163,170.351 331,168.5C 339.056,165.468 346.89,165.968 354.5,170C 371.634,185.726 379.134,205.226 377,228.5C 376.495,231.517 374.995,233.851 372.5,235.5C 369.568,230.623 366.401,225.957 363,221.5C 361.547,227.317 361.047,233.317 361.5,239.5 Z"/></g>
<g><path style="opacity:1" fill="#0b9f17" d="M 301.5,273.5 C 302.791,274.473 302.791,275.473 301.5,276.5C 303.745,277.208 305.745,278.208 307.5,279.5C 307.5,281.5 307.5,283.5 307.5,285.5C 308.5,285.5 309.5,285.5 310.5,285.5C 310.5,286.5 310.5,287.5 310.5,288.5C 311.822,288.33 312.989,288.663 314,289.5C 313.649,291.886 313.815,294.219 314.5,296.5C 316.507,294.797 318.507,294.463 320.5,295.5C 320.672,296.492 320.338,297.158 319.5,297.5C 317.051,300.286 315.051,303.453 313.5,307C 314.594,311.43 313.76,315.596 311,319.5C 305.35,323.935 299.183,326.102 292.5,326C 295.052,330.219 298.552,333.386 303,335.5C 306.78,340.528 306.28,345.028 301.5,349C 292.826,352.766 284.492,352.099 276.5,347C 257.659,331.468 250.493,311.635 255,287.5C 256.422,285.362 258.255,284.195 260.5,284C 264.696,289.362 268.696,294.862 272.5,300.5C 274.815,298.395 275.149,295.895 273.5,293C 274.704,288.572 275.537,284.072 276,279.5C 277.396,276.216 279.896,274.549 283.5,274.5C 285.771,275.656 288.105,276.156 290.5,276C 293.097,268.996 296.764,268.163 301.5,273.5 Z"/></g>
<g><path style="opacity:1" fill="#08968d" d="M 310.5,285.5 C 312.877,281.745 315.544,281.579 318.5,285C 318.167,285.333 317.833,285.667 317.5,286C 318.672,286.419 319.672,287.085 320.5,288C 319.057,289.067 317.724,290.234 316.5,291.5C 315.571,290.311 315.238,288.978 315.5,287.5C 313.678,287.169 312.011,286.502 310.5,285.5 Z"/></g>
<g><path style="opacity:1" fill="#168569" d="M 335.5,291.5 C 332.167,292.833 329.833,295.167 328.5,298.5C 325.312,297.645 322.312,297.312 319.5,297.5C 320.338,297.158 320.672,296.492 320.5,295.5C 321.043,295.44 321.376,295.107 321.5,294.5C 319.577,293.692 317.577,293.192 315.5,293C 318.264,292.468 320.93,291.634 323.5,290.5C 324.167,291.167 324.833,291.833 325.5,292.5C 326.5,291.167 327.5,291.167 328.5,292.5C 328.911,291.738 329.077,290.738 329,289.5C 331.562,288.636 333.395,286.969 334.5,284.5C 334.217,285.743 334.884,286.91 336.5,288C 336.011,289.138 335.678,290.305 335.5,291.5 Z"/></g>
<g><path style="opacity:1" fill="#569e00" d="M 280.5,279.5 C 284.709,280.189 288.042,282.356 290.5,286C 293.224,286.27 295.891,286.77 298.5,287.5C 299.472,290.105 301.139,292.105 303.5,293.5C 305.071,292.691 306.738,292.357 308.5,292.5C 308.33,294.848 307.997,297.182 307.5,299.5C 308.973,302.32 309.973,305.32 310.5,308.5C 310.169,315.895 306.336,318.561 299,316.5C 291.345,317.846 285.678,315.18 282,308.5C 281.1,301.503 280.267,294.503 279.5,287.5C 279.551,284.747 279.884,282.08 280.5,279.5 Z"/></g>
<g><path style="opacity:1" fill="#8f9c00" d="M 282.5,283.5 C 285.178,284.001 287.178,285.501 288.5,288C 294.542,286.524 298.209,288.858 299.5,295C 301.441,295.743 303.274,295.576 305,294.5C 306.166,295.834 306.333,297.5 305.5,299.5C 306.096,302.515 307.096,305.349 308.5,308C 308.327,310.021 307.66,311.854 306.5,313.5C 302.941,313.715 299.441,313.715 296,313.5C 292.504,312.557 289.171,311.224 286,309.5C 284.44,300.94 283.273,292.273 282.5,283.5 Z"/></g>
<g><path style="opacity:1" fill="#9d7200" d="M 292.5,289.5 C 295.741,291.066 297.241,293.733 297,297.5C 298.763,298.944 300.763,299.944 303,300.5C 303.756,308.402 300.256,311.236 292.5,309C 288.733,303.764 286.9,297.93 287,291.5C 288.948,290.891 290.782,290.224 292.5,289.5 Z"/></g>
<g><path style="opacity:1" fill="#869400" d="M 334.5,299.5 C 335.117,299.611 335.617,299.944 336,300.5C 338.527,296.779 340.527,292.779 342,288.5C 344.733,285.938 347.233,283.271 349.5,280.5C 348.242,283.772 347.075,287.106 346,290.5C 342.372,293.138 339.872,296.638 338.5,301C 339.5,301.667 340.5,301.667 341.5,301C 348.279,294.98 351.779,287.48 352,278.5C 351.617,279.056 351.117,279.389 350.5,279.5C 350.893,277.716 351.559,276.05 352.5,274.5C 353.397,273.402 354.23,273.402 355,274.5C 356,273.5 357,272.5 358,271.5C 358.167,271.833 358.333,272.167 358.5,272.5C 355.158,281.511 351.658,290.511 348,299.5C 342.313,304.189 336.979,309.189 332,314.5C 331.994,312.191 331.828,310.025 331.5,308C 332.939,305.295 333.939,302.462 334.5,299.5 Z"/></g>
<g><path style="opacity:1" fill="#00709b" d="M 319.5,308.5 C 320.5,308.5 321.5,308.5 322.5,308.5C 322.322,311.977 321.655,315.31 320.5,318.5C 321.184,321.715 322.184,324.882 323.5,328C 318.548,342.003 314.548,341.837 311.5,327.5C 313.9,321.036 316.566,314.703 319.5,308.5 Z"/></g>
<g><path style="opacity:1" fill="#00379c" d="M 316.5,322.5 C 321.507,324.851 321.674,327.518 317,330.5C 313.87,328.182 313.703,325.515 316.5,322.5 Z"/></g>
</svg>
