<?xml version="1.0" encoding="UTF-8"?>
<!DOCTYPE svg PUBLIC "-//W3C//DTD SVG 1.1//EN" "http://www.w3.org/Graphics/SVG/1.1/DTD/svg11.dtd">
<svg xmlns="http://www.w3.org/2000/svg" version="1.1" width="993px" height="579px" style="shape-rendering:geometricPrecision; text-rendering:geometricPrecision; image-rendering:optimizeQuality; fill-rule:evenodd; clip-rule:evenodd" xmlns:xlink="http://www.w3.org/1999/xlink">
<g><path style="opacity:1" fill="#2c333c" d="M -0.5,-0.5 C 330.5,-0.5 661.5,-0.5 992.5,-0.5C 992.5,192.5 992.5,385.5 992.5,578.5C 661.5,578.5 330.5,578.5 -0.5,578.5C -0.5,385.5 -0.5,192.5 -0.5,-0.5 Z"/></g>
<g><path style="opacity:1" fill="#0000a0" d="M 507.5,14.5 C 517.55,14.1687 527.55,14.6687 537.5,16C 532.336,153.755 527.669,291.589 523.5,429.5C 363.518,473.826 203.518,518.159 43.5,562.5C 38.3011,561.434 33.3011,559.767 28.5,557.5C 25.8078,392.173 23.4744,226.839 21.5,61.5C 21.8333,49.5 22.1667,37.5 22.5,25.5C 184.295,21.8966 345.962,18.2299 507.5,14.5 Z"/></g>
<g><path style="opacity:1" fill="#0039a0" d="M 318.5,24.5 C 332.504,24.3334 346.504,24.5001 360.5,25C 377.891,27.2 393.558,33.5333 407.5,44C 410.388,47.2216 412.888,50.7216 415,54.5C 422.961,60.127 429.961,66.7936 436,74.5C 438.261,78.9499 439.928,83.6165 441,88.5C 443,91.8333 445,95.1667 447,98.5C 450.375,114.001 454.375,129.334 459,144.5C 468.759,191.561 470.092,238.894 463,286.5C 460.69,302.719 457.356,318.719 453,334.5C 448.392,347.989 444.392,361.656 441,375.5C 439.066,379.759 436.732,383.759 434,387.5C 432.721,393.634 430.388,399.301 427,404.5C 421.74,411.763 415.74,418.43 409,424.5C 400.215,439.619 388.381,451.785 373.5,461C 364.168,466.109 354.501,470.443 344.5,474C 324.38,479.595 304.38,485.595 284.5,492C 270.881,493.573 257.214,493.906 243.5,493C 231.042,491.199 220.375,485.866 211.5,477C 201.753,472.38 192.587,466.88 184,460.5C 182.973,456.392 181.64,452.392 180,448.5C 176.63,445.465 173.63,442.132 171,438.5C 166.119,423.189 160.452,408.189 154,393.5C 143.952,358.908 139.119,323.574 139.5,287.5C 139.126,249.234 143.626,211.567 153,174.5C 159.138,157.42 164.471,140.086 169,122.5C 171.105,116.073 174.439,110.406 179,105.5C 180.804,100.42 182.804,95.4203 185,90.5C 195.363,79.8032 206.029,69.4699 217,59.5C 219.139,56.0607 221.639,52.894 224.5,50C 232.164,44.4994 240.164,39.4994 248.5,35C 271.342,27.3005 294.676,23.8005 318.5,24.5 Z"/></g>
<g><path style="opacity:1" fill="#0074a0" d="M 365.5,36.5 C 377.843,37.7826 389.177,41.9492 399.5,49C 402.361,51.894 404.861,55.0607 407,58.5C 416.586,64.7501 424.919,72.4168 432,81.5C 433,84.8333 434,88.1667 435,91.5C 437.583,94.9974 439.916,98.6641 442,102.5C 445.689,117.254 449.689,131.921 454,146.5C 456.657,158.894 456.99,171.227 455,183.5C 448.075,166.642 441.408,149.642 435,132.5C 430.909,126.653 426.576,120.987 422,115.5C 420.138,111.581 418.471,107.581 417,103.5C 408.945,95.7266 402.611,86.7266 398,76.5C 397,73.5 396,70.5 395,67.5C 385.995,60.8188 377.328,53.8188 369,46.5C 368.163,44.1558 366.829,42.1558 365,40.5C 364.421,39.0715 364.588,37.7382 365.5,36.5 Z"/></g>
<g><path style="opacity:1" fill="#0074a0" d="M 262.5,39.5 C 269.167,39.5 275.833,39.5 282.5,39.5C 279.866,43.6552 276.533,47.4885 272.5,51C 261.421,58.9564 250.254,66.7897 239,74.5C 231.721,90.721 221.721,105.054 209,117.5C 206.682,122.136 204.349,126.802 202,131.5C 193.846,139.985 186.846,149.318 181,159.5C 175.566,175.027 169.066,190.027 161.5,204.5C 160.675,205.386 159.675,205.719 158.5,205.5C 156.774,194.648 157.608,183.982 161,173.5C 167.47,156.091 173.136,138.424 178,120.5C 180.28,116.553 182.947,112.887 186,109.5C 187.818,102.027 191.151,95.3599 196,89.5C 202.295,82.7495 209.129,76.5828 216.5,71C 220.833,66 225.167,61 229.5,56C 240.282,49.9423 251.282,44.4423 262.5,39.5 Z"/></g>
<g><path style="opacity:1" fill="#0000a0" d="M 319.5,49.5 C 340.36,50.6184 360.026,56.1184 378.5,66C 381.616,67.4488 384.116,69.6155 386,72.5C 392.486,84.6478 400.82,95.3145 411,104.5C 417.267,116.424 423.933,128.091 431,139.5C 456.841,209.097 455.175,278.097 426,346.5C 419.565,357.267 413.565,368.267 408,379.5C 404.019,384.316 399.852,388.982 395.5,393.5C 389.923,403.655 384.09,413.655 378,423.5C 362.099,436.208 344.932,447.041 326.5,456C 300.794,464.51 275.128,464.176 249.5,455C 243.54,447.372 237.207,440.038 230.5,433C 224.996,429.749 219.662,426.249 214.5,422.5C 208.563,414.393 202.063,406.726 195,399.5C 172.836,364.53 162.003,326.197 162.5,284.5C 162.077,236.192 173.244,190.859 196,148.5C 204.266,139.567 210.933,129.567 216,118.5C 219.667,115.167 223.333,111.833 227,108.5C 234.343,96.1554 242.843,84.6554 252.5,74C 273.05,60.763 295.383,52.5964 319.5,49.5 Z"/></g>
<g><path style="opacity:1" fill="#0039a0" d="M 321.5,62.5 C 340.174,62.0014 357.507,66.5014 373.5,76C 409.262,106.819 431.095,145.652 439,192.5C 448.049,252.204 438.716,308.87 411,362.5C 404.667,373.167 398.333,383.833 392,394.5C 382.833,404.333 373.667,414.167 364.5,424C 333.551,446.652 299.217,454.652 261.5,448C 244.153,440.917 229.653,430.084 218,415.5C 195.291,387.065 180.957,354.731 175,318.5C 165.685,246.765 181.351,181.098 222,121.5C 234.129,105.703 247.963,91.5368 263.5,79C 281.446,68.0666 300.779,62.5666 321.5,62.5 Z"/></g>
<g><path style="opacity:1" fill="#0074a0" d="M 339.5,71.5 C 347.115,71.6027 354.449,73.1027 361.5,76C 387.352,92.5221 406.852,114.689 420,142.5C 438.693,189.506 443.027,237.839 433,287.5C 423.849,340.313 399.682,384.813 360.5,421C 345.542,431.653 328.876,437.319 310.5,438C 296.422,444.561 281.755,446.228 266.5,443C 251.693,436.671 238.36,428.171 226.5,417.5C 206.239,396.322 192.739,371.322 186,342.5C 174.551,292.379 176.218,242.712 191,193.5C 205.324,144.658 233.824,106.491 276.5,79C 291.032,72.6615 306.032,71.1615 321.5,74.5C 327.641,73.492 333.641,72.492 339.5,71.5 Z"/></g>
<g><path style="opacity:1" fill="#00a090" d="M 416.5,83.5 C 421.164,84.7466 422.33,87.4132 420,91.5C 416.566,89.6712 415.4,87.0045 416.5,83.5 Z"/></g>
<g><path style="opacity:1" fill="#00a090" d="M 209.5,88.5 C 211.167,88.5 212.833,88.5 214.5,88.5C 215.441,96.1623 212.775,102.329 206.5,107C 199.282,108.707 197.115,106.207 200,99.5C 202.722,95.3477 205.888,91.681 209.5,88.5 Z"/></g>
<g><path style="opacity:1" fill="#00a192" d="M 369.5,245.5 C 369.227,243.549 369.893,242.049 371.5,241C 370.107,239.829 369.273,238.329 369,236.5C 367.286,226.303 364.786,216.469 361.5,207C 363.344,204.439 363.844,201.606 363,198.5C 359.214,194.254 357.214,189.588 357,184.5C 356.333,186.5 355.667,188.5 355,190.5C 353.062,189.14 351.396,189.473 350,191.5C 348.209,190.088 347.042,188.255 346.5,186C 344.609,185.691 343.275,186.525 342.5,188.5C 341.269,187.349 341.269,186.183 342.5,185C 340.362,181.896 338.029,181.73 335.5,184.5C 333.884,183.885 332.551,182.885 331.5,181.5C 330.77,183.341 330.103,185.175 329.5,187C 324.357,190.315 319.024,193.149 313.5,195.5C 310.794,195.575 308.127,195.908 305.5,196.5C 305.632,193.111 305.799,189.777 306,186.5C 302.885,184.115 299.885,184.115 297,186.5C 296.19,188.306 295.024,189.806 293.5,191C 293.645,191.772 293.978,192.439 294.5,193C 292.319,196.909 290.819,201.076 290,205.5C 286.603,210.061 282.769,214.061 278.5,217.5C 278.945,220.053 278.945,222.72 278.5,225.5C 275.185,225.972 272.851,227.805 271.5,231C 273.928,233.189 275.594,235.855 276.5,239C 273.443,250.658 271.777,262.491 271.5,274.5C 272.076,280.485 272.576,286.485 273,292.5C 274.261,295.086 274.428,297.586 273.5,300C 276.282,303.754 276.948,307.921 275.5,312.5C 276.222,314.944 277.222,317.278 278.5,319.5C 277.91,320.799 276.91,321.632 275.5,322C 279.909,324.689 282.742,323.522 284,318.5C 285.283,322.185 287.617,323.519 291,322.5C 290.773,324.688 291.106,327.021 292,329.5C 292.689,330.357 293.522,331.023 294.5,331.5C 302.93,329.421 311.263,329.421 319.5,331.5C 321.857,330.905 324.023,329.905 326,328.5C 327.049,329.517 328.216,329.684 329.5,329C 331.376,327.137 333.543,325.637 336,324.5C 337.085,325.293 338.252,325.96 339.5,326.5C 348.114,315.599 355.447,303.932 361.5,291.5C 361.376,290.893 361.043,290.56 360.5,290.5C 360.286,288.856 360.62,287.356 361.5,286C 361.167,285.833 360.833,285.667 360.5,285.5C 359.437,289.43 358.437,289.43 357.5,285.5C 358.234,284.122 358.901,282.622 359.5,281C 362.903,280.233 363.903,281.399 362.5,284.5C 363.083,286.002 363.916,287.335 365,288.5C 363.807,282.036 366.307,279.203 372.5,280C 369.982,281.88 369.315,284.213 370.5,287C 366.583,289.326 364.583,292.826 364.5,297.5C 362.659,298.23 360.825,298.897 359,299.5C 359.022,303.818 357.355,307.152 354,309.5C 354.76,311.727 355.593,314.06 356.5,316.5C 355.838,319.468 355.505,322.468 355.5,325.5C 354.178,325.67 353.011,325.337 352,324.5C 351.196,320.796 351.696,317.296 353.5,314C 352.833,313.333 352.167,313.333 351.5,314C 350.132,319.833 348.632,325.666 347,331.5C 343.516,334.842 339.682,337.509 335.5,339.5C 335.234,335.921 333.901,335.587 331.5,338.5C 330.757,337.092 329.923,335.759 329,334.5C 326.479,337.315 324.813,336.982 324,333.5C 323.167,334.5 322.333,335.5 321.5,336.5C 318.569,337.273 315.736,338.273 313,339.5C 312.751,338.376 312.251,337.376 311.5,336.5C 309.224,337.213 306.891,337.713 304.5,338C 302.015,340.814 299.181,343.314 296,345.5C 294.174,343.926 292.007,343.093 289.5,343C 290.833,342 292.167,341 293.5,340C 291.249,338.742 289.249,339.409 287.5,342C 285.863,342.601 284.197,343.101 282.5,343.5C 280.964,342.751 279.631,341.751 278.5,340.5C 276.149,341.713 274.316,341.047 273,338.5C 274.126,336.05 273.459,334.05 271,332.5C 268.652,335.386 268.152,338.553 269.5,342C 267.575,345.036 267.242,348.203 268.5,351.5C 269.167,351.167 269.833,350.833 270.5,350.5C 270.92,353.616 271.92,356.283 273.5,358.5C 272.609,359.261 271.942,360.261 271.5,361.5C 272.965,364.677 274.132,368.01 275,371.5C 278.653,376.42 282.653,381.086 287,385.5C 285.715,389.534 286.549,393.034 289.5,396C 288.483,397.049 288.316,398.216 289,399.5C 291.692,402.692 294.192,406.025 296.5,409.5C 295.634,411.432 294.967,413.432 294.5,415.5C 296.226,418.458 297.56,421.625 298.5,425C 296.231,429.604 292.898,433.271 288.5,436C 285.367,436.96 282.2,437.793 279,438.5C 261.71,433.438 245.877,425.605 231.5,415C 223.289,405.791 215.456,396.291 208,386.5C 193.38,361.512 188.546,334.845 193.5,306.5C 194.736,307.246 196.07,307.579 197.5,307.5C 197.301,304.059 197.801,300.726 199,297.5C 200.555,295.485 202.389,295.152 204.5,296.5C 205.167,298.5 205.833,300.5 206.5,302.5C 209.91,305.288 213.41,307.955 217,310.5C 219.167,314 221.333,317.5 223.5,321C 225.047,321.333 226.38,320.833 227.5,319.5C 228.833,320.5 230.167,321.5 231.5,322.5C 233.451,321.744 235.284,321.411 237,321.5C 238.718,323.897 239.885,326.564 240.5,329.5C 241.736,328.754 243.07,328.421 244.5,328.5C 245.315,332.144 246.148,335.811 247,339.5C 247.414,339.957 247.914,340.291 248.5,340.5C 252.312,333.566 255.646,326.399 258.5,319C 260.837,318.675 262.503,319.675 263.5,322C 265.791,322.015 267.958,322.182 270,322.5C 270.667,320.833 270.667,319.167 270,317.5C 269.333,318.167 268.667,318.833 268,319.5C 267.493,315.502 266.66,311.668 265.5,308C 265.77,302.837 266.103,297.671 266.5,292.5C 265.833,289.5 265.167,286.5 264.5,283.5C 264.935,279.963 266.435,276.963 269,274.5C 269.581,270.81 269.415,267.144 268.5,263.5C 268.961,260.784 269.627,258.118 270.5,255.5C 270.444,254.263 269.944,253.263 269,252.5C 266.71,253.41 265.544,252.41 265.5,249.5C 265.747,246.221 267.247,245.221 270,246.5C 273.169,244.381 273.169,242.381 270,240.5C 268.103,242.016 265.936,242.683 263.5,242.5C 263.649,241.448 263.483,240.448 263,239.5C 259.81,242.788 258.31,242.121 258.5,237.5C 257.879,235.014 257.879,232.681 258.5,230.5C 256.859,226.423 256.526,222.09 257.5,217.5C 256.325,217.281 255.325,217.614 254.5,218.5C 252.283,221.068 251.116,224.068 251,227.5C 249.619,225.365 248.619,223.032 248,220.5C 246.221,221.479 244.555,221.146 243,219.5C 242.667,217.167 242.333,214.833 242,212.5C 242.174,218.98 240.174,224.647 236,229.5C 235.085,228.672 234.419,227.672 234,226.5C 232.414,227.376 230.914,228.376 229.5,229.5C 228.808,228.975 228.308,228.308 228,227.5C 227.333,228.833 226.667,230.167 226,231.5C 223.773,229.393 221.773,227.06 220,224.5C 217.581,229.41 215.414,234.41 213.5,239.5C 212.271,240.281 210.938,240.781 209.5,241C 208.853,242.609 208.02,244.109 207,245.5C 206.259,244.359 205.425,244.359 204.5,245.5C 203.081,247.336 201.914,249.336 201,251.5C 199.438,249.043 198.438,246.376 198,243.5C 193.194,239.094 190.694,233.594 190.5,227C 193.575,198.111 202.075,170.944 216,145.5C 221.159,139.183 225.826,132.516 230,125.5C 244.684,111.476 260.517,98.9761 277.5,88C 282.969,84.3987 288.636,83.8987 294.5,86.5C 294.833,88.5 295.167,90.5 295.5,92.5C 298.314,94.1046 301.314,95.1046 304.5,95.5C 304.88,98.7916 303.547,101.125 300.5,102.5C 297.225,111.052 293.392,119.386 289,127.5C 288,132.47 287.5,137.47 287.5,142.5C 289.274,143.187 290.941,144.02 292.5,145C 290.5,147 288.5,149 286.5,151C 287.615,153.101 287.615,155.267 286.5,157.5C 286.833,158.167 287.167,158.833 287.5,159.5C 289.889,160.18 292.222,161.014 294.5,162C 295.926,167.375 299.259,170.875 304.5,172.5C 307.094,177.116 309.594,181.782 312,186.5C 312,189.167 312,191.833 312,194.5C 315.815,192.336 319.649,190.169 323.5,188C 323.957,187.586 324.291,187.086 324.5,186.5C 322.062,184.344 321.895,182.011 324,179.5C 326.398,178.144 328.898,176.977 331.5,176C 332.304,174.229 333.471,172.729 335,171.5C 335.333,171.833 335.667,172.167 336,172.5C 339.386,168.847 343.386,167.18 348,167.5C 348.833,166.667 349.667,165.833 350.5,165C 353.5,164.667 356.5,164.333 359.5,164C 360.059,163.275 360.392,162.442 360.5,161.5C 357.574,155.48 355.407,149.147 354,142.5C 351.972,138.949 349.805,135.449 347.5,132C 349.526,127.643 348.359,124.476 344,122.5C 343.601,119.314 342.768,116.314 341.5,113.5C 342.172,111.168 342.339,108.834 342,106.5C 339.027,102.194 335.361,98.5273 331,95.5C 330.333,93.8333 330.333,92.1667 331,90.5C 338.216,81.7322 347.383,78.8989 358.5,82C 403.701,109.207 427.201,149.374 429,202.5C 428.251,205.757 426.584,208.424 424,210.5C 422.667,209.833 421.667,208.833 421,207.5C 419.365,211.77 416.865,212.437 413.5,209.5C 412.393,210.022 411.226,210.355 410,210.5C 406.646,207.594 402.812,205.427 398.5,204C 396.442,200.603 393.442,198.937 389.5,199C 385.577,195.323 383.077,190.823 382,185.5C 380.899,183.606 379.566,182.939 378,183.5C 378.011,176.344 374.511,172.01 367.5,170.5C 366.369,172.074 366.202,173.741 367,175.5C 369.883,178.188 370.549,181.188 369,184.5C 367.805,191.034 368.638,197.201 371.5,203C 370.016,205.529 370.35,207.696 372.5,209.5C 368.009,217.231 367.676,225.064 371.5,233C 370.919,233.893 370.585,234.893 370.5,236C 372.837,240.859 373.003,245.693 371,250.5C 369.731,249.095 369.231,247.429 369.5,245.5 Z"/></g>
<g><path style="opacity:1" fill="#003aa2" d="M 318.5,111.5 C 328.495,112.997 334.329,118.663 336,128.5C 339.974,130.483 341.808,133.483 341.5,137.5C 343.468,139.605 344.468,142.105 344.5,145C 342.374,149.811 340.208,154.644 338,159.5C 335.165,160.916 332.498,162.583 330,164.5C 328.746,170.675 324.912,173.675 318.5,173.5C 314.419,172.517 310.919,170.517 308,167.5C 307.667,167.833 307.333,168.167 307,168.5C 306.508,167.451 306.674,166.451 307.5,165.5C 304.685,163.023 302.685,160.023 301.5,156.5C 301.987,155.554 302.32,154.554 302.5,153.5C 301.035,151.401 299.701,149.234 298.5,147C 300.651,143.51 302.818,140.01 305,136.5C 305.667,135.167 305.667,133.833 305,132.5C 301.221,128.639 301.721,125.639 306.5,123.5C 307.769,121.305 307.769,119.139 306.5,117C 310.284,114.471 314.284,112.638 318.5,111.5 Z"/></g>
<g><path style="opacity:1" fill="#00a157" d="M 272.5,114.5 C 273.873,114.343 275.207,114.51 276.5,115C 275.167,117.333 275.167,119.667 276.5,122C 275.175,124.985 273.842,127.985 272.5,131C 273.029,132.559 273.696,134.059 274.5,135.5C 270.834,140.677 267.334,146.011 264,151.5C 264.202,154.66 264.868,157.66 266,160.5C 260.995,166.5 256.995,173.167 254,180.5C 245.032,187.459 238.365,196.126 234,206.5C 232.833,204.833 231.667,203.167 230.5,201.5C 228.235,200.353 225.902,200.186 223.5,201C 220.6,203.397 218.267,206.23 216.5,209.5C 214.922,210.298 213.256,210.798 211.5,211C 209.701,216.844 208.368,216.844 207.5,211C 207.969,196.636 211.469,183.136 218,170.5C 228.491,156.852 238.491,142.852 248,128.5C 256.572,124.402 264.739,119.735 272.5,114.5 Z"/></g>
<g><path style="opacity:1" fill="#00a057" d="M 363.5,96.5 C 366.673,97.1697 369.673,98.3364 372.5,100C 378.167,104.833 383.833,109.667 389.5,114.5C 392.171,117.837 394.337,121.504 396,125.5C 414.691,142.24 420.858,162.74 414.5,187C 413.303,188.52 411.803,189.687 410,190.5C 407.174,187.516 404.841,184.183 403,180.5C 400.695,177.39 398.195,177.057 395.5,179.5C 394.833,179.167 394.167,178.833 393.5,178.5C 392.833,180.167 392.167,181.833 391.5,183.5C 385.317,177.47 381.484,170.136 380,161.5C 372.678,153.241 367.011,143.908 363,133.5C 361.414,130.659 359.58,127.993 357.5,125.5C 358.046,124.228 358.379,122.894 358.5,121.5C 356.404,117.828 354.904,113.828 354,109.5C 353.333,107.5 353.333,105.5 354,103.5C 357.372,101.434 360.539,99.1004 363.5,96.5 Z"/></g>
<g><path style="opacity:1" fill="#00a11c" d="M 373.5,120.5 C 377.77,122.642 380.936,125.975 383,130.5C 389.333,136.167 395.667,141.833 402,147.5C 405.989,153.767 406.989,160.434 405,167.5C 402.534,165.328 400.368,162.828 398.5,160C 394.969,159.769 391.469,159.603 388,159.5C 382.068,151.37 377.068,142.704 373,133.5C 370.874,128.961 371.04,124.627 373.5,120.5 Z"/></g>
<g><path style="opacity:1" fill="#0000a2" d="M 321.5,125.5 C 322.833,125.5 324.167,125.5 325.5,125.5C 325.343,126.873 325.51,128.207 326,129.5C 329.204,132.369 332.037,135.535 334.5,139C 331.989,143.025 331.989,147.025 334.5,151C 331.908,154.82 328.242,156.487 323.5,156C 320.772,158.865 317.438,160.365 313.5,160.5C 313.477,158.4 314.144,156.567 315.5,155C 314.24,151.133 312.24,147.8 309.5,145C 311.771,141.907 312.938,138.407 313,134.5C 316.75,132.253 319.583,129.253 321.5,125.5 Z"/></g>
<g><path style="opacity:1" fill="#01a720" d="M 340.5,201.5 C 339.833,201.167 339.167,200.833 338.5,200.5C 338.5,200.167 338.5,199.833 338.5,199.5C 336.192,196.84 333.692,196.84 331,199.5C 328.545,198.048 325.878,197.048 323,196.5C 321.28,197.723 319.447,198.723 317.5,199.5C 314.811,199.455 313.477,198.121 313.5,195.5C 321.342,192.523 329.509,190.19 338,188.5C 339.743,191.239 342.243,192.739 345.5,193C 349.097,195.868 349.764,199.035 347.5,202.5C 345.514,200.217 344.347,200.884 344,204.5C 342.961,203.29 341.794,202.29 340.5,201.5 Z"/></g>
<g><path style="opacity:1" fill="#079f51" d="M 369.5,245.5 C 368.71,244.391 368.21,243.058 368,241.5C 367.097,242.701 365.931,243.535 364.5,244C 368.333,245.023 368.333,246.19 364.5,247.5C 362.036,248.515 360.37,247.515 359.5,244.5C 360.289,244.217 360.956,243.717 361.5,243C 360.216,242.316 359.049,242.483 358,243.5C 356.066,240.966 356.233,238.633 358.5,236.5C 358.423,235.25 357.756,234.417 356.5,234C 356.982,232.992 357.148,231.825 357,230.5C 357.333,230.833 357.667,231.167 358,231.5C 359.171,230.107 360.671,229.273 362.5,229C 361.552,228.517 360.552,228.351 359.5,228.5C 359.923,226.219 359.256,224.552 357.5,223.5C 355.215,218.27 352.215,214.103 348.5,211C 348.833,210.667 349.167,210.333 349.5,210C 347.167,208.333 344.833,206.667 342.5,205C 341.177,204.184 340.511,203.017 340.5,201.5C 341.794,202.29 342.961,203.29 344,204.5C 344.347,200.884 345.514,200.217 347.5,202.5C 349.764,199.035 349.097,195.868 345.5,193C 342.243,192.739 339.743,191.239 338,188.5C 329.509,190.19 321.342,192.523 313.5,195.5C 319.024,193.149 324.357,190.315 329.5,187C 330.103,185.175 330.77,183.341 331.5,181.5C 332.551,182.885 333.884,183.885 335.5,184.5C 338.029,181.73 340.362,181.896 342.5,185C 341.269,186.183 341.269,187.349 342.5,188.5C 343.275,186.525 344.609,185.691 346.5,186C 347.042,188.255 348.209,190.088 350,191.5C 351.396,189.473 353.062,189.14 355,190.5C 355.667,188.5 356.333,186.5 357,184.5C 357.214,189.588 359.214,194.254 363,198.5C 363.844,201.606 363.344,204.439 361.5,207C 364.786,216.469 367.286,226.303 369,236.5C 369.273,238.329 370.107,239.829 371.5,241C 369.893,242.049 369.227,243.549 369.5,245.5 Z"/></g>
<g><path style="opacity:1" fill="#00bfac" d="M 338.5,199.5 C 338.5,199.833 338.5,200.167 338.5,200.5C 336.406,201.242 334.239,201.909 332,202.5C 325.218,201.144 318.552,201.478 312,203.5C 310.604,201.473 308.938,201.14 307,202.5C 306.505,204.473 306.338,206.473 306.5,208.5C 303.941,206.207 303.941,203.707 306.5,201C 308.441,200.257 310.274,200.424 312,201.5C 315.806,200.984 319.472,199.984 323,198.5C 327.444,201.543 331.611,201.543 335.5,198.5C 336.417,199.127 337.417,199.461 338.5,199.5 Z"/></g>
<g><path style="opacity:1" fill="#0d91ca" d="M 338.5,200.5 C 338.66,202.199 338.494,203.866 338,205.5C 336.197,206.313 334.697,207.48 333.5,209C 334.212,210.442 335.379,211.275 337,211.5C 338.465,210.67 339.965,210.504 341.5,211C 344.5,212.667 346.833,215 348.5,218C 345.692,218.598 343.192,219.765 341,221.5C 339.601,220.773 338.101,220.273 336.5,220C 338.715,218.956 341.048,218.29 343.5,218C 341.61,216.888 339.61,216.054 337.5,215.5C 333.612,216.43 329.779,217.43 326,218.5C 325.667,218.167 325.333,217.833 325,217.5C 324.682,219.061 323.849,220.228 322.5,221C 323.737,221.232 324.737,221.732 325.5,222.5C 322.84,223.417 320.506,223.417 318.5,222.5C 317.26,221.341 315.926,220.341 314.5,219.5C 314.141,217.234 314.808,215.401 316.5,214C 313.594,211.381 310.261,209.547 306.5,208.5C 306.338,206.473 306.505,204.473 307,202.5C 308.938,201.14 310.604,201.473 312,203.5C 318.552,201.478 325.218,201.144 332,202.5C 334.239,201.909 336.406,201.242 338.5,200.5 Z"/></g>
<g><path style="opacity:1" fill="#07b661" d="M 313.5,195.5 C 313.477,198.121 314.811,199.455 317.5,199.5C 319.447,198.723 321.28,197.723 323,196.5C 325.878,197.048 328.545,198.048 331,199.5C 333.692,196.84 336.192,196.84 338.5,199.5C 337.417,199.461 336.417,199.127 335.5,198.5C 331.611,201.543 327.444,201.543 323,198.5C 319.472,199.984 315.806,200.984 312,201.5C 310.274,200.424 308.441,200.257 306.5,201C 303.941,203.707 303.941,206.207 306.5,208.5C 310.261,209.547 313.594,211.381 316.5,214C 314.808,215.401 314.141,217.234 314.5,219.5C 313.778,218.449 312.778,217.782 311.5,217.5C 311.001,214.611 309.501,213.944 307,215.5C 306.667,213.833 306.333,212.167 306,210.5C 299.209,206.982 298.709,202.649 304.5,197.5C 303.846,195.885 303.346,194.218 303,192.5C 301.957,194.701 301.123,197.034 300.5,199.5C 297.823,197.834 296.156,198.501 295.5,201.5C 295.703,203.208 296.536,204.541 298,205.5C 298.333,207.833 298.667,210.167 299,212.5C 300.545,211.179 301.711,211.512 302.5,213.5C 302.043,214.298 301.376,214.631 300.5,214.5C 299.833,214.5 299.167,214.5 298.5,214.5C 294.441,212.846 290.441,213.346 286.5,216C 288.228,219.001 290.561,221.334 293.5,223C 289.772,226.973 285.939,230.806 282,234.5C 281.253,238.085 282.086,241.252 284.5,244C 282.74,244.965 282.406,246.132 283.5,247.5C 285.789,245.008 288.123,242.508 290.5,240C 291.448,239.517 292.448,239.351 293.5,239.5C 293.933,242.166 294.433,244.832 295,247.5C 301.836,250.56 305.003,255.56 304.5,262.5C 301.453,264.912 298.62,267.579 296,270.5C 292.714,267.6 290.714,263.933 290,259.5C 288.062,258.14 286.396,258.473 285,260.5C 285.202,265.159 284.036,269.326 281.5,273C 283.845,276.876 285.512,281.043 286.5,285.5C 290.209,282.45 293.709,279.116 297,275.5C 298.794,278.214 299.96,281.214 300.5,284.5C 301.924,282.282 303.924,280.782 306.5,280C 307.252,279.329 307.586,278.496 307.5,277.5C 307.833,277.5 308.167,277.5 308.5,277.5C 310.195,278.011 311.861,278.678 313.5,279.5C 312.289,280.72 312.289,281.887 313.5,283C 311.945,284.646 310.279,284.979 308.5,284C 308.957,284.414 309.291,284.914 309.5,285.5C 308.726,286.711 307.893,286.711 307,285.5C 305.812,286.563 305.312,287.897 305.5,289.5C 304.167,289.5 302.833,289.5 301.5,289.5C 301.5,290.5 301.5,291.5 301.5,292.5C 300.07,292.579 298.736,292.246 297.5,291.5C 296.614,292.325 296.281,293.325 296.5,294.5C 294.821,294.285 293.821,294.952 293.5,296.5C 292.624,296.369 291.957,296.702 291.5,297.5C 295.185,299.024 296.185,301.524 294.5,305C 294.758,307.009 295.425,308.843 296.5,310.5C 292.3,310.317 288.8,308.65 286,305.5C 284.739,305.759 283.739,306.426 283,307.5C 280.517,305.852 278.684,303.685 277.5,301C 279.131,299.164 279.798,299.664 279.5,302.5C 282.857,302.894 285.19,301.561 286.5,298.5C 284.373,296.124 281.707,295.124 278.5,295.5C 278.688,297.103 278.188,298.437 277,299.5C 276.186,297.098 276.353,294.765 277.5,292.5C 278.895,293.815 279.895,293.481 280.5,291.5C 279.675,290.614 278.675,290.281 277.5,290.5C 277.428,284.616 278.095,279.116 279.5,274C 277.744,271.576 276.077,269.076 274.5,266.5C 276.01,263.745 278.01,261.412 280.5,259.5C 279.603,259.331 278.603,258.998 277.5,258.5C 278.109,255.163 279.276,254.83 281,257.5C 282.647,255.369 282.314,253.369 280,251.5C 279.821,248.447 279.321,245.447 278.5,242.5C 277.808,243.025 277.308,243.692 277,244.5C 274.022,254.185 272.856,264.185 273.5,274.5C 272.833,274.5 272.167,274.5 271.5,274.5C 271.777,262.491 273.443,250.658 276.5,239C 275.594,235.855 273.928,233.189 271.5,231C 272.851,227.805 275.185,225.972 278.5,225.5C 278.945,222.72 278.945,220.053 278.5,217.5C 282.769,214.061 286.603,210.061 290,205.5C 290.819,201.076 292.319,196.909 294.5,193C 293.978,192.439 293.645,191.772 293.5,191C 295.024,189.806 296.19,188.306 297,186.5C 299.885,184.115 302.885,184.115 306,186.5C 305.799,189.777 305.632,193.111 305.5,196.5C 308.127,195.908 310.794,195.575 313.5,195.5 Z"/></g>
<g><path style="opacity:1" fill="#20c723" d="M 311.5,217.5 C 311.833,218.167 312.167,218.833 312.5,219.5C 311.391,219.557 310.391,219.89 309.5,220.5C 309.167,219.5 308.5,218.833 307.5,218.5C 306.178,218.33 305.011,218.663 304,219.5C 303.764,217.881 302.931,216.881 301.5,216.5C 300.662,216.158 300.328,215.492 300.5,214.5C 301.376,214.631 302.043,214.298 302.5,213.5C 301.711,211.512 300.545,211.179 299,212.5C 298.667,210.167 298.333,207.833 298,205.5C 296.536,204.541 295.703,203.208 295.5,201.5C 296.156,198.501 297.823,197.834 300.5,199.5C 301.123,197.034 301.957,194.701 303,192.5C 303.346,194.218 303.846,195.885 304.5,197.5C 298.709,202.649 299.209,206.982 306,210.5C 306.333,212.167 306.667,213.833 307,215.5C 309.501,213.944 311.001,214.611 311.5,217.5 Z"/></g>
<g><path style="opacity:1" fill="#00399e" d="M 392.5,209.5 C 393.675,209.281 394.675,209.614 395.5,210.5C 396.805,213.053 397.805,215.72 398.5,218.5C 401.126,219.293 402.96,220.96 404,223.5C 405.587,222.273 406.921,222.606 408,224.5C 410.255,230.278 411.755,236.278 412.5,242.5C 412.37,249.512 410.87,256.179 408,262.5C 404.432,265.856 401.265,269.523 398.5,273.5C 397.522,273.023 396.689,272.357 396,271.5C 395.598,272.872 395.098,274.205 394.5,275.5C 388.307,277.19 384.807,281.19 384,287.5C 383.138,285.913 382.471,284.246 382,282.5C 381.223,284.701 380.056,284.701 378.5,282.5C 378.417,280.908 378.751,279.241 379.5,277.5C 379.167,276.833 378.833,276.167 378.5,275.5C 377.749,276.376 377.249,277.376 377,278.5C 376.333,275.833 376.333,273.167 377,270.5C 377.29,272.044 377.956,273.377 379,274.5C 379.789,270.909 379.622,267.409 378.5,264C 379.167,263.333 379.833,262.667 380.5,262C 378.82,261.653 377.82,260.653 377.5,259C 381.207,250.937 381.207,242.771 377.5,234.5C 379.118,230.356 379.951,226.022 380,221.5C 381.067,220.809 382.234,220.309 383.5,220C 385.112,217.678 386.445,215.178 387.5,212.5C 389.999,213.368 391.665,212.368 392.5,209.5 Z"/></g>
<g><path style="opacity:1" fill="#035af5" d="M 301.5,216.5 C 302.931,216.881 303.764,217.881 304,219.5C 305.011,218.663 306.178,218.33 307.5,218.5C 306.481,220.101 304.981,221.101 303,221.5C 300.389,220.5 299.889,218.833 301.5,216.5 Z"/></g>
<g><path style="opacity:1" fill="#10e9d2" d="M 298.5,214.5 C 298.042,223.8 301.709,225.8 309.5,220.5C 310.391,219.89 311.391,219.557 312.5,219.5C 312.611,220.117 312.944,220.617 313.5,221C 308.229,223.611 308.229,226.111 313.5,228.5C 314.429,229.689 314.762,231.022 314.5,232.5C 310.209,231.82 307.543,233.486 306.5,237.5C 308.199,237.66 309.866,237.494 311.5,237C 312.904,235.663 314.404,234.497 316,233.5C 316.772,233.645 317.439,233.978 318,234.5C 319.459,232.568 320.625,230.568 321.5,228.5C 323.857,228.337 326.19,228.503 328.5,229C 329.126,229.75 329.626,230.584 330,231.5C 332.953,230.249 335.953,230.249 339,231.5C 339.207,230.095 340.373,229.095 342.5,228.5C 345.75,230.018 347.084,232.351 346.5,235.5C 347.167,236.5 347.833,237.5 348.5,238.5C 347.726,239.711 346.893,239.711 346,238.5C 345.536,239.094 345.369,239.761 345.5,240.5C 344.833,241.167 344.167,241.833 343.5,242.5C 343.742,239.319 343.742,236.319 343.5,233.5C 340.47,234.169 337.47,234.835 334.5,235.5C 332.208,235.244 330.041,235.577 328,236.5C 326.671,235.506 325.338,234.506 324,233.5C 321.929,234.787 319.762,235.953 317.5,237C 320.646,238.657 323.646,240.491 326.5,242.5C 325.791,243.404 324.791,243.737 323.5,243.5C 319.675,242.863 315.842,241.863 312,240.5C 311.78,245.823 313.78,246.823 318,243.5C 318.167,244 318.333,244.5 318.5,245C 316.68,247.516 314.347,249.516 311.5,251C 313.319,251.74 314.652,252.907 315.5,254.5C 315.5,254.833 315.5,255.167 315.5,255.5C 313.599,255.567 311.766,255.233 310,254.5C 307.498,255.501 306.998,257.167 308.5,259.5C 310.729,258.423 313.063,257.756 315.5,257.5C 316.463,259.642 316.13,261.642 314.5,263.5C 312.386,264.784 311.386,266.784 311.5,269.5C 311.539,270.583 311.873,271.583 312.5,272.5C 311.757,273.182 311.091,273.849 310.5,274.5C 309.599,275.29 308.932,276.29 308.5,277.5C 308.167,277.5 307.833,277.5 307.5,277.5C 306.209,277.737 305.209,277.404 304.5,276.5C 305.795,273.637 307.462,270.97 309.5,268.5C 307.955,267.548 306.288,267.215 304.5,267.5C 304.5,265.833 304.5,264.167 304.5,262.5C 305.003,255.56 301.836,250.56 295,247.5C 294.433,244.832 293.933,242.166 293.5,239.5C 292.448,239.351 291.448,239.517 290.5,240C 288.123,242.508 285.789,245.008 283.5,247.5C 282.406,246.132 282.74,244.965 284.5,244C 282.086,241.252 281.253,238.085 282,234.5C 285.939,230.806 289.772,226.973 293.5,223C 290.561,221.334 288.228,219.001 286.5,216C 290.441,213.346 294.441,212.846 298.5,214.5 Z"/></g>
<g><path style="opacity:1" fill="#00b7fc" d="M 298.5,214.5 C 299.167,214.5 299.833,214.5 300.5,214.5C 300.328,215.492 300.662,216.158 301.5,216.5C 299.889,218.833 300.389,220.5 303,221.5C 304.981,221.101 306.481,220.101 307.5,218.5C 308.5,218.833 309.167,219.5 309.5,220.5C 301.709,225.8 298.042,223.8 298.5,214.5 Z"/></g>
<g><path style="opacity:1" fill="#1c73cf" d="M 325.5,222.5 C 329.743,222.222 332.909,223.889 335,227.5C 335.349,226.527 336.182,225.694 337.5,225C 339.167,224.333 340.833,224.333 342.5,225C 337.333,226.014 337.333,227.18 342.5,228.5C 340.373,229.095 339.207,230.095 339,231.5C 335.953,230.249 332.953,230.249 330,231.5C 329.626,230.584 329.126,229.75 328.5,229C 326.19,228.503 323.857,228.337 321.5,228.5C 320.529,226.517 319.529,224.517 318.5,222.5C 320.506,223.417 322.84,223.417 325.5,222.5 Z"/></g>
<g><path style="opacity:1" fill="#00009e" d="M 392.5,222.5 C 394.417,224.296 396.25,226.296 398,228.5C 398.956,231.377 400.289,234.044 402,236.5C 402.667,240.5 402.667,244.5 402,248.5C 399.762,250.309 398.595,252.642 398.5,255.5C 395.509,255.33 393.509,256.663 392.5,259.5C 391.522,259.023 390.689,258.357 390,257.5C 389.433,260.647 387.766,262.98 385,264.5C 384.62,253.908 384.453,243.408 384.5,233C 384.673,230.979 385.34,229.146 386.5,227.5C 390.288,228.405 392.288,226.738 392.5,222.5 Z"/></g>
<g><path style="opacity:1" fill="#136d95" d="M 357.5,223.5 C 359.256,224.552 359.923,226.219 359.5,228.5C 360.552,228.351 361.552,228.517 362.5,229C 360.671,229.273 359.171,230.107 358,231.5C 357.667,231.167 357.333,230.833 357,230.5C 357.148,231.825 356.982,232.992 356.5,234C 357.756,234.417 358.423,235.25 358.5,236.5C 356.233,238.633 356.066,240.966 358,243.5C 359.049,242.483 360.216,242.316 361.5,243C 360.956,243.717 360.289,244.217 359.5,244.5C 357.584,246.116 356.084,245.782 355,243.5C 354.661,241.166 354.828,238.832 355.5,236.5C 355.423,234.701 354.923,233.034 354,231.5C 352.992,231.982 351.825,232.148 350.5,232C 351.328,232.915 352.328,233.581 353.5,234C 353.307,235.645 353.14,237.479 353,239.5C 352.602,236.768 351.102,234.935 348.5,234C 349.603,232.32 349.27,230.82 347.5,229.5C 348.517,226.972 349.684,226.972 351,229.5C 351.333,228.833 351.667,228.167 352,227.5C 352.965,229.26 354.132,229.594 355.5,228.5C 354.528,226.364 352.861,225.197 350.5,225C 353.167,224.333 353.167,223.667 350.5,223C 350.833,222 351.167,221 351.5,220C 352.332,219.312 352.998,219.479 353.5,220.5C 354.414,222.664 355.581,224.664 357,226.5C 358.728,225.648 358.895,224.648 357.5,223.5 Z"/></g>
<g><path style="opacity:1" fill="#00b9ff" d="M 299.5,227.5 C 302.237,228.213 304.904,228.213 307.5,227.5C 308.5,228 309.5,228.5 310.5,229C 307.426,229.958 304.426,231.125 301.5,232.5C 299.783,231.332 299.116,229.665 299.5,227.5 Z"/></g>
<g><path style="opacity:1" fill="#24e280" d="M 311.5,217.5 C 312.778,217.782 313.778,218.449 314.5,219.5C 315.926,220.341 317.26,221.341 318.5,222.5C 319.529,224.517 320.529,226.517 321.5,228.5C 320.625,230.568 319.459,232.568 318,234.5C 317.439,233.978 316.772,233.645 316,233.5C 314.404,234.497 312.904,235.663 311.5,237C 309.866,237.494 308.199,237.66 306.5,237.5C 307.543,233.486 310.209,231.82 314.5,232.5C 314.762,231.022 314.429,229.689 313.5,228.5C 308.229,226.111 308.229,223.611 313.5,221C 312.944,220.617 312.611,220.117 312.5,219.5C 312.167,218.833 311.833,218.167 311.5,217.5 Z"/></g>
<g><path style="opacity:1" fill="#0744db" d="M 330.5,232.5 C 332.199,232.34 333.866,232.506 335.5,233C 333.415,235.139 331.749,234.972 330.5,232.5 Z"/></g>
<g><path style="opacity:1" fill="#327194" d="M 358.5,236.5 C 359.497,236.53 360.164,236.03 360.5,235C 359.976,233.456 359.976,232.123 360.5,231C 361.793,230.51 363.127,230.343 364.5,230.5C 365.229,232.993 366.063,235.326 367,237.5C 366.667,237.167 366.333,236.833 366,236.5C 364.54,238.422 362.873,239.089 361,238.5C 360.005,237.934 359.172,237.267 358.5,236.5 Z"/></g>
<g><path style="opacity:1" fill="#07abf0" d="M 334.5,235.5 C 334.631,236.239 334.464,236.906 334,237.5C 331.472,236.066 329.638,236.733 328.5,239.5C 326.952,239.821 326.285,240.821 326.5,242.5C 323.646,240.491 320.646,238.657 317.5,237C 319.762,235.953 321.929,234.787 324,233.5C 325.338,234.506 326.671,235.506 328,236.5C 330.041,235.577 332.208,235.244 334.5,235.5 Z"/></g>
<g><path style="opacity:1" fill="#199ef1" d="M 300.5,237.5 C 301.708,238.234 303.041,238.567 304.5,238.5C 304.36,240.124 305.027,241.29 306.5,242C 302.083,243.568 300.083,242.068 300.5,237.5 Z"/></g>
<g><path style="opacity:1" fill="#1ec38d" d="M 343.5,242.5 C 341.061,243.9 339.228,243.233 338,240.5C 336.612,241.554 335.112,241.72 333.5,241C 334.167,240.667 334.833,240.333 335.5,240C 333.899,239.727 332.399,239.227 331,238.5C 330.598,239.872 330.098,241.205 329.5,242.5C 331.565,243.857 333.565,245.19 335.5,246.5C 334.167,246.833 332.833,247.167 331.5,247.5C 329.43,243.887 328.764,244.221 329.5,248.5C 328.833,248.5 328.167,248.5 327.5,248.5C 327.672,247.508 327.338,246.842 326.5,246.5C 328.168,244.521 328.834,242.188 328.5,239.5C 329.638,236.733 331.472,236.066 334,237.5C 334.464,236.906 334.631,236.239 334.5,235.5C 337.47,234.835 340.47,234.169 343.5,233.5C 343.742,236.319 343.742,239.319 343.5,242.5 Z"/></g>
<g><path style="opacity:1" fill="#2492f4" d="M 323.5,243.5 C 322.498,245.011 321.831,246.678 321.5,248.5C 317.549,247.777 316.215,249.11 317.5,252.5C 317.253,253.713 316.586,254.38 315.5,254.5C 314.652,252.907 313.319,251.74 311.5,251C 314.347,249.516 316.68,247.516 318.5,245C 318.333,244.5 318.167,244 318,243.5C 313.78,246.823 311.78,245.823 312,240.5C 315.842,241.863 319.675,242.863 323.5,243.5 Z"/></g>
<g><path style="opacity:1" fill="#1876bd" d="M 343.5,242.5 C 344.167,241.833 344.833,241.167 345.5,240.5C 346.833,240.5 348.167,240.5 349.5,240.5C 350.167,242.819 350.334,245.153 350,247.5C 349.196,246.196 348.029,245.529 346.5,245.5C 343.189,247.01 340.356,246.343 338,243.5C 337.536,244.094 337.369,244.761 337.5,245.5C 336.833,245.833 336.167,246.167 335.5,246.5C 333.565,245.19 331.565,243.857 329.5,242.5C 330.098,241.205 330.598,239.872 331,238.5C 332.399,239.227 333.899,239.727 335.5,240C 334.833,240.333 334.167,240.667 333.5,241C 335.112,241.72 336.612,241.554 338,240.5C 339.228,243.233 341.061,243.9 343.5,242.5 Z"/></g>
<g><path style="opacity:1" fill="#17fb67" d="M 328.5,239.5 C 328.834,242.188 328.168,244.521 326.5,246.5C 325.365,248.213 323.698,248.88 321.5,248.5C 321.831,246.678 322.498,245.011 323.5,243.5C 324.791,243.737 325.791,243.404 326.5,242.5C 326.285,240.821 326.952,239.821 328.5,239.5 Z"/></g>
<g><path style="opacity:1" fill="#003aa2" d="M 239.5,238.5 C 242.505,239.724 245.505,239.724 248.5,238.5C 249.7,239.531 251.034,240.365 252.5,241C 255.104,246.034 257.27,251.2 259,256.5C 258.153,261.827 257.653,267.327 257.5,273C 257.522,276.086 257.855,279.086 258.5,282C 255.074,291.283 252.24,300.783 250,310.5C 249.213,306.821 248.379,303.154 247.5,299.5C 244.582,300.919 243.082,303.252 243,306.5C 241.758,307.872 240.258,308.872 238.5,309.5C 235.939,307.36 233.605,305.027 231.5,302.5C 228.957,305.16 226.791,304.827 225,301.5C 224.667,301.833 224.333,302.167 224,302.5C 212.882,292.225 209.215,279.559 213,264.5C 213.459,259.098 215.792,254.764 220,251.5C 220.667,249.5 221.333,247.5 222,245.5C 224.694,247.024 227.36,248.69 230,250.5C 232.65,246.025 235.817,242.025 239.5,238.5 Z"/></g>
<g><path style="opacity:1" fill="#1fb085" d="M 338.5,200.5 C 339.167,200.833 339.833,201.167 340.5,201.5C 340.511,203.017 341.177,204.184 342.5,205C 344.833,206.667 347.167,208.333 349.5,210C 349.167,210.333 348.833,210.667 348.5,211C 352.215,214.103 355.215,218.27 357.5,223.5C 358.895,224.648 358.728,225.648 357,226.5C 355.581,224.664 354.414,222.664 353.5,220.5C 352.998,219.479 352.332,219.312 351.5,220C 351.167,221 350.833,222 350.5,223C 353.167,223.667 353.167,224.333 350.5,225C 352.861,225.197 354.528,226.364 355.5,228.5C 354.132,229.594 352.965,229.26 352,227.5C 351.667,228.167 351.333,228.833 351,229.5C 349.684,226.972 348.517,226.972 347.5,229.5C 349.27,230.82 349.603,232.32 348.5,234C 351.102,234.935 352.602,236.768 353,239.5C 353.14,237.479 353.307,235.645 353.5,234C 352.328,233.581 351.328,232.915 350.5,232C 351.825,232.148 352.992,231.982 354,231.5C 354.923,233.034 355.423,234.701 355.5,236.5C 354.828,238.832 354.661,241.166 355,243.5C 356.084,245.782 357.584,246.116 359.5,244.5C 360.37,247.515 362.036,248.515 364.5,247.5C 364.5,247.833 364.5,248.167 364.5,248.5C 364.5,249.167 364.167,249.5 363.5,249.5C 361.61,249.703 360.11,249.037 359,247.5C 355.27,249.792 351.437,251.792 347.5,253.5C 347.5,254.5 347.5,255.5 347.5,256.5C 347.631,257.239 347.464,257.906 347,258.5C 346.148,257.429 345.315,256.429 344.5,255.5C 344.737,254.209 344.404,253.209 343.5,252.5C 342.962,250.883 342.629,249.216 342.5,247.5C 340.678,247.169 339.011,246.502 337.5,245.5C 337.369,244.761 337.536,244.094 338,243.5C 340.356,246.343 343.189,247.01 346.5,245.5C 348.029,245.529 349.196,246.196 350,247.5C 350.334,245.153 350.167,242.819 349.5,240.5C 348.167,240.5 346.833,240.5 345.5,240.5C 345.369,239.761 345.536,239.094 346,238.5C 346.893,239.711 347.726,239.711 348.5,238.5C 347.833,237.5 347.167,236.5 346.5,235.5C 347.084,232.351 345.75,230.018 342.5,228.5C 337.333,227.18 337.333,226.014 342.5,225C 340.833,224.333 339.167,224.333 337.5,225C 336.182,225.694 335.349,226.527 335,227.5C 332.909,223.889 329.743,222.222 325.5,222.5C 324.737,221.732 323.737,221.232 322.5,221C 323.849,220.228 324.682,219.061 325,217.5C 325.333,217.833 325.667,218.167 326,218.5C 329.779,217.43 333.612,216.43 337.5,215.5C 339.61,216.054 341.61,216.888 343.5,218C 341.048,218.29 338.715,218.956 336.5,220C 338.101,220.273 339.601,220.773 341,221.5C 343.192,219.765 345.692,218.598 348.5,218C 346.833,215 344.5,212.667 341.5,211C 339.965,210.504 338.465,210.67 337,211.5C 335.379,211.275 334.212,210.442 333.5,209C 334.697,207.48 336.197,206.313 338,205.5C 338.494,203.866 338.66,202.199 338.5,200.5 Z"/></g>
<g><path style="opacity:1" fill="#29e440" d="M 337.5,245.5 C 339.011,246.502 340.678,247.169 342.5,247.5C 342.629,249.216 342.962,250.883 343.5,252.5C 342.25,252.423 341.417,251.756 341,250.5C 339.031,253.199 337.864,256.199 337.5,259.5C 336.292,258.766 334.959,258.433 333.5,258.5C 333.916,255.64 332.916,253.474 330.5,252C 332.392,250.687 332.726,249.187 331.5,247.5C 332.833,247.167 334.167,246.833 335.5,246.5C 336.167,246.167 336.833,245.833 337.5,245.5 Z"/></g>
<g><path style="opacity:1" fill="#0236a1" d="M 364.5,248.5 C 365.552,248.351 366.552,248.517 367.5,249C 368.158,250.905 369.325,252.405 371,253.5C 371.811,252.04 372.645,251.707 373.5,252.5C 374.212,258.728 374.212,265.061 373.5,271.5C 372.594,273.386 371.594,275.22 370.5,277C 365.985,277.763 361.651,278.93 357.5,280.5C 355.495,279.501 354.162,280.168 353.5,282.5C 352.778,282.082 352.278,281.416 352,280.5C 351.764,282.119 350.931,283.119 349.5,283.5C 350.11,282.609 350.443,281.609 350.5,280.5C 350.877,278.742 351.544,277.075 352.5,275.5C 351.954,274.228 351.621,272.894 351.5,271.5C 352.034,265.488 352.701,259.488 353.5,253.5C 354.962,252.529 356.295,252.862 357.5,254.5C 359.941,253.291 361.941,251.624 363.5,249.5C 364.167,249.5 364.5,249.167 364.5,248.5 Z"/></g>
<g><path style="opacity:1" fill="#0771a1" d="M 363.5,249.5 C 361.941,251.624 359.941,253.291 357.5,254.5C 356.295,252.862 354.962,252.529 353.5,253.5C 352.701,259.488 352.034,265.488 351.5,271.5C 351.621,272.894 351.954,274.228 352.5,275.5C 351.544,277.075 350.877,278.742 350.5,280.5C 349.883,280.611 349.383,280.944 349,281.5C 348.097,280.299 346.931,279.465 345.5,279C 348,278.167 348.167,277 346,275.5C 344.644,276.38 343.144,276.714 341.5,276.5C 341.286,274.856 341.62,273.356 342.5,272C 339.972,271.331 339.972,270.498 342.5,269.5C 343.799,270.09 344.632,271.09 345,272.5C 345.278,271.584 345.778,270.918 346.5,270.5C 346.369,271.376 346.702,272.043 347.5,272.5C 349.046,271.788 350.046,270.622 350.5,269C 350.302,265.594 350.136,262.094 350,258.5C 349.292,257.619 348.458,256.953 347.5,256.5C 347.5,255.5 347.5,254.5 347.5,253.5C 351.437,251.792 355.27,249.792 359,247.5C 360.11,249.037 361.61,249.703 363.5,249.5 Z"/></g>
<g><path style="opacity:1" fill="#1bf97d" d="M 321.5,248.5 C 321.318,250.591 321.652,252.591 322.5,254.5C 319.919,257.404 318.252,260.737 317.5,264.5C 316.833,264.5 316.167,264.5 315.5,264.5C 314.833,264.5 314.5,264.167 314.5,263.5C 316.13,261.642 316.463,259.642 315.5,257.5C 315.5,256.833 315.5,256.167 315.5,255.5C 315.5,255.167 315.5,254.833 315.5,254.5C 316.586,254.38 317.253,253.713 317.5,252.5C 316.215,249.11 317.549,247.777 321.5,248.5 Z"/></g>
<g><path style="opacity:1" fill="#109de5" d="M 315.5,255.5 C 315.5,256.167 315.5,256.833 315.5,257.5C 313.063,257.756 310.729,258.423 308.5,259.5C 306.998,257.167 307.498,255.501 310,254.5C 311.766,255.233 313.599,255.567 315.5,255.5 Z"/></g>
<g><path style="opacity:1" fill="#00a61d" d="M 277.5,290.5 C 276.542,290.953 275.708,291.619 275,292.5C 274.409,286.502 273.909,280.502 273.5,274.5C 272.856,264.185 274.022,254.185 277,244.5C 277.308,243.692 277.808,243.025 278.5,242.5C 279.321,245.447 279.821,248.447 280,251.5C 282.314,253.369 282.647,255.369 281,257.5C 279.276,254.83 278.109,255.163 277.5,258.5C 278.603,258.998 279.603,259.331 280.5,259.5C 278.01,261.412 276.01,263.745 274.5,266.5C 276.077,269.076 277.744,271.576 279.5,274C 278.095,279.116 277.428,284.616 277.5,290.5 Z"/></g>
<g><path style="opacity:1" fill="#198f93" d="M 344.5,255.5 C 345.315,256.429 346.148,257.429 347,258.5C 347.464,257.906 347.631,257.239 347.5,256.5C 348.458,256.953 349.292,257.619 350,258.5C 350.136,262.094 350.302,265.594 350.5,269C 350.046,270.622 349.046,271.788 347.5,272.5C 346.702,272.043 346.369,271.376 346.5,270.5C 347.911,266.228 346.244,264.228 341.5,264.5C 344.071,261.361 344.071,258.194 341.5,255C 342.719,253.205 343.719,253.372 344.5,255.5 Z"/></g>
<g><path style="opacity:1" fill="#0000a2" d="M 244.5,254.5 C 246.463,256.279 248.629,257.946 251,259.5C 251.884,266.582 251.551,273.582 250,280.5C 247.463,284.095 245.297,287.928 243.5,292C 242.551,292.617 241.718,292.451 241,291.5C 240.484,288.749 239.317,286.416 237.5,284.5C 235.9,286.69 234.066,288.69 232,290.5C 232.046,285.006 230.046,283.673 226,286.5C 224.592,278.069 225.259,269.736 228,261.5C 229.351,263.019 230.851,264.352 232.5,265.5C 234.818,262.74 236.485,259.573 237.5,256C 239.235,255.349 240.902,255.515 242.5,256.5C 243.522,256.145 244.189,255.478 244.5,254.5 Z"/></g>
<g><path style="opacity:1" fill="#1ab8b4" d="M 331.5,247.5 C 332.726,249.187 332.392,250.687 330.5,252C 332.916,253.474 333.916,255.64 333.5,258.5C 334.959,258.433 336.292,258.766 337.5,259.5C 335.614,262.732 334.28,265.898 333.5,269C 334.167,269.333 334.833,269.667 335.5,270C 334.663,271.011 334.33,272.178 334.5,273.5C 331.654,273.191 330.154,271.525 330,268.5C 329.026,270.878 328.359,270.544 328,267.5C 325.515,270.007 326.015,271.507 329.5,272C 327.963,273.11 327.297,274.61 327.5,276.5C 325.692,276.491 324.025,276.991 322.5,278C 324.061,281.385 323.394,282.051 320.5,280C 321.38,278.644 321.714,277.144 321.5,275.5C 322.5,275.5 323.5,275.5 324.5,275.5C 324.33,274.178 324.663,273.011 325.5,272C 322.881,271.249 320.547,270.749 318.5,270.5C 320.119,268.075 319.786,266.075 317.5,264.5C 318.252,260.737 319.919,257.404 322.5,254.5C 321.652,252.591 321.318,250.591 321.5,248.5C 323.698,248.88 325.365,248.213 326.5,246.5C 327.338,246.842 327.672,247.508 327.5,248.5C 326.4,249.558 325.066,250.392 323.5,251C 324.833,252 324.833,253 323.5,254C 325.729,254.041 327.729,253.208 329.5,251.5C 328.209,250.473 328.209,249.473 329.5,248.5C 328.764,244.221 329.43,243.887 331.5,247.5 Z"/></g>
<g><path style="opacity:1" fill="#02c568" d="M 328.5,256.5 C 329.237,258.382 330.404,259.048 332,258.5C 334.454,262.13 333.954,264.13 330.5,264.5C 329.749,263.624 329.249,262.624 329,261.5C 327.334,262.34 327.167,261.84 328.5,260C 326.069,258.908 326.069,257.741 328.5,256.5 Z"/></g>
<g><path style="opacity:1" fill="#0045c0" d="M 327.5,248.5 C 328.167,248.5 328.833,248.5 329.5,248.5C 328.209,249.473 328.209,250.473 329.5,251.5C 327.729,253.208 325.729,254.041 323.5,254C 324.833,253 324.833,252 323.5,251C 325.066,250.392 326.4,249.558 327.5,248.5 Z"/></g>
<g><path style="opacity:1" fill="#0d48ec" d="M 315.5,264.5 C 316.167,264.5 316.833,264.5 317.5,264.5C 319.786,266.075 320.119,268.075 318.5,270.5C 318.5,270.833 318.5,271.167 318.5,271.5C 316.887,269.539 315.887,267.206 315.5,264.5 Z"/></g>
<g><path style="opacity:1" fill="#15fa6f" d="M 323.5,260.5 C 324.306,261.997 324.972,263.664 325.5,265.5C 323.116,268.31 321.783,267.81 321.5,264C 321.862,262.566 322.528,261.399 323.5,260.5 Z"/></g>
<g><path style="opacity:1" fill="#1cb278" d="M 341.5,264.5 C 346.244,264.228 347.911,266.228 346.5,270.5C 345.778,270.918 345.278,271.584 345,272.5C 344.632,271.09 343.799,270.09 342.5,269.5C 339.972,270.498 339.972,271.331 342.5,272C 341.62,273.356 341.286,274.856 341.5,276.5C 339.787,275.365 339.12,273.698 339.5,271.5C 339.756,269.208 339.423,267.041 338.5,265C 339.448,264.517 340.448,264.351 341.5,264.5 Z"/></g>
<g><path style="opacity:1" fill="#2ac3ea" d="M 314.5,263.5 C 314.5,264.167 314.833,264.5 315.5,264.5C 315.887,267.206 316.887,269.539 318.5,271.5C 318.657,272.873 318.49,274.207 318,275.5C 316.068,272.738 313.901,270.738 311.5,269.5C 311.386,266.784 312.386,264.784 314.5,263.5 Z"/></g>
<g><path style="opacity:1" fill="#0000a2" d="M 367.5,267.5 C 370.747,268.518 371.747,270.518 370.5,273.5C 365.916,276.396 360.916,277.563 355.5,277C 356.46,275.581 357.293,274.081 358,272.5C 362.645,274.594 365.812,272.928 367.5,267.5 Z"/></g>
<g><path style="opacity:1" fill="#009bd6" d="M 304.5,267.5 C 306.288,267.215 307.955,267.548 309.5,268.5C 307.462,270.97 305.795,273.637 304.5,276.5C 303.504,276.414 302.671,276.748 302,277.5C 299.23,274.758 298.896,271.758 301,268.5C 302.011,267.663 303.178,267.33 304.5,267.5 Z"/></g>
<g><path style="opacity:1" fill="#03beac" d="M 304.5,262.5 C 304.5,264.167 304.5,265.833 304.5,267.5C 303.178,267.33 302.011,267.663 301,268.5C 298.896,271.758 299.23,274.758 302,277.5C 302.671,276.748 303.504,276.414 304.5,276.5C 305.209,277.404 306.209,277.737 307.5,277.5C 307.586,278.496 307.252,279.329 306.5,280C 303.924,280.782 301.924,282.282 300.5,284.5C 299.96,281.214 298.794,278.214 297,275.5C 293.709,279.116 290.209,282.45 286.5,285.5C 285.512,281.043 283.845,276.876 281.5,273C 284.036,269.326 285.202,265.159 285,260.5C 286.396,258.473 288.062,258.14 290,259.5C 290.714,263.933 292.714,267.6 296,270.5C 298.62,267.579 301.453,264.912 304.5,262.5 Z"/></g>
<g><path style="opacity:1" fill="#16be42" d="M 343.5,252.5 C 344.404,253.209 344.737,254.209 344.5,255.5C 343.719,253.372 342.719,253.205 341.5,255C 344.071,258.194 344.071,261.361 341.5,264.5C 340.448,264.351 339.448,264.517 338.5,265C 339.423,267.041 339.756,269.208 339.5,271.5C 338.5,271.5 337.5,271.5 336.5,271.5C 335.336,274.187 333.503,276.52 331,278.5C 329.708,277.209 328.542,277.209 327.5,278.5C 326.714,284.458 323.381,285.792 317.5,282.5C 316.271,280.077 315.271,277.577 314.5,275C 313.207,274.51 311.873,274.343 310.5,274.5C 311.091,273.849 311.757,273.182 312.5,272.5C 311.873,271.583 311.539,270.583 311.5,269.5C 313.901,270.738 316.068,272.738 318,275.5C 318.49,274.207 318.657,272.873 318.5,271.5C 318.5,271.167 318.5,270.833 318.5,270.5C 320.547,270.749 322.881,271.249 325.5,272C 324.663,273.011 324.33,274.178 324.5,275.5C 323.5,275.5 322.5,275.5 321.5,275.5C 321.714,277.144 321.38,278.644 320.5,280C 323.394,282.051 324.061,281.385 322.5,278C 324.025,276.991 325.692,276.491 327.5,276.5C 327.297,274.61 327.963,273.11 329.5,272C 326.015,271.507 325.515,270.007 328,267.5C 328.359,270.544 329.026,270.878 330,268.5C 330.154,271.525 331.654,273.191 334.5,273.5C 334.33,272.178 334.663,271.011 335.5,270C 334.833,269.667 334.167,269.333 333.5,269C 334.28,265.898 335.614,262.732 337.5,259.5C 337.864,256.199 339.031,253.199 341,250.5C 341.417,251.756 342.25,252.423 343.5,252.5 Z"/></g>
<g><path style="opacity:1" fill="#15918d" d="M 339.5,271.5 C 339.12,273.698 339.787,275.365 341.5,276.5C 343.144,276.714 344.644,276.38 346,275.5C 348.167,277 348,278.167 345.5,279C 346.931,279.465 348.097,280.299 349,281.5C 349.383,280.944 349.883,280.611 350.5,280.5C 350.443,281.609 350.11,282.609 349.5,283.5C 346.833,284.167 345.167,285.833 344.5,288.5C 344.19,289.738 343.69,289.738 343,288.5C 342.667,287.167 342.333,285.833 342,284.5C 340.559,285.87 338.892,286.87 337,287.5C 335,286.167 333,286.167 331,287.5C 330.536,286.906 330.369,286.239 330.5,285.5C 329.209,284.527 329.209,283.527 330.5,282.5C 328.665,281.572 328.332,280.406 329.5,279C 328.906,278.536 328.239,278.369 327.5,278.5C 328.542,277.209 329.708,277.209 331,278.5C 333.503,276.52 335.336,274.187 336.5,271.5C 337.5,271.5 338.5,271.5 339.5,271.5 Z"/></g>
<g><path style="opacity:1" fill="#009f90" d="M 412.5,280.5 C 414.074,280.937 415.241,281.937 416,283.5C 416.701,286.327 417.701,288.994 419,291.5C 420.009,289.975 420.509,288.308 420.5,286.5C 421.93,286.421 423.264,286.754 424.5,287.5C 425.251,286.624 425.751,285.624 426,284.5C 423.44,317.846 413.107,348.513 395,376.5C 381.5,392.667 366.667,407.5 350.5,421C 345.154,423.953 339.82,424.12 334.5,421.5C 336.951,418.6 338.285,415.266 338.5,411.5C 337.5,411.5 336.5,411.5 335.5,411.5C 336.219,407.562 337.885,404.062 340.5,401C 339.234,397.491 339.401,393.991 341,390.5C 344.795,387.601 346.295,383.935 345.5,379.5C 348.111,370.947 351.277,362.614 355,354.5C 357.258,352.57 359.758,351.07 362.5,350C 361.484,349.481 360.818,348.647 360.5,347.5C 361.942,344.972 362.442,342.305 362,339.5C 360.019,341.359 359.019,343.692 359,346.5C 358.676,344.431 357.842,344.098 356.5,345.5C 355.138,343.988 354.804,342.488 355.5,341C 354.167,340.667 352.833,340.333 351.5,340C 359.232,336.87 362.232,331.204 360.5,323C 361.32,320.18 363.154,318.346 366,317.5C 367.973,318.877 369.806,320.043 371.5,321C 372.5,320 373.5,319 374.5,318C 372.017,315.692 371.851,313.192 374,310.5C 374.333,312.5 374.667,314.5 375,316.5C 376.506,314.826 378.339,313.826 380.5,313.5C 380.335,311.173 379.669,309.007 378.5,307C 379.191,305.933 379.691,304.766 380,303.5C 381.423,305.345 382.59,307.345 383.5,309.5C 384.48,308.019 385.647,306.685 387,305.5C 387.834,301.321 389.168,297.321 391,293.5C 392,295.167 393,296.833 394,298.5C 397.739,293.089 401.073,287.422 404,281.5C 404.666,285.899 406.833,286.732 410.5,284C 411.305,282.887 411.972,281.721 412.5,280.5 Z"/></g>
<g><path style="opacity:1" fill="#1170aa" d="M 353.5,282.5 C 354.419,285.491 353.753,288.157 351.5,290.5C 348.984,289.344 346.651,288.677 344.5,288.5C 345.167,285.833 346.833,284.167 349.5,283.5C 350.931,283.119 351.764,282.119 352,280.5C 352.278,281.416 352.778,282.082 353.5,282.5 Z"/></g>
<g><path style="opacity:1" fill="#1886b9" d="M 310.5,274.5 C 311.873,274.343 313.207,274.51 314.5,275C 315.271,277.577 316.271,280.077 317.5,282.5C 323.381,285.792 326.714,284.458 327.5,278.5C 328.239,278.369 328.906,278.536 329.5,279C 328.332,280.406 328.665,281.572 330.5,282.5C 329.209,283.527 329.209,284.527 330.5,285.5C 327.287,283.669 325.287,284.669 324.5,288.5C 325.651,289.731 326.817,289.731 328,288.5C 329.298,289.946 329.465,291.279 328.5,292.5C 327.417,292.461 326.417,292.127 325.5,291.5C 324.304,291.846 324.304,292.346 325.5,293C 324.833,293.667 324.167,293.667 323.5,293C 323.146,291.374 323.146,289.541 323.5,287.5C 322.041,287.433 320.708,287.766 319.5,288.5C 316.396,286.076 313.062,285.909 309.5,288C 309.833,288.333 310.167,288.667 310.5,289C 309.167,290.333 307.833,291.667 306.5,293C 308.338,294.84 310.338,296.507 312.5,298C 309.525,298.044 306.525,297.877 303.5,297.5C 303.5,296.167 303.5,294.833 303.5,293.5C 300.649,294.323 297.982,295.656 295.5,297.5C 294.817,297.137 294.15,296.804 293.5,296.5C 293.821,294.952 294.821,294.285 296.5,294.5C 296.281,293.325 296.614,292.325 297.5,291.5C 298.736,292.246 300.07,292.579 301.5,292.5C 301.5,291.5 301.5,290.5 301.5,289.5C 302.833,289.5 304.167,289.5 305.5,289.5C 305.312,287.897 305.812,286.563 307,285.5C 307.893,286.711 308.726,286.711 309.5,285.5C 309.291,284.914 308.957,284.414 308.5,284C 310.279,284.979 311.945,284.646 313.5,283C 312.289,281.887 312.289,280.72 313.5,279.5C 311.861,278.678 310.195,278.011 308.5,277.5C 308.932,276.29 309.599,275.29 310.5,274.5 Z"/></g>
<g><path style="opacity:1" fill="#0d73ae" d="M 357.5,285.5 C 358.437,289.43 359.437,289.43 360.5,285.5C 360.833,285.667 361.167,285.833 361.5,286C 360.62,287.356 360.286,288.856 360.5,290.5C 359.153,289.829 357.986,289.829 357,290.5C 356.22,288.613 356.387,286.946 357.5,285.5 Z"/></g>
<g><path style="opacity:1" fill="#0074a0" d="M 450.5,294.5 C 451.496,294.414 452.329,294.748 453,295.5C 453.959,307.414 452.626,319.081 449,330.5C 444.063,344.978 439.73,359.644 436,374.5C 430.612,382.609 426.279,391.276 423,400.5C 415.749,410.422 407.749,419.756 399,428.5C 388.251,445.916 372.751,456.083 352.5,459C 351.549,458.282 351.383,457.449 352,456.5C 358.1,448.065 365.267,440.565 373.5,434C 378.88,430.404 383.714,426.238 388,421.5C 393.862,407.444 401.528,394.444 411,382.5C 413.333,377.5 415.667,372.5 418,367.5C 423.501,359.836 428.501,351.836 433,343.5C 438.841,327.156 444.674,310.822 450.5,294.5 Z"/></g>
<g><path style="opacity:1" fill="#049a4f" d="M 271.5,274.5 C 272.167,274.5 272.833,274.5 273.5,274.5C 273.909,280.502 274.409,286.502 275,292.5C 275.708,291.619 276.542,290.953 277.5,290.5C 278.675,290.281 279.675,290.614 280.5,291.5C 279.895,293.481 278.895,293.815 277.5,292.5C 276.353,294.765 276.186,297.098 277,299.5C 278.188,298.437 278.688,297.103 278.5,295.5C 281.707,295.124 284.373,296.124 286.5,298.5C 285.19,301.561 282.857,302.894 279.5,302.5C 279.798,299.664 279.131,299.164 277.5,301C 278.684,303.685 280.517,305.852 283,307.5C 283.739,306.426 284.739,305.759 286,305.5C 288.8,308.65 292.3,310.317 296.5,310.5C 297.014,312.439 298.347,313.439 300.5,313.5C 302.747,312.594 304.747,311.261 306.5,309.5C 306.694,311.07 306.694,312.57 306.5,314C 307.577,314.47 308.577,314.303 309.5,313.5C 311.176,310.991 313.343,308.991 316,307.5C 316.75,308.126 317.584,308.626 318.5,309C 317.748,309.671 317.414,310.504 317.5,311.5C 315.897,311.312 314.563,311.812 313.5,313C 318.754,313.596 323.587,312.43 328,309.5C 328.374,310.416 328.874,311.25 329.5,312C 325.868,314.28 321.868,315.947 317.5,317C 316.402,317.77 316.402,318.603 317.5,319.5C 316.475,319.897 316.308,320.563 317,321.5C 320.28,320.754 323.614,320.087 327,319.5C 328.011,319.892 328.511,320.559 328.5,321.5C 329.287,320.758 329.953,319.925 330.5,319C 333,318.625 335.333,317.792 337.5,316.5C 338.711,315.726 338.711,314.893 337.5,314C 338.766,312.017 340.432,311.017 342.5,311C 341.154,312.642 341.487,313.309 343.5,313C 347.448,309.259 349.781,304.926 350.5,300C 349.549,299.282 349.383,298.449 350,297.5C 350.667,298.833 351.333,298.833 352,297.5C 352.311,295.444 352.811,293.444 353.5,291.5C 353.043,290.702 352.376,290.369 351.5,290.5C 353.753,288.157 354.419,285.491 353.5,282.5C 356.4,281.046 357.733,282.046 357.5,285.5C 356.387,286.946 356.22,288.613 357,290.5C 357.986,289.829 359.153,289.829 360.5,290.5C 361.043,290.56 361.376,290.893 361.5,291.5C 355.447,303.932 348.114,315.599 339.5,326.5C 338.252,325.96 337.085,325.293 336,324.5C 333.543,325.637 331.376,327.137 329.5,329C 328.216,329.684 327.049,329.517 326,328.5C 324.023,329.905 321.857,330.905 319.5,331.5C 311.263,329.421 302.93,329.421 294.5,331.5C 293.522,331.023 292.689,330.357 292,329.5C 291.106,327.021 290.773,324.688 291,322.5C 287.617,323.519 285.283,322.185 284,318.5C 282.742,323.522 279.909,324.689 275.5,322C 276.91,321.632 277.91,320.799 278.5,319.5C 277.222,317.278 276.222,314.944 275.5,312.5C 276.948,307.921 276.282,303.754 273.5,300C 274.428,297.586 274.261,295.086 273,292.5C 272.576,286.485 272.076,280.485 271.5,274.5 Z"/></g>
<g><path style="opacity:1" fill="#198058" d="M 330.5,285.5 C 330.369,286.239 330.536,286.906 331,287.5C 333,286.167 335,286.167 337,287.5C 338.892,286.87 340.559,285.87 342,284.5C 342.333,285.833 342.667,287.167 343,288.5C 343.69,289.738 344.19,289.738 344.5,288.5C 346.651,288.677 348.984,289.344 351.5,290.5C 352.376,290.369 353.043,290.702 353.5,291.5C 352.811,293.444 352.311,295.444 352,297.5C 351.333,298.833 350.667,298.833 350,297.5C 349.383,298.449 349.549,299.282 350.5,300C 349.781,304.926 347.448,309.259 343.5,313C 341.487,313.309 341.154,312.642 342.5,311C 340.432,311.017 338.766,312.017 337.5,314C 338.711,314.893 338.711,315.726 337.5,316.5C 335.333,317.792 333,318.625 330.5,319C 329.953,319.925 329.287,320.758 328.5,321.5C 328.511,320.559 328.011,319.892 327,319.5C 323.614,320.087 320.28,320.754 317,321.5C 316.308,320.563 316.475,319.897 317.5,319.5C 323.395,318.719 328.729,316.552 333.5,313C 333.167,312.667 332.833,312.333 332.5,312C 335.266,310.629 337.599,308.796 339.5,306.5C 340.662,305.322 341.662,304.155 342.5,303C 339.612,300.041 337.612,300.208 336.5,303.5C 335.692,303.192 335.025,302.692 334.5,302C 335.167,300.667 335.833,299.333 336.5,298C 335.5,297.333 334.5,297.333 333.5,298C 334.604,299.131 334.271,299.965 332.5,300.5C 331.289,299.726 331.289,298.893 332.5,298C 331.906,297.536 331.239,297.369 330.5,297.5C 329.494,297.062 329.494,296.396 330.5,295.5C 329.449,294.778 328.782,293.778 328.5,292.5C 329.465,291.279 329.298,289.946 328,288.5C 326.817,289.731 325.651,289.731 324.5,288.5C 325.287,284.669 327.287,283.669 330.5,285.5 Z"/></g>
<g><path style="opacity:1" fill="#0aac94" d="M 319.5,288.5 C 309.574,288.521 309.241,289.688 318.5,292C 319.211,293.255 320.044,294.421 321,295.5C 324.095,294.605 327.262,294.605 330.5,295.5C 329.494,296.396 329.494,297.062 330.5,297.5C 329.848,298.725 328.681,299.392 327,299.5C 324.895,299.211 323.062,298.378 321.5,297C 319.833,296.333 318.167,296.333 316.5,297C 318.455,297.953 320.122,299.287 321.5,301C 322.793,301.49 324.127,301.657 325.5,301.5C 325.5,302.5 325.5,303.5 325.5,304.5C 319.269,304.037 313.769,306.037 309,310.5C 308.53,311.577 308.697,312.577 309.5,313.5C 308.577,314.303 307.577,314.47 306.5,314C 306.694,312.57 306.694,311.07 306.5,309.5C 304.747,311.261 302.747,312.594 300.5,313.5C 298.347,313.439 297.014,312.439 296.5,310.5C 295.425,308.843 294.758,307.009 294.5,305C 296.185,301.524 295.185,299.024 291.5,297.5C 291.957,296.702 292.624,296.369 293.5,296.5C 294.15,296.804 294.817,297.137 295.5,297.5C 297.982,295.656 300.649,294.323 303.5,293.5C 303.5,294.833 303.5,296.167 303.5,297.5C 306.525,297.877 309.525,298.044 312.5,298C 310.338,296.507 308.338,294.84 306.5,293C 307.833,291.667 309.167,290.333 310.5,289C 310.167,288.667 309.833,288.333 309.5,288C 313.062,285.909 316.396,286.076 319.5,288.5 Z"/></g>
<g><path style="opacity:1" fill="#13bd68" d="M 328.5,292.5 C 328.782,293.778 329.449,294.778 330.5,295.5C 327.262,294.605 324.095,294.605 321,295.5C 320.044,294.421 319.211,293.255 318.5,292C 309.241,289.688 309.574,288.521 319.5,288.5C 320.708,287.766 322.041,287.433 323.5,287.5C 323.146,289.541 323.146,291.374 323.5,293C 324.167,293.667 324.833,293.667 325.5,293C 324.304,292.346 324.304,291.846 325.5,291.5C 326.417,292.127 327.417,292.461 328.5,292.5 Z"/></g>
<g><path style="opacity:1" fill="#11558b" d="M 330.5,297.5 C 331.239,297.369 331.906,297.536 332.5,298C 331.289,298.893 331.289,299.726 332.5,300.5C 334.271,299.965 334.604,299.131 333.5,298C 334.5,297.333 335.5,297.333 336.5,298C 335.833,299.333 335.167,300.667 334.5,302C 335.025,302.692 335.692,303.192 336.5,303.5C 337.612,300.208 339.612,300.041 342.5,303C 341.662,304.155 340.662,305.322 339.5,306.5C 337.906,306.92 336.406,307.586 335,308.5C 335.061,306.947 334.061,305.613 332,304.5C 330.737,306.797 328.903,307.63 326.5,307C 329.332,305.092 328.999,304.259 325.5,304.5C 325.5,303.5 325.5,302.5 325.5,301.5C 324.127,301.657 322.793,301.49 321.5,301C 320.122,299.287 318.455,297.953 316.5,297C 318.167,296.333 319.833,296.333 321.5,297C 323.062,298.378 324.895,299.211 327,299.5C 328.681,299.392 329.848,298.725 330.5,297.5 Z"/></g>
<g><path style="opacity:1" fill="#0a6d9f" d="M 325.5,304.5 C 324.942,305.79 323.942,306.623 322.5,307C 322.957,307.414 323.291,307.914 323.5,308.5C 321.482,309.509 319.482,310.509 317.5,311.5C 317.414,310.504 317.748,309.671 318.5,309C 317.584,308.626 316.75,308.126 316,307.5C 313.343,308.991 311.176,310.991 309.5,313.5C 308.697,312.577 308.53,311.577 309,310.5C 313.769,306.037 319.269,304.037 325.5,304.5 Z"/></g>
<g><path style="opacity:1" fill="#0a7b73" d="M 325.5,304.5 C 328.999,304.259 329.332,305.092 326.5,307C 328.903,307.63 330.737,306.797 332,304.5C 334.061,305.613 335.061,306.947 335,308.5C 336.406,307.586 337.906,306.92 339.5,306.5C 337.599,308.796 335.266,310.629 332.5,312C 332.833,312.333 333.167,312.667 333.5,313C 328.729,316.552 323.395,318.719 317.5,319.5C 316.402,318.603 316.402,317.77 317.5,317C 321.868,315.947 325.868,314.28 329.5,312C 328.874,311.25 328.374,310.416 328,309.5C 323.587,312.43 318.754,313.596 313.5,313C 314.563,311.812 315.897,311.312 317.5,311.5C 319.482,310.509 321.482,309.509 323.5,308.5C 323.291,307.914 322.957,307.414 322.5,307C 323.942,306.623 324.942,305.79 325.5,304.5 Z"/></g>
<g><path style="opacity:1" fill="#009f56" d="M 403.5,309.5 C 405.58,311.318 406.914,313.651 407.5,316.5C 406.58,326.094 403.746,335.094 399,343.5C 391.251,353.992 384.251,364.992 378,376.5C 375.205,378.293 372.705,380.46 370.5,383C 368.783,384.559 366.783,385.392 364.5,385.5C 364.542,381.174 363.708,377.174 362,373.5C 365,369.167 368,364.833 371,360.5C 371.496,358.965 371.33,357.465 370.5,356C 372.535,350.742 374.868,345.575 377.5,340.5C 378.689,339.571 380.022,339.238 381.5,339.5C 381.297,337.362 380.297,335.695 378.5,334.5C 382.069,323.718 383.236,324.051 382,335.5C 386.451,330.374 390.118,324.707 393,318.5C 394.697,316.075 396.697,314.742 399,314.5C 399.333,313.167 399.667,311.833 400,310.5C 401.313,311.287 402.48,310.954 403.5,309.5 Z"/></g>
<g><path style="opacity:1" fill="#00a055" d="M 208.5,324.5 C 211.438,325.628 214.438,326.795 217.5,328C 219.444,331.61 221.777,334.943 224.5,338C 226.047,338.333 227.38,337.833 228.5,336.5C 231.326,339.484 233.659,342.817 235.5,346.5C 241.271,348.807 245.438,352.807 248,358.5C 249.574,357.016 250.907,355.349 252,353.5C 254.912,359.23 257.246,365.23 259,371.5C 261.176,373.875 263.343,376.208 265.5,378.5C 264.515,380.098 264.349,381.765 265,383.5C 267.816,390.296 270.816,396.963 274,403.5C 274.66,406.047 274.493,408.547 273.5,411C 277.262,412.119 277.262,414.119 273.5,417C 271.899,417.273 270.399,417.773 269,418.5C 264.982,417.629 260.815,417.462 256.5,418C 250.5,415 244.5,412 238.5,409C 236.3,406.766 234.467,404.266 233,401.5C 225.767,396.202 219.101,390.202 213,383.5C 204.208,368.826 201.708,353.159 205.5,336.5C 204.11,331.933 205.11,327.933 208.5,324.5 Z"/></g>
<g><path style="opacity:1" fill="#009f90" d="M 273.5,358.5 C 275.85,356.787 276.85,354.453 276.5,351.5C 275.127,351.657 273.793,351.49 272.5,351C 274.641,349.692 276.641,348.192 278.5,346.5C 279.806,347.912 280.64,349.579 281,351.5C 283.41,348.284 286.243,347.784 289.5,350C 287,350.885 284.667,352.052 282.5,353.5C 281.833,353.167 281.167,352.833 280.5,352.5C 279.218,354.179 278.218,356.013 277.5,358C 276.207,358.49 274.873,358.657 273.5,358.5 Z"/></g>
<g><path style="opacity:1" fill="#00389e" d="M 311.5,346.5 C 314.431,347.547 316.931,349.214 319,351.5C 322.902,350.114 326.569,349.114 330,348.5C 332.293,352.211 335.127,355.378 338.5,358C 338.311,360.295 336.977,362.295 334.5,364C 335.337,365.011 335.67,366.178 335.5,367.5C 336.552,367.351 337.552,367.517 338.5,368C 337.447,370.246 336.114,372.246 334.5,374C 334.95,375.285 335.617,376.452 336.5,377.5C 335.52,378.981 334.353,380.315 333,381.5C 326.949,403.131 315.116,407.131 297.5,393.5C 298.411,390.103 298.411,386.937 297.5,384C 296.149,382.383 294.482,381.216 292.5,380.5C 291.752,378.668 290.752,377.001 289.5,375.5C 290.751,374.369 291.751,373.036 292.5,371.5C 291.167,369.167 291.167,366.833 292.5,364.5C 292.278,362.945 291.611,361.611 290.5,360.5C 291.313,359.186 292.313,358.019 293.5,357C 297.011,356.33 300.344,355.163 303.5,353.5C 305.824,350.687 308.49,348.354 311.5,346.5 Z"/></g>
<g><path style="opacity:1" fill="#00a01c" d="M 216.5,348.5 C 217.962,349.458 219.295,350.624 220.5,352C 223.623,352.206 226.623,352.873 229.5,354C 236.15,359.798 241.484,366.631 245.5,374.5C 247.028,375.861 248.695,377.028 250.5,378C 248.652,382.674 247.986,387.341 248.5,392C 245.429,390.706 242.095,389.706 238.5,389C 227.744,377.821 220.077,364.821 215.5,350C 216.056,349.617 216.389,349.117 216.5,348.5 Z"/></g>
<g><path style="opacity:1" fill="#0074a0" d="M 158.5,362.5 C 161.35,363.172 163.517,364.839 165,367.5C 170.681,377.532 176.347,387.532 182,397.5C 189.667,404.5 197.333,411.5 205,418.5C 206.886,422.44 209.386,425.94 212.5,429C 217.633,431.654 222.133,435.154 226,439.5C 228.63,443.132 231.63,446.465 235,449.5C 236.579,452.994 238.413,456.327 240.5,459.5C 250.196,463.174 259.863,467.174 269.5,471.5C 270.815,473.316 272.315,474.983 274,476.5C 273.357,479.813 271.191,481.98 267.5,483C 253.323,486.147 239.656,484.481 226.5,478C 221.168,473.329 215.168,469.663 208.5,467C 202.91,462.955 197.41,458.788 192,454.5C 190.275,451.326 188.942,447.993 188,444.5C 183.642,440.804 179.975,436.47 177,431.5C 172.923,418.933 168.256,406.6 163,394.5C 159.231,384.154 157.731,373.487 158.5,362.5 Z"/></g>
<g><path style="opacity:1" fill="#00009e" d="M 314.5,362.5 C 317.353,363.815 320.353,364.815 323.5,365.5C 324.84,366.688 325.507,368.188 325.5,370C 324.333,373.833 323.167,377.667 322,381.5C 319.629,383.638 317.796,386.138 316.5,389C 314.09,390.867 311.756,390.867 309.5,389C 311.691,386.42 311.358,383.92 308.5,381.5C 309.326,380.549 309.492,379.549 309,378.5C 306.833,377 305,375.167 303.5,373C 304.708,370.75 306.041,368.583 307.5,366.5C 310.05,365.396 312.383,364.063 314.5,362.5 Z"/></g>
<g><path style="opacity:1" fill="#00a091" d="M 415.5,387.5 C 416.822,387.33 417.989,387.663 419,388.5C 419.388,395.483 416.888,401.316 411.5,406C 409.559,407.903 407.226,408.736 404.5,408.5C 405.302,399.892 408.969,392.892 415.5,387.5 Z"/></g>
<g><path style="opacity:1" fill="#00a091" d="M 204.5,439.5 C 210.375,438.542 213.375,441.042 213.5,447C 213.581,451.256 211.581,452.923 207.5,452C 199.529,449.282 198.529,445.115 204.5,439.5 Z"/></g>
</svg>
