<?xml version="1.0" encoding="UTF-8"?>
<!DOCTYPE svg PUBLIC "-//W3C//DTD SVG 1.1//EN" "http://www.w3.org/Graphics/SVG/1.1/DTD/svg11.dtd">
<svg xmlns="http://www.w3.org/2000/svg" version="1.1" width="993px" height="579px" style="shape-rendering:geometricPrecision; text-rendering:geometricPrecision; image-rendering:optimizeQuality; fill-rule:evenodd; clip-rule:evenodd" xmlns:xlink="http://www.w3.org/1999/xlink">
<g><path style="opacity:1" fill="#2b333b" d="M -0.5,-0.5 C 330.5,-0.5 661.5,-0.5 992.5,-0.5C 992.5,192.5 992.5,385.5 992.5,578.5C 661.5,578.5 330.5,578.5 -0.5,578.5C -0.5,385.5 -0.5,192.5 -0.5,-0.5 Z"/></g>
<g><path style="opacity:1" fill="#0000a0" d="M 507.5,14.5 C 517.55,14.1687 527.55,14.6687 537.5,16C 532.336,153.755 527.669,291.589 523.5,429.5C 363.518,473.826 203.518,518.159 43.5,562.5C 38.3011,561.434 33.3011,559.767 28.5,557.5C 25.8078,392.173 23.4744,226.839 21.5,61.5C 21.8333,49.5 22.1667,37.5 22.5,25.5C 184.294,21.8446 345.961,18.178 507.5,14.5 Z"/></g>
</svg>
