<?xml version="1.0" encoding="UTF-8"?>
<!DOCTYPE svg PUBLIC "-//W3C//DTD SVG 1.1//EN" "http://www.w3.org/Graphics/SVG/1.1/DTD/svg11.dtd">
<svg xmlns="http://www.w3.org/2000/svg" version="1.1" width="993px" height="579px" style="shape-rendering:geometricPrecision; text-rendering:geometricPrecision; image-rendering:optimizeQuality; fill-rule:evenodd; clip-rule:evenodd" xmlns:xlink="http://www.w3.org/1999/xlink">
<g><path style="opacity:1" fill="#2b333b" d="M -0.5,-0.5 C 330.5,-0.5 661.5,-0.5 992.5,-0.5C 992.5,192.5 992.5,385.5 992.5,578.5C 661.5,578.5 330.5,578.5 -0.5,578.5C -0.5,385.5 -0.5,192.5 -0.5,-0.5 Z"/></g>
<g><path style="opacity:1" fill="#0000a0" d="M 507.5,14.5 C 517.55,14.1687 527.55,14.6687 537.5,16C 532.336,153.755 527.669,291.589 523.5,429.5C 363.518,473.826 203.518,518.159 43.5,562.5C 38.3011,561.434 33.3011,559.767 28.5,557.5C 25.8078,392.173 23.4744,226.839 21.5,61.5C 21.8333,49.5 22.1667,37.5 22.5,25.5C 184.294,21.8446 345.961,18.178 507.5,14.5 Z"/></g>
<g><path style="opacity:1" fill="#0039a0" d="M 313.5,44.5 C 334.566,44.3999 355.233,47.2332 375.5,53C 383.079,57.9086 390.079,63.5753 396.5,70C 401.553,72.098 405.72,75.2646 409,79.5C 417.587,94.3389 425.92,109.339 434,124.5C 443.803,148.514 449.137,173.514 450,199.5C 453.052,244.871 448.719,289.538 437,333.5C 434.197,341.578 431.197,349.578 428,357.5C 419.079,373.675 410.412,390.008 402,406.5C 396.419,412.15 390.752,417.816 385,423.5C 379.5,431.667 372.667,438.5 364.5,444C 351.404,450.549 338.07,456.549 324.5,462C 317.99,464.294 311.323,465.961 304.5,467C 290.209,468.791 275.876,469.958 261.5,470.5C 253.15,469.554 245.816,466.388 239.5,461C 232.715,458.186 226.048,455.186 219.5,452C 210.938,439.715 201.771,427.882 192,416.5C 181.873,400.126 174.873,382.46 171,363.5C 156.277,295.686 159.277,228.686 180,162.5C 183.786,152.927 188.12,143.593 193,134.5C 203.46,117.743 214.294,101.243 225.5,85C 236.285,79.5963 245.618,72.263 253.5,63C 256.833,61 260.167,59 263.5,57C 280.057,51.8615 296.724,47.6949 313.5,44.5 Z"/></g>
<g><path style="opacity:1" fill="#0000a0" d="M 317.5,69.5 C 332.409,68.9862 346.742,71.4862 360.5,77C 363.167,79 365.833,81 368.5,83C 374.917,91.7469 382.917,98.7469 392.5,104C 397.598,109.041 402.098,114.541 406,120.5C 417.326,142.482 426.992,165.149 435,188.5C 440.863,221.933 440.196,255.266 433,288.5C 424.096,315.543 413.43,341.876 401,367.5C 396.494,375.18 391.494,382.513 386,389.5C 375.766,399.064 366.266,409.231 357.5,420C 342.166,432.582 324.666,440.415 305,443.5C 286.985,448.032 271.152,444.199 257.5,432C 242.689,426.69 230.523,417.857 221,405.5C 211.667,389.5 202.333,373.5 193,357.5C 183.945,338.899 178.945,319.232 178,298.5C 175.776,267.853 179.109,237.853 188,208.5C 198.756,179.322 212.422,151.656 229,125.5C 236.579,115.918 245.413,107.752 255.5,101C 263.379,91.4435 272.713,83.7769 283.5,78C 294.659,73.8769 305.992,71.0436 317.5,69.5 Z"/></g>
<g><path style="opacity:1" fill="#0074a0" d="M 383.5,74.5 C 392.285,74.6408 399.118,78.3075 404,85.5C 410.656,99.4862 418.322,112.819 427,125.5C 430.904,134.118 433.404,143.118 434.5,152.5C 431.358,152.201 429.191,150.534 428,147.5C 420.184,133.535 413.184,119.201 407,104.5C 399.667,98.5 392.333,92.5 385,86.5C 382.48,82.7004 381.98,78.7004 383.5,74.5 Z"/></g>
<g><path style="opacity:1" fill="#00749f" d="M 250.5,79.5 C 252.716,79.2746 254.383,80.1079 255.5,82C 254.23,85.9053 252.73,89.7387 251,93.5C 241.56,102.875 231.56,111.542 221,119.5C 214.771,130.5 209.104,141.833 204,153.5C 198.735,162.363 192.735,170.696 186,178.5C 187.918,165.417 192.251,153.084 199,141.5C 209.913,127.904 219.246,113.237 227,97.5C 229.045,94.5767 231.212,91.7433 233.5,89C 238.938,85.2845 244.605,82.1178 250.5,79.5 Z"/></g>
<g><path style="opacity:1" fill="#0039a0" d="M 316.5,84.5 C 344.926,83.6935 368.759,93.6935 388,114.5C 412.707,144.594 426.04,179.261 428,218.5C 433.391,282.644 416.058,339.644 376,389.5C 351.24,417.648 320.073,430.814 282.5,429C 267.873,426.801 254.873,421.134 243.5,412C 204.934,374.504 187.267,328.671 190.5,274.5C 189.552,218.894 206.386,169.561 241,126.5C 255.737,109.439 273.571,96.6058 294.5,88C 301.909,86.3933 309.243,85.2266 316.5,84.5 Z"/></g>
<g><path style="opacity:1" fill="#0074a0" d="M 327.5,91.5 C 352.904,92.1187 373.404,102.452 389,122.5C 414.336,155.982 426.169,193.816 424.5,236C 426.277,268.173 420.777,299.007 408,328.5C 399.361,348.109 388.694,366.442 376,383.5C 351.145,411.337 319.978,424.504 282.5,423C 269.604,421.26 257.938,416.594 247.5,409C 217.762,381.692 200.595,347.859 196,307.5C 188.185,250.336 199.852,197.669 231,149.5C 246.26,122.244 268.76,103.744 298.5,94C 308.414,94.8957 318.08,94.0623 327.5,91.5 Z"/></g>
<g><path style="opacity:1" fill="#00a091" d="M 366.5,237.5 C 366.215,230.729 365.382,224.063 364,217.5C 363.667,217.833 363.333,218.167 363,218.5C 362.349,216.765 362.515,215.098 363.5,213.5C 362.206,211.12 361.206,208.62 360.5,206C 361.773,203.484 361.773,200.984 360.5,198.5C 361.167,196.5 361.833,194.5 362.5,192.5C 361.157,190.161 359.824,187.828 358.5,185.5C 357.376,186.914 356.376,188.414 355.5,190C 353.782,190.346 352.115,190.846 350.5,191.5C 346.52,189.199 342.52,186.866 338.5,184.5C 335.352,185.721 333.518,188.054 333,191.5C 330.785,192.655 328.952,194.155 327.5,196C 328.932,197.756 330.599,199.256 332.5,200.5C 328.395,199.717 325.061,197.717 322.5,194.5C 325.265,194.202 327.765,193.202 330,191.5C 332.095,183.603 336.762,177.936 344,174.5C 345.009,172.975 345.509,171.308 345.5,169.5C 346.833,169.5 348.167,169.5 349.5,169.5C 349.677,167.019 348.677,165.186 346.5,164C 349.454,160.312 348.954,157.145 345,154.5C 343.705,148.947 342.205,143.447 340.5,138C 341.264,132.29 339.597,127.29 335.5,123C 337.187,121.087 337.687,118.92 337,116.5C 332.269,111.289 332.769,106.455 338.5,102C 342.375,100.48 346.375,100.146 350.5,101C 363.236,105.739 374.403,112.905 384,122.5C 402.773,146.722 414.44,174.055 419,204.5C 419.777,209.222 419.61,213.889 418.5,218.5C 417.277,219.614 415.944,219.781 414.5,219C 412.18,215.515 409.513,212.349 406.5,209.5C 405.5,210.167 404.5,210.833 403.5,211.5C 402.618,210.24 401.618,209.074 400.5,208C 398.22,207.767 396.22,206.934 394.5,205.5C 393.549,206.326 392.549,206.492 391.5,206C 389.36,203.439 387.027,201.105 384.5,199C 382.865,198.46 381.532,198.96 380.5,200.5C 378.493,199.829 376.66,198.829 375,197.5C 373.01,198.818 371.01,200.152 369,201.5C 367.603,198.932 366.436,199.099 365.5,202C 366,203.5 366.5,205 367,206.5C 367.906,203.879 368.406,204.046 368.5,207C 367.951,211.731 367.284,216.397 366.5,221C 367.13,224.261 368.13,227.428 369.5,230.5C 368.67,233.016 367.67,235.35 366.5,237.5 Z"/></g>
<g><path style="opacity:1" fill="#00a057" d="M 350.5,111.5 C 359.364,111.844 367.364,114.677 374.5,120C 392.547,138.591 403.88,160.757 408.5,186.5C 407.188,192.491 404.688,192.824 401,187.5C 399.495,189.298 399.328,191.132 400.5,193C 400,193.5 399.5,194 399,194.5C 390.007,191.666 382.007,186.999 375,180.5C 373.93,170.197 368.763,162.697 359.5,158C 354.215,151.098 350.549,143.431 348.5,135C 348.911,133.856 349.244,132.689 349.5,131.5C 348.804,126.34 348.137,121.173 347.5,116C 347.557,113.791 348.557,112.291 350.5,111.5 Z"/></g>
<g><path style="opacity:1" fill="#00a293" d="M 315.5,198.5 C 315.953,199.458 316.619,200.292 317.5,201C 315.293,204.18 313.126,204.014 311,200.5C 310.178,205.174 309.678,209.841 309.5,214.5C 307.774,214.815 306.107,214.981 304.5,215C 300.438,210.466 299.438,205.299 301.5,199.5C 303.166,197.813 304.5,195.813 305.5,193.5C 304.423,191.271 303.756,188.937 303.5,186.5C 296.851,187.646 292.517,191.479 290.5,198C 291.479,201.804 291.645,205.638 291,209.5C 285.702,211.739 282.536,215.739 281.5,221.5C 279.994,222.747 278.494,222.747 277,221.5C 275.907,223.349 274.574,225.016 273,226.5C 273.438,229.06 273.271,231.56 272.5,234C 273.211,235.255 274.044,236.421 275,237.5C 277.333,236.587 279.166,235.087 280.5,233C 281.448,232.517 282.448,232.351 283.5,232.5C 284.38,234.611 284.38,236.611 283.5,238.5C 281.983,238.511 280.816,239.177 280,240.5C 278.638,244.058 277.138,247.558 275.5,251C 275.99,254.145 277.157,256.978 279,259.5C 281.336,257.46 283.169,255.127 284.5,252.5C 284.5,252.833 284.5,253.167 284.5,253.5C 283.867,258.197 282.534,262.697 280.5,267C 280.919,269.086 282.086,270.586 284,271.5C 283.544,276.894 285.711,278.56 290.5,276.5C 290.5,277.5 290.5,278.5 290.5,279.5C 288.537,280.96 286.704,282.627 285,284.5C 283.031,280.804 282.031,276.804 282,272.5C 279.907,269.956 278.907,266.956 279,263.5C 278,262.167 277,260.833 276,259.5C 273.511,267.441 273.344,275.274 275.5,283C 272.91,287.194 272.91,291.36 275.5,295.5C 275.406,297.689 274.739,299.689 273.5,301.5C 274.242,302.287 275.075,302.953 276,303.5C 276.241,306.289 276.908,308.956 278,311.5C 278.893,310.289 279.726,310.289 280.5,311.5C 281.179,313.588 281.512,315.588 281.5,317.5C 283.781,318.277 285.948,319.277 288,320.5C 288.333,320.167 288.667,319.833 289,319.5C 291.352,321.674 292.519,324.341 292.5,327.5C 294.912,327.244 296.579,328.244 297.5,330.5C 298.724,329.234 300.057,328.067 301.5,327C 306.132,327.393 310.799,327.393 315.5,327C 319.079,324.085 323.245,322.585 328,322.5C 330.406,322.703 332.406,323.703 334,325.5C 335.955,324.547 337.622,323.213 339,321.5C 340.713,317.127 343.213,313.293 346.5,310C 343.404,309.073 341.07,310.073 339.5,313C 338.207,313.49 336.873,313.657 335.5,313.5C 340.279,309.674 344.945,305.674 349.5,301.5C 351.219,302.789 352.553,302.455 353.5,300.5C 353.662,302.527 353.495,304.527 353,306.5C 349.934,310.205 350.101,313.871 353.5,317.5C 352.253,320.329 350.753,322.995 349,325.5C 348.374,327.713 348.541,329.88 349.5,332C 348.114,335.391 345.948,338.225 343,340.5C 340.946,337.636 338.112,335.969 334.5,335.5C 333.469,334.3 332.635,332.966 332,331.5C 330.293,332.138 328.46,332.138 326.5,331.5C 326.5,329.833 326.5,328.167 326.5,326.5C 324.418,326.528 322.584,325.861 321,324.5C 319.833,325.667 318.667,326.833 317.5,328C 310.253,330.903 303.253,334.07 296.5,337.5C 296.668,332.468 295.668,332.301 293.5,337C 294.517,338.049 294.684,339.216 294,340.5C 291.412,343.253 288.245,344.92 284.5,345.5C 283.885,347.116 282.885,348.449 281.5,349.5C 282.582,349.749 283.915,349.915 285.5,350C 286.428,351.976 287.595,353.809 289,355.5C 289.718,354.549 290.551,354.383 291.5,355C 290.253,356.458 290.253,357.958 291.5,359.5C 289.533,363.275 287.199,366.775 284.5,370C 287.149,374.385 290.149,378.551 293.5,382.5C 293.177,387.91 292.844,393.576 292.5,399.5C 293.233,403.466 294.9,406.966 297.5,410C 294.999,414.338 291.166,416.505 286,416.5C 269.287,415.92 254.954,409.92 243,398.5C 226.112,380.402 214.112,359.402 207,335.5C 203.445,324.313 202.445,312.98 204,301.5C 205.441,300.74 206.941,300.074 208.5,299.5C 211.044,301.629 213.878,303.296 217,304.5C 218,302.5 219,300.5 220,298.5C 221.049,297.483 222.216,297.316 223.5,298C 225.571,301.203 227.904,304.203 230.5,307C 233.167,307.333 235.833,307.667 238.5,308C 239.743,309.154 240.743,310.488 241.5,312C 244.311,312.067 246.477,313.234 248,315.5C 251.914,315.081 255.748,315.081 259.5,315.5C 260.095,320.103 261.428,324.436 263.5,328.5C 265.535,327.403 266.868,325.737 267.5,323.5C 268.086,323.709 268.586,324.043 269,324.5C 268.948,317.417 268.782,310.251 268.5,303C 268.958,300.169 270.292,297.836 272.5,296C 271.188,292.949 270.188,289.783 269.5,286.5C 271.059,276.298 272.725,266.131 274.5,256C 274.212,253.813 273.878,251.646 273.5,249.5C 270.654,249.809 269.154,251.475 269,254.5C 267.082,250.663 266.582,246.663 267.5,242.5C 266.715,239.847 265.215,239.18 263,240.5C 262.333,238.5 262.333,236.5 263,234.5C 265.351,231.399 265.851,228.066 264.5,224.5C 262.833,225.5 261.5,226.833 260.5,228.5C 259.702,226.922 259.202,225.256 259,223.5C 258.439,222.978 257.772,222.645 257,222.5C 254.811,224.548 252.311,225.881 249.5,226.5C 249.809,230.343 248.309,231.676 245,230.5C 244.439,228.275 243.439,226.275 242,224.5C 237.249,230.086 233.082,236.086 229.5,242.5C 226.995,239.625 223.995,238.792 220.5,240C 219.809,238.933 219.309,237.766 219,236.5C 217.333,237.833 215.667,239.167 214,240.5C 212.573,246.095 209.073,249.428 203.5,250.5C 202.546,222.126 209.046,195.459 223,170.5C 232.687,151.296 245.187,134.129 260.5,119C 269.234,112.632 278.901,108.465 289.5,106.5C 293.433,106.051 296.6,107.384 299,110.5C 299.114,115.324 299.947,119.99 301.5,124.5C 300.382,126.571 299.382,128.738 298.5,131C 298.735,131.873 299.069,132.707 299.5,133.5C 297.774,135.228 296.441,137.228 295.5,139.5C 297.051,143.693 296.384,147.526 293.5,151C 294.14,157.064 295.14,163.23 296.5,169.5C 296.886,173.42 295.886,176.92 293.5,180C 294.43,180.991 295.596,181.491 297,181.5C 299.779,180.776 302.446,179.776 305,178.5C 306.067,179.191 307.234,179.691 308.5,180C 309.15,182.456 310.15,184.79 311.5,187C 310.14,190.703 311.307,193.537 315,195.5C 315.483,196.448 315.649,197.448 315.5,198.5 Z"/></g>
<g><path style="opacity:1" fill="#00a158" d="M 275.5,122.5 C 276.117,122.611 276.617,122.944 277,123.5C 277.287,125.891 277.787,128.224 278.5,130.5C 277.128,132.62 277.795,133.62 280.5,133.5C 280.579,134.93 280.246,136.264 279.5,137.5C 272.868,141.097 272.868,143.097 279.5,143.5C 279.682,145.675 280.349,147.675 281.5,149.5C 281.27,151.626 280.27,153.293 278.5,154.5C 279.248,156.332 280.248,157.999 281.5,159.5C 279.374,160.901 277.707,162.734 276.5,165C 277.363,167.362 279.03,168.862 281.5,169.5C 281.333,169.833 281.167,170.167 281,170.5C 276.421,173.025 271.754,175.359 267,177.5C 267.004,182.34 265.837,186.84 263.5,191C 262.036,192.377 261.036,192.377 260.5,191C 262.235,188.598 262.568,186.098 261.5,183.5C 257.149,187.539 254.482,192.539 253.5,198.5C 250.833,200.833 248.167,203.167 245.5,205.5C 241.577,210.36 237.91,215.36 234.5,220.5C 229.955,217.937 227.622,213.937 227.5,208.5C 228.918,203.516 229.251,198.516 228.5,193.5C 235.637,178.56 244.304,164.56 254.5,151.5C 253.21,150.592 251.877,150.759 250.5,152C 246.132,156.033 242.132,160.366 238.5,165C 237.207,165.49 235.873,165.657 234.5,165.5C 235.553,160.911 237.386,156.578 240,152.5C 246.335,142.322 254.169,133.489 263.5,126C 267.623,124.808 271.623,123.641 275.5,122.5 Z"/></g>
<g><path style="opacity:1" fill="#003aa3" d="M 314.5,123.5 C 318.463,123.089 322.13,123.922 325.5,126C 327.096,129.048 329.263,131.548 332,133.5C 332.223,141.938 334.723,149.605 339.5,156.5C 338.696,157.941 338.029,159.441 337.5,161C 339.182,162.895 339.682,165.062 339,167.5C 332.989,171.666 326.822,175.666 320.5,179.5C 319.194,178.088 318.36,176.421 318,174.5C 314.818,173.595 312.818,171.595 312,168.5C 308.488,166.321 305.654,163.488 303.5,160C 304.654,157.361 305.988,154.861 307.5,152.5C 307.278,150.945 306.611,149.611 305.5,148.5C 307.944,144.711 308.777,140.711 308,136.5C 309.744,132.005 311.911,127.672 314.5,123.5 Z"/></g>
<g><path style="opacity:1" fill="#00a01c" d="M 364.5,135.5 C 367.32,135.248 369.986,135.748 372.5,137C 380.531,144.558 385.865,153.725 388.5,164.5C 388.101,167.359 387.267,170.026 386,172.5C 384.352,171.283 382.519,170.45 380.5,170C 376.844,166.402 373.011,162.902 369,159.5C 367.039,156.537 364.706,153.871 362,151.5C 360.748,148.986 360.248,146.32 360.5,143.5C 362.5,143.5 364.5,143.5 366.5,143.5C 365.833,140.833 365.167,138.167 364.5,135.5 Z"/></g>
<g><path style="opacity:1" fill="#0000a3" d="M 320.5,139.5 C 322.903,139.393 324.736,140.393 326,142.5C 326.118,145.975 327.285,148.975 329.5,151.5C 328.385,153.733 328.385,155.899 329.5,158C 328.111,159.957 326.611,161.79 325,163.5C 322.49,162.316 319.99,161.149 317.5,160C 315.18,157.076 314.846,153.909 316.5,150.5C 316.563,148.519 315.896,146.852 314.5,145.5C 316.103,143.046 318.103,141.046 320.5,139.5 Z"/></g>
<g><path style="opacity:1" fill="#0074a0" d="M 365.5,182.5 C 371.726,182.163 375.56,185.163 377,191.5C 377.667,192.833 377.667,194.167 377,195.5C 374.815,194.072 372.815,192.405 371,190.5C 370.035,192.26 368.868,192.594 367.5,191.5C 366.067,188.667 365.4,185.667 365.5,182.5 Z"/></g>
<g><path style="opacity:1" fill="#089f5b" d="M 366.5,237.5 C 367.079,241.238 367.079,244.904 366.5,248.5C 365.749,247.624 365.249,246.624 365,245.5C 362.351,246.545 362.184,248.211 364.5,250.5C 365.736,249.754 367.07,249.421 368.5,249.5C 368.649,250.552 368.483,251.552 368,252.5C 364.111,251.921 360.611,250.588 357.5,248.5C 357.167,248.5 356.833,248.5 356.5,248.5C 356.423,247.25 355.756,246.417 354.5,246C 355.428,244.024 356.595,242.191 358,240.5C 359.017,242.376 359.851,244.376 360.5,246.5C 361.248,244.668 362.248,243.001 363.5,241.5C 362.725,239.698 361.725,239.031 360.5,239.5C 362.639,236.462 362.306,233.462 359.5,230.5C 358.5,231.167 357.5,231.833 356.5,232.5C 355.859,231.007 354.859,230.007 353.5,229.5C 353.5,228.5 353.5,227.5 353.5,226.5C 354.76,226.799 355.927,226.799 357,226.5C 357.333,224.833 357.667,223.167 358,221.5C 358.308,222.308 358.808,222.975 359.5,223.5C 360.583,222.635 360.749,221.635 360,220.5C 356.828,215.018 354.162,209.351 352,203.5C 351.581,204.672 350.915,205.672 350,206.5C 349.667,204.5 349.333,202.5 349,200.5C 347.764,201.399 346.93,202.566 346.5,204C 347.233,206.835 347.9,209.668 348.5,212.5C 346.224,212.756 345.057,214.09 345,216.5C 342.453,214.796 340.953,212.463 340.5,209.5C 341.552,209.649 342.552,209.483 343.5,209C 342.008,204.066 338.341,201.233 332.5,200.5C 330.599,199.256 328.932,197.756 327.5,196C 328.952,194.155 330.785,192.655 333,191.5C 333.518,188.054 335.352,185.721 338.5,184.5C 342.52,186.866 346.52,189.199 350.5,191.5C 352.115,190.846 353.782,190.346 355.5,190C 356.376,188.414 357.376,186.914 358.5,185.5C 359.824,187.828 361.157,190.161 362.5,192.5C 361.833,194.5 361.167,196.5 360.5,198.5C 361.773,200.984 361.773,203.484 360.5,206C 361.206,208.62 362.206,211.12 363.5,213.5C 362.515,215.098 362.349,216.765 363,218.5C 363.333,218.167 363.667,217.833 364,217.5C 365.382,224.063 366.215,230.729 366.5,237.5 Z"/></g>
<g><path style="opacity:1" fill="#04a51b" d="M 336.5,190.5 C 338.593,191.045 340.593,191.878 342.5,193C 341.643,193.689 340.977,194.522 340.5,195.5C 341.309,197.071 341.643,198.738 341.5,200.5C 336.978,201.38 333.645,199.88 331.5,196C 333.351,194.317 335.017,192.484 336.5,190.5 Z"/></g>
<g><path style="opacity:1" fill="#0077a4" d="M 278.5,194.5 C 284.853,196.537 287.02,200.871 285,207.5C 284.07,209.936 282.903,212.269 281.5,214.5C 279.328,214.676 276.995,214.843 274.5,215C 273.069,215.465 271.903,216.299 271,217.5C 270.167,216.667 269.333,215.833 268.5,215C 269.928,212.815 271.595,210.815 273.5,209C 270.906,208.551 268.906,209.551 267.5,212C 265.866,212.494 264.199,212.66 262.5,212.5C 262.751,208.821 263.918,205.487 266,202.5C 266.308,203.308 266.808,203.975 267.5,204.5C 271.073,203.494 274.239,201.828 277,199.5C 278.009,197.975 278.509,196.308 278.5,194.5 Z"/></g>
<g><path style="opacity:1" fill="#0040b3" d="M 322.5,194.5 C 321.636,195.688 320.636,196.855 319.5,198C 321.447,197.464 323.447,197.798 325.5,199C 327.082,201.085 329.082,202.585 331.5,203.5C 332.309,205.071 332.643,206.738 332.5,208.5C 330.181,207.833 327.847,207.666 325.5,208C 324.351,210.491 322.184,212.657 319,214.5C 318.5,214.167 318,213.833 317.5,213.5C 318.5,212.167 319.5,210.833 320.5,209.5C 319.041,205.937 318.041,202.27 317.5,198.5C 316.374,196.5 316.207,194.5 317,192.5C 315.491,191.91 313.991,191.244 312.5,190.5C 313.673,187.721 315.507,187.054 318,188.5C 319.269,187.095 319.769,185.429 319.5,183.5C 321.5,183.5 323.5,183.5 325.5,183.5C 324.417,185.71 324.417,187.877 325.5,190C 324.992,191.893 323.992,193.393 322.5,194.5 Z"/></g>
<g><path style="opacity:1" fill="#079b26" d="M 353.5,226.5 C 354.11,225.609 354.443,224.609 354.5,223.5C 353.549,221.38 352.049,219.714 350,218.5C 349.187,216.564 348.687,214.564 348.5,212.5C 347.9,209.668 347.233,206.835 346.5,204C 346.93,202.566 347.764,201.399 349,200.5C 349.333,202.5 349.667,204.5 350,206.5C 350.915,205.672 351.581,204.672 352,203.5C 354.162,209.351 356.828,215.018 360,220.5C 360.749,221.635 360.583,222.635 359.5,223.5C 358.808,222.975 358.308,222.308 358,221.5C 357.667,223.167 357.333,224.833 357,226.5C 355.927,226.799 354.76,226.799 353.5,226.5 Z"/></g>
<g><path style="opacity:1" fill="#22b42e" d="M 301.5,199.5 C 299.438,205.299 300.438,210.466 304.5,215C 306.107,214.981 307.774,214.815 309.5,214.5C 309.5,215.833 310.167,216.5 311.5,216.5C 311.423,217.75 310.756,218.583 309.5,219C 309.833,219.333 310.167,219.667 310.5,220C 308.865,220.54 307.532,220.04 306.5,218.5C 305.614,219.325 305.281,220.325 305.5,221.5C 303.997,219.178 301.831,217.845 299,217.5C 297.84,219.161 295.673,220.161 292.5,220.5C 292.178,218.278 292.845,216.444 294.5,215C 293.004,214.493 291.837,214.993 291,216.5C 291.107,219.557 289.94,221.891 287.5,223.5C 288.5,224.167 289.5,224.833 290.5,225.5C 290.376,226.107 290.043,226.44 289.5,226.5C 288.399,225.402 287.066,225.235 285.5,226C 282.756,227.744 280.09,229.577 277.5,231.5C 276.417,230.635 276.251,229.635 277,228.5C 278.441,227.13 280.108,226.13 282,225.5C 283.197,218.432 286.863,213.098 293,209.5C 295.474,205.033 296.141,200.366 295,195.5C 300.792,190.096 302.958,191.43 301.5,199.5 Z"/></g>
<g><path style="opacity:1" fill="#108cc5" d="M 322.5,194.5 C 325.061,197.717 328.395,199.717 332.5,200.5C 332.414,201.496 332.748,202.329 333.5,203C 335.329,203.273 336.829,204.107 338,205.5C 338.295,209.46 338.629,213.46 339,217.5C 340.932,219.038 343.099,220.205 345.5,221C 342.833,221.667 342.833,222.333 345.5,223C 342.134,223.33 338.801,222.997 335.5,222C 337.481,221.395 337.815,220.395 336.5,219C 333.469,218.505 330.469,218.671 327.5,219.5C 325.272,220.322 324.605,221.655 325.5,223.5C 324.441,224.696 323.107,225.363 321.5,225.5C 318.251,224.245 315.251,222.578 312.5,220.5C 312.768,218.901 312.434,217.568 311.5,216.5C 310.167,216.5 309.5,215.833 309.5,214.5C 309.678,209.841 310.178,205.174 311,200.5C 313.126,204.014 315.293,204.18 317.5,201C 316.619,200.292 315.953,199.458 315.5,198.5C 316.167,198.5 316.833,198.5 317.5,198.5C 318.041,202.27 319.041,205.937 320.5,209.5C 319.5,210.833 318.5,212.167 317.5,213.5C 318,213.833 318.5,214.167 319,214.5C 322.184,212.657 324.351,210.491 325.5,208C 327.847,207.666 330.181,207.833 332.5,208.5C 332.643,206.738 332.309,205.071 331.5,203.5C 329.082,202.585 327.082,201.085 325.5,199C 323.447,197.798 321.447,197.464 319.5,198C 320.636,196.855 321.636,195.688 322.5,194.5 Z"/></g>
<g><path style="opacity:1" fill="#00389e" d="M 381.5,213.5 C 383.516,215.013 385.849,215.847 388.5,216C 389.469,217.758 390.636,218.258 392,217.5C 393.045,220.154 394.545,222.488 396.5,224.5C 398.306,223.141 399.806,223.475 401,225.5C 401.667,224.833 402.333,224.167 403,223.5C 404.275,225.717 405.275,228.051 406,230.5C 408.3,228.052 409.633,228.719 410,232.5C 412.214,241.268 411.88,249.934 409,258.5C 407.992,258.982 406.825,259.148 405.5,259C 404.833,260.333 404.167,261.667 403.5,263C 402.175,262.852 401.008,263.018 400,263.5C 397.316,266.869 395.149,270.536 393.5,274.5C 391.289,273.877 389.289,272.877 387.5,271.5C 386.148,272.518 385.148,273.851 384.5,275.5C 383.186,274.687 382.019,273.687 381,272.5C 379.088,274.657 377.421,276.991 376,279.5C 375.333,278.833 374.667,278.167 374,277.5C 371.977,268.615 372.144,259.781 374.5,251C 372.529,240.196 371.862,229.362 372.5,218.5C 373.833,218.5 375.167,218.5 376.5,218.5C 376.351,217.448 376.517,216.448 377,215.5C 378.654,215.794 380.154,215.127 381.5,213.5 Z"/></g>
<g><path style="opacity:1" fill="#00a85b" d="M 301.5,199.5 C 302.958,191.43 300.792,190.096 295,195.5C 296.141,200.366 295.474,205.033 293,209.5C 286.863,213.098 283.197,218.432 282,225.5C 280.108,226.13 278.441,227.13 277,228.5C 276.251,229.635 276.417,230.635 277.5,231.5C 280.09,229.577 282.756,227.744 285.5,226C 287.066,225.235 288.399,225.402 289.5,226.5C 288.772,228.735 287.439,230.568 285.5,232C 286.056,232.383 286.389,232.883 286.5,233.5C 286.5,234.833 286.5,236.167 286.5,237.5C 285.609,238.11 284.609,238.443 283.5,238.5C 284.38,236.611 284.38,234.611 283.5,232.5C 282.448,232.351 281.448,232.517 280.5,233C 279.166,235.087 277.333,236.587 275,237.5C 274.044,236.421 273.211,235.255 272.5,234C 273.271,231.56 273.438,229.06 273,226.5C 274.574,225.016 275.907,223.349 277,221.5C 278.494,222.747 279.994,222.747 281.5,221.5C 282.536,215.739 285.702,211.739 291,209.5C 291.645,205.638 291.479,201.804 290.5,198C 292.517,191.479 296.851,187.646 303.5,186.5C 303.756,188.937 304.423,191.271 305.5,193.5C 304.5,195.813 303.166,197.813 301.5,199.5 Z"/></g>
<g><path style="opacity:1" fill="#19ab8a" d="M 332.5,200.5 C 338.341,201.233 342.008,204.066 343.5,209C 342.552,209.483 341.552,209.649 340.5,209.5C 340.953,212.463 342.453,214.796 345,216.5C 345.057,214.09 346.224,212.756 348.5,212.5C 348.687,214.564 349.187,216.564 350,218.5C 352.049,219.714 353.549,221.38 354.5,223.5C 353.265,223.279 352.265,222.612 351.5,221.5C 351.331,222.397 350.998,223.397 350.5,224.5C 349.749,223.624 349.249,222.624 349,221.5C 348.5,222 348,222.5 347.5,223C 348.376,224.586 349.376,226.086 350.5,227.5C 348.973,229.193 347.64,231.027 346.5,233C 347.126,233.75 347.626,234.584 348,235.5C 348.333,235.167 348.667,234.833 349,234.5C 350.57,237.068 352.07,239.734 353.5,242.5C 352.988,245.351 351.321,246.684 348.5,246.5C 350.041,243.303 349.041,240.969 345.5,239.5C 346.777,238.078 346.443,237.078 344.5,236.5C 344.423,233.142 344.09,230.142 343.5,227.5C 339.345,226.097 335.012,225.097 330.5,224.5C 327.134,224.091 326.134,222.425 327.5,219.5C 330.469,218.671 333.469,218.505 336.5,219C 337.815,220.395 337.481,221.395 335.5,222C 338.801,222.997 342.134,223.33 345.5,223C 342.833,222.333 342.833,221.667 345.5,221C 343.099,220.205 340.932,219.038 339,217.5C 338.629,213.46 338.295,209.46 338,205.5C 336.829,204.107 335.329,203.273 333.5,203C 332.748,202.329 332.414,201.496 332.5,200.5 Z"/></g>
<g><path style="opacity:1" fill="#21b4c7" d="M 327.5,219.5 C 326.134,222.425 327.134,224.091 330.5,224.5C 329.833,225.167 329.167,225.833 328.5,226.5C 328.193,229.34 326.86,230.174 324.5,229C 325.96,229.811 326.293,230.645 325.5,231.5C 323.742,230.872 322.242,229.872 321,228.5C 320.667,228.833 320.333,229.167 320,229.5C 319.517,228.552 319.351,227.552 319.5,226.5C 318.5,226.5 317.5,226.5 316.5,226.5C 316.663,228.857 316.497,231.19 316,233.5C 313.502,231.011 313.002,228.178 314.5,225C 314.012,223.416 313.012,222.249 311.5,221.5C 311.624,220.893 311.957,220.56 312.5,220.5C 315.251,222.578 318.251,224.245 321.5,225.5C 323.107,225.363 324.441,224.696 325.5,223.5C 324.605,221.655 325.272,220.322 327.5,219.5 Z"/></g>
<g><path style="opacity:1" fill="#13ee23" d="M 305.5,221.5 C 305.833,222.5 306.5,223.167 307.5,223.5C 310.061,225.677 310.061,227.844 307.5,230C 303.242,231.619 299.075,232.452 295,232.5C 294.667,231.833 294.333,231.167 294,230.5C 294,233.167 294,235.833 294,238.5C 291.352,237.012 288.852,235.346 286.5,233.5C 286.389,232.883 286.056,232.383 285.5,232C 287.439,230.568 288.772,228.735 289.5,226.5C 290.043,226.44 290.376,226.107 290.5,225.5C 289.5,224.833 288.5,224.167 287.5,223.5C 289.94,221.891 291.107,219.557 291,216.5C 291.837,214.993 293.004,214.493 294.5,215C 292.845,216.444 292.178,218.278 292.5,220.5C 295.673,220.161 297.84,219.161 299,217.5C 301.831,217.845 303.997,219.178 305.5,221.5 Z"/></g>
<g><path style="opacity:1" fill="#1f57d7" d="M 330.5,224.5 C 335.012,225.097 339.345,226.097 343.5,227.5C 341.708,227.366 340.042,227.699 338.5,228.5C 335.017,228.309 331.684,227.643 328.5,226.5C 329.167,225.833 329.833,225.167 330.5,224.5 Z"/></g>
<g><path style="opacity:1" fill="#06f98b" d="M 307.5,223.5 C 310.473,223.965 311.64,225.632 311,228.5C 310.044,229.579 309.211,230.745 308.5,232C 302.057,233.171 302.057,234.838 308.5,237C 308.043,237.414 307.709,237.914 307.5,238.5C 307.815,240.483 308.815,241.816 310.5,242.5C 310.5,243.5 310.5,244.5 310.5,245.5C 309.5,246.167 308.5,246.833 307.5,247.5C 305.952,247.179 305.285,246.179 305.5,244.5C 305.5,243.5 305.5,242.5 305.5,241.5C 304.5,241.5 303.5,241.5 302.5,241.5C 302.5,240.5 302.5,239.5 302.5,238.5C 301.5,238.5 300.5,238.5 299.5,238.5C 299.649,237.448 299.483,236.448 299,235.5C 297.351,239.464 295.184,243.131 292.5,246.5C 291.212,243.103 289.212,240.103 286.5,237.5C 286.5,236.167 286.5,234.833 286.5,233.5C 288.852,235.346 291.352,237.012 294,238.5C 294,235.833 294,233.167 294,230.5C 294.333,231.167 294.667,231.833 295,232.5C 299.075,232.452 303.242,231.619 307.5,230C 310.061,227.844 310.061,225.677 307.5,223.5 Z"/></g>
<g><path style="opacity:1" fill="#18ddc0" d="M 311.5,216.5 C 312.434,217.568 312.768,218.901 312.5,220.5C 311.957,220.56 311.624,220.893 311.5,221.5C 313.012,222.249 314.012,223.416 314.5,225C 313.002,228.178 313.502,231.011 316,233.5C 316.497,231.19 316.663,228.857 316.5,226.5C 317.5,226.5 318.5,226.5 319.5,226.5C 319.351,227.552 319.517,228.552 320,229.5C 320.333,229.167 320.667,228.833 321,228.5C 322.242,229.872 323.742,230.872 325.5,231.5C 326.293,230.645 325.96,229.811 324.5,229C 326.86,230.174 328.193,229.34 328.5,226.5C 331.684,227.643 335.017,228.309 338.5,228.5C 338.611,229.117 338.944,229.617 339.5,230C 334.742,229.965 330.409,231.298 326.5,234C 326.67,235.57 327.003,237.403 327.5,239.5C 325.602,240.096 323.935,240.096 322.5,239.5C 323.309,238.531 324.309,237.698 325.5,237C 324.354,236.355 323.354,235.522 322.5,234.5C 321.5,235.833 320.5,235.833 319.5,234.5C 316.698,235.381 313.698,236.715 310.5,238.5C 309.374,239.808 309.374,241.142 310.5,242.5C 308.815,241.816 307.815,240.483 307.5,238.5C 307.709,237.914 308.043,237.414 308.5,237C 302.057,234.838 302.057,233.171 308.5,232C 309.211,230.745 310.044,229.579 311,228.5C 311.64,225.632 310.473,223.965 307.5,223.5C 306.5,223.167 305.833,222.5 305.5,221.5C 305.281,220.325 305.614,219.325 306.5,218.5C 307.532,220.04 308.865,220.54 310.5,220C 310.167,219.667 309.833,219.333 309.5,219C 310.756,218.583 311.423,217.75 311.5,216.5 Z"/></g>
<g><path style="opacity:1" fill="#00009e" d="M 388.5,229.5 C 398.425,237.653 399.925,247.32 393,258.5C 389.269,261.348 386.769,260.348 385.5,255.5C 383.947,265.796 382.28,265.963 380.5,256C 380.706,254.135 381.372,252.468 382.5,251C 381.277,249.28 380.277,247.447 379.5,245.5C 380.385,240.878 380.718,236.211 380.5,231.5C 382.722,231.178 384.556,231.845 386,233.5C 387.095,232.307 387.928,230.973 388.5,229.5 Z"/></g>
<g><path style="opacity:1" fill="#16898b" d="M 354.5,223.5 C 354.443,224.609 354.11,225.609 353.5,226.5C 353.5,227.5 353.5,228.5 353.5,229.5C 352.48,230.954 351.313,231.287 350,230.5C 350.027,232.417 350.861,234.084 352.5,235.5C 353.506,235.062 353.506,234.396 352.5,233.5C 353.002,232.479 353.668,232.312 354.5,233C 355.643,235.34 357.643,237.507 360.5,239.5C 361.725,239.031 362.725,239.698 363.5,241.5C 362.248,243.001 361.248,244.668 360.5,246.5C 359.851,244.376 359.017,242.376 358,240.5C 356.595,242.191 355.428,244.024 354.5,246C 355.756,246.417 356.423,247.25 356.5,248.5C 353.52,248.241 351.687,249.574 351,252.5C 348.984,251.045 348.151,249.045 348.5,246.5C 351.321,246.684 352.988,245.351 353.5,242.5C 352.07,239.734 350.57,237.068 349,234.5C 348.667,234.833 348.333,235.167 348,235.5C 347.626,234.584 347.126,233.75 346.5,233C 347.64,231.027 348.973,229.193 350.5,227.5C 349.376,226.086 348.376,224.586 347.5,223C 348,222.5 348.5,222 349,221.5C 349.249,222.624 349.749,223.624 350.5,224.5C 350.998,223.397 351.331,222.397 351.5,221.5C 352.265,222.612 353.265,223.279 354.5,223.5 Z"/></g>
<g><path style="opacity:1" fill="#0c6996" d="M 353.5,229.5 C 354.859,230.007 355.859,231.007 356.5,232.5C 357.5,231.833 358.5,231.167 359.5,230.5C 362.306,233.462 362.639,236.462 360.5,239.5C 357.643,237.507 355.643,235.34 354.5,233C 353.668,232.312 353.002,232.479 352.5,233.5C 353.506,234.396 353.506,235.062 352.5,235.5C 350.861,234.084 350.027,232.417 350,230.5C 351.313,231.287 352.48,230.954 353.5,229.5 Z"/></g>
<g><path style="opacity:1" fill="#1fa6e0" d="M 322.5,239.5 C 319.821,239.525 318.488,240.858 318.5,243.5C 319.791,243.263 320.791,243.596 321.5,244.5C 319.856,245.316 318.69,246.65 318,248.5C 317.676,246.431 316.842,246.098 315.5,247.5C 314.281,246.737 313.281,245.737 312.5,244.5C 311.817,244.863 311.15,245.196 310.5,245.5C 310.5,244.5 310.5,243.5 310.5,242.5C 309.374,241.142 309.374,239.808 310.5,238.5C 313.698,236.715 316.698,235.381 319.5,234.5C 320.5,235.833 321.5,235.833 322.5,234.5C 323.354,235.522 324.354,236.355 325.5,237C 324.309,237.698 323.309,238.531 322.5,239.5 Z"/></g>
<g><path style="opacity:1" fill="#18ca5b" d="M 343.5,227.5 C 344.09,230.142 344.423,233.142 344.5,236.5C 344.158,237.338 343.492,237.672 342.5,237.5C 340.093,236.079 337.593,234.746 335,233.5C 334.167,235 333,236.167 331.5,237C 333.569,237.324 333.902,238.158 332.5,239.5C 329.691,240.232 327.691,241.899 326.5,244.5C 326.833,245.5 327.5,246.167 328.5,246.5C 330.276,245.685 330.943,244.518 330.5,243C 331.448,242.517 332.448,242.351 333.5,242.5C 334.09,243.766 334.59,245.099 335,246.5C 335.5,245.333 336.333,244.5 337.5,244C 336.934,243.005 336.267,242.172 335.5,241.5C 336.209,240.596 337.209,240.263 338.5,240.5C 338.833,242.5 339.167,244.5 339.5,246.5C 333.802,246.62 333.135,248.286 337.5,251.5C 335.914,252.413 334.414,252.413 333,251.5C 332.517,252.448 332.351,253.448 332.5,254.5C 331.503,254.53 330.836,254.03 330.5,253C 331.452,251.7 331.452,250.533 330.5,249.5C 328.214,248.58 325.881,248.58 323.5,249.5C 320.662,247.464 320.995,245.964 324.5,245C 323.929,243.795 323.262,242.628 322.5,241.5C 322.407,242.472 322.074,243.472 321.5,244.5C 320.791,243.596 319.791,243.263 318.5,243.5C 318.488,240.858 319.821,239.525 322.5,239.5C 323.935,240.096 325.602,240.096 327.5,239.5C 327.003,237.403 326.67,235.57 326.5,234C 330.409,231.298 334.742,229.965 339.5,230C 338.944,229.617 338.611,229.117 338.5,228.5C 340.042,227.699 341.708,227.366 343.5,227.5 Z"/></g>
<g><path style="opacity:1" fill="#12af7e" d="M 342.5,237.5 C 340.989,240.497 341.323,243.33 343.5,246C 341.801,248.761 340.468,251.594 339.5,254.5C 338.518,255.141 337.518,255.807 336.5,256.5C 335.476,255.147 334.143,254.48 332.5,254.5C 332.351,253.448 332.517,252.448 333,251.5C 334.414,252.413 335.914,252.413 337.5,251.5C 339.213,250.365 339.88,248.698 339.5,246.5C 339.167,244.5 338.833,242.5 338.5,240.5C 337.209,240.263 336.209,240.596 335.5,241.5C 334.833,241.833 334.167,242.167 333.5,242.5C 332.448,242.351 331.448,242.517 330.5,243C 330.943,244.518 330.276,245.685 328.5,246.5C 327.5,246.167 326.833,245.5 326.5,244.5C 327.691,241.899 329.691,240.232 332.5,239.5C 333.902,238.158 333.569,237.324 331.5,237C 333,236.167 334.167,235 335,233.5C 337.593,234.746 340.093,236.079 342.5,237.5 Z"/></g>
<g><path style="opacity:1" fill="#00b4f8" d="M 299.5,238.5 C 300.5,238.5 301.5,238.5 302.5,238.5C 302.5,239.5 302.5,240.5 302.5,241.5C 303.5,241.5 304.5,241.5 305.5,241.5C 305.5,242.5 305.5,243.5 305.5,244.5C 303.858,246.081 301.858,246.747 299.5,246.5C 298.629,243.938 298.629,241.272 299.5,238.5 Z"/></g>
<g><path style="opacity:1" fill="#213dcc" d="M 335.5,241.5 C 336.267,242.172 336.934,243.005 337.5,244C 336.333,244.5 335.5,245.333 335,246.5C 334.59,245.099 334.09,243.766 333.5,242.5C 334.167,242.167 334.833,241.833 335.5,241.5 Z"/></g>
<g><path style="opacity:1" fill="#00ab5c" d="M 283.5,238.5 C 283.338,240.527 283.505,242.527 284,244.5C 286.946,247.108 287.112,249.775 284.5,252.5C 283.169,255.127 281.336,257.46 279,259.5C 277.157,256.978 275.99,254.145 275.5,251C 277.138,247.558 278.638,244.058 280,240.5C 280.816,239.177 281.983,238.511 283.5,238.5 Z"/></g>
<g><path style="opacity:1" fill="#013ba1" d="M 348.5,246.5 C 348.151,249.045 348.984,251.045 351,252.5C 351.687,249.574 353.52,248.241 356.5,248.5C 356.833,248.5 357.167,248.5 357.5,248.5C 359.243,250.982 360.743,253.649 362,256.5C 362.811,255.04 363.645,254.707 364.5,255.5C 363.039,257.811 362.706,260.144 363.5,262.5C 364.386,261.675 364.719,260.675 364.5,259.5C 365.5,259.5 366.5,259.5 367.5,259.5C 367.665,262.518 367.498,265.518 367,268.5C 365.097,270.441 364.264,272.774 364.5,275.5C 363.521,276.765 362.521,278.099 361.5,279.5C 360.167,278.167 358.833,278.167 357.5,279.5C 356.719,278.263 355.719,277.263 354.5,276.5C 353.686,278.766 353.186,281.1 353,283.5C 350.959,284.423 348.792,284.756 346.5,284.5C 346.869,282.007 346.203,281.34 344.5,282.5C 343.909,281.849 343.243,281.182 342.5,280.5C 342.957,279.702 343.624,279.369 344.5,279.5C 345.337,279.611 346.337,279.944 347.5,280.5C 348.5,280.167 349.167,279.5 349.5,278.5C 348.726,277.289 347.893,277.289 347,278.5C 346.73,275.776 346.23,273.109 345.5,270.5C 346.776,268.139 346.442,265.972 344.5,264C 345.514,260.068 344.848,256.402 342.5,253C 343.652,250.016 345.652,247.85 348.5,246.5 Z"/></g>
<g><path style="opacity:1" fill="#2f94be" d="M 339.5,246.5 C 339.88,248.698 339.213,250.365 337.5,251.5C 333.135,248.286 333.802,246.62 339.5,246.5 Z"/></g>
<g><path style="opacity:1" fill="#0973a0" d="M 344.5,236.5 C 346.443,237.078 346.777,238.078 345.5,239.5C 349.041,240.969 350.041,243.303 348.5,246.5C 345.652,247.85 343.652,250.016 342.5,253C 344.848,256.402 345.514,260.068 344.5,264C 346.442,265.972 346.776,268.139 345.5,270.5C 346.23,273.109 346.73,275.776 347,278.5C 347.893,277.289 348.726,277.289 349.5,278.5C 349.167,279.5 348.5,280.167 347.5,280.5C 346.337,279.944 345.337,279.611 344.5,279.5C 345.615,276.184 345.448,272.851 344,269.5C 343.023,268.226 342.189,268.226 341.5,269.5C 339.738,268.738 338.738,267.404 338.5,265.5C 339.542,264.209 340.708,264.209 342,265.5C 342.167,264.833 342.333,264.167 342.5,263.5C 341.833,262.5 341.167,261.5 340.5,260.5C 341.037,259.259 341.704,258.092 342.5,257C 341.427,256.793 340.427,255.96 339.5,254.5C 340.468,251.594 341.801,248.761 343.5,246C 341.323,243.33 340.989,240.497 342.5,237.5C 343.492,237.672 344.158,237.338 344.5,236.5 Z"/></g>
<g><path style="opacity:1" fill="#003aa2" d="M 250.5,242.5 C 254.698,243.215 258.031,245.215 260.5,248.5C 261.439,258.374 263.105,268.041 265.5,277.5C 263.553,282.726 261.053,287.726 258,292.5C 256.667,293.833 255.333,295.167 254,296.5C 252.506,295.253 251.006,295.253 249.5,296.5C 248.627,298.413 247.627,300.247 246.5,302C 243.302,300.284 240.136,298.117 237,295.5C 234.658,296.178 232.324,295.845 230,294.5C 227.387,287.604 225.054,280.604 223,273.5C 222,274.833 221,274.833 220,273.5C 218.925,269.142 219.592,265.142 222,261.5C 222.333,264.167 222.667,266.833 223,269.5C 224.274,264.286 226.607,259.619 230,255.5C 231.11,253.963 232.61,253.297 234.5,253.5C 234.779,250.882 235.446,248.382 236.5,246C 238.107,245.885 239.607,246.385 241,247.5C 244.518,246.346 247.684,244.68 250.5,242.5 Z"/></g>
<g><path style="opacity:1" fill="#28ec3e" d="M 316.5,253.5 C 316.285,255.179 316.952,256.179 318.5,256.5C 319.441,258.05 320.107,259.716 320.5,261.5C 320.167,262.5 319.5,263.167 318.5,263.5C 317.209,263.737 316.209,263.404 315.5,262.5C 315.5,261.833 315.167,261.5 314.5,261.5C 314.279,260.265 313.612,259.265 312.5,258.5C 313.632,256.511 314.965,254.844 316.5,253.5 Z"/></g>
<g><path style="opacity:1" fill="#2099db" d="M 316.5,253.5 C 314.965,254.844 313.632,256.511 312.5,258.5C 313.612,259.265 314.279,260.265 314.5,261.5C 311.484,261.159 308.818,259.993 306.5,258C 309.886,255.737 312.719,252.903 315,249.5C 316.188,250.563 316.688,251.897 316.5,253.5 Z"/></g>
<g><path style="opacity:1" fill="#0db1a4" d="M 332.5,254.5 C 334.143,254.48 335.476,255.147 336.5,256.5C 337.518,255.807 338.518,255.141 339.5,254.5C 340.427,255.96 341.427,256.793 342.5,257C 341.704,258.092 341.037,259.259 340.5,260.5C 341.167,261.5 341.833,262.5 342.5,263.5C 342.333,264.167 342.167,264.833 342,265.5C 340.708,264.209 339.542,264.209 338.5,265.5C 337.206,266.29 336.039,267.29 335,268.5C 334.667,267.5 334.333,266.5 334,265.5C 333.667,265.833 333.333,266.167 333,266.5C 332.626,265.584 332.126,264.75 331.5,264C 333.061,263.682 334.228,262.849 335,261.5C 338.854,264.155 340.021,263.155 338.5,258.5C 333.572,259.709 329.072,259.709 325,258.5C 323.851,255.607 323.351,252.607 323.5,249.5C 325.881,248.58 328.214,248.58 330.5,249.5C 331.452,250.533 331.452,251.7 330.5,253C 330.836,254.03 331.503,254.53 332.5,254.5 Z"/></g>
<g><path style="opacity:1" fill="#11ac54" d="M 323.5,249.5 C 323.351,252.607 323.851,255.607 325,258.5C 329.072,259.709 333.572,259.709 338.5,258.5C 340.021,263.155 338.854,264.155 335,261.5C 334.228,262.849 333.061,263.682 331.5,264C 332.126,264.75 332.626,265.584 333,266.5C 333.333,266.167 333.667,265.833 334,265.5C 334.333,266.5 334.667,267.5 335,268.5C 336.039,267.29 337.206,266.29 338.5,265.5C 338.738,267.404 339.738,268.738 341.5,269.5C 341.637,272.812 340.637,275.646 338.5,278C 339.167,278.333 339.833,278.667 340.5,279C 338.5,279.667 336.5,279.667 334.5,279C 334.958,276.602 336.292,274.936 338.5,274C 338,273.833 337.5,273.667 337,273.5C 334.185,274.935 331.351,276.268 328.5,277.5C 326.692,277.509 325.025,277.009 323.5,276C 324.795,273.755 324.128,272.255 321.5,271.5C 323.031,270.075 322.698,269.409 320.5,269.5C 321.71,267.448 322.71,265.282 323.5,263C 323.333,262.167 323.167,261.333 323,260.5C 322.329,261.252 321.496,261.586 320.5,261.5C 320.107,259.716 319.441,258.05 318.5,256.5C 319.268,255.737 319.768,254.737 320,253.5C 320.667,254.833 321.333,254.833 322,253.5C 322.21,251.942 322.71,250.609 323.5,249.5 Z"/></g>
<g><path style="opacity:1" fill="#0075a1" d="M 357.5,260.5 C 359.493,262.841 360.826,265.675 361.5,269C 359.804,270.266 357.971,270.1 356,268.5C 355.282,265.593 355.782,262.926 357.5,260.5 Z"/></g>
<g><path style="opacity:1" fill="#0c4fe1" d="M 309.5,263.5 C 311.265,262.539 313.265,262.205 315.5,262.5C 316.209,263.404 317.209,263.737 318.5,263.5C 318.672,264.492 318.338,265.158 317.5,265.5C 315.83,265.249 314.33,264.582 313,263.5C 312.617,264.056 312.117,264.389 311.5,264.5C 311.5,263.833 311.167,263.5 310.5,263.5C 310.167,263.5 309.833,263.5 309.5,263.5 Z"/></g>
<g><path style="opacity:1" fill="#27e4c5" d="M 320.5,269.5 C 319.791,270.404 318.791,270.737 317.5,270.5C 317.5,268.833 317.5,267.167 317.5,265.5C 318.338,265.158 318.672,264.492 318.5,263.5C 319.5,263.167 320.167,262.5 320.5,261.5C 321.496,261.586 322.329,261.252 323,260.5C 323.167,261.333 323.333,262.167 323.5,263C 322.71,265.282 321.71,267.448 320.5,269.5 Z"/></g>
<g><path style="opacity:1" fill="#0083b4" d="M 284.5,253.5 C 287.537,256.06 289.371,259.393 290,263.5C 290.72,265.112 290.554,266.612 289.5,268C 291.396,270.719 291.729,273.552 290.5,276.5C 285.711,278.56 283.544,276.894 284,271.5C 282.086,270.586 280.919,269.086 280.5,267C 282.534,262.697 283.867,258.197 284.5,253.5 Z"/></g>
<g><path style="opacity:1" fill="#003fb2" d="M 284.5,262.5 C 287.275,265.044 286.775,267.044 283,268.5C 282.252,266.16 282.752,264.16 284.5,262.5 Z"/></g>
<g><path style="opacity:1" fill="#0000a2" d="M 241.5,257.5 C 242.885,258.614 244.385,259.614 246,260.5C 246.667,259.833 247.333,259.167 248,258.5C 249.529,259.729 250.696,261.229 251.5,263C 252.448,263.483 253.448,263.649 254.5,263.5C 254.489,265.547 254.156,267.547 253.5,269.5C 254.167,271.5 254.833,273.5 255.5,275.5C 254.351,277.797 253.185,280.13 252,282.5C 248.217,281.883 245.55,283.549 244,287.5C 242.287,286.122 240.953,284.455 240,282.5C 235.742,285.306 233.409,283.973 233,278.5C 233.397,273.336 234.73,268.336 237,263.5C 239.127,261.886 240.627,259.886 241.5,257.5 Z"/></g>
<g><path style="opacity:1" fill="#0d9799" d="M 330.5,266.5 C 331.87,266.856 332.87,267.69 333.5,269C 332.427,270.416 332.427,271.75 333.5,273C 331.479,273.14 329.645,273.307 328,273.5C 326.916,270.341 327.75,268.008 330.5,266.5 Z"/></g>
<g><path style="opacity:1" fill="#1d81db" d="M 317.5,265.5 C 317.5,267.167 317.5,268.833 317.5,270.5C 318.791,270.737 319.791,270.404 320.5,269.5C 322.698,269.409 323.031,270.075 321.5,271.5C 321.607,273.379 321.107,273.712 320,272.5C 319.283,273.044 318.783,273.711 318.5,274.5C 316.958,273.699 315.292,273.366 313.5,273.5C 314.361,271.614 315.361,269.78 316.5,268C 315.135,266.318 313.635,266.151 312,267.5C 311.517,266.552 311.351,265.552 311.5,264.5C 312.117,264.389 312.617,264.056 313,263.5C 314.33,264.582 315.83,265.249 317.5,265.5 Z"/></g>
<g><path style="opacity:1" fill="#0fc9af" d="M 299.5,238.5 C 298.629,241.272 298.629,243.938 299.5,246.5C 301.858,246.747 303.858,246.081 305.5,244.5C 305.285,246.179 305.952,247.179 307.5,247.5C 307.284,249.681 308.117,251.347 310,252.5C 310.497,250.19 310.663,247.857 310.5,245.5C 311.15,245.196 311.817,244.863 312.5,244.5C 313.281,245.737 314.281,246.737 315.5,247.5C 316.842,246.098 317.676,246.431 318,248.5C 318.69,246.65 319.856,245.316 321.5,244.5C 322.074,243.472 322.407,242.472 322.5,241.5C 323.262,242.628 323.929,243.795 324.5,245C 320.995,245.964 320.662,247.464 323.5,249.5C 322.71,250.609 322.21,251.942 322,253.5C 321.333,254.833 320.667,254.833 320,253.5C 319.768,254.737 319.268,255.737 318.5,256.5C 316.952,256.179 316.285,255.179 316.5,253.5C 316.688,251.897 316.188,250.563 315,249.5C 312.719,252.903 309.886,255.737 306.5,258C 308.818,259.993 311.484,261.159 314.5,261.5C 315.167,261.5 315.5,261.833 315.5,262.5C 313.265,262.205 311.265,262.539 309.5,263.5C 307.703,262.27 305.703,261.604 303.5,261.5C 303.33,260.178 303.663,259.011 304.5,258C 303.109,256.98 301.609,256.147 300,255.5C 297.714,258.104 295.881,260.937 294.5,264C 294.709,265.871 295.709,267.038 297.5,267.5C 298.624,266.086 299.624,264.586 300.5,263C 301.448,262.517 302.448,262.351 303.5,262.5C 303.248,265.32 303.748,267.986 305,270.5C 305.519,269.484 306.353,268.818 307.5,268.5C 308.849,268.846 310.183,269.179 311.5,269.5C 312.222,269.918 312.722,270.584 313,271.5C 313.725,269.843 313.225,268.843 311.5,268.5C 310.549,267.081 310.216,265.415 310.5,263.5C 311.167,263.5 311.5,263.833 311.5,264.5C 311.351,265.552 311.517,266.552 312,267.5C 313.635,266.151 315.135,266.318 316.5,268C 315.361,269.78 314.361,271.614 313.5,273.5C 312.323,275.032 310.989,276.532 309.5,278C 310.252,278.671 310.586,279.504 310.5,280.5C 312.631,281.314 314.964,281.814 317.5,282C 317,282.5 316.5,283 316,283.5C 314.274,282.424 312.441,282.257 310.5,283C 311.76,284.113 312.927,284.28 314,283.5C 316.337,286.634 318.837,286.967 321.5,284.5C 322.171,285.847 322.171,287.014 321.5,288C 323.301,288.317 323.634,288.984 322.5,290C 323.328,290.915 324.328,291.581 325.5,292C 323.97,294.251 321.97,295.751 319.5,296.5C 316.001,296.259 315.668,297.092 318.5,299C 316.527,299.495 314.527,299.662 312.5,299.5C 311.156,295.579 312.823,293.912 317.5,294.5C 317.911,291.724 317.078,291.057 315,292.5C 311.542,291.371 309.042,289.204 307.5,286C 308.167,285.667 308.833,285.333 309.5,285C 307.833,283.333 306.167,281.667 304.5,280C 300.16,278.89 299.493,279.89 302.5,283C 301.429,283.852 300.429,284.685 299.5,285.5C 297.106,282.788 294.106,280.788 290.5,279.5C 290.5,278.5 290.5,277.5 290.5,276.5C 291.729,273.552 291.396,270.719 289.5,268C 290.554,266.612 290.72,265.112 290,263.5C 289.371,259.393 287.537,256.06 284.5,253.5C 284.5,253.167 284.5,252.833 284.5,252.5C 287.112,249.775 286.946,247.108 284,244.5C 283.505,242.527 283.338,240.527 283.5,238.5C 284.609,238.443 285.609,238.11 286.5,237.5C 289.212,240.103 291.212,243.103 292.5,246.5C 295.184,243.131 297.351,239.464 299,235.5C 299.483,236.448 299.649,237.448 299.5,238.5 Z"/></g>
<g><path style="opacity:1" fill="#091fd0" d="M 311.5,269.5 C 311.5,269.167 311.5,268.833 311.5,268.5C 313.225,268.843 313.725,269.843 313,271.5C 312.722,270.584 312.222,269.918 311.5,269.5 Z"/></g>
<g><path style="opacity:1" fill="#028cc4" d="M 299.5,268.5 C 302.734,270.305 303.734,272.972 302.5,276.5C 299.222,278.325 296.888,277.658 295.5,274.5C 296.073,271.938 297.407,269.938 299.5,268.5 Z"/></g>
<g><path style="opacity:1" fill="#12d666" d="M 309.5,263.5 C 309.833,263.5 310.167,263.5 310.5,263.5C 310.216,265.415 310.549,267.081 311.5,268.5C 311.5,268.833 311.5,269.167 311.5,269.5C 310.183,269.179 308.849,268.846 307.5,268.5C 306.353,268.818 305.519,269.484 305,270.5C 303.748,267.986 303.248,265.32 303.5,262.5C 302.448,262.351 301.448,262.517 300.5,263C 299.624,264.586 298.624,266.086 297.5,267.5C 295.709,267.038 294.709,265.871 294.5,264C 295.881,260.937 297.714,258.104 300,255.5C 301.609,256.147 303.109,256.98 304.5,258C 303.663,259.011 303.33,260.178 303.5,261.5C 305.703,261.604 307.703,262.27 309.5,263.5 Z"/></g>
<g><path style="opacity:1" fill="#1695e2" d="M 310.5,245.5 C 310.663,247.857 310.497,250.19 310,252.5C 308.117,251.347 307.284,249.681 307.5,247.5C 308.5,246.833 309.5,246.167 310.5,245.5 Z"/></g>
<g><path style="opacity:1" fill="#009f90" d="M 415.5,272.5 C 416.514,283.124 415.681,293.791 413,304.5C 404.89,331.388 392.556,356.054 376,378.5C 366.988,388.916 356.155,396.749 343.5,402C 332.154,404.123 329.821,400.623 336.5,391.5C 334.793,389.358 333.959,387.025 334,384.5C 341.497,378.859 344.497,371.526 343,362.5C 345.691,357.593 347.857,352.426 349.5,347C 348.783,345.469 347.783,344.136 346.5,343C 347.148,341.56 347.481,340.06 347.5,338.5C 348.822,338.33 349.989,338.663 351,339.5C 352.763,336.98 354.763,334.647 357,332.5C 357.333,333.5 357.667,334.5 358,335.5C 359.822,330.523 362.155,325.857 365,321.5C 366.154,323.957 367.488,323.957 369,321.5C 372.546,315.936 373.713,309.936 372.5,303.5C 375.098,297.541 377.598,291.541 380,285.5C 380.758,287.769 380.591,289.936 379.5,292C 380.825,291.852 381.992,292.018 383,292.5C 384.672,287.306 386.505,287.306 388.5,292.5C 391.228,290.108 394.228,288.108 397.5,286.5C 398.779,283.888 400.445,281.555 402.5,279.5C 403.357,280.736 404.023,282.069 404.5,283.5C 405.002,284.521 405.668,284.688 406.5,284C 408.377,281.749 409.877,279.249 411,276.5C 412.992,275.672 414.492,274.339 415.5,272.5 Z"/></g>
<g><path style="opacity:1" fill="#26c821" d="M 313.5,273.5 C 315.292,273.366 316.958,273.699 318.5,274.5C 317.086,276.598 317.752,277.598 320.5,277.5C 320.33,278.822 320.663,279.989 321.5,281C 320.906,281.464 320.239,281.631 319.5,281.5C 316.592,279.982 313.592,279.648 310.5,280.5C 310.586,279.504 310.252,278.671 309.5,278C 310.989,276.532 312.323,275.032 313.5,273.5 Z"/></g>
<g><path style="opacity:1" fill="#19b087" d="M 321.5,271.5 C 324.128,272.255 324.795,273.755 323.5,276C 325.025,277.009 326.692,277.509 328.5,277.5C 328.121,278.806 327.788,280.139 327.5,281.5C 328,281.833 328.5,282.167 329,282.5C 330.301,281.107 331.801,280.607 333.5,281C 332.549,281.718 332.383,282.551 333,283.5C 334.699,282.594 336.533,282.261 338.5,282.5C 338.649,283.552 338.483,284.552 338,285.5C 337.282,284.549 336.449,284.383 335.5,285C 334.915,286.302 334.249,287.469 333.5,288.5C 330.14,285.65 326.14,284.317 321.5,284.5C 320.833,283.5 320.167,282.5 319.5,281.5C 320.239,281.631 320.906,281.464 321.5,281C 320.663,279.989 320.33,278.822 320.5,277.5C 317.752,277.598 317.086,276.598 318.5,274.5C 318.783,273.711 319.283,273.044 320,272.5C 321.107,273.712 321.607,273.379 321.5,271.5 Z"/></g>
<g><path style="opacity:1" fill="#0c7fa7" d="M 364.5,275.5 C 364.59,278.152 363.924,280.485 362.5,282.5C 360.058,282.119 359.391,282.786 360.5,284.5C 359.675,285.386 358.675,285.719 357.5,285.5C 357.778,283.654 357.111,282.32 355.5,281.5C 354.614,282.325 354.281,283.325 354.5,284.5C 353.833,284.5 353.5,284.833 353.5,285.5C 352.835,288.451 351.001,290.451 348,291.5C 347.837,289.613 348.671,288.113 350.5,287C 346.818,288.185 344.818,286.685 344.5,282.5C 346.203,281.34 346.869,282.007 346.5,284.5C 348.792,284.756 350.959,284.423 353,283.5C 353.186,281.1 353.686,278.766 354.5,276.5C 355.719,277.263 356.719,278.263 357.5,279.5C 358.833,278.167 360.167,278.167 361.5,279.5C 362.521,278.099 363.521,276.765 364.5,275.5 Z"/></g>
<g><path style="opacity:1" fill="#009b8c" d="M 354.5,298.5 C 358.219,293.729 360.885,288.396 362.5,282.5C 363.924,280.485 364.59,278.152 364.5,275.5C 365.458,275.047 366.292,274.381 367,273.5C 371.379,277.929 370.879,281.929 365.5,285.5C 364.855,288.228 364.021,290.895 363,293.5C 359.863,294.803 357.03,296.47 354.5,298.5 Z"/></g>
<g><path style="opacity:1" fill="#1081bf" d="M 319.5,281.5 C 320.167,282.5 320.833,283.5 321.5,284.5C 318.837,286.967 316.337,286.634 314,283.5C 312.927,284.28 311.76,284.113 310.5,283C 312.441,282.257 314.274,282.424 316,283.5C 316.5,283 317,282.5 317.5,282C 314.964,281.814 312.631,281.314 310.5,280.5C 313.592,279.648 316.592,279.982 319.5,281.5 Z"/></g>
<g><path style="opacity:1" fill="#138866" d="M 344.5,279.5 C 343.624,279.369 342.957,279.702 342.5,280.5C 343.243,281.182 343.909,281.849 344.5,282.5C 344.818,286.685 346.818,288.185 350.5,287C 348.671,288.113 347.837,289.613 348,291.5C 351.001,290.451 352.835,288.451 353.5,285.5C 353.286,287.144 353.62,288.644 354.5,290C 353.448,291.119 352.281,291.619 351,291.5C 350.177,294.316 348.677,296.65 346.5,298.5C 347.328,299.415 348.328,300.081 349.5,300.5C 353.498,297.009 356.498,292.843 358.5,288C 357.468,286.373 356.134,285.207 354.5,284.5C 354.281,283.325 354.614,282.325 355.5,281.5C 357.111,282.32 357.778,283.654 357.5,285.5C 358.675,285.719 359.675,285.386 360.5,284.5C 359.391,282.786 360.058,282.119 362.5,282.5C 360.885,288.396 358.219,293.729 354.5,298.5C 354.672,299.492 354.338,300.158 353.5,300.5C 352.553,302.455 351.219,302.789 349.5,301.5C 344.945,305.674 340.279,309.674 335.5,313.5C 332.248,314.459 329.248,315.959 326.5,318C 324.866,318.494 323.199,318.66 321.5,318.5C 322.635,316.787 324.302,316.12 326.5,316.5C 326.699,314.04 327.365,311.707 328.5,309.5C 332.58,307.896 336.247,305.729 339.5,303C 337.833,302.667 336.167,302.333 334.5,302C 335.993,300.844 335.826,300.01 334,299.5C 332.775,299.862 331.609,300.362 330.5,301C 331.696,301.654 331.696,302.154 330.5,302.5C 330.167,302 329.833,301.5 329.5,301C 330.627,299.943 331.127,298.777 331,297.5C 328.772,299.113 326.272,299.78 323.5,299.5C 323.33,300.822 323.663,301.989 324.5,303C 322.937,304.736 321.27,306.236 319.5,307.5C 318.637,308.463 317.97,308.463 317.5,307.5C 318.921,304.991 320.588,302.657 322.5,300.5C 321.624,299.749 320.624,299.249 319.5,299C 320.056,298.617 320.389,298.117 320.5,297.5C 323.536,296.584 326.203,295.084 328.5,293C 326.579,291.969 326.579,290.469 328.5,288.5C 329.631,289.751 330.964,290.751 332.5,291.5C 334.197,291.101 335.863,290.601 337.5,290C 335.942,289.79 334.609,289.29 333.5,288.5C 334.249,287.469 334.915,286.302 335.5,285C 336.449,284.383 337.282,284.549 338,285.5C 338.483,284.552 338.649,283.552 338.5,282.5C 336.533,282.261 334.699,282.594 333,283.5C 332.383,282.551 332.549,281.718 333.5,281C 331.801,280.607 330.301,281.107 329,282.5C 328.5,282.167 328,281.833 327.5,281.5C 327.788,280.139 328.121,278.806 328.5,277.5C 331.351,276.268 334.185,274.935 337,273.5C 337.5,273.667 338,273.833 338.5,274C 336.292,274.936 334.958,276.602 334.5,279C 336.5,279.667 338.5,279.667 340.5,279C 339.833,278.667 339.167,278.333 338.5,278C 340.637,275.646 341.637,272.812 341.5,269.5C 342.189,268.226 343.023,268.226 344,269.5C 345.448,272.851 345.615,276.184 344.5,279.5 Z"/></g>
<g><path style="opacity:1" fill="#199a27" d="M 354.5,284.5 C 356.134,285.207 357.468,286.373 358.5,288C 356.498,292.843 353.498,297.009 349.5,300.5C 348.328,300.081 347.328,299.415 346.5,298.5C 348.677,296.65 350.177,294.316 351,291.5C 352.281,291.619 353.448,291.119 354.5,290C 353.62,288.644 353.286,287.144 353.5,285.5C 353.5,284.833 353.833,284.5 354.5,284.5 Z"/></g>
<g><path style="opacity:1" fill="#1563a9" d="M 321.5,284.5 C 326.14,284.317 330.14,285.65 333.5,288.5C 334.609,289.29 335.942,289.79 337.5,290C 335.863,290.601 334.197,291.101 332.5,291.5C 330.964,290.751 329.631,289.751 328.5,288.5C 326.579,290.469 326.579,291.969 328.5,293C 326.203,295.084 323.536,296.584 320.5,297.5C 320.5,296.833 320.167,296.5 319.5,296.5C 321.97,295.751 323.97,294.251 325.5,292C 324.328,291.581 323.328,290.915 322.5,290C 323.634,288.984 323.301,288.317 321.5,288C 322.171,287.014 322.171,285.847 321.5,284.5 Z"/></g>
<g><path style="opacity:1" fill="#03a155" d="M 290.5,279.5 C 294.106,280.788 297.106,282.788 299.5,285.5C 299.586,286.496 299.252,287.329 298.5,288C 301.943,288.221 302.276,289.221 299.5,291C 302.399,293.729 305.066,296.562 307.5,299.5C 302.557,301.288 297.723,303.288 293,305.5C 291.833,305.167 290.667,304.833 289.5,304.5C 290.624,303.086 291.624,301.586 292.5,300C 295.754,299.75 298.754,298.75 301.5,297C 300.833,296.333 300.167,295.667 299.5,295C 295.912,294.634 292.412,295.134 289,296.5C 284.954,294.706 282.787,296.04 282.5,300.5C 283.552,300.351 284.552,300.517 285.5,301C 286.102,303.036 287.102,304.87 288.5,306.5C 287.047,306.06 285.881,306.726 285,308.5C 283.794,315.01 285.46,316.01 290,311.5C 290.333,312.833 290.667,314.167 291,315.5C 294.607,313.189 298.274,310.856 302,308.5C 303.261,308.759 304.261,309.426 305,310.5C 306.584,309.139 308.418,308.472 310.5,308.5C 315.627,309.136 315.794,310.469 311,312.5C 309.668,310.064 308.501,310.064 307.5,312.5C 308.5,313.167 309.5,313.833 310.5,314.5C 308.64,315.939 306.973,317.605 305.5,319.5C 308.598,319.414 311.765,319.747 315,320.5C 317.346,320.01 319.513,319.343 321.5,318.5C 323.199,318.66 324.866,318.494 326.5,318C 329.248,315.959 332.248,314.459 335.5,313.5C 336.873,313.657 338.207,313.49 339.5,313C 341.07,310.073 343.404,309.073 346.5,310C 343.213,313.293 340.713,317.127 339,321.5C 337.622,323.213 335.955,324.547 334,325.5C 332.406,323.703 330.406,322.703 328,322.5C 323.245,322.585 319.079,324.085 315.5,327C 310.799,327.393 306.132,327.393 301.5,327C 300.057,328.067 298.724,329.234 297.5,330.5C 296.579,328.244 294.912,327.244 292.5,327.5C 292.519,324.341 291.352,321.674 289,319.5C 288.667,319.833 288.333,320.167 288,320.5C 285.948,319.277 283.781,318.277 281.5,317.5C 281.512,315.588 281.179,313.588 280.5,311.5C 279.726,310.289 278.893,310.289 278,311.5C 276.908,308.956 276.241,306.289 276,303.5C 275.075,302.953 274.242,302.287 273.5,301.5C 274.739,299.689 275.406,297.689 275.5,295.5C 272.91,291.36 272.91,287.194 275.5,283C 273.344,275.274 273.511,267.441 276,259.5C 277,260.833 278,262.167 279,263.5C 278.907,266.956 279.907,269.956 282,272.5C 282.031,276.804 283.031,280.804 285,284.5C 286.704,282.627 288.537,280.96 290.5,279.5 Z"/></g>
<g><path style="opacity:1" fill="#00a61d" d="M 276.5,265.5 C 277.117,265.611 277.617,265.944 278,266.5C 279.59,274.177 281.423,281.844 283.5,289.5C 282.913,292.406 281.246,294.072 278.5,294.5C 276.308,284.995 275.641,275.328 276.5,265.5 Z"/></g>
<g><path style="opacity:1" fill="#08a541" d="M 307.5,299.5 C 309.179,299.892 310.846,300.392 312.5,301C 311.446,303.382 310.779,305.882 310.5,308.5C 308.418,308.472 306.584,309.139 305,310.5C 304.261,309.426 303.261,308.759 302,308.5C 298.274,310.856 294.607,313.189 291,315.5C 290.667,314.167 290.333,312.833 290,311.5C 285.46,316.01 283.794,315.01 285,308.5C 285.881,306.726 287.047,306.06 288.5,306.5C 287.102,304.87 286.102,303.036 285.5,301C 284.552,300.517 283.552,300.351 282.5,300.5C 282.787,296.04 284.954,294.706 289,296.5C 292.412,295.134 295.912,294.634 299.5,295C 300.167,295.667 300.833,296.333 301.5,297C 298.754,298.75 295.754,299.75 292.5,300C 291.624,301.586 290.624,303.086 289.5,304.5C 290.667,304.833 291.833,305.167 293,305.5C 297.723,303.288 302.557,301.288 307.5,299.5 Z"/></g>
<g><path style="opacity:1" fill="#0b5785" d="M 321.5,318.5 C 319.801,318.66 318.134,318.494 316.5,318C 318.213,316.622 319.547,314.955 320.5,313C 319.5,312.667 318.5,312.333 317.5,312C 319.319,310.585 319.985,309.085 319.5,307.5C 321.27,306.236 322.937,304.736 324.5,303C 323.663,301.989 323.33,300.822 323.5,299.5C 326.272,299.78 328.772,299.113 331,297.5C 331.127,298.777 330.627,299.943 329.5,301C 329.833,301.5 330.167,302 330.5,302.5C 331.696,302.154 331.696,301.654 330.5,301C 331.609,300.362 332.775,299.862 334,299.5C 335.826,300.01 335.993,300.844 334.5,302C 336.167,302.333 337.833,302.667 339.5,303C 336.247,305.729 332.58,307.896 328.5,309.5C 327.365,311.707 326.699,314.04 326.5,316.5C 324.302,316.12 322.635,316.787 321.5,318.5 Z"/></g>
<g><path style="opacity:1" fill="#07968c" d="M 319.5,296.5 C 320.167,296.5 320.5,296.833 320.5,297.5C 320.389,298.117 320.056,298.617 319.5,299C 320.624,299.249 321.624,299.749 322.5,300.5C 320.588,302.657 318.921,304.991 317.5,307.5C 317.97,308.463 318.637,308.463 319.5,307.5C 319.985,309.085 319.319,310.585 317.5,312C 318.5,312.333 319.5,312.667 320.5,313C 319.547,314.955 318.213,316.622 316.5,318C 318.134,318.494 319.801,318.66 321.5,318.5C 319.513,319.343 317.346,320.01 315,320.5C 311.765,319.747 308.598,319.414 305.5,319.5C 306.973,317.605 308.64,315.939 310.5,314.5C 309.5,313.833 308.5,313.167 307.5,312.5C 308.501,310.064 309.668,310.064 311,312.5C 315.794,310.469 315.627,309.136 310.5,308.5C 310.779,305.882 311.446,303.382 312.5,301C 310.846,300.392 309.179,299.892 307.5,299.5C 305.066,296.562 302.399,293.729 299.5,291C 302.276,289.221 301.943,288.221 298.5,288C 299.252,287.329 299.586,286.496 299.5,285.5C 300.429,284.685 301.429,283.852 302.5,283C 299.493,279.89 300.16,278.89 304.5,280C 306.167,281.667 307.833,283.333 309.5,285C 308.833,285.333 308.167,285.667 307.5,286C 309.042,289.204 311.542,291.371 315,292.5C 317.078,291.057 317.911,291.724 317.5,294.5C 312.823,293.912 311.156,295.579 312.5,299.5C 314.527,299.662 316.527,299.495 318.5,299C 315.668,297.092 316.001,296.259 319.5,296.5 Z"/></g>
<g><path style="opacity:1" fill="#009f56" d="M 381.5,313.5 C 382.224,315.218 382.891,317.052 383.5,319C 384.416,319.374 385.25,319.874 386,320.5C 386.95,316.431 388.45,315.931 390.5,319C 385.122,331.759 379.455,344.426 373.5,357C 373.85,358.257 374.517,358.591 375.5,358C 377,356.5 378.5,355 380,353.5C 384.546,343.713 390.546,335.046 398,327.5C 392.796,348.058 382.296,365.558 366.5,380C 364.122,380.511 361.788,381.178 359.5,382C 357.289,385.275 354.289,386.608 350.5,386C 351.254,381.896 351.421,377.729 351,373.5C 353.638,367.383 355.638,361.05 357,354.5C 358,353.833 359,353.167 360,352.5C 360.69,349.804 362.19,347.637 364.5,346C 364.167,345.667 363.833,345.333 363.5,345C 366.964,339.238 370.797,333.738 375,328.5C 378.225,323.897 380.392,318.897 381.5,313.5 Z"/></g>
<g><path style="opacity:1" fill="#00a057" d="M 228.5,318.5 C 231.5,319.647 234.5,319.813 237.5,319C 242.651,325.727 248.151,332.227 254,338.5C 254.887,344.805 258.387,348.639 264.5,350C 265.618,351.074 266.618,352.24 267.5,353.5C 268.411,363.817 272.411,372.65 279.5,380C 280.167,382.667 280.833,385.333 281.5,388C 281.054,389.726 280.221,391.226 279,392.5C 278.581,394.68 278.748,396.846 279.5,399C 278.732,402.645 276.399,404.478 272.5,404.5C 265.489,403.25 258.823,401.084 252.5,398C 230.613,380.402 217.946,357.569 214.5,329.5C 215.088,325.324 217.588,323.324 222,323.5C 223.107,323.585 224.107,323.919 225,324.5C 225.424,321.975 226.59,319.975 228.5,318.5 Z"/></g>
<g><path style="opacity:1" fill="#00739f" d="M 270.5,324.5 C 271.496,324.414 272.329,324.748 273,325.5C 275.044,328.099 274.711,330.099 272,331.5C 270.893,334.983 271.893,337.65 275,339.5C 276.834,337.244 278.501,337.244 280,339.5C 281.39,346.688 280.057,347.354 276,341.5C 274.667,342.167 273.333,342.833 272,343.5C 270.936,341.731 269.769,340.064 268.5,338.5C 268.875,336.541 269.541,334.707 270.5,333C 269.214,330.168 269.214,327.335 270.5,324.5 Z"/></g>
<g><path style="opacity:1" fill="#0074a0" d="M 428.5,324.5 C 428.906,336.236 426.406,347.569 421,358.5C 411.825,374.181 403.158,390.181 395,406.5C 387.522,414.895 379.022,421.228 369.5,425.5C 372.276,419.615 374.776,413.615 377,407.5C 385.377,398.125 393.377,388.458 401,378.5C 408.512,362.988 415.845,347.321 423,331.5C 424.371,328.734 426.204,326.401 428.5,324.5 Z"/></g>
<g><path style="opacity:1" fill="#00a01c" d="M 236.5,331.5 C 239.372,332.526 241.872,334.192 244,336.5C 246.333,340.5 248.667,344.5 251,348.5C 251.333,351.167 251.667,353.833 252,356.5C 253.522,358.741 254.855,361.074 256,363.5C 256.11,367.855 256.943,372.022 258.5,376C 257.407,377.365 256.074,377.699 254.5,377C 241.8,371.492 237.134,362.492 240.5,350C 238.458,345.012 236.791,339.845 235.5,334.5C 235.685,333.416 236.018,332.416 236.5,331.5 Z"/></g>
<g><path style="opacity:1" fill="#00389e" d="M 309.5,339.5 C 311.963,340.233 314.297,341.233 316.5,342.5C 319.924,342.983 323.924,342.983 328.5,342.5C 328.5,344.167 328.5,345.833 328.5,347.5C 330.199,347.34 331.866,347.506 333.5,348C 334.059,348.725 334.392,349.558 334.5,350.5C 333.833,352.167 333.167,353.833 332.5,355.5C 334.554,363.07 333.721,370.403 330,377.5C 327.041,380.098 325.707,383.432 326,387.5C 322.14,389.618 320.14,392.618 320,396.5C 316.201,400.833 312.035,401.333 307.5,398C 308.081,397.107 308.415,396.107 308.5,395C 307.771,392.752 306.771,390.585 305.5,388.5C 306.485,386.902 306.651,385.235 306,383.5C 303.694,381.194 301.36,378.86 299,376.5C 298.762,369.965 299.262,363.465 300.5,357C 299.107,353.768 298.773,350.602 299.5,347.5C 303.698,345.974 307.032,343.307 309.5,339.5 Z"/></g>
<g><path style="opacity:1" fill="#00009e" d="M 314.5,353.5 C 316.655,353.372 318.655,353.872 320.5,355C 325.717,360.332 326.55,366.499 323,373.5C 320.116,375.526 316.949,376.859 313.5,377.5C 307.767,376.623 306.433,373.79 309.5,369C 308.297,367.632 307.297,366.132 306.5,364.5C 309.436,360.933 312.103,357.267 314.5,353.5 Z"/></g>
<g><path style="opacity:1" fill="#0074a0" d="M 186.5,368.5 C 191.349,373.142 195.515,378.476 199,384.5C 204.583,395.584 209.583,406.917 214,418.5C 224.648,425.798 235.815,432.298 247.5,438C 250.717,441.896 252.383,446.396 252.5,451.5C 244.534,452.133 236.867,450.966 229.5,448C 223.716,440.935 218.55,433.435 214,425.5C 196.703,410.244 187.536,391.244 186.5,368.5 Z"/></g>
<g><path style="opacity:1" fill="#0074a0" d="M 262.5,455.5 C 266.126,455.661 269.793,456.661 273.5,458.5C 272.653,459.845 271.487,460.845 270,461.5C 266.915,460.568 263.748,459.901 260.5,459.5C 260.527,457.801 261.194,456.467 262.5,455.5 Z"/></g>
</svg>
