<?xml version="1.0" encoding="UTF-8"?>
<!DOCTYPE svg PUBLIC "-//W3C//DTD SVG 1.1//EN" "http://www.w3.org/Graphics/SVG/1.1/DTD/svg11.dtd">
<svg xmlns="http://www.w3.org/2000/svg" version="1.1" width="993px" height="579px" style="shape-rendering:geometricPrecision; text-rendering:geometricPrecision; image-rendering:optimizeQuality; fill-rule:evenodd; clip-rule:evenodd" xmlns:xlink="http://www.w3.org/1999/xlink">
<g><path style="opacity:1" fill="#2c333c" d="M -0.5,-0.5 C 330.5,-0.5 661.5,-0.5 992.5,-0.5C 992.5,192.5 992.5,385.5 992.5,578.5C 661.5,578.5 330.5,578.5 -0.5,578.5C -0.5,385.5 -0.5,192.5 -0.5,-0.5 Z"/></g>
<g><path style="opacity:1" fill="#0000a0" d="M 403.5,462.5 C 403.248,459.68 403.748,457.014 405,454.5C 412.049,447.386 418.383,439.719 424,431.5C 449.264,393.067 465.931,351.067 474,305.5C 484.663,246.027 483.996,186.693 472,127.5C 465.971,106.081 457.971,85.4143 448,65.5C 441.424,57.3463 435.091,49.013 429,40.5C 423.646,36.1442 418.646,31.4775 414,26.5C 412.855,23.1904 412.355,19.857 412.5,16.5C 448.175,16.2957 483.842,15.6291 519.5,14.5C 525.547,14.5017 531.547,15.0017 537.5,16C 532.336,153.755 527.669,291.589 523.5,429.5C 483.376,440.097 443.376,451.097 403.5,462.5 Z"/></g>
<g><path style="opacity:1" fill="#0039a0" d="M 412.5,16.5 C 412.355,19.857 412.855,23.1904 414,26.5C 418.646,31.4775 423.646,36.1442 429,40.5C 435.091,49.013 441.424,57.3463 448,65.5C 457.971,85.4143 465.971,106.081 472,127.5C 483.996,186.693 484.663,246.027 474,305.5C 465.931,351.067 449.264,393.067 424,431.5C 418.383,439.719 412.049,447.386 405,454.5C 403.748,457.014 403.248,459.68 403.5,462.5C 396.917,464.479 390.25,466.146 383.5,467.5C 386.159,464.191 388.326,460.524 390,456.5C 396.181,452.075 402.181,447.408 408,442.5C 417.717,430.45 427.051,418.117 436,405.5C 442.886,390.395 449.219,375.062 455,359.5C 457.919,350.995 460.252,342.328 462,333.5C 467.346,298.51 470.846,263.343 472.5,228C 472.775,218.72 471.942,209.553 470,200.5C 468.767,222.156 467.767,243.823 467,265.5C 465.261,280.337 462.595,295.004 459,309.5C 449.4,334.693 438.733,359.36 427,383.5C 418.37,395.675 411.037,408.675 405,422.5C 403,425.167 401,427.833 399,430.5C 390.606,439.471 382.106,448.305 373.5,457C 366.288,462.107 358.621,466.44 350.5,470C 329.006,476.609 307.34,482.609 285.5,488C 274.465,489.852 263.465,489.852 252.5,488C 243.898,482.533 234.898,477.866 225.5,474C 216.622,467.754 209.455,459.92 204,450.5C 199,445.833 194,441.167 189,436.5C 182.667,426.833 176.333,417.167 170,407.5C 168,402.833 166,398.167 164,393.5C 157.827,386.989 152.827,379.656 149,371.5C 143.266,357.644 139.6,343.31 138,328.5C 138.451,300.829 138.451,273.162 138,245.5C 139.414,217.485 147.747,191.818 163,168.5C 170.811,147.879 180.477,128.213 192,109.5C 197.08,105.091 201.414,100.091 205,94.5C 207.139,88.8878 209.806,83.5545 213,78.5C 226.447,61.3658 242.28,46.8658 260.5,35C 268.341,32.3731 276.341,30.3731 284.5,29C 307.475,27.3341 330.475,26.6675 353.5,27C 361.386,27.7443 369.053,29.4109 376.5,32C 382.167,37 387.833,42 393.5,47C 395.917,48.6258 398.417,50.1258 401,51.5C 405.853,58.5317 411.186,65.1984 417,71.5C 420.139,80.4525 424.806,88.4525 431,95.5C 439.085,110.336 446.085,125.669 452,141.5C 456.168,147.01 459.502,153.01 462,159.5C 465.355,170.276 467.689,181.276 469,192.5C 470.052,188.587 470.552,184.587 470.5,180.5C 468.669,163.192 467.169,145.858 466,128.5C 460.615,108.072 453.282,88.4052 444,69.5C 441.333,65.5 438,62.1667 434,59.5C 429.776,50.9425 423.276,44.7758 414.5,41C 407.892,34.3954 400.226,29.3954 391.5,26C 389.5,23.6667 387.5,21.3333 385.5,19C 378.321,18.8285 371.321,18.3285 364.5,17.5C 380.548,17.8033 396.548,17.4699 412.5,16.5 Z"/></g>
<g><path style="opacity:1" fill="#0074a0" d="M 364.5,17.5 C 371.321,18.3285 378.321,18.8285 385.5,19C 387.5,21.3333 389.5,23.6667 391.5,26C 400.226,29.3954 407.892,34.3954 414.5,41C 423.276,44.7758 429.776,50.9425 434,59.5C 438,62.1667 441.333,65.5 444,69.5C 453.282,88.4052 460.615,108.072 466,128.5C 467.169,145.858 468.669,163.192 470.5,180.5C 470.552,184.587 470.052,188.587 469,192.5C 467.689,181.276 465.355,170.276 462,159.5C 459.502,153.01 456.168,147.01 452,141.5C 446.085,125.669 439.085,110.336 431,95.5C 424.806,88.4525 420.139,80.4525 417,71.5C 411.186,65.1984 405.853,58.5317 401,51.5C 398.417,50.1258 395.917,48.6258 393.5,47C 387.833,42 382.167,37 376.5,32C 369.053,29.4109 361.386,27.7443 353.5,27C 330.475,26.6675 307.475,27.3341 284.5,29C 276.341,30.3731 268.341,32.3731 260.5,35C 242.28,46.8658 226.447,61.3658 213,78.5C 209.806,83.5545 207.139,88.8878 205,94.5C 201.414,100.091 197.08,105.091 192,109.5C 180.477,128.213 170.811,147.879 163,168.5C 147.747,191.818 139.414,217.485 138,245.5C 138.451,273.162 138.451,300.829 138,328.5C 139.6,343.31 143.266,357.644 149,371.5C 152.827,379.656 157.827,386.989 164,393.5C 166,398.167 168,402.833 170,407.5C 176.333,417.167 182.667,426.833 189,436.5C 194,441.167 199,445.833 204,450.5C 209.455,459.92 216.622,467.754 225.5,474C 234.898,477.866 243.898,482.533 252.5,488C 263.465,489.852 274.465,489.852 285.5,488C 307.34,482.609 329.006,476.609 350.5,470C 358.621,466.44 366.288,462.107 373.5,457C 382.106,448.305 390.606,439.471 399,430.5C 401,427.833 403,425.167 405,422.5C 411.037,408.675 418.37,395.675 427,383.5C 438.733,359.36 449.4,334.693 459,309.5C 462.595,295.004 465.261,280.337 467,265.5C 467.767,243.823 468.767,222.156 470,200.5C 471.942,209.553 472.775,218.72 472.5,228C 470.846,263.343 467.346,298.51 462,333.5C 460.252,342.328 457.919,350.995 455,359.5C 449.219,375.062 442.886,390.395 436,405.5C 427.051,418.117 417.717,430.45 408,442.5C 402.181,447.408 396.181,452.075 390,456.5C 388.326,460.524 386.159,464.191 383.5,467.5C 372.629,470.972 361.629,474.305 350.5,477.5C 350.5,476.5 350.5,475.5 350.5,474.5C 326.378,479.281 302.711,485.781 279.5,494C 278.402,494.77 278.402,495.603 279.5,496.5C 266.25,500.483 252.917,504.483 239.5,508.5C 235.18,500.868 228.513,497.034 219.5,497C 215.082,495.194 210.749,493.194 206.5,491C 194.704,483.349 183.538,474.849 173,465.5C 172,462.833 171,460.167 170,457.5C 160.671,445.509 154.005,432.176 150,417.5C 146.32,412.458 144.32,406.792 144,400.5C 142.913,385.03 140.913,369.697 138,354.5C 137.667,346.833 137.333,339.167 137,331.5C 132.782,317.726 130.616,303.56 130.5,289C 130.963,266.43 132.463,243.93 135,221.5C 138.751,202.992 141.418,184.326 143,165.5C 146.154,154.7 149.321,143.867 152.5,133C 160.017,115.468 168.184,98.3017 177,81.5C 187.142,71.6905 196.975,61.5238 206.5,51C 216.305,43.8732 226.639,37.5399 237.5,32C 240.833,28.6667 244.167,25.3333 247.5,22C 251.356,21.8227 255.023,21.3227 258.5,20.5C 272.659,19.3388 286.659,19.3388 300.5,20.5C 292.826,20.3336 285.159,20.5003 277.5,21C 276.833,21.6667 276.167,22.3333 275.5,23C 302.172,24.9856 328.838,24.6523 355.5,22C 357.727,21.296 358.06,20.1294 356.5,18.5C 359.237,18.5987 361.904,18.2653 364.5,17.5 Z"/></g>
<g><path style="opacity:1" fill="#019f8f" d="M 356.5,18.5 C 358.06,20.1294 357.727,21.296 355.5,22C 328.838,24.6523 302.172,24.9856 275.5,23C 276.167,22.3333 276.833,21.6667 277.5,21C 285.159,20.5003 292.826,20.3336 300.5,20.5C 306.168,19.9166 311.835,19.2499 317.5,18.5C 330.51,19.8327 343.51,19.8327 356.5,18.5 Z"/></g>
<g><path style="opacity:1" fill="#0039a0" d="M 258.5,20.5 C 255.023,21.3227 251.356,21.8227 247.5,22C 244.167,25.3333 240.833,28.6667 237.5,32C 226.639,37.5399 216.305,43.8732 206.5,51C 196.975,61.5238 187.142,71.6905 177,81.5C 168.184,98.3017 160.017,115.468 152.5,133C 149.321,143.867 146.154,154.7 143,165.5C 141.418,184.326 138.751,202.992 135,221.5C 132.463,243.93 130.963,266.43 130.5,289C 130.616,303.56 132.782,317.726 137,331.5C 137.333,339.167 137.667,346.833 138,354.5C 140.913,369.697 142.913,385.03 144,400.5C 144.32,406.792 146.32,412.458 150,417.5C 154.005,432.176 160.671,445.509 170,457.5C 171,460.167 172,462.833 173,465.5C 183.538,474.849 194.704,483.349 206.5,491C 210.749,493.194 215.082,495.194 219.5,497C 228.513,497.034 235.18,500.868 239.5,508.5C 231.202,510.658 222.868,512.658 214.5,514.5C 214.768,511.881 214.435,509.381 213.5,507C 197.523,497.029 182.69,485.529 169,472.5C 163.062,462.233 156.728,452.233 150,442.5C 127.102,393.635 116.602,342.135 118.5,288C 118.224,261.351 120.058,234.851 124,208.5C 129.236,182.302 136.236,156.635 145,131.5C 153,114.833 161,98.1667 169,81.5C 173.3,76.1988 177.966,71.1988 183,66.5C 192.25,52.5821 203.583,40.5821 217,30.5C 218.289,27.6492 218.789,24.6492 218.5,21.5C 231.754,20.5192 245.087,20.1858 258.5,20.5 Z"/></g>
<g><path style="opacity:1" fill="#0000a0" d="M 218.5,21.5 C 218.789,24.6492 218.289,27.6492 217,30.5C 203.583,40.5821 192.25,52.5821 183,66.5C 177.966,71.1988 173.3,76.1988 169,81.5C 161,98.1667 153,114.833 145,131.5C 136.236,156.635 129.236,182.302 124,208.5C 120.058,234.851 118.224,261.351 118.5,288C 116.602,342.135 127.102,393.635 150,442.5C 156.728,452.233 163.062,462.233 169,472.5C 182.69,485.529 197.523,497.029 213.5,507C 214.435,509.381 214.768,511.881 214.5,514.5C 158.707,530.619 102.707,546.452 46.5,562C 40.1704,562.061 34.1704,560.561 28.5,557.5C 25.8078,392.173 23.4744,226.839 21.5,61.5C 21.5104,49.1091 22.1771,36.9424 23.5,25C 88.4951,23.4862 153.495,22.3195 218.5,21.5 Z"/></g>
<g><path style="opacity:1" fill="#0000a0" d="M 313.5,30.5 C 325.854,30.4555 338.187,30.9555 350.5,32C 361.415,33.6228 370.415,38.6228 377.5,47C 382.51,50.5066 387.843,53.5066 393.5,56C 399.786,63.408 405.953,70.908 412,78.5C 413.667,82.5 415.333,86.5 417,90.5C 420,93.5 423,96.5 426,99.5C 439.458,123.207 449.791,148.207 457,174.5C 458.8,183.43 460.133,192.43 461,201.5C 463.718,239.732 460.385,277.399 451,314.5C 443.594,336.981 434.261,358.647 423,379.5C 420.385,383.783 417.385,387.783 414,391.5C 408.92,401.327 403.587,410.994 398,420.5C 387.192,430.976 376.692,441.809 366.5,453C 359.015,459.581 350.681,464.914 341.5,469C 327.764,473.934 313.764,477.934 299.5,481C 287.321,482.832 275.321,482.832 263.5,481C 253.553,475.528 243.22,470.861 232.5,467C 222.918,459.421 214.752,450.587 208,440.5C 203.446,437.882 199.446,434.548 196,430.5C 189.421,421.675 183.087,412.675 177,403.5C 171.44,390.944 165.44,378.61 159,366.5C 150.174,339.564 146.007,311.897 146.5,283.5C 146.573,252.915 150.74,222.915 159,193.5C 167.041,172.363 176.041,151.696 186,131.5C 191.808,121.019 199.141,111.685 208,103.5C 211.747,96.3372 215.747,89.3372 220,82.5C 225.605,75.8063 231.772,69.6397 238.5,64C 249.78,56.3868 260.78,48.3868 271.5,40C 285.097,34.4505 299.097,31.2838 313.5,30.5 Z"/></g>
<g><path style="opacity:1" fill="#0039a0" d="M 320.5,45.5 C 328.102,46.8159 335.769,47.6493 343.5,48C 346.05,50.2964 349.05,51.6297 352.5,52C 358.167,52.3333 363.833,52.6667 369.5,53C 373.049,53.7736 376.382,55.107 379.5,57C 391.786,68.9463 402.953,81.7796 413,95.5C 418.755,103.336 423.755,111.669 428,120.5C 434.577,134.556 440.577,148.889 446,163.5C 448.086,170.35 449.42,177.35 450,184.5C 451.431,208.647 450.264,232.647 446.5,256.5C 447.62,271.54 447.12,286.54 445,301.5C 436.683,329.791 426.016,357.124 413,383.5C 403.843,395.147 395.177,407.147 387,419.5C 380.417,428.085 372.584,435.252 363.5,441C 353.599,444.104 345.265,449.437 338.5,457C 322.391,464.069 305.558,468.236 288,469.5C 280.875,466.447 273.542,465.781 266,467.5C 258.653,466.955 251.819,464.788 245.5,461C 228.093,449.261 212.927,435.094 200,418.5C 195.833,410.828 191.166,403.495 186,396.5C 180.015,385.198 174.015,373.865 168,362.5C 164.6,351.933 163.1,341.1 163.5,330C 166.047,302.995 166.047,275.995 163.5,249C 164.683,236.525 165.516,224.025 166,211.5C 166.706,206.01 168.039,200.677 170,195.5C 179.019,170.793 189.686,146.793 202,123.5C 206.211,115.292 211.878,108.292 219,102.5C 229.148,89.0192 240.648,76.8526 253.5,66C 259.119,61.689 265.452,59.3557 272.5,59C 288.084,52.5208 304.084,48.0208 320.5,45.5 Z"/></g>
<g><path style="opacity:1" fill="#00a091" d="M 191.5,81.5 C 193.167,81.5 194.833,81.5 196.5,81.5C 197.977,91.8824 193.81,98.8824 184,102.5C 179.748,96.5349 180.248,90.7015 185.5,85C 187.727,84.059 189.727,82.8923 191.5,81.5 Z"/></g>
<g><path style="opacity:1" fill="#04a190" d="M 372.5,237.5 C 373.552,237.351 374.552,237.517 375.5,238C 374.328,238.419 373.328,239.085 372.5,240C 373.606,243.269 374.94,246.436 376.5,249.5C 375.341,248.544 374.174,247.544 373,246.5C 371.739,246.759 370.739,247.426 370,248.5C 370.992,245.43 370.659,242.43 369,239.5C 368.333,243.5 367.667,243.5 367,239.5C 366.683,241.301 366.016,241.634 365,240.5C 364.733,236.876 365.733,236.21 368,238.5C 370.096,237.285 369.929,236.451 367.5,236C 368.711,235.107 368.711,234.274 367.5,233.5C 366.459,235.991 365.626,235.991 365,233.5C 364.667,234.167 364.333,234.833 364,235.5C 363.092,233.561 361.592,232.561 359.5,232.5C 359.833,231.833 360.167,231.167 360.5,230.5C 363.095,229.751 364.262,228.084 364,225.5C 360.347,221.487 356.347,217.154 352,212.5C 351.049,212.884 350.216,213.217 349.5,213.5C 348.522,213.189 347.855,212.522 347.5,211.5C 348.711,210.28 348.711,209.113 347.5,208C 350.133,205.087 349.467,203.254 345.5,202.5C 343.52,200.549 341.187,199.049 338.5,198C 336.866,197.506 335.199,197.34 333.5,197.5C 332.739,196.609 331.739,195.942 330.5,195.5C 326.919,195.407 323.252,195.74 319.5,196.5C 319.5,195.167 319.5,193.833 319.5,192.5C 321.484,192.383 323.15,193.05 324.5,194.5C 325.748,193.96 326.915,193.293 328,192.5C 333.885,192.532 339.719,193.032 345.5,194C 346.147,195.609 346.98,197.109 348,198.5C 349,197.167 350,197.167 351,198.5C 353.113,202.391 354.946,206.391 356.5,210.5C 356.291,211.086 355.957,211.586 355.5,212C 356.787,213.41 357.954,214.91 359,216.5C 359.221,213.057 360.221,212.724 362,215.5C 364.271,212.88 364.938,209.88 364,206.5C 362.798,203.226 361.798,199.893 361,196.5C 360.1,195.23 358.934,194.23 357.5,193.5C 357.977,192.522 358.643,191.689 359.5,191C 358.234,190.691 357.067,190.191 356,189.5C 355.581,190.672 354.915,191.672 354,192.5C 350.566,189.033 346.399,187.033 341.5,186.5C 339.595,187.065 337.929,188.065 336.5,189.5C 331.22,188.382 325.887,188.216 320.5,189C 317.653,191.483 314.32,193.15 310.5,194C 308.963,195.11 308.297,196.61 308.5,198.5C 311.48,198.38 314.313,197.713 317,196.5C 317.717,197.044 318.217,197.711 318.5,198.5C 316.109,200.642 313.443,200.975 310.5,199.5C 309.155,200.347 308.155,201.513 307.5,203C 305.888,203.72 304.388,203.554 303,202.5C 301.184,204.441 299.184,205.108 297,204.5C 296.283,205.044 295.783,205.711 295.5,206.5C 294.295,205.328 294.295,203.995 295.5,202.5C 298.048,200.058 301.048,198.392 304.5,197.5C 307.409,194.959 306.909,193.292 303,192.5C 301.011,194.839 298.511,196.173 295.5,196.5C 295.321,194.046 295.987,191.879 297.5,190C 296.99,188.174 296.156,188.007 295,189.5C 292.255,195.325 289.255,200.992 286,206.5C 284.201,210.153 281.535,212.82 278,214.5C 277.167,216.167 276.333,217.833 275.5,219.5C 276.242,220.287 277.075,220.953 278,221.5C 278.151,224.119 278.985,226.453 280.5,228.5C 282.698,226.902 285.031,225.569 287.5,224.5C 287.5,224.833 287.5,225.167 287.5,225.5C 287.072,228.564 286.406,231.564 285.5,234.5C 284.207,236.296 282.707,237.963 281,239.5C 280.185,237.377 279.185,235.377 278,233.5C 271.012,253.383 269.178,273.717 272.5,294.5C 271.154,301.961 273.321,308.294 279,313.5C 278.431,320.578 281.597,324.412 288.5,325C 289.565,327.406 290.898,329.573 292.5,331.5C 293.548,330.617 294.715,329.95 296,329.5C 298.631,331.068 300.797,330.568 302.5,328C 301.409,326.45 300.076,325.283 298.5,324.5C 300.855,322.662 303.521,321.162 306.5,320C 305.062,319.781 303.729,319.281 302.5,318.5C 304.766,317.686 307.1,317.186 309.5,317C 308.584,316.722 307.918,316.222 307.5,315.5C 308.75,315.423 309.583,314.756 310,313.5C 310.725,315.158 311.892,315.658 313.5,315C 311.973,312.561 309.973,310.561 307.5,309C 309.41,306.518 311.743,306.018 314.5,307.5C 313.18,310.057 314.013,311.724 317,312.5C 318.808,310.604 320.975,310.104 323.5,311C 322.584,311.278 321.918,311.778 321.5,312.5C 316.18,312.578 315.513,314.078 319.5,317C 316.833,317.667 316.833,318.333 319.5,319C 316.568,319.295 314.568,320.795 313.5,323.5C 315.167,324.833 316.833,324.833 318.5,323.5C 317.524,321.13 318.524,320.13 321.5,320.5C 322.5,320.667 323.5,320.833 324.5,321C 324.167,321.333 323.833,321.667 323.5,322C 325.078,323.094 326.745,323.928 328.5,324.5C 328.389,325.117 328.056,325.617 327.5,326C 321.728,326.436 316.061,327.269 310.5,328.5C 311.388,326.054 311.555,323.721 311,321.5C 307.077,323.72 305.243,326.887 305.5,331C 311.773,331.37 318.106,331.536 324.5,331.5C 333.039,329.48 340.539,325.48 347,319.5C 347.725,317.843 347.225,316.843 345.5,316.5C 346.29,315.206 347.29,314.039 348.5,313C 347.471,309.943 346.138,309.943 344.5,313C 343.5,313.667 342.5,313.667 341.5,313C 345.189,310.267 348.189,307.601 350.5,305C 347.833,304.333 347.833,303.667 350.5,303C 349.167,302.667 347.833,302.333 346.5,302C 348.044,301.71 349.377,301.044 350.5,300C 350.167,299.667 349.833,299.333 349.5,299C 352.044,297.437 352.044,295.937 349.5,294.5C 349.709,293.914 350.043,293.414 350.5,293C 348.226,292.53 346.226,291.53 344.5,290C 345.622,288.387 345.122,287.22 343,286.5C 342.801,288.402 341.967,289.902 340.5,291C 342.286,292.293 343.953,292.793 345.5,292.5C 343.222,293.215 341.889,294.382 341.5,296C 345.34,297.204 346.007,299.037 343.5,301.5C 341.545,302.323 339.545,302.49 337.5,302C 339.392,301.027 341.392,300.36 343.5,300C 340.456,299.641 340.122,298.974 342.5,298C 341.255,297.209 339.922,296.709 338.5,296.5C 338.582,293.83 337.415,293.83 335,296.5C 333.77,295.725 333.437,294.725 334,293.5C 335.487,292.845 336.653,291.845 337.5,290.5C 335.64,289.675 333.974,288.675 332.5,287.5C 334.98,286.758 337.313,285.758 339.5,284.5C 341.656,286.118 343.323,285.784 344.5,283.5C 347.098,283.555 349.764,283.889 352.5,284.5C 353.306,285.997 353.972,287.664 354.5,289.5C 354.291,290.086 353.957,290.586 353.5,291C 355.047,291.333 356.38,290.833 357.5,289.5C 358.282,291.329 357.616,292.829 355.5,294C 356.449,294.617 357.282,294.451 358,293.5C 358.333,294.5 358.667,295.5 359,296.5C 360.167,295.333 361.333,294.167 362.5,293C 362.219,289.983 362.219,286.817 362.5,283.5C 365.243,283.077 366.576,284.244 366.5,287C 366.055,288.447 365.388,289.78 364.5,291C 364.645,291.772 364.978,292.439 365.5,293C 361.747,299.093 358.414,305.427 355.5,312C 351.335,314.816 348.835,318.649 348,323.5C 346.574,327.058 344.241,329.724 341,331.5C 339.779,330.728 338.779,329.728 338,328.5C 336.399,330.972 334.399,331.972 332,331.5C 330.333,332.5 328.667,333.5 327,334.5C 323.928,333.57 320.761,332.903 317.5,332.5C 313.316,333.713 309.149,333.713 305,332.5C 302.477,333.192 300.977,334.858 300.5,337.5C 296.807,339.964 292.973,341.297 289,341.5C 287.426,340.016 286.093,338.349 285,336.5C 282.814,340.332 280.314,340.499 277.5,337C 277.905,336.055 278.572,335.388 279.5,335C 276.89,333.519 274.223,332.352 271.5,331.5C 271.993,329.194 272.326,326.861 272.5,324.5C 270.61,324.297 269.11,324.963 268,326.5C 266.269,322.332 265.102,317.998 264.5,313.5C 263.094,314.668 261.928,314.335 261,312.5C 259.335,308.197 259.169,303.864 260.5,299.5C 261.93,299.579 263.264,299.246 264.5,298.5C 264.983,295.331 266.316,292.664 268.5,290.5C 268.938,276.034 270.272,261.701 272.5,247.5C 272.167,246.167 271.833,244.833 271.5,243.5C 270.033,243.277 268.533,242.944 267,242.5C 267.225,239.175 265.892,236.842 263,235.5C 261.385,231.152 259.552,226.985 257.5,223C 258.579,218.402 260.413,214.236 263,210.5C 263.667,211.167 264.333,211.833 265,212.5C 267.83,209.731 267.997,206.897 265.5,204C 266.406,202.301 266.739,200.467 266.5,198.5C 272.544,197.562 278.711,196.895 285,196.5C 284.221,188.742 285.888,181.408 290,174.5C 290.692,175.025 291.192,175.692 291.5,176.5C 290.296,178.903 289.962,181.236 290.5,183.5C 294.461,182.705 296.961,180.371 298,176.5C 299.055,180.38 301.555,182.88 305.5,184C 302.324,188.459 303.491,191.293 309,192.5C 313.604,190.728 318.104,188.728 322.5,186.5C 327.193,187.713 331.86,187.546 336.5,186C 335.496,180.438 337.83,176.604 343.5,174.5C 344.72,175.711 345.887,175.711 347,174.5C 348.188,175.563 348.688,176.897 348.5,178.5C 350.124,178.64 351.29,177.973 352,176.5C 353.11,178.037 354.61,178.703 356.5,178.5C 356.351,177.448 356.517,176.448 357,175.5C 358.762,177.936 360.096,180.602 361,183.5C 362.113,184.711 363.28,184.711 364.5,183.5C 365.478,183.977 366.311,184.643 367,185.5C 369.097,190.582 371.597,195.415 374.5,200C 375.105,206.551 375.105,213.217 374.5,220C 371.961,226.304 370.795,232.804 371,239.5C 371.717,238.956 372.217,238.289 372.5,237.5 Z"/></g>
<g><path style="opacity:1" fill="#00009e" d="M 397.5,221.5 C 399.988,222.74 401.821,224.74 403,227.5C 406.024,237.143 406.19,246.81 403.5,256.5C 401.316,257.108 399.316,256.441 397.5,254.5C 396.605,263.354 394.938,263.687 392.5,255.5C 391.029,256.381 390.196,257.714 390,259.5C 388.028,247.76 389.362,236.427 394,225.5C 395.032,223.973 396.199,222.64 397.5,221.5 Z"/></g>
<g><path style="opacity:1" fill="#27b7a9" d="M 340.5,218.5 C 343.448,219.179 346.448,219.512 349.5,219.5C 349.189,220.478 348.522,221.145 347.5,221.5C 346.549,220.674 345.549,220.508 344.5,221C 347.897,222.84 350.564,225.34 352.5,228.5C 351.732,229.263 351.232,230.263 351,231.5C 350.086,230.346 349.253,230.513 348.5,232C 349.451,232.718 349.617,233.551 349,234.5C 345.175,229.476 341.675,229.809 338.5,235.5C 336.31,236.374 335.31,238.041 335.5,240.5C 334.222,240.218 333.222,239.551 332.5,238.5C 331.884,237.202 331.884,236.202 332.5,235.5C 333.552,235.649 334.552,235.483 335.5,235C 333.474,233.705 332.474,232.205 332.5,230.5C 331.522,230.977 330.689,231.643 330,232.5C 329.667,231.833 329.333,231.167 329,230.5C 327.812,231.563 327.312,232.897 327.5,234.5C 326.508,234.672 325.842,234.338 325.5,233.5C 325.539,232.417 325.873,231.417 326.5,230.5C 328.184,229.85 329.517,228.85 330.5,227.5C 333.044,227.104 335.211,227.771 337,229.5C 338.011,228.663 339.178,228.33 340.5,228.5C 340.5,227.5 340.5,226.5 340.5,225.5C 341.552,225.649 342.552,225.483 343.5,225C 340.345,224.706 337.012,224.039 333.5,223C 332.944,222.617 332.611,222.117 332.5,221.5C 332.5,220.5 332.5,219.5 332.5,218.5C 334.199,218.34 335.866,218.506 337.5,219C 336.5,219.333 335.5,219.667 334.5,220C 336.424,221.267 338.09,221.267 339.5,220C 338.288,218.893 338.621,218.393 340.5,218.5 Z"/></g>
<g><path style="opacity:1" fill="#1255f2" d="M 325.5,233.5 C 325.842,234.338 326.508,234.672 327.5,234.5C 329.19,235.017 330.857,235.35 332.5,235.5C 331.884,236.202 331.884,237.202 332.5,238.5C 329.3,239.044 326.967,240.71 325.5,243.5C 323.948,245.342 322.282,247.009 320.5,248.5C 320.608,246.486 319.942,244.82 318.5,243.5C 319.791,243.737 320.791,243.404 321.5,242.5C 323.054,241.307 324.721,240.14 326.5,239C 325.149,237.383 323.482,236.216 321.5,235.5C 322.766,234.638 324.099,233.971 325.5,233.5 Z"/></g>
<g><path style="opacity:1" fill="#1a77a0" d="M 352.5,228.5 C 354.339,229.508 355.672,231.008 356.5,233C 354.859,234.129 353.859,235.629 353.5,237.5C 355.836,239.073 355.836,240.406 353.5,241.5C 351.515,241.859 350.849,242.692 351.5,244C 350.584,244.278 349.918,244.778 349.5,245.5C 347.976,246.174 346.642,247.174 345.5,248.5C 344.304,246.855 343.304,245.189 342.5,243.5C 342.5,241.833 342.5,240.167 342.5,238.5C 344.355,238.728 345.188,238.061 345,236.5C 343.984,237.634 343.317,237.301 343,235.5C 342.667,236.167 342.333,236.833 342,237.5C 341.184,236.177 340.017,235.511 338.5,235.5C 341.675,229.809 345.175,229.476 349,234.5C 349.617,233.551 349.451,232.718 348.5,232C 349.253,230.513 350.086,230.346 351,231.5C 351.232,230.263 351.732,229.263 352.5,228.5 Z"/></g>
<g><path style="opacity:1" fill="#18efc3" d="M 321.5,242.5 C 320.791,243.404 319.791,243.737 318.5,243.5C 318.119,242.069 317.119,241.236 315.5,241C 316.451,240.282 316.617,239.449 316,238.5C 314.989,239.337 313.822,239.67 312.5,239.5C 313.454,243.218 313.454,246.718 312.5,250C 312.167,250.167 311.833,250.333 311.5,250.5C 310.5,249 309.5,247.5 308.5,246C 308.759,244.739 309.426,243.739 310.5,243C 309.167,241.667 309.167,240.333 310.5,239C 308.939,238.812 308.272,239.645 308.5,241.5C 307.5,241.5 306.5,241.5 305.5,241.5C 305.48,239.857 306.147,238.524 307.5,237.5C 304.381,236.306 304.048,234.806 306.5,233C 311.651,231.951 316.484,230.117 321,227.5C 321.667,229.167 321.667,230.833 321,232.5C 317.491,233.69 316.825,235.69 319,238.5C 320.364,237.742 321.531,238.242 322.5,240C 319.598,240.919 319.265,241.752 321.5,242.5 Z"/></g>
<g><path style="opacity:1" fill="#1654b5" d="M 338.5,235.5 C 340.017,235.511 341.184,236.177 342,237.5C 342.333,236.833 342.667,236.167 343,235.5C 343.317,237.301 343.984,237.634 345,236.5C 345.188,238.061 344.355,238.728 342.5,238.5C 342.5,240.167 342.5,241.833 342.5,243.5C 340.853,245.121 338.853,246.287 336.5,247C 337.861,248.584 338.528,250.418 338.5,252.5C 338.167,252.5 337.833,252.5 337.5,252.5C 335.114,252.259 333.114,252.925 331.5,254.5C 329.685,255.63 327.685,256.296 325.5,256.5C 325.853,253.991 325.853,251.324 325.5,248.5C 325.957,247.702 326.624,247.369 327.5,247.5C 327.639,248.919 328.139,250.252 329,251.5C 331.437,249.027 332.604,246.027 332.5,242.5C 334.179,242.715 335.179,242.048 335.5,240.5C 335.31,238.041 336.31,236.374 338.5,235.5 Z"/></g>
<g><path style="opacity:1" fill="#10fd4e" d="M 325.5,243.5 C 326.167,244.833 326.833,246.167 327.5,247.5C 326.624,247.369 325.957,247.702 325.5,248.5C 325.853,251.324 325.853,253.991 325.5,256.5C 325.5,256.833 325.5,257.167 325.5,257.5C 322.886,257.925 320.886,259.258 319.5,261.5C 318.705,259.505 318.039,257.505 317.5,255.5C 319.59,255.55 320.923,254.55 321.5,252.5C 317.114,252.419 316.781,251.086 320.5,248.5C 322.282,247.009 323.948,245.342 325.5,243.5 Z"/></g>
<g><path style="opacity:1" fill="#28e894" d="M 332.5,238.5 C 333.222,239.551 334.222,240.218 335.5,240.5C 335.179,242.048 334.179,242.715 332.5,242.5C 332.604,246.027 331.437,249.027 329,251.5C 328.139,250.252 327.639,248.919 327.5,247.5C 326.833,246.167 326.167,244.833 325.5,243.5C 326.967,240.71 329.3,239.044 332.5,238.5 Z"/></g>
<g><path style="opacity:1" fill="#22b5a5" d="M 342.5,243.5 C 343.304,245.189 344.304,246.855 345.5,248.5C 346.642,247.174 347.976,246.174 349.5,245.5C 352.071,246.762 352.071,248.095 349.5,249.5C 347.955,250.452 346.288,250.785 344.5,250.5C 344.5,251.5 344.5,252.5 344.5,253.5C 342.621,252.659 340.621,252.325 338.5,252.5C 338.528,250.418 337.861,248.584 336.5,247C 338.853,246.287 340.853,245.121 342.5,243.5 Z"/></g>
<g><path style="opacity:1" fill="#107da0" d="M 359.5,232.5 C 361.592,232.561 363.092,233.561 364,235.5C 364.333,234.833 364.667,234.167 365,233.5C 365.626,235.991 366.459,235.991 367.5,233.5C 368.711,234.274 368.711,235.107 367.5,236C 369.929,236.451 370.096,237.285 368,238.5C 365.733,236.21 364.733,236.876 365,240.5C 366.016,241.634 366.683,241.301 367,239.5C 367.667,243.5 368.333,243.5 369,239.5C 370.659,242.43 370.992,245.43 370,248.5C 370.739,247.426 371.739,246.759 373,246.5C 374.174,247.544 375.341,248.544 376.5,249.5C 373.913,249.202 371.247,249.869 368.5,251.5C 366.241,248.957 364.074,248.957 362,251.5C 361.5,251 361,250.5 360.5,250C 361.517,248.951 361.684,247.784 361,246.5C 360.131,249.763 358.797,250.096 357,247.5C 356.617,248.056 356.117,248.389 355.5,248.5C 356.605,246.287 356.605,244.12 355.5,242C 356.253,240.513 357.086,240.346 358,241.5C 358.915,240.672 359.581,239.672 360,238.5C 360.718,239.451 361.551,239.617 362.5,239C 360.854,237.445 360.521,235.779 361.5,234C 360.584,233.722 359.918,233.222 359.5,232.5 Z"/></g>
<g><path style="opacity:1" fill="#06dec8" d="M 332.5,197.5 C 332.833,197.5 333.167,197.5 333.5,197.5C 335.199,197.34 336.866,197.506 338.5,198C 341.187,199.049 343.52,200.549 345.5,202.5C 347.37,206.417 346.203,208.75 342,209.5C 337.558,208.455 336.725,206.289 339.5,203C 337.316,202.133 335.149,201.299 333,200.5C 325.276,205.233 316.776,208.067 307.5,209C 306.542,210.147 306.875,211.147 308.5,212C 310.527,211.502 312.527,211.669 314.5,212.5C 310.54,213.371 309.873,215.038 312.5,217.5C 308.761,216.93 306.428,214.764 305.5,211C 303.899,210.727 302.399,210.227 301,209.5C 299.176,210.749 299.343,211.915 301.5,213C 300.672,213.915 299.672,214.581 298.5,215C 299.056,215.383 299.389,215.883 299.5,216.5C 297.284,217.203 295.451,218.536 294,220.5C 293.349,224.805 291.849,228.805 289.5,232.5C 290.642,235.399 291.308,238.399 291.5,241.5C 294.238,242.035 296.072,241.035 297,238.5C 298.135,238.727 299.302,239.06 300.5,239.5C 299.687,240.814 298.687,241.981 297.5,243C 302.391,247.941 305.891,253.775 308,260.5C 309.441,259.13 311.108,258.13 313,257.5C 312.639,253.333 314.139,252.667 317.5,255.5C 318.039,257.505 318.705,259.505 319.5,261.5C 320.886,259.258 322.886,257.925 325.5,257.5C 326.478,257.811 327.145,258.478 327.5,259.5C 324.833,261.5 322.167,263.5 319.5,265.5C 316.793,263.717 316.127,261.383 317.5,258.5C 317,258.167 316.5,257.833 316,257.5C 314.277,259.08 312.444,260.58 310.5,262C 311.196,263.488 310.862,264.988 309.5,266.5C 307.557,266.465 305.557,266.798 303.5,267.5C 303.5,266.167 303.5,264.833 303.5,263.5C 305.039,261.227 304.706,259.227 302.5,257.5C 299.205,258.449 295.872,258.449 292.5,257.5C 292.5,256.5 292.5,255.5 292.5,254.5C 291.127,254.657 289.793,254.49 288.5,254C 292.427,251.442 292.927,248.609 290,245.5C 289.51,246.793 289.343,248.127 289.5,249.5C 287.833,249.5 286.167,249.5 284.5,249.5C 284.5,248.167 284.5,246.833 284.5,245.5C 285.496,245.586 286.329,245.252 287,244.5C 288.318,241.594 288.652,238.594 288,235.5C 287.329,234.748 286.496,234.414 285.5,234.5C 286.406,231.564 287.072,228.564 287.5,225.5C 288.458,225.953 289.292,226.619 290,227.5C 291.11,225.603 291.276,223.77 290.5,222C 291.763,219.614 293.597,217.781 296,216.5C 296.687,214.432 296.52,212.432 295.5,210.5C 303.444,207.839 311.444,205.339 319.5,203C 320.337,201.989 320.67,200.822 320.5,199.5C 322.488,199.827 324.488,200.16 326.5,200.5C 329.102,200.533 331.102,199.533 332.5,197.5 Z"/></g>
<g><path style="opacity:1" fill="#07ce67" d="M 353.5,241.5 C 355.96,245.457 354.96,248.457 350.5,250.5C 353.512,254.563 353.012,255.229 349,252.5C 347.774,254.548 346.274,254.881 344.5,253.5C 344.5,252.5 344.5,251.5 344.5,250.5C 346.288,250.785 347.955,250.452 349.5,249.5C 352.071,248.095 352.071,246.762 349.5,245.5C 349.918,244.778 350.584,244.278 351.5,244C 350.849,242.692 351.515,241.859 353.5,241.5 Z"/></g>
<g><path style="opacity:1" fill="#1da29d" d="M 359.5,232.5 C 359.918,233.222 360.584,233.722 361.5,234C 360.521,235.779 360.854,237.445 362.5,239C 361.551,239.617 360.718,239.451 360,238.5C 359.581,239.672 358.915,240.672 358,241.5C 357.086,240.346 356.253,240.513 355.5,242C 356.605,244.12 356.605,246.287 355.5,248.5C 356.472,249.399 357.138,250.566 357.5,252C 356.397,253.889 356.397,255.723 357.5,257.5C 357.369,260.671 356.036,261.671 353.5,260.5C 353.577,259.25 354.244,258.417 355.5,258C 354.333,257.5 353.5,256.667 353,255.5C 351.628,258.964 349.128,260.631 345.5,260.5C 345.672,258.508 345.005,256.842 343.5,255.5C 343.863,254.817 344.196,254.15 344.5,253.5C 346.274,254.881 347.774,254.548 349,252.5C 353.012,255.229 353.512,254.563 350.5,250.5C 354.96,248.457 355.96,245.457 353.5,241.5C 355.836,240.406 355.836,239.073 353.5,237.5C 354.794,236.71 355.961,235.71 357,234.5C 357.333,234.833 357.667,235.167 358,235.5C 358.232,234.263 358.732,233.263 359.5,232.5 Z"/></g>
<g><path style="opacity:1" fill="#12a7e5" d="M 345.5,202.5 C 349.467,203.254 350.133,205.087 347.5,208C 348.711,209.113 348.711,210.28 347.5,211.5C 347.855,212.522 348.522,213.189 349.5,213.5C 349.611,214.117 349.944,214.617 350.5,215C 346.553,214.847 343.219,216.014 340.5,218.5C 338.621,218.393 338.288,218.893 339.5,220C 338.09,221.267 336.424,221.267 334.5,220C 335.5,219.667 336.5,219.333 337.5,219C 335.866,218.506 334.199,218.34 332.5,218.5C 332.5,219.5 332.5,220.5 332.5,221.5C 330.434,219.155 328.1,218.989 325.5,221C 327.167,221.333 328.833,221.667 330.5,222C 327.732,222.708 326.899,224.208 328,226.5C 326.391,225.85 324.891,226.35 323.5,228C 325.721,228.555 328.054,228.388 330.5,227.5C 329.517,228.85 328.184,229.85 326.5,230.5C 325.873,231.417 325.539,232.417 325.5,233.5C 324.099,233.971 322.766,234.638 321.5,235.5C 323.482,236.216 325.149,237.383 326.5,239C 324.721,240.14 323.054,241.307 321.5,242.5C 319.265,241.752 319.598,240.919 322.5,240C 321.531,238.242 320.364,237.742 319,238.5C 316.825,235.69 317.491,233.69 321,232.5C 321.667,230.833 321.667,229.167 321,227.5C 316.484,230.117 311.651,231.951 306.5,233C 304.048,234.806 304.381,236.306 307.5,237.5C 306.147,238.524 305.48,239.857 305.5,241.5C 306.5,241.5 307.5,241.5 308.5,241.5C 308.272,239.645 308.939,238.812 310.5,239C 309.167,240.333 309.167,241.667 310.5,243C 309.426,243.739 308.759,244.739 308.5,246C 309.5,247.5 310.5,249 311.5,250.5C 311.833,250.333 312.167,250.167 312.5,250C 313.454,246.718 313.454,243.218 312.5,239.5C 313.822,239.67 314.989,239.337 316,238.5C 316.617,239.449 316.451,240.282 315.5,241C 317.119,241.236 318.119,242.069 318.5,243.5C 319.942,244.82 320.608,246.486 320.5,248.5C 316.781,251.086 317.114,252.419 321.5,252.5C 320.923,254.55 319.59,255.55 317.5,255.5C 314.139,252.667 312.639,253.333 313,257.5C 311.108,258.13 309.441,259.13 308,260.5C 305.891,253.775 302.391,247.941 297.5,243C 298.687,241.981 299.687,240.814 300.5,239.5C 299.302,239.06 298.135,238.727 297,238.5C 296.072,241.035 294.238,242.035 291.5,241.5C 291.308,238.399 290.642,235.399 289.5,232.5C 291.849,228.805 293.349,224.805 294,220.5C 295.451,218.536 297.284,217.203 299.5,216.5C 300.884,217.801 302.384,217.801 304,216.5C 304.464,217.094 304.631,217.761 304.5,218.5C 301.873,219.105 299.207,219.605 296.5,220C 295.167,221.667 295.167,223.333 296.5,225C 299.675,226.847 302.842,228.681 306,230.5C 308.5,230 311,229.5 313.5,229C 315.32,228.8 316.653,227.966 317.5,226.5C 319.252,226.582 320.252,225.749 320.5,224C 319.2,222.42 317.866,220.92 316.5,219.5C 318.655,219.628 320.655,219.128 322.5,218C 320.479,217.487 318.979,216.32 318,214.5C 317.59,215.901 317.09,217.234 316.5,218.5C 315.292,217.766 313.959,217.433 312.5,217.5C 309.873,215.038 310.54,213.371 314.5,212.5C 312.527,211.669 310.527,211.502 308.5,212C 306.875,211.147 306.542,210.147 307.5,209C 316.776,208.067 325.276,205.233 333,200.5C 335.149,201.299 337.316,202.133 339.5,203C 336.725,206.289 337.558,208.455 342,209.5C 346.203,208.75 347.37,206.417 345.5,202.5 Z"/></g>
<g><path style="opacity:1" fill="#168b9e" d="M 377.5,252.5 C 378.397,253.598 379.23,253.598 380,252.5C 381.761,256.26 384.261,259.426 387.5,262C 386.551,262.617 385.718,262.451 385,261.5C 384.61,265.166 383.443,265.332 381.5,262C 381.833,261.667 382.167,261.333 382.5,261C 381.552,260.517 380.552,260.351 379.5,260.5C 378.361,257.996 377.694,255.33 377.5,252.5 Z"/></g>
<g><path style="opacity:1" fill="#12b09a" d="M 337.5,252.5 C 338.903,253.931 340.569,255.098 342.5,256C 340.014,257.494 337.681,259.661 335.5,262.5C 335.663,260.143 335.497,257.81 335,255.5C 332.065,258.395 330.898,258.061 331.5,254.5C 333.114,252.925 335.114,252.259 337.5,252.5 Z"/></g>
<g><path style="opacity:1" fill="#0073a0" d="M 372.5,237.5 C 372.217,238.289 371.717,238.956 371,239.5C 370.795,232.804 371.961,226.304 374.5,220C 375.105,213.217 375.105,206.551 374.5,200C 371.597,195.415 369.097,190.582 367,185.5C 366.311,184.643 365.478,183.977 364.5,183.5C 363.28,184.711 362.113,184.711 361,183.5C 360.096,180.602 358.762,177.936 357,175.5C 356.517,176.448 356.351,177.448 356.5,178.5C 354.61,178.703 353.11,178.037 352,176.5C 351.29,177.973 350.124,178.64 348.5,178.5C 348.688,176.897 348.188,175.563 347,174.5C 345.887,175.711 344.72,175.711 343.5,174.5C 337.83,176.604 335.496,180.438 336.5,186C 331.86,187.546 327.193,187.713 322.5,186.5C 318.104,188.728 313.604,190.728 309,192.5C 303.491,191.293 302.324,188.459 305.5,184C 301.555,182.88 299.055,180.38 298,176.5C 296.961,180.371 294.461,182.705 290.5,183.5C 289.962,181.236 290.296,178.903 291.5,176.5C 291.192,175.692 290.692,175.025 290,174.5C 285.888,181.408 284.221,188.742 285,196.5C 278.711,196.895 272.544,197.562 266.5,198.5C 266.739,200.467 266.406,202.301 265.5,204C 267.997,206.897 267.83,209.731 265,212.5C 264.333,211.833 263.667,211.167 263,210.5C 260.413,214.236 258.579,218.402 257.5,223C 259.552,226.985 261.385,231.152 263,235.5C 265.892,236.842 267.225,239.175 267,242.5C 268.533,242.944 270.033,243.277 271.5,243.5C 271.833,244.833 272.167,246.167 272.5,247.5C 270.272,261.701 268.938,276.034 268.5,290.5C 266.316,292.664 264.983,295.331 264.5,298.5C 263.264,299.246 261.93,299.579 260.5,299.5C 259.169,303.864 259.335,308.197 261,312.5C 261.928,314.335 263.094,314.668 264.5,313.5C 265.102,317.998 266.269,322.332 268,326.5C 269.11,324.963 270.61,324.297 272.5,324.5C 272.326,326.861 271.993,329.194 271.5,331.5C 274.223,332.352 276.89,333.519 279.5,335C 278.572,335.388 277.905,336.055 277.5,337C 280.314,340.499 282.814,340.332 285,336.5C 286.093,338.349 287.426,340.016 289,341.5C 292.973,341.297 296.807,339.964 300.5,337.5C 300.977,334.858 302.477,333.192 305,332.5C 309.149,333.713 313.316,333.713 317.5,332.5C 320.761,332.903 323.928,333.57 327,334.5C 328.667,333.5 330.333,332.5 332,331.5C 334.399,331.972 336.399,330.972 338,328.5C 338.779,329.728 339.779,330.728 341,331.5C 344.241,329.724 346.574,327.058 348,323.5C 348.835,318.649 351.335,314.816 355.5,312C 358.414,305.427 361.747,299.093 365.5,293C 364.978,292.439 364.645,291.772 364.5,291C 365.388,289.78 366.055,288.447 366.5,287C 366.576,284.244 365.243,283.077 362.5,283.5C 362.219,286.817 362.219,289.983 362.5,293C 361.333,294.167 360.167,295.333 359,296.5C 358.667,295.5 358.333,294.5 358,293.5C 357.282,294.451 356.449,294.617 355.5,294C 357.616,292.829 358.282,291.329 357.5,289.5C 356.38,290.833 355.047,291.333 353.5,291C 353.957,290.586 354.291,290.086 354.5,289.5C 353.972,287.664 353.306,285.997 352.5,284.5C 353.067,282.302 353.067,279.969 352.5,277.5C 355.833,277.5 357.5,279.167 357.5,282.5C 359.584,281.752 361.584,281.752 363.5,282.5C 365.772,281.559 367.772,280.226 369.5,278.5C 370.833,279.5 372.167,280.5 373.5,281.5C 375.751,280.135 377.751,280.469 379.5,282.5C 380.357,281.264 381.023,279.931 381.5,278.5C 379.075,275.671 378.908,272.671 381,269.5C 383.407,269.673 385.74,269.673 388,269.5C 390.518,274.893 392.351,280.559 393.5,286.5C 395.755,283.542 397.422,280.208 398.5,276.5C 400.098,278.973 401.598,278.973 403,276.5C 403.308,277.308 403.808,277.975 404.5,278.5C 405.719,277.737 406.719,276.737 407.5,275.5C 408.478,275.977 409.311,276.643 410,277.5C 412.239,272.923 414.905,268.589 418,264.5C 420.055,271.085 421.888,271.085 423.5,264.5C 424.609,265.59 425.609,265.59 426.5,264.5C 427.432,262.205 428.265,259.871 429,257.5C 437.692,271.686 440.692,287.02 438,303.5C 434.851,315.464 430.851,327.13 426,338.5C 420.476,347.547 415.476,356.88 411,366.5C 401.251,383 391.251,399.334 381,415.5C 374.207,424.3 365.707,430.8 355.5,435C 350.833,435.667 346.167,435.667 341.5,435C 337.663,432.494 333.496,430.66 329,429.5C 327.829,428.66 326.662,427.827 325.5,427C 327.53,425.069 329.863,423.569 332.5,422.5C 330.411,420.42 328.744,418.087 327.5,415.5C 328.03,413.135 329.197,411.135 331,409.5C 331.49,408.207 331.657,406.873 331.5,405.5C 330.022,405.762 328.689,405.429 327.5,404.5C 330.405,400.248 333.571,396.248 337,392.5C 338.579,389.821 339.246,387.154 339,384.5C 340.833,383.333 342.667,382.167 344.5,381C 342.916,377.267 343.75,374.101 347,371.5C 346.98,365.756 349.814,362.423 355.5,361.5C 355.966,359.799 355.966,358.299 355.5,357C 352.74,358.047 350.573,357.214 349,354.5C 348.581,355.672 347.915,356.672 347,357.5C 346.833,357.167 346.667,356.833 346.5,356.5C 347.473,354.36 348.973,352.693 351,351.5C 351.333,351.833 351.667,352.167 352,352.5C 354.409,350.401 357.076,348.734 360,347.5C 361,345.833 362,344.167 363,342.5C 363.719,337.965 362.386,337.299 359,340.5C 358.519,343.477 357.352,346.143 355.5,348.5C 354.038,347.529 352.705,347.862 351.5,349.5C 350.251,347.525 348.751,347.191 347,348.5C 346.667,347.833 346.333,347.167 346,346.5C 343.649,347.714 341.149,348.548 338.5,349C 337.789,350.255 336.956,351.421 336,352.5C 335.808,350.423 335.308,348.423 334.5,346.5C 332.898,347.55 332.065,346.883 332,344.5C 331.333,345.167 330.667,345.833 330,346.5C 327.833,345 326,343.167 324.5,341C 322.782,340.654 321.115,340.154 319.5,339.5C 318.269,338.349 318.269,337.183 319.5,336C 318.391,335.362 317.225,334.862 316,334.5C 313.093,335.596 310.259,336.762 307.5,338C 309.768,340.032 309.102,341.365 305.5,342C 302.386,348.273 298.053,353.44 292.5,357.5C 293.274,358.711 294.107,358.711 295,357.5C 296.23,358.275 296.563,359.275 296,360.5C 292.675,365.079 288.175,367.413 282.5,367.5C 281.634,369.432 280.967,371.432 280.5,373.5C 282.567,375.956 284.401,378.622 286,381.5C 285.77,390.898 289.77,397.898 298,402.5C 298.232,406.555 298.732,410.555 299.5,414.5C 299.291,415.086 298.957,415.586 298.5,416C 300.847,419.011 303.181,422.011 305.5,425C 305,426.5 304.5,428 304,429.5C 300.721,432.779 297.387,436.113 294,439.5C 293.667,442.833 293.333,446.167 293,449.5C 291.833,450.667 290.667,451.833 289.5,453C 283.156,454.841 276.823,456.674 270.5,458.5C 263.407,457.879 256.407,456.712 249.5,455C 244.15,451.992 239.15,448.492 234.5,444.5C 227.817,436.983 220.65,429.983 213,423.5C 201.319,407.806 191.986,390.806 185,372.5C 176.535,363.785 172.369,353.285 172.5,341C 173.468,335.698 173.468,330.531 172.5,325.5C 173.09,320.509 173.59,315.509 174,310.5C 176.148,302.56 177.981,294.56 179.5,286.5C 180.822,286.33 181.989,286.663 183,287.5C 183.548,298.037 186.714,299.037 192.5,290.5C 193.325,289.614 194.325,289.281 195.5,289.5C 196.195,296.207 198.029,302.541 201,308.5C 203.575,305.681 205.908,302.681 208,299.5C 208.925,300.047 209.758,300.713 210.5,301.5C 211.576,305.178 213.243,308.511 215.5,311.5C 217.915,310.695 220.249,309.695 222.5,308.5C 223.791,310.097 225.291,311.43 227,312.5C 234.424,307.328 236.924,309.161 234.5,318C 234.862,319.225 235.362,320.391 236,321.5C 237.791,318.007 239.124,314.341 240,310.5C 242.403,308.695 244.07,306.362 245,303.5C 245.301,300.02 246.135,296.687 247.5,293.5C 248.314,295.766 248.814,298.1 249,300.5C 250.901,295.698 253.568,291.364 257,287.5C 258.869,282.682 259.869,277.682 260,272.5C 263.292,268.382 263.792,264.048 261.5,259.5C 261.763,256.972 262.596,254.639 264,252.5C 265.454,246.532 264.288,245.532 260.5,249.5C 259.024,246.857 257.024,244.69 254.5,243C 253.216,242.316 252.049,242.483 251,243.5C 249.991,241.975 249.491,240.308 249.5,238.5C 247.61,238.297 246.11,238.963 245,240.5C 244.667,237.833 244.333,235.167 244,232.5C 242.644,231.62 241.144,231.286 239.5,231.5C 239.506,234.825 238.006,237.159 235,238.5C 234.632,237.09 233.799,236.09 232.5,235.5C 230.269,237.11 228.269,238.943 226.5,241C 224.744,241.202 223.078,241.702 221.5,242.5C 220.721,244.773 219.388,246.606 217.5,248C 216.852,249.44 216.519,250.94 216.5,252.5C 214.061,251.947 211.727,251.947 209.5,252.5C 208.167,250.833 206.833,249.167 205.5,247.5C 201.825,249.685 199.492,252.852 198.5,257C 197.833,257.667 197.167,257.667 196.5,257C 195.333,255.167 194.167,253.333 193,251.5C 191.36,253.579 190.194,255.912 189.5,258.5C 188.675,259.386 187.675,259.719 186.5,259.5C 185.92,263.142 185.42,266.809 185,270.5C 183.333,271.833 181.667,271.833 180,270.5C 178.848,257.042 176.848,243.709 174,230.5C 172.546,219.082 173.88,207.748 178,196.5C 190.699,163.761 208.033,133.761 230,106.5C 233.044,101.377 235.711,96.0437 238,90.5C 253.851,71.6674 274.018,64.1674 298.5,68C 304.077,69.7001 308.91,72.5335 313,76.5C 316.026,76.6406 319.193,76.1406 322.5,75C 332.897,68.2541 344.231,63.7541 356.5,61.5C 365.549,61.8047 373.882,64.3047 381.5,69C 384.106,70.9384 385.939,73.4384 387,76.5C 390,78.8333 393,81.1667 396,83.5C 400.513,90.5245 405.513,97.1911 411,103.5C 418.269,116.372 425.269,129.372 432,142.5C 434.723,150.278 437.723,157.945 441,165.5C 445.644,180.905 445.477,196.238 440.5,211.5C 438.165,212.413 435.999,213.747 434,215.5C 432.269,219.295 430.269,222.962 428,226.5C 426.097,224.559 425.264,222.226 425.5,219.5C 423.319,219.284 421.653,220.117 420.5,222C 419.167,222.667 417.833,222.667 416.5,222C 412.845,217.038 409.179,212.038 405.5,207C 402.692,206.08 400.525,206.913 399,209.5C 396.597,206.592 393.763,204.259 390.5,202.5C 387.846,204.572 388.18,206.239 391.5,207.5C 390.672,208.415 389.672,209.081 388.5,209.5C 386.483,214.975 384.317,220.309 382,225.5C 379.629,229.04 377.462,232.706 375.5,236.5C 373.262,233.567 372.262,233.901 372.5,237.5 Z"/></g>
<g><path style="opacity:1" fill="#00d674" d="M 292.5,257.5 C 295.872,258.449 299.205,258.449 302.5,257.5C 304.706,259.227 305.039,261.227 303.5,263.5C 302.31,265.355 300.977,267.188 299.5,269C 298.833,269.667 298.167,269.667 297.5,269C 295.667,266.5 293.833,264 292,261.5C 291.421,260.072 291.588,258.738 292.5,257.5 Z"/></g>
<g><path style="opacity:1" fill="#2dec86" d="M 332.5,235.5 C 330.857,235.35 329.19,235.017 327.5,234.5C 327.312,232.897 327.812,231.563 329,230.5C 329.333,231.167 329.667,231.833 330,232.5C 330.689,231.643 331.522,230.977 332.5,230.5C 332.474,232.205 333.474,233.705 335.5,235C 334.552,235.483 333.552,235.649 332.5,235.5 Z"/></g>
<g><path style="opacity:1" fill="#0d419d" d="M 349.5,219.5 C 351.841,221.656 353.841,224.156 355.5,227C 357.278,229.025 358.611,228.859 359.5,226.5C 360.434,227.568 360.768,228.901 360.5,230.5C 360.167,231.167 359.833,231.833 359.5,232.5C 358.732,233.263 358.232,234.263 358,235.5C 357.667,235.167 357.333,234.833 357,234.5C 355.961,235.71 354.794,236.71 353.5,237.5C 353.859,235.629 354.859,234.129 356.5,233C 355.672,231.008 354.339,229.508 352.5,228.5C 350.564,225.34 347.897,222.84 344.5,221C 345.549,220.508 346.549,220.674 347.5,221.5C 348.522,221.145 349.189,220.478 349.5,219.5 Z"/></g>
<g><path style="opacity:1" fill="#0549d2" d="M 332.5,221.5 C 332.611,222.117 332.944,222.617 333.5,223C 337.012,224.039 340.345,224.706 343.5,225C 342.552,225.483 341.552,225.649 340.5,225.5C 340.5,226.5 340.5,227.5 340.5,228.5C 339.178,228.33 338.011,228.663 337,229.5C 335.211,227.771 333.044,227.104 330.5,227.5C 328.054,228.388 325.721,228.555 323.5,228C 324.891,226.35 326.391,225.85 328,226.5C 326.899,224.208 327.732,222.708 330.5,222C 328.833,221.667 327.167,221.333 325.5,221C 328.1,218.989 330.434,219.155 332.5,221.5 Z"/></g>
<g><path style="opacity:1" fill="#369f5a" d="M 359.5,226.5 C 358.611,228.859 357.278,229.025 355.5,227C 353.841,224.156 351.841,221.656 349.5,219.5C 349.696,217.354 350.696,217.188 352.5,219C 354.333,221.998 356.666,224.498 359.5,226.5 Z"/></g>
<g><path style="opacity:1" fill="#0358f4" d="M 304.5,218.5 C 306.259,218.954 308.259,218.954 310.5,218.5C 310.119,220.942 310.786,221.609 312.5,220.5C 313.167,221.833 313.833,223.167 314.5,224.5C 315.086,224.291 315.586,223.957 316,223.5C 316.232,224.737 316.732,225.737 317.5,226.5C 316.653,227.966 315.32,228.8 313.5,229C 311,229.5 308.5,230 306,230.5C 302.842,228.681 299.675,226.847 296.5,225C 295.167,223.333 295.167,221.667 296.5,220C 299.207,219.605 301.873,219.105 304.5,218.5 Z"/></g>
<g><path style="opacity:1" fill="#094bd4" d="M 316.5,219.5 C 316.5,219.167 316.5,218.833 316.5,218.5C 317.09,217.234 317.59,215.901 318,214.5C 318.979,216.32 320.479,217.487 322.5,218C 320.655,219.128 318.655,219.628 316.5,219.5 Z"/></g>
<g><path style="opacity:1" fill="#1867a4" d="M 360.5,230.5 C 360.768,228.901 360.434,227.568 359.5,226.5C 356.666,224.498 354.333,221.998 352.5,219C 350.696,217.188 349.696,217.354 349.5,219.5C 346.448,219.512 343.448,219.179 340.5,218.5C 343.219,216.014 346.553,214.847 350.5,215C 349.944,214.617 349.611,214.117 349.5,213.5C 350.216,213.217 351.049,212.884 352,212.5C 356.347,217.154 360.347,221.487 364,225.5C 364.262,228.084 363.095,229.751 360.5,230.5 Z"/></g>
<g><path style="opacity:1" fill="#15dc76" d="M 312.5,217.5 C 313.959,217.433 315.292,217.766 316.5,218.5C 316.5,218.833 316.5,219.167 316.5,219.5C 317.866,220.92 319.2,222.42 320.5,224C 320.252,225.749 319.252,226.582 317.5,226.5C 316.732,225.737 316.232,224.737 316,223.5C 315.586,223.957 315.086,224.291 314.5,224.5C 313.833,223.167 313.167,221.833 312.5,220.5C 310.786,221.609 310.119,220.942 310.5,218.5C 308.259,218.954 306.259,218.954 304.5,218.5C 304.631,217.761 304.464,217.094 304,216.5C 302.384,217.801 300.884,217.801 299.5,216.5C 299.389,215.883 299.056,215.383 298.5,215C 299.672,214.581 300.672,213.915 301.5,213C 299.343,211.915 299.176,210.749 301,209.5C 302.399,210.227 303.899,210.727 305.5,211C 306.428,214.764 308.761,216.93 312.5,217.5 Z"/></g>
<g><path style="opacity:1" fill="#014dd6" d="M 330.5,210.5 C 333.346,210.03 335.679,210.863 337.5,213C 334.833,214.333 334.833,215.667 337.5,217C 335.109,217.287 332.776,217.787 330.5,218.5C 328.8,214.159 326.133,213.492 322.5,216.5C 319.449,213.218 320.282,211.552 325,211.5C 327.227,213.084 329.06,212.751 330.5,210.5 Z"/></g>
<g><path style="opacity:1" fill="#07ca67" d="M 332.5,197.5 C 331.102,199.533 329.102,200.533 326.5,200.5C 324.488,200.16 322.488,199.827 320.5,199.5C 320.67,200.822 320.337,201.989 319.5,203C 311.444,205.339 303.444,207.839 295.5,210.5C 296.52,212.432 296.687,214.432 296,216.5C 293.597,217.781 291.763,219.614 290.5,222C 291.276,223.77 291.11,225.603 290,227.5C 289.292,226.619 288.458,225.953 287.5,225.5C 287.5,225.167 287.5,224.833 287.5,224.5C 286.275,222.551 286.942,221.218 289.5,220.5C 289.069,219.707 288.735,218.873 288.5,218C 289.763,214.427 291.096,210.927 292.5,207.5C 293.791,207.737 294.791,207.404 295.5,206.5C 295.783,205.711 296.283,205.044 297,204.5C 299.184,205.108 301.184,204.441 303,202.5C 304.388,203.554 305.888,203.72 307.5,203C 308.155,201.513 309.155,200.347 310.5,199.5C 313.443,200.975 316.109,200.642 318.5,198.5C 323.13,197.771 327.797,197.437 332.5,197.5 Z"/></g>
<g><path style="opacity:1" fill="#00a258" d="M 333.5,197.5 C 333.167,197.5 332.833,197.5 332.5,197.5C 327.797,197.437 323.13,197.771 318.5,198.5C 318.217,197.711 317.717,197.044 317,196.5C 314.313,197.713 311.48,198.38 308.5,198.5C 308.297,196.61 308.963,195.11 310.5,194C 314.32,193.15 317.653,191.483 320.5,189C 325.887,188.216 331.22,188.382 336.5,189.5C 337.929,188.065 339.595,187.065 341.5,186.5C 346.399,187.033 350.566,189.033 354,192.5C 354.915,191.672 355.581,190.672 356,189.5C 357.067,190.191 358.234,190.691 359.5,191C 358.643,191.689 357.977,192.522 357.5,193.5C 358.934,194.23 360.1,195.23 361,196.5C 361.798,199.893 362.798,203.226 364,206.5C 364.938,209.88 364.271,212.88 362,215.5C 360.221,212.724 359.221,213.057 359,216.5C 357.954,214.91 356.787,213.41 355.5,212C 355.957,211.586 356.291,211.086 356.5,210.5C 354.946,206.391 353.113,202.391 351,198.5C 350,197.167 349,197.167 348,198.5C 346.98,197.109 346.147,195.609 345.5,194C 339.719,193.032 333.885,192.532 328,192.5C 326.915,193.293 325.748,193.96 324.5,194.5C 323.15,193.05 321.484,192.383 319.5,192.5C 319.5,193.833 319.5,195.167 319.5,196.5C 323.252,195.74 326.919,195.407 330.5,195.5C 331.739,195.942 332.739,196.609 333.5,197.5 Z"/></g>
<g><path style="opacity:1" fill="#01a75c" d="M 295.5,206.5 C 294.791,207.404 293.791,207.737 292.5,207.5C 291.096,210.927 289.763,214.427 288.5,218C 288.735,218.873 289.069,219.707 289.5,220.5C 286.942,221.218 286.275,222.551 287.5,224.5C 285.031,225.569 282.698,226.902 280.5,228.5C 278.985,226.453 278.151,224.119 278,221.5C 277.075,220.953 276.242,220.287 275.5,219.5C 276.333,217.833 277.167,216.167 278,214.5C 281.535,212.82 284.201,210.153 286,206.5C 289.255,200.992 292.255,195.325 295,189.5C 296.156,188.007 296.99,188.174 297.5,190C 295.987,191.879 295.321,194.046 295.5,196.5C 298.511,196.173 301.011,194.839 303,192.5C 306.909,193.292 307.409,194.959 304.5,197.5C 301.048,198.392 298.048,200.058 295.5,202.5C 294.295,203.995 294.295,205.328 295.5,206.5 Z"/></g>
<g><path style="opacity:1" fill="#003aa2" d="M 309.5,78.5 C 312.765,80.7197 316.432,81.8864 320.5,82C 324.318,85.4075 328.318,88.5741 332.5,91.5C 334.12,94.8806 333.287,97.5473 330,99.5C 329.333,100.5 329.333,101.5 330,102.5C 335.378,107.296 339.211,112.963 341.5,119.5C 343.001,120.752 344.668,121.752 346.5,122.5C 347.437,125.54 348.771,128.374 350.5,131C 349.606,132.396 348.939,133.896 348.5,135.5C 349.465,137.329 350.465,139.162 351.5,141C 351.037,143.389 350.37,145.723 349.5,148C 349.905,148.945 350.572,149.612 351.5,150C 350.333,151.167 349.167,152.333 348,153.5C 348.155,151.189 348.155,148.856 348,146.5C 346.731,147.905 346.231,149.571 346.5,151.5C 342.729,150.237 339.063,150.404 335.5,152C 338.687,155.626 338.021,158.293 333.5,160C 334.022,160.561 334.355,161.228 334.5,162C 333.566,164.591 332.233,166.924 330.5,169C 332.176,172.295 331.51,174.962 328.5,177C 334.543,183.338 333.21,185.504 324.5,183.5C 323.518,181.166 323.351,178.832 324,176.5C 320.353,180.839 315.853,181.839 310.5,179.5C 311.295,175.406 309.962,172.239 306.5,170C 306.957,169.586 307.291,169.086 307.5,168.5C 306.009,167.756 304.509,167.09 303,166.5C 302.82,163.044 302.153,159.711 301,156.5C 299.989,155.663 298.822,155.33 297.5,155.5C 297.247,153.173 297.914,151.173 299.5,149.5C 296.55,148.375 294.55,146.375 293.5,143.5C 293.608,142.558 293.941,141.725 294.5,141C 296.044,140.71 297.377,140.044 298.5,139C 296.558,136.863 294.891,134.529 293.5,132C 296.943,128.836 300.11,125.336 303,121.5C 303.155,119.144 303.155,116.811 303,114.5C 307.524,111.753 309.69,107.753 309.5,102.5C 312.127,102.707 313.793,101.54 314.5,99C 310.556,96.1706 307.223,92.6706 304.5,88.5C 306.507,87.0922 308.507,85.5922 310.5,84C 309.594,82.3005 309.261,80.4672 309.5,78.5 Z"/></g>
<g><path style="opacity:1" fill="#0000a2" d="M 318.5,122.5 C 322.954,122.422 327.287,123.089 331.5,124.5C 332.649,127.74 331.982,130.573 329.5,133C 331.513,133.68 332.846,135.013 333.5,137C 329.983,141.846 326.483,146.679 323,151.5C 321.361,153.637 319.361,155.303 317,156.5C 315.174,155.99 315.007,155.156 316.5,154C 315.234,153.691 314.067,153.191 313,152.5C 312.443,150.385 311.609,148.385 310.5,146.5C 311.313,145.186 312.313,144.019 313.5,143C 307.85,137.572 308.35,132.739 315,128.5C 315.424,125.975 316.59,123.975 318.5,122.5 Z"/></g>
<g><path style="opacity:1" fill="#00a192" d="M 274.5,78.5 C 276.144,78.2865 277.644,78.6198 279,79.5C 282.909,86.7077 281.242,92.3744 274,96.5C 273.333,97.8333 273.333,99.1667 274,100.5C 276.018,102.35 277.851,104.35 279.5,106.5C 282.539,107.569 285.539,108.735 288.5,110C 289.357,110.689 290.023,111.522 290.5,112.5C 289.086,113.624 287.586,114.624 286,115.5C 285.727,117.101 285.227,118.601 284.5,120C 284.833,120.333 285.167,120.667 285.5,121C 281.279,123.937 277.279,127.104 273.5,130.5C 274.611,131.611 275.278,132.945 275.5,134.5C 274.205,136.81 272.871,139.143 271.5,141.5C 272.189,143.444 272.689,145.444 273,147.5C 274.11,145.963 275.61,145.297 277.5,145.5C 278.041,148.652 277.041,151.152 274.5,153C 273.328,153.353 272.162,153.187 271,152.5C 269.48,153.697 268.313,155.197 267.5,157C 264.765,158.915 261.765,160.082 258.5,160.5C 258.33,159.178 258.663,158.011 259.5,157C 259,156.5 258.5,156 258,155.5C 257.249,159.266 255.249,162.266 252,164.5C 251.932,167.319 250.766,169.486 248.5,171C 248.799,172.32 248.966,173.82 249,175.5C 249.645,176.646 250.478,177.646 251.5,178.5C 247.855,181.774 245.188,185.774 243.5,190.5C 237.677,193.436 236.01,197.936 238.5,204C 238.147,207.959 237.313,211.792 236,215.5C 233.685,212.785 232.185,209.618 231.5,206C 233.923,204.429 235.256,202.263 235.5,199.5C 234.5,199.5 233.5,199.5 232.5,199.5C 232.054,202.389 231.054,205.056 229.5,207.5C 232.35,213.065 231.517,218.065 227,222.5C 225.701,219.994 224.701,217.327 224,214.5C 223.667,215.5 223.333,216.5 223,217.5C 219.975,219.532 217.308,221.865 215,224.5C 213.291,223.43 211.791,222.097 210.5,220.5C 208.517,221.982 206.684,223.649 205,225.5C 203.647,224.315 202.48,222.981 201.5,221.5C 200.573,223.946 198.906,224.779 196.5,224C 195.696,222.229 194.529,220.729 193,219.5C 192.5,220.5 192,221.5 191.5,222.5C 190.5,223.833 189.5,223.833 188.5,222.5C 186.753,219.506 185.42,216.339 184.5,213C 188.199,197.904 192.699,183.071 198,168.5C 205.961,150.572 215.961,133.906 228,118.5C 239.167,107.333 250.333,96.1667 261.5,85C 265.625,82.143 269.958,79.9764 274.5,78.5 Z"/></g>
<g><path style="opacity:1" fill="#00a091" d="M 361.5,74.5 C 363.854,74.838 366.187,75.338 368.5,76C 373.597,79.4333 378.931,82.4333 384.5,85C 405.96,104.084 420.127,127.584 427,155.5C 430.096,161.79 432.596,168.29 434.5,175C 433.971,178.541 433.304,182.041 432.5,185.5C 430.737,185.306 428.903,185.306 427,185.5C 425.97,187.588 425.137,189.755 424.5,192C 420.543,195.119 417.543,198.953 415.5,203.5C 412.242,199.307 409.242,194.974 406.5,190.5C 404.333,185.5 402.167,180.5 400,175.5C 397,175.167 395.333,173.5 395,170.5C 391.667,168.5 389,165.833 387,162.5C 386.502,160.473 386.669,158.473 387.5,156.5C 386.499,151.933 383.833,149.099 379.5,148C 378.32,145.402 376.32,143.736 373.5,143C 370.703,139.201 367.536,135.701 364,132.5C 363.476,128.82 362.142,125.153 360,121.5C 357.647,118.151 354.98,115.151 352,112.5C 351.727,110.899 351.227,109.399 350.5,108C 351.99,107.255 352.99,106.088 353.5,104.5C 351.238,98.9099 349.571,93.4099 348.5,88C 350.949,85.6126 352.782,82.7793 354,79.5C 356.17,77.1769 358.67,75.5103 361.5,74.5 Z"/></g>
<g><path style="opacity:1" fill="#00a057" d="M 382.5,100.5 C 386.958,104.234 391.625,107.734 396.5,111C 401.898,118.294 406.398,126.128 410,134.5C 410.784,137.76 410.617,140.927 409.5,144C 409,144.167 408.5,144.333 408,144.5C 406.674,143.201 405.34,141.868 404,140.5C 402.817,141.731 401.651,141.731 400.5,140.5C 395.52,134.353 390.354,128.353 385,122.5C 383.836,115.202 383.003,107.869 382.5,100.5 Z"/></g>
<g><path style="opacity:1" fill="#0000a2" d="M 228.5,253.5 C 230.044,253.703 231.378,254.37 232.5,255.5C 234.755,253.312 236.922,253.646 239,256.5C 240.645,260.867 241.812,265.367 242.5,270C 240.042,279.095 235.209,286.595 228,292.5C 226.991,290.975 226.491,289.308 226.5,287.5C 224.61,287.703 223.11,287.037 222,285.5C 220.777,282.053 219.277,278.72 217.5,275.5C 217.737,272.937 218.237,272.937 219,275.5C 222.018,272.164 223.685,268.164 224,263.5C 225.224,259.977 226.724,256.644 228.5,253.5 Z"/></g>
<g><path style="opacity:1" fill="#07da7b" d="M 337.5,252.5 C 337.833,252.5 338.167,252.5 338.5,252.5C 340.621,252.325 342.621,252.659 344.5,253.5C 344.196,254.15 343.863,254.817 343.5,255.5C 345.005,256.842 345.672,258.508 345.5,260.5C 344.094,260.973 343.427,261.973 343.5,263.5C 342.596,264.209 342.263,265.209 342.5,266.5C 341.5,266.5 340.5,266.5 339.5,266.5C 337.821,266.715 336.821,266.048 336.5,264.5C 336.167,263.833 335.833,263.167 335.5,262.5C 337.681,259.661 340.014,257.494 342.5,256C 340.569,255.098 338.903,253.931 337.5,252.5 Z"/></g>
<g><path style="opacity:1" fill="#0e68a2" d="M 353.5,260.5 C 352.596,261.209 352.263,262.209 352.5,263.5C 351.5,263.5 350.5,263.5 349.5,263.5C 349.322,267.102 348.322,267.102 346.5,263.5C 345.313,264.653 344.313,264.653 343.5,263.5C 343.427,261.973 344.094,260.973 345.5,260.5C 349.128,260.631 351.628,258.964 353,255.5C 353.5,256.667 354.333,257.5 355.5,258C 354.244,258.417 353.577,259.25 353.5,260.5 Z"/></g>
<g><path style="opacity:1" fill="#0ab4a5" d="M 284.5,245.5 C 284.5,246.833 284.5,248.167 284.5,249.5C 286.167,249.5 287.833,249.5 289.5,249.5C 289.343,248.127 289.51,246.793 290,245.5C 292.927,248.609 292.427,251.442 288.5,254C 289.793,254.49 291.127,254.657 292.5,254.5C 292.5,255.5 292.5,256.5 292.5,257.5C 291.588,258.738 291.421,260.072 292,261.5C 293.833,264 295.667,266.5 297.5,269C 298.167,269.667 298.833,269.667 299.5,269C 300.977,267.188 302.31,265.355 303.5,263.5C 303.5,264.833 303.5,266.167 303.5,267.5C 300.721,270.9 300.055,274.733 301.5,279C 300.599,281.871 299.599,284.704 298.5,287.5C 299.257,289.404 300.257,289.737 301.5,288.5C 301.783,287.711 302.283,287.044 303,286.5C 304.356,287.38 305.856,287.714 307.5,287.5C 309.034,286.797 310.701,286.964 312.5,288C 310.616,288.216 308.949,288.883 307.5,290C 310.371,290.118 313.038,290.784 315.5,292C 314.584,292.278 313.918,292.778 313.5,293.5C 313.047,294.458 312.381,295.292 311.5,296C 307.793,296.737 304.127,297.571 300.5,298.5C 300.33,297.178 300.663,296.011 301.5,295C 299.292,293.818 296.958,292.818 294.5,292C 294.167,292.333 293.833,292.667 293.5,293C 296.954,293.293 297.288,294.626 294.5,297C 293.5,297.333 292.5,297.667 291.5,298C 294.51,303.836 292.844,308.003 286.5,310.5C 286.919,311.672 287.585,312.672 288.5,313.5C 291.367,312.787 293.867,311.454 296,309.5C 299.484,312.146 303.317,314.146 307.5,315.5C 307.918,316.222 308.584,316.722 309.5,317C 307.1,317.186 304.766,317.686 302.5,318.5C 303.729,319.281 305.062,319.781 306.5,320C 303.521,321.162 300.855,322.662 298.5,324.5C 298.674,321.155 297.341,319.988 294.5,321C 292.438,319.468 291.104,317.468 290.5,315C 285.143,314.436 283.143,311.603 284.5,306.5C 286.135,305.67 287.802,305.503 289.5,306C 292.265,302.986 291.765,300.486 288,298.5C 286.534,300.325 284.701,300.825 282.5,300C 281.631,297.632 279.965,296.132 277.5,295.5C 276.779,293.314 276.113,291.147 275.5,289C 275.833,288.667 276.167,288.333 276.5,288C 272.549,284.698 272.549,281.364 276.5,278C 277.899,277.405 279.232,277.572 280.5,278.5C 281.308,278.192 281.975,277.692 282.5,277C 280.726,276.119 280.06,274.953 280.5,273.5C 279.167,274.5 277.833,275.5 276.5,276.5C 275.618,275.24 274.618,274.074 273.5,273C 274.323,270.241 274.99,267.407 275.5,264.5C 275.152,262.303 274.152,260.47 272.5,259C 274.973,257.439 276.973,255.439 278.5,253C 274.221,248.749 274.721,245.249 280,242.5C 281.643,243.315 283.143,244.315 284.5,245.5 Z"/></g>
<g><path style="opacity:1" fill="#0091c8" d="M 287.5,263.5 C 290.267,264.638 290.934,266.472 289.5,269C 292.837,271.675 293.171,274.675 290.5,278C 289.207,278.49 287.873,278.657 286.5,278.5C 286.579,277.07 286.246,275.736 285.5,274.5C 286.447,272.941 287.113,271.274 287.5,269.5C 286.347,267.432 286.347,265.432 287.5,263.5 Z"/></g>
<g><path style="opacity:1" fill="#04c5b0" d="M 336.5,264.5 C 336.821,266.048 337.821,266.715 339.5,266.5C 340.091,267.151 340.757,267.818 341.5,268.5C 339.516,269.706 337.516,269.706 335.5,268.5C 334.749,269.376 334.249,270.376 334,271.5C 332.225,269.671 330.391,267.171 328.5,264C 330.081,263.293 331.581,262.46 333,261.5C 333.333,263.5 333.667,265.5 334,267.5C 334.236,265.881 335.069,264.881 336.5,264.5 Z"/></g>
<g><path style="opacity:1" fill="#1488c4" d="M 331.5,254.5 C 330.898,258.061 332.065,258.395 335,255.5C 335.497,257.81 335.663,260.143 335.5,262.5C 335.833,263.167 336.167,263.833 336.5,264.5C 335.069,264.881 334.236,265.881 334,267.5C 333.667,265.5 333.333,263.5 333,261.5C 331.581,262.46 330.081,263.293 328.5,264C 330.391,267.171 332.225,269.671 334,271.5C 334.249,270.376 334.749,269.376 335.5,268.5C 337.516,269.706 339.516,269.706 341.5,268.5C 340.757,267.818 340.091,267.151 339.5,266.5C 340.5,266.5 341.5,266.5 342.5,266.5C 343.86,268.802 343.193,270.468 340.5,271.5C 340.833,272.167 341.167,272.833 341.5,273.5C 341.154,274.696 340.654,274.696 340,273.5C 339.851,270.721 339.017,270.221 337.5,272C 340.319,274.72 339.986,277.053 336.5,279C 338.57,279.379 340.07,278.545 341,276.5C 341.333,276.833 341.667,277.167 342,277.5C 342.9,275.602 344.066,273.936 345.5,272.5C 345.833,272.667 346.167,272.833 346.5,273C 344.606,274.101 343.939,275.434 344.5,277C 345.448,277.483 346.448,277.649 347.5,277.5C 346.976,280.188 345.309,281.688 342.5,282C 343.044,282.717 343.711,283.217 344.5,283.5C 343.323,285.784 341.656,286.118 339.5,284.5C 342.23,283.009 342.063,281.675 339,280.5C 337.899,284.136 335.732,285.136 332.5,283.5C 332.38,282.414 331.713,281.747 330.5,281.5C 328.964,282.249 327.631,283.249 326.5,284.5C 323.211,283.575 320.211,283.575 317.5,284.5C 316.167,285.5 316.167,286.5 317.5,287.5C 321.212,290.794 325.379,292.127 330,291.5C 332.054,293.14 332.387,294.806 331,296.5C 326.993,294.73 322.827,293.897 318.5,294C 319.328,295.992 320.661,297.492 322.5,298.5C 324.1,299.644 325.767,300.811 327.5,302C 325.623,302.576 323.789,302.409 322,301.5C 320.355,299.855 318.688,298.188 317,296.5C 316.107,297.711 315.274,297.711 314.5,296.5C 318.231,295.107 317.898,294.107 313.5,293.5C 313.918,292.778 314.584,292.278 315.5,292C 313.038,290.784 310.371,290.118 307.5,290C 308.949,288.883 310.616,288.216 312.5,288C 310.701,286.964 309.034,286.797 307.5,287.5C 307.389,286.883 307.056,286.383 306.5,286C 309.347,285.056 311.847,285.556 314,287.5C 315.862,285.639 315.362,284.306 312.5,283.5C 319.689,278.369 319.022,276.702 310.5,278.5C 310.5,276.833 310.5,275.167 310.5,273.5C 308.897,273.312 307.563,273.812 306.5,275C 307.267,276.47 307.933,277.97 308.5,279.5C 305.932,279.406 304.432,278.072 304,275.5C 303.616,278.712 302.782,282.046 301.5,285.5C 300.375,286.652 300.375,287.652 301.5,288.5C 300.257,289.737 299.257,289.404 298.5,287.5C 299.599,284.704 300.599,281.871 301.5,279C 300.055,274.733 300.721,270.9 303.5,267.5C 305.557,266.798 307.557,266.465 309.5,266.5C 310.862,264.988 311.196,263.488 310.5,262C 312.444,260.58 314.277,259.08 316,257.5C 316.5,257.833 317,258.167 317.5,258.5C 316.127,261.383 316.793,263.717 319.5,265.5C 322.167,263.5 324.833,261.5 327.5,259.5C 327.145,258.478 326.478,257.811 325.5,257.5C 325.5,257.167 325.5,256.833 325.5,256.5C 327.685,256.296 329.685,255.63 331.5,254.5 Z"/></g>
<g><path style="opacity:1" fill="#0050e1" d="M 304.5,268.5 C 306.121,268.787 307.121,269.787 307.5,271.5C 303.468,275.385 302.468,274.385 304.5,268.5 Z"/></g>
<g><path style="opacity:1" fill="#14ab8e" d="M 353.5,260.5 C 353.051,263.641 352.051,266.641 350.5,269.5C 351.098,270.795 351.598,272.128 352,273.5C 352.333,271.167 352.667,268.833 353,266.5C 354.333,265.833 355.333,264.833 356,263.5C 356.667,266.167 356.667,268.833 356,271.5C 353.536,272.042 352.369,274.042 352.5,277.5C 350.824,276.817 350.157,275.483 350.5,273.5C 346.623,273.483 345.957,274.649 348.5,277C 348.272,277.399 347.938,277.565 347.5,277.5C 346.448,277.649 345.448,277.483 344.5,277C 343.939,275.434 344.606,274.101 346.5,273C 346.167,272.833 345.833,272.667 345.5,272.5C 344.066,273.936 342.9,275.602 342,277.5C 341.667,277.167 341.333,276.833 341,276.5C 340.07,278.545 338.57,279.379 336.5,279C 339.986,277.053 340.319,274.72 337.5,272C 339.017,270.221 339.851,270.721 340,273.5C 340.654,274.696 341.154,274.696 341.5,273.5C 341.167,272.833 340.833,272.167 340.5,271.5C 343.193,270.468 343.86,268.802 342.5,266.5C 342.263,265.209 342.596,264.209 343.5,263.5C 344.313,264.653 345.313,264.653 346.5,263.5C 348.322,267.102 349.322,267.102 349.5,263.5C 350.5,263.5 351.5,263.5 352.5,263.5C 352.263,262.209 352.596,261.209 353.5,260.5 Z"/></g>
<g><path style="opacity:1" fill="#014ad5" d="M 308.5,279.5 C 307.365,281.213 305.698,281.88 303.5,281.5C 303.843,283.483 303.176,284.817 301.5,285.5C 302.782,282.046 303.616,278.712 304,275.5C 304.432,278.072 305.932,279.406 308.5,279.5 Z"/></g>
<g><path style="opacity:1" fill="#0dbbb1" d="M 326.5,270.5 C 326.805,272.919 326.805,275.586 326.5,278.5C 324.857,278.48 323.524,279.147 322.5,280.5C 321.476,279.147 320.143,278.48 318.5,278.5C 318.5,277.5 318.5,276.5 318.5,275.5C 321.49,274.339 324.157,272.672 326.5,270.5 Z"/></g>
<g><path style="opacity:1" fill="#09a453" d="M 352.5,277.5 C 353.067,279.969 353.067,282.302 352.5,284.5C 349.764,283.889 347.098,283.555 344.5,283.5C 343.711,283.217 343.044,282.717 342.5,282C 345.309,281.688 346.976,280.188 347.5,277.5C 347.938,277.565 348.272,277.399 348.5,277C 345.957,274.649 346.623,273.483 350.5,273.5C 350.157,275.483 350.824,276.817 352.5,277.5 Z"/></g>
<g><path style="opacity:1" fill="#00ba64" d="M 286.5,289.5 C 285.094,289.973 284.427,290.973 284.5,292.5C 283.778,292.918 283.278,293.584 283,294.5C 282.333,290.5 282.333,286.5 283,282.5C 284.808,280.442 286.975,280.108 289.5,281.5C 289.428,284.553 288.428,287.219 286.5,289.5 Z"/></g>
<g><path style="opacity:1" fill="#20be84" d="M 307.5,287.5 C 305.856,287.714 304.356,287.38 303,286.5C 302.283,287.044 301.783,287.711 301.5,288.5C 300.375,287.652 300.375,286.652 301.5,285.5C 303.176,284.817 303.843,283.483 303.5,281.5C 305.698,281.88 307.365,281.213 308.5,279.5C 307.933,277.97 307.267,276.47 306.5,275C 307.563,273.812 308.897,273.312 310.5,273.5C 310.5,275.167 310.5,276.833 310.5,278.5C 319.022,276.702 319.689,278.369 312.5,283.5C 315.362,284.306 315.862,285.639 314,287.5C 311.847,285.556 309.347,285.056 306.5,286C 307.056,286.383 307.389,286.883 307.5,287.5 Z"/></g>
<g><path style="opacity:1" fill="#0a3d97" d="M 339.5,284.5 C 337.313,285.758 334.98,286.758 332.5,287.5C 331.544,286.341 330.544,285.174 329.5,284C 329.667,283.5 329.833,283 330,282.5C 330.671,283.252 331.504,283.586 332.5,283.5C 335.732,285.136 337.899,284.136 339,280.5C 342.063,281.675 342.23,283.009 339.5,284.5 Z"/></g>
<g><path style="opacity:1" fill="#157eb9" d="M 284.5,292.5 C 284.427,290.973 285.094,289.973 286.5,289.5C 291.042,287.793 293.042,289.459 292.5,294.5C 290.181,295.167 287.847,295.334 285.5,295C 284.748,294.329 284.414,293.496 284.5,292.5 Z"/></g>
<g><path style="opacity:1" fill="#00ac9b" d="M 368.5,282.5 C 369.5,282.5 370.5,282.5 371.5,282.5C 371.565,284.696 372.232,286.696 373.5,288.5C 376.052,287.56 376.886,288.56 376,291.5C 375,290.833 374,290.167 373,289.5C 368.738,292.41 367.904,291.744 370.5,287.5C 368.995,286.158 368.328,284.492 368.5,282.5 Z"/></g>
<g><path style="opacity:1" fill="#1cbb90" d="M 332.5,283.5 C 331.504,283.586 330.671,283.252 330,282.5C 329.833,283 329.667,283.5 329.5,284C 330.544,285.174 331.544,286.341 332.5,287.5C 333.974,288.675 335.64,289.675 337.5,290.5C 336.653,291.845 335.487,292.845 334,293.5C 333.437,294.725 333.77,295.725 335,296.5C 337.415,293.83 338.582,293.83 338.5,296.5C 337.761,296.369 337.094,296.536 336.5,297C 337.696,297.654 337.696,298.154 336.5,298.5C 334.162,296.989 333.496,297.323 334.5,299.5C 333.635,300.583 332.635,300.749 331.5,300C 331.833,299.667 332.167,299.333 332.5,299C 330.866,298.506 329.199,298.34 327.5,298.5C 327.671,295.203 327.005,294.869 325.5,297.5C 323.775,295.908 322.775,296.242 322.5,298.5C 320.661,297.492 319.328,295.992 318.5,294C 322.827,293.897 326.993,294.73 331,296.5C 332.387,294.806 332.054,293.14 330,291.5C 325.379,292.127 321.212,290.794 317.5,287.5C 316.167,286.5 316.167,285.5 317.5,284.5C 320.211,283.575 323.211,283.575 326.5,284.5C 327.631,283.249 328.964,282.249 330.5,281.5C 331.713,281.747 332.38,282.414 332.5,283.5 Z"/></g>
<g><path style="opacity:1" fill="#00379d" d="M 379.5,297.5 C 380.458,297.953 381.292,298.619 382,299.5C 381.948,303.656 382.781,307.49 384.5,311C 383.552,311.483 382.552,311.649 381.5,311.5C 381.22,314.272 381.887,316.772 383.5,319C 382.133,321.301 381.466,323.801 381.5,326.5C 376.265,325.237 371.765,326.57 368,330.5C 367.503,328.19 367.337,325.857 367.5,323.5C 366.5,323.5 365.5,323.5 364.5,323.5C 364.664,326.187 364.497,328.854 364,331.5C 362.736,333.607 360.903,334.607 358.5,334.5C 359.47,331.339 361.137,328.506 363.5,326C 361.578,324.54 360.911,322.873 361.5,321C 363.256,320.798 364.922,320.298 366.5,319.5C 370.575,312.297 372.575,312.964 372.5,321.5C 373.086,321.291 373.586,320.957 374,320.5C 375.726,314.968 376.726,309.301 377,303.5C 377.573,301.359 378.406,299.359 379.5,297.5 Z"/></g>
<g><path style="opacity:1" fill="#00a458" d="M 285.5,234.5 C 286.496,234.414 287.329,234.748 288,235.5C 288.652,238.594 288.318,241.594 287,244.5C 286.329,245.252 285.496,245.586 284.5,245.5C 283.143,244.315 281.643,243.315 280,242.5C 274.721,245.249 274.221,248.749 278.5,253C 276.973,255.439 274.973,257.439 272.5,259C 274.152,260.47 275.152,262.303 275.5,264.5C 274.99,267.407 274.323,270.241 273.5,273C 274.618,274.074 275.618,275.24 276.5,276.5C 277.833,275.5 279.167,274.5 280.5,273.5C 280.06,274.953 280.726,276.119 282.5,277C 281.975,277.692 281.308,278.192 280.5,278.5C 279.232,277.572 277.899,277.405 276.5,278C 272.549,281.364 272.549,284.698 276.5,288C 276.167,288.333 275.833,288.667 275.5,289C 276.113,291.147 276.779,293.314 277.5,295.5C 279.965,296.132 281.631,297.632 282.5,300C 284.701,300.825 286.534,300.325 288,298.5C 291.765,300.486 292.265,302.986 289.5,306C 287.802,305.503 286.135,305.67 284.5,306.5C 283.143,311.603 285.143,314.436 290.5,315C 291.104,317.468 292.438,319.468 294.5,321C 297.341,319.988 298.674,321.155 298.5,324.5C 300.076,325.283 301.409,326.45 302.5,328C 300.797,330.568 298.631,331.068 296,329.5C 294.715,329.95 293.548,330.617 292.5,331.5C 290.898,329.573 289.565,327.406 288.5,325C 281.597,324.412 278.431,320.578 279,313.5C 273.321,308.294 271.154,301.961 272.5,294.5C 269.178,273.717 271.012,253.383 278,233.5C 279.185,235.377 280.185,237.377 281,239.5C 282.707,237.963 284.207,236.296 285.5,234.5 Z"/></g>
<g><path style="opacity:1" fill="#009f90" d="M 414.5,300.5 C 415.983,302.9 417.65,305.234 419.5,307.5C 418.882,310.813 417.882,313.979 416.5,317C 416.112,321.664 416.779,326.33 418.5,331C 411.32,358.539 397.82,382.372 378,402.5C 375.724,407.268 372.557,411.268 368.5,414.5C 366.382,415.946 364.049,416.613 361.5,416.5C 361.43,412.399 363.43,409.899 367.5,409C 367.043,408.586 366.709,408.086 366.5,407.5C 367.752,405.999 368.752,404.332 369.5,402.5C 366.013,401.353 364.013,399.019 363.5,395.5C 359.548,396.272 355.548,396.605 351.5,396.5C 353.446,392.663 355.113,388.663 356.5,384.5C 360.354,383.864 362.687,381.531 363.5,377.5C 363.154,376.304 362.654,376.304 362,377.5C 359.866,375.422 360.032,373.588 362.5,372C 360.755,370.308 360.422,368.475 361.5,366.5C 374.182,358.3 383.016,346.967 388,332.5C 388.192,334.577 388.692,336.577 389.5,338.5C 392.32,331.969 395.154,325.302 398,318.5C 399.342,319.902 400.176,319.569 400.5,317.5C 401,315.5 401.5,313.5 402,311.5C 403.069,311.64 404.236,311.64 405.5,311.5C 405.932,307.87 407.099,304.536 409,301.5C 410.194,303.623 410.86,305.957 411,308.5C 412.456,305.968 413.623,303.301 414.5,300.5 Z"/></g>
<g><path style="opacity:1" fill="#0973a0" d="M 313.5,293.5 C 317.898,294.107 318.231,295.107 314.5,296.5C 315.274,297.711 316.107,297.711 317,296.5C 318.688,298.188 320.355,299.855 322,301.5C 323.789,302.409 325.623,302.576 327.5,302C 325.767,300.811 324.1,299.644 322.5,298.5C 322.775,296.242 323.775,295.908 325.5,297.5C 327.005,294.869 327.671,295.203 327.5,298.5C 329.199,298.34 330.866,298.506 332.5,299C 332.167,299.333 331.833,299.667 331.5,300C 332.635,300.749 333.635,300.583 334.5,299.5C 333.496,297.323 334.162,296.989 336.5,298.5C 337.696,298.154 337.696,297.654 336.5,297C 337.094,296.536 337.761,296.369 338.5,296.5C 339.922,296.709 341.255,297.209 342.5,298C 340.122,298.974 340.456,299.641 343.5,300C 341.392,300.36 339.392,301.027 337.5,302C 339.545,302.49 341.545,302.323 343.5,301.5C 344.953,302.825 344.619,303.658 342.5,304C 343.451,304.718 343.617,305.551 343,306.5C 341.507,304.652 339.674,303.819 337.5,304C 338.978,306.057 340.978,307.39 343.5,308C 339.121,309.023 335.121,310.856 331.5,313.5C 328.143,313.191 324.809,312.858 321.5,312.5C 321.918,311.778 322.584,311.278 323.5,311C 320.975,310.104 318.808,310.604 317,312.5C 314.013,311.724 313.18,310.057 314.5,307.5C 311.743,306.018 309.41,306.518 307.5,309C 309.973,310.561 311.973,312.561 313.5,315C 311.892,315.658 310.725,315.158 310,313.5C 309.583,314.756 308.75,315.423 307.5,315.5C 303.317,314.146 299.484,312.146 296,309.5C 293.867,311.454 291.367,312.787 288.5,313.5C 287.585,312.672 286.919,311.672 286.5,310.5C 292.844,308.003 294.51,303.836 291.5,298C 292.5,297.667 293.5,297.333 294.5,297C 297.288,294.626 296.954,293.293 293.5,293C 293.833,292.667 294.167,292.333 294.5,292C 296.958,292.818 299.292,293.818 301.5,295C 300.663,296.011 300.33,297.178 300.5,298.5C 304.127,297.571 307.793,296.737 311.5,296C 312.381,295.292 313.047,294.458 313.5,293.5 Z"/></g>
<g><path style="opacity:1" fill="#003dae" d="M 296.5,302.5 C 299.167,302.5 301.833,302.5 304.5,302.5C 304.007,304.806 303.674,307.139 303.5,309.5C 301.738,309.643 300.071,309.309 298.5,308.5C 297.5,306.833 296.167,305.5 294.5,304.5C 295.243,303.818 295.909,303.151 296.5,302.5 Z"/></g>
<g><path style="opacity:1" fill="#0e7a76" d="M 345.5,316.5 C 340.326,319.917 334.66,322.584 328.5,324.5C 326.745,323.928 325.078,323.094 323.5,322C 323.833,321.667 324.167,321.333 324.5,321C 323.5,320.833 322.5,320.667 321.5,320.5C 318.524,320.13 317.524,321.13 318.5,323.5C 316.833,324.833 315.167,324.833 313.5,323.5C 314.568,320.795 316.568,319.295 319.5,319C 316.833,318.333 316.833,317.667 319.5,317C 315.513,314.078 316.18,312.578 321.5,312.5C 324.809,312.858 328.143,313.191 331.5,313.5C 335.121,310.856 339.121,309.023 343.5,308C 340.978,307.39 338.978,306.057 337.5,304C 339.674,303.819 341.507,304.652 343,306.5C 343.617,305.551 343.451,304.718 342.5,304C 344.619,303.658 344.953,302.825 343.5,301.5C 346.007,299.037 345.34,297.204 341.5,296C 341.889,294.382 343.222,293.215 345.5,292.5C 343.953,292.793 342.286,292.293 340.5,291C 341.967,289.902 342.801,288.402 343,286.5C 345.122,287.22 345.622,288.387 344.5,290C 346.226,291.53 348.226,292.53 350.5,293C 350.043,293.414 349.709,293.914 349.5,294.5C 352.044,295.937 352.044,297.437 349.5,299C 349.833,299.333 350.167,299.667 350.5,300C 349.377,301.044 348.044,301.71 346.5,302C 347.833,302.333 349.167,302.667 350.5,303C 347.833,303.667 347.833,304.333 350.5,305C 348.189,307.601 345.189,310.267 341.5,313C 342.5,313.667 343.5,313.667 344.5,313C 346.138,309.943 347.471,309.943 348.5,313C 347.29,314.039 346.29,315.206 345.5,316.5 Z"/></g>
<g><path style="opacity:1" fill="#00a091" d="M 194.5,323.5 C 197.228,326.709 200.561,329.209 204.5,331C 206.92,331.687 209.087,331.187 211,329.5C 213.003,332.222 215.003,334.888 217,337.5C 217.436,334.716 218.936,333.55 221.5,334C 223.211,336.589 225.045,339.089 227,341.5C 227.285,346.399 228.452,351.065 230.5,355.5C 233.322,359.128 236.155,362.795 239,366.5C 239.333,366.167 239.667,365.833 240,365.5C 242.333,366.5 244.667,367.5 247,368.5C 247.333,368.167 247.667,367.833 248,367.5C 251.951,373.623 256.117,379.623 260.5,385.5C 263.32,387.341 266.32,388.674 269.5,389.5C 270.149,391.477 270.149,393.31 269.5,395C 269.896,396.897 270.896,398.397 272.5,399.5C 272.069,400.293 271.735,401.127 271.5,402C 273.727,403.706 275.894,405.54 278,407.5C 278.773,410.211 279.94,412.711 281.5,415C 278.656,418.347 275.989,421.847 273.5,425.5C 274.937,427.021 275.604,428.855 275.5,431C 274.587,435.158 274.42,439.324 275,443.5C 270.425,445.692 265.592,447.359 260.5,448.5C 239.008,439.857 222.175,425.523 210,405.5C 201.186,390.389 193.519,374.722 187,358.5C 184.792,352.5 183.292,346.333 182.5,340C 183.063,336.674 184.063,333.507 185.5,330.5C 189.405,329.255 192.405,326.921 194.5,323.5 Z"/></g>
<g><path style="opacity:1" fill="#009550" d="M 345.5,316.5 C 347.225,316.843 347.725,317.843 347,319.5C 340.539,325.48 333.039,329.48 324.5,331.5C 318.106,331.536 311.773,331.37 305.5,331C 305.243,326.887 307.077,323.72 311,321.5C 311.555,323.721 311.388,326.054 310.5,328.5C 316.061,327.269 321.728,326.436 327.5,326C 328.056,325.617 328.389,325.117 328.5,324.5C 334.66,322.584 340.326,319.917 345.5,316.5 Z"/></g>
<g><path style="opacity:1" fill="#0039a0" d="M 249.5,333.5 C 250.612,335.744 252.112,335.744 254,333.5C 255.668,337.165 258.501,339.332 262.5,340C 261.773,341.399 261.273,342.899 261,344.5C 259.869,343.396 259.035,343.729 258.5,345.5C 259.325,346.386 260.325,346.719 261.5,346.5C 261.5,347.5 261.5,348.5 261.5,349.5C 258.985,350.164 256.819,351.497 255,353.5C 250.115,347.777 248.282,341.11 249.5,333.5 Z"/></g>
<g><path style="opacity:1" fill="#00399f" d="M 260.5,353.5 C 262.907,355.572 265.574,357.239 268.5,358.5C 271.326,358.176 273.826,357.176 276,355.5C 278.069,356.264 280.236,356.764 282.5,357C 280.671,360.828 277.671,363.161 273.5,364C 272.953,364.925 272.287,365.758 271.5,366.5C 270.777,364.836 271.11,363.169 272.5,361.5C 272,361.167 271.5,360.833 271,360.5C 268.143,361.909 265.477,363.575 263,365.5C 256.827,362.503 255.994,358.503 260.5,353.5 Z"/></g>
<g><path style="opacity:1" fill="#00009e" d="M 311.5,359.5 C 313.857,359.337 316.19,359.503 318.5,360C 319.227,361.399 319.727,362.899 320,364.5C 321.509,365.09 323.009,365.756 324.5,366.5C 323.656,370.201 322.323,373.701 320.5,377C 324.037,377.145 327.371,377.978 330.5,379.5C 327.537,383.095 325.37,387.095 324,391.5C 321.711,394.062 318.877,395.729 315.5,396.5C 311.967,395.042 308.301,394.042 304.5,393.5C 303.689,391.609 302.356,390.276 300.5,389.5C 299.319,387.865 299.319,386.198 300.5,384.5C 299.263,383.719 298.263,382.719 297.5,381.5C 298.279,379.227 299.612,377.394 301.5,376C 300.496,374.202 299.996,372.368 300,370.5C 302.581,369.167 304.748,367.334 306.5,365C 305.273,363.413 305.606,362.079 307.5,361C 309.058,360.79 310.391,360.29 311.5,359.5 Z"/></g>
<g><path style="opacity:1" fill="#00a057" d="M 206.5,369.5 C 209.243,370.388 211.91,371.555 214.5,373C 215.687,374.019 216.687,375.186 217.5,376.5C 219.045,377.452 220.712,377.785 222.5,377.5C 222.351,378.552 222.517,379.552 223,380.5C 226.058,382.957 228.392,385.957 230,389.5C 230.419,388.328 231.085,387.328 232,386.5C 232.305,388.557 232.305,390.557 232,392.5C 233.188,391.437 233.688,390.103 233.5,388.5C 234.675,388.281 235.675,388.614 236.5,389.5C 235.456,391.768 235.289,394.101 236,396.5C 238.381,399.376 240.548,402.376 242.5,405.5C 242.066,409.512 241.066,413.346 239.5,417C 236.623,417.725 233.957,417.225 231.5,415.5C 222.865,408.244 216.699,399.244 213,388.5C 209.657,384.475 206.824,380.142 204.5,375.5C 205.172,373.47 205.838,371.47 206.5,369.5 Z"/></g>
<g><path style="opacity:1" fill="#00a091" d="M 428.5,394.5 C 429.496,394.414 430.329,394.748 431,395.5C 431.551,402.388 428.551,407.055 422,409.5C 421.5,409.167 421,408.833 420.5,408.5C 421.65,402.856 424.316,398.189 428.5,394.5 Z"/></g>
<g><path style="opacity:1" fill="#00a190" d="M 187.5,452.5 C 190.555,453.246 192.222,455.246 192.5,458.5C 192.167,460.167 191.167,461.167 189.5,461.5C 185.175,459.206 184.508,456.206 187.5,452.5 Z"/></g>
<g><path style="opacity:1" fill="#00a192" d="M 350.5,477.5 C 326.871,483.991 303.204,490.324 279.5,496.5C 278.402,495.603 278.402,494.77 279.5,494C 302.711,485.781 326.378,479.281 350.5,474.5C 350.5,475.5 350.5,476.5 350.5,477.5 Z"/></g>
</svg>
