<?xml version="1.0" encoding="UTF-8"?>
<!DOCTYPE svg PUBLIC "-//W3C//DTD SVG 1.1//EN" "http://www.w3.org/Graphics/SVG/1.1/DTD/svg11.dtd">
<svg xmlns="http://www.w3.org/2000/svg" version="1.1" width="993px" height="579px" style="shape-rendering:geometricPrecision; text-rendering:geometricPrecision; image-rendering:optimizeQuality; fill-rule:evenodd; clip-rule:evenodd" xmlns:xlink="http://www.w3.org/1999/xlink">
<g><path style="opacity:1" fill="#2b333b" d="M -0.5,-0.5 C 330.5,-0.5 661.5,-0.5 992.5,-0.5C 992.5,192.5 992.5,385.5 992.5,578.5C 661.5,578.5 330.5,578.5 -0.5,578.5C -0.5,385.5 -0.5,192.5 -0.5,-0.5 Z"/></g>
<g><path style="opacity:1" fill="#0000a0" d="M 507.5,14.5 C 517.55,14.1687 527.55,14.6687 537.5,16C 532.336,153.755 527.669,291.589 523.5,429.5C 363.518,473.826 203.518,518.159 43.5,562.5C 38.3011,561.434 33.3011,559.767 28.5,557.5C 25.8078,392.173 23.4744,226.839 21.5,61.5C 21.8333,49.5 22.1667,37.5 22.5,25.5C 184.294,21.8446 345.961,18.178 507.5,14.5 Z"/></g>
<g><path style="opacity:1" fill="#0039a0" d="M 341.5,164.5 C 350.436,165.257 357.603,169.257 363,176.5C 372.037,187.915 377.203,200.915 378.5,215.5C 375.077,237.461 374.744,259.461 377.5,281.5C 376.107,305.223 366.44,324.723 348.5,340C 345.134,342.184 341.467,343.517 337.5,344C 330.167,344.333 322.833,344.667 315.5,345C 307.93,347.952 300.263,350.619 292.5,353C 286.165,353.666 280.499,351.999 275.5,348C 261.427,336.088 253.761,320.921 252.5,302.5C 256.043,279.881 256.377,257.214 253.5,234.5C 254.201,209.934 263.868,189.768 282.5,174C 285.382,172.392 288.382,171.059 291.5,170C 301.83,170.117 312.163,170.117 322.5,170C 328.928,168.018 335.262,166.185 341.5,164.5 Z"/></g>
<g><path style="opacity:1" fill="#0074a0" d="M 333.5,172.5 C 340.063,172.409 346.063,174.242 351.5,178C 365.581,190.832 372.914,206.832 373.5,226C 372.828,234.373 371.828,242.706 370.5,251C 375.275,275.722 370.775,298.555 357,319.5C 350.353,328.816 341.52,334.983 330.5,338C 325.495,338.082 320.495,338.082 315.5,338C 299.205,348.285 284.705,346.118 272,331.5C 258.429,311.852 254.596,290.352 260.5,267C 255.449,240.25 260.616,215.75 276,193.5C 282.204,185.65 290.038,180.15 299.5,177C 307.173,176.847 314.84,176.847 322.5,177C 326.157,175.178 329.824,173.678 333.5,172.5 Z"/></g>
<g><path style="opacity:1" fill="#00a091" d="M 331.5,177.5 C 343.156,177.245 352.322,181.911 359,191.5C 370.959,210.267 373.459,230.267 366.5,251.5C 373.22,280.791 365.887,305.958 344.5,327C 340.951,329.878 336.951,331.878 332.5,333C 326.5,332.667 320.5,332.333 314.5,332C 301.098,343.073 288.265,342.239 276,329.5C 261.296,310.298 257.796,289.131 265.5,266C 257.826,235.697 265.159,209.697 287.5,188C 291.049,185.122 295.049,183.122 299.5,182C 306.637,181.755 313.637,182.422 320.5,184C 324.23,181.807 327.897,179.64 331.5,177.5 Z"/></g>
<g><path style="opacity:1" fill="#00a258" d="M 333.5,181.5 C 343.351,182.012 351.184,186.345 357,194.5C 369.565,213.253 370.732,232.587 360.5,252.5C 362.877,257.191 364.71,262.191 366,267.5C 366.94,289.677 359.44,308.511 343.5,324C 337.546,329.323 330.879,330.489 323.5,327.5C 322.05,326.15 321.383,324.484 321.5,322.5C 318.68,322.248 316.014,322.748 313.5,324C 305.394,336.917 295.061,338.917 282.5,330C 266.426,314.784 261.593,296.617 268,275.5C 272.14,271.336 273.474,266.336 272,260.5C 270.605,258.888 269.105,257.388 267.5,256C 262.573,229.117 270.573,206.784 291.5,189C 298.425,184.59 305.425,184.424 312.5,188.5C 313.651,193.252 316.651,194.752 321.5,193C 324.023,187.581 328.023,183.748 333.5,181.5 Z"/></g>
<g><path style="opacity:1" fill="#00a01c" d="M 352.5,240.5 C 350.871,241.625 349.371,242.959 348,244.5C 346.961,243.756 346.461,242.756 346.5,241.5C 343.782,235.068 340.282,229.068 336,223.5C 333.366,221.441 330.866,219.275 328.5,217C 330.84,208.876 329.174,201.709 323.5,195.5C 329.696,185.757 337.696,183.923 347.5,190C 364.299,205.661 368.465,224.161 360,245.5C 358.636,242.637 356.47,240.637 353.5,239.5C 352.893,239.624 352.56,239.957 352.5,240.5 Z"/></g>
<g><path style="opacity:1" fill="#1ca000" d="M 334.5,190.5 C 343.903,191.293 350.737,195.96 355,204.5C 361.553,214.497 363.053,225.164 359.5,236.5C 358.252,235.96 357.085,235.293 356,234.5C 354.899,236.394 353.566,237.061 352,236.5C 351,237.167 350,237.833 349,238.5C 344.156,230.812 338.823,223.479 333,216.5C 331.759,209.274 330.592,202.274 329.5,195.5C 330.855,193.479 332.521,191.812 334.5,190.5 Z"/></g>
<g><path style="opacity:1" fill="#00a41d" d="M 296.5,189.5 C 299.85,189.335 303.183,189.502 306.5,190C 307.939,190.991 308.939,192.324 309.5,194C 311.421,194.36 313.088,195.194 314.5,196.5C 309.532,203.545 309.198,210.878 313.5,218.5C 305.487,227.855 298.987,238.188 294,249.5C 291.841,251.65 289.341,251.983 286.5,250.5C 280.789,250.683 276.789,253.35 274.5,258.5C 273.39,255.06 271.556,252.06 269,249.5C 267.053,224.394 276.22,204.394 296.5,189.5 Z"/></g>
<g><path style="opacity:1" fill="#1da400" d="M 300.5,192.5 C 303.609,193.773 306.609,195.273 309.5,197C 310.022,197.561 310.355,198.228 310.5,199C 309.756,201.155 308.756,203.155 307.5,205C 308.592,210.126 308.759,215.293 308,220.5C 302.332,228.498 297.166,236.831 292.5,245.5C 289.385,247.048 286.051,248.048 282.5,248.5C 281.833,248.167 281.167,247.833 280.5,247.5C 278.844,249.46 277.177,251.46 275.5,253.5C 269.893,244.659 269.06,235.326 273,225.5C 276.829,215.829 282.162,207.163 289,199.5C 292.263,196.037 296.097,193.704 300.5,192.5 Z"/></g>
<g><path style="opacity:1" fill="#59a400" d="M 296.5,197.5 C 300.607,197.518 304.607,198.185 308.5,199.5C 306.701,202.267 305.034,205.101 303.5,208C 304.456,209.365 305.122,210.865 305.5,212.5C 303.437,222.96 298.937,232.294 292,240.5C 289.689,242.11 287.189,243.443 284.5,244.5C 283.667,243.5 282.833,242.5 282,241.5C 280,244.167 278,246.833 276,249.5C 272.799,241.495 272.799,233.495 276,225.5C 280.411,214.275 287.244,204.942 296.5,197.5 Z"/></g>
<g><path style="opacity:1" fill="#95a400" d="M 303.5,200.5 C 304.289,200.783 304.956,201.283 305.5,202C 301.658,205.857 298.992,210.357 297.5,215.5C 298.822,215.67 299.989,215.337 301,214.5C 299.808,224.396 295.141,232.396 287,238.5C 286.667,236.5 286.333,234.5 286,232.5C 282.584,236.084 279.751,240.084 277.5,244.5C 276.473,240.495 276.639,236.495 278,232.5C 280.515,226.113 283.182,219.78 286,213.5C 291.214,208.089 297.048,203.756 303.5,200.5 Z"/></g>
<g><path style="opacity:1" fill="#00a595" d="M 318.5,197.5 C 322.606,197.482 325.106,199.482 326,203.5C 326.977,208.734 326.31,213.734 324,218.5C 319.233,220.126 315.9,218.459 314,213.5C 313.333,209.5 313.333,205.5 314,201.5C 315.397,199.93 316.897,198.596 318.5,197.5 Z"/></g>
<g><path style="opacity:1" fill="#0177a5" d="M 318.5,200.5 C 323.828,202.977 325.328,206.977 323,212.5C 321.112,214.922 319.112,214.922 317,212.5C 314.909,208.192 315.409,204.192 318.5,200.5 Z"/></g>
<g><path style="opacity:1" fill="#57a000" d="M 339.5,203.5 C 344.692,203.676 348.525,206.009 351,210.5C 351.833,214.667 352.667,218.833 353.5,223C 353.126,226.591 352.792,230.091 352.5,233.5C 348.862,233.262 346.029,231.596 344,228.5C 341.333,224.5 338.667,220.5 336,216.5C 334.438,212.986 333.605,209.319 333.5,205.5C 335.898,205.741 337.898,205.074 339.5,203.5 Z"/></g>
<g><path style="opacity:1" fill="#91a000" d="M 337.5,209.5 C 342.382,209.175 345.882,211.175 348,215.5C 350.144,220.045 350.644,224.712 349.5,229.5C 343.709,224.599 339.376,218.599 336.5,211.5C 336.863,210.817 337.196,210.15 337.5,209.5 Z"/></g>
<g><path style="opacity:1" fill="#a07400" d="M 339.5,213.5 C 342.058,212.847 344.225,213.847 346,216.5C 347.721,219.315 348.388,222.315 348,225.5C 344.497,221.853 341.663,217.853 339.5,213.5 Z"/></g>
<g><path style="opacity:1" fill="#a67900" d="M 295.5,220.5 C 296.257,224.299 294.757,227.299 291,229.5C 291.4,226.032 292.9,223.032 295.5,220.5 Z"/></g>
<g><path style="opacity:1" fill="#00a797" d="M 318.5,230.5 C 320.103,230.312 321.437,230.812 322.5,232C 321.884,234.179 320.717,236.012 319,237.5C 316.512,235.586 316.345,233.253 318.5,230.5 Z"/></g>
<g><path style="opacity:1" fill="#019854" d="M 352.5,240.5 C 353.401,241.29 354.068,242.29 354.5,243.5C 351.909,244.254 350.076,245.921 349,248.5C 346.942,253.156 347.109,257.656 349.5,262C 354.15,262.848 357.15,261.014 358.5,256.5C 358.5,257.167 358.5,257.833 358.5,258.5C 357.962,260.117 357.629,261.784 357.5,263.5C 353.811,265.529 349.977,267.195 346,268.5C 342.266,279.648 336.266,289.314 328,297.5C 328.57,304.956 326.737,311.623 322.5,317.5C 321.833,317.5 321.167,317.5 320.5,317.5C 324.922,311.744 326.088,305.411 324,298.5C 320.907,297.106 318.241,297.773 316,300.5C 311.928,305.132 310.595,310.465 312,316.5C 312.816,317.823 313.983,318.489 315.5,318.5C 314.432,319.434 313.099,319.768 311.5,319.5C 309.172,317.834 308.172,315.501 308.5,312.5C 308.874,308.335 309.874,304.335 311.5,300.5C 311.084,298.285 309.75,296.951 307.5,296.5C 307.337,294.143 307.503,291.81 308,289.5C 309.356,288.62 310.856,288.286 312.5,288.5C 312.151,285.955 312.984,283.955 315,282.5C 314.923,283.738 315.089,284.738 315.5,285.5C 318.378,282.206 322.044,280.872 326.5,281.5C 325.036,283.937 323.036,285.77 320.5,287C 323.564,289.387 326.064,288.887 328,285.5C 328.78,283.613 328.613,281.946 327.5,280.5C 327.5,279.5 327.5,278.5 327.5,277.5C 328.822,277.67 329.989,277.337 331,276.5C 332.707,274.091 333.54,271.425 333.5,268.5C 334.5,268.5 335.5,268.5 336.5,268.5C 336.626,266.8 337.293,265.3 338.5,264C 337.612,262.78 336.945,261.447 336.5,260C 338.538,256.269 339.205,252.436 338.5,248.5C 340.532,246.802 342.198,244.802 343.5,242.5C 344.417,241.873 345.417,241.539 346.5,241.5C 346.461,242.756 346.961,243.756 348,244.5C 349.371,242.959 350.871,241.625 352.5,240.5 Z"/></g>
<g><path style="opacity:1" fill="#009b8c" d="M 354.5,243.5 C 356.61,244.453 357.777,246.119 358,248.5C 358.497,251.146 358.664,253.813 358.5,256.5C 357.15,261.014 354.15,262.848 349.5,262C 347.109,257.656 346.942,253.156 349,248.5C 350.076,245.921 351.909,244.254 354.5,243.5 Z"/></g>
<g><path style="opacity:1" fill="#00709b" d="M 352.5,247.5 C 355.286,247.956 356.619,249.623 356.5,252.5C 356.452,255.598 355.119,257.932 352.5,259.5C 350.953,258.232 349.953,256.565 349.5,254.5C 350.312,252.055 351.312,249.722 352.5,247.5 Z"/></g>
<g><path style="opacity:1" fill="#00a696" d="M 305.5,252.5 C 308.084,254.419 307.75,256.086 304.5,257.5C 303.348,255.603 303.681,253.936 305.5,252.5 Z"/></g>
<g><path style="opacity:1" fill="#00a494" d="M 282.5,254.5 C 286.054,254.15 289.388,254.816 292.5,256.5C 293.248,259.497 293.915,262.497 294.5,265.5C 291.679,269.977 287.679,272.977 282.5,274.5C 277.58,273.574 275.246,270.574 275.5,265.5C 275.612,260.248 277.945,256.581 282.5,254.5 Z"/></g>
<g><path style="opacity:1" fill="#0076a4" d="M 283.5,257.5 C 288.798,259.489 289.965,263.155 287,268.5C 282.477,271.656 279.644,270.49 278.5,265C 278.831,261.52 280.498,259.02 283.5,257.5 Z"/></g>
<g><path style="opacity:1" fill="#009d1c" d="M 358.5,258.5 C 359.827,261.17 361.327,263.836 363,266.5C 365.029,274.25 364.696,281.917 362,289.5C 357.243,303.208 349.409,314.708 338.5,324C 334.928,325.405 331.261,325.738 327.5,325C 326.152,322.487 324.152,320.653 321.5,319.5C 321.863,318.817 322.196,318.15 322.5,317.5C 326.737,311.623 328.57,304.956 328,297.5C 336.266,289.314 342.266,279.648 346,268.5C 349.977,267.195 353.811,265.529 357.5,263.5C 357.629,261.784 357.962,260.117 358.5,258.5 Z"/></g>
<g><path style="opacity:1" fill="#00988a" d="M 340.5,259.5 C 341.289,259.783 341.956,260.283 342.5,261C 341.671,262.816 340.837,264.649 340,266.5C 339.444,264.115 339.61,261.782 340.5,259.5 Z"/></g>
<g><path style="opacity:1" fill="#1b9b00" d="M 357.5,263.5 C 361.226,269.804 362.392,276.804 361,284.5C 356.882,298.59 349.382,310.423 338.5,320C 336.966,320.923 335.299,321.423 333.5,321.5C 330.425,320.465 327.425,319.132 324.5,317.5C 325.667,315.833 326.833,314.167 328,312.5C 328.741,307.644 329.574,302.811 330.5,298C 337.202,290.443 342.535,281.943 346.5,272.5C 349.202,269.952 352.202,268.952 355.5,269.5C 356.167,267.5 356.833,265.5 357.5,263.5 Z"/></g>
<g><path style="opacity:1" fill="#549a00" d="M 355.5,269.5 C 356.458,269.047 357.292,268.381 358,267.5C 359.081,272.47 359.414,277.47 359,282.5C 355.431,296.37 348.264,307.87 337.5,317C 334.5,317.667 331.5,317.667 328.5,317C 328.043,316.586 327.709,316.086 327.5,315.5C 329.306,312.528 331.306,309.695 333.5,307C 332.5,306.667 331.5,306.333 330.5,306C 331.741,302.876 332.908,299.709 334,296.5C 338.76,290.232 342.927,283.566 346.5,276.5C 348.349,275.407 350.016,274.074 351.5,272.5C 352.251,273.376 352.751,274.376 353,275.5C 354.122,273.593 354.955,271.593 355.5,269.5 Z"/></g>
<g><path style="opacity:1" fill="#00a01c" d="M 307.5,296.5 C 309.75,296.951 311.084,298.285 311.5,300.5C 309.874,304.335 308.874,308.335 308.5,312.5C 308.172,315.501 309.172,317.834 311.5,319.5C 304.906,333.255 295.239,335.088 282.5,325C 269.986,312.436 265.819,297.602 270,280.5C 271.233,277.583 272.733,274.916 274.5,272.5C 275.648,274.149 276.981,275.649 278.5,277C 283.658,277.648 288.658,277.315 293.5,276C 296.56,283.959 301.226,290.793 307.5,296.5 Z"/></g>
<g><path style="opacity:1" fill="#009f90" d="M 311.5,274.5 C 313.104,275.287 313.771,276.62 313.5,278.5C 312.448,278.649 311.448,278.483 310.5,278C 311.337,276.989 311.67,275.822 311.5,274.5 Z"/></g>
<g><path style="opacity:1" fill="#8c9900" d="M 356.5,271.5 C 357.097,271.735 357.43,272.235 357.5,273C 356.074,282.277 353.241,291.111 349,299.5C 344.855,303.315 341.022,307.481 337.5,312C 335.726,312.97 333.893,313.804 332,314.5C 330.743,314.15 330.409,313.483 331,312.5C 333.868,309.264 336.368,305.764 338.5,302C 337.376,301.751 336.376,301.251 335.5,300.5C 339.247,292.665 343.747,285.332 349,278.5C 349.333,280.167 349.667,281.833 350,283.5C 352.433,279.633 354.6,275.633 356.5,271.5 Z"/></g>
<g><path style="opacity:1" fill="#1c9f00" d="M 274.5,280.5 C 275.749,281.778 277.249,282.778 279,283.5C 282.185,281.709 285.685,280.709 289.5,280.5C 293.815,283.395 296.982,287.395 299,292.5C 301.667,295.167 304.333,297.833 307,300.5C 307.241,305.98 306.407,311.313 304.5,316.5C 305.167,318.167 305.833,319.833 306.5,321.5C 301.341,328.16 295.341,328.993 288.5,324C 278.321,315.975 272.654,305.475 271.5,292.5C 271.265,288.107 272.265,284.107 274.5,280.5 Z"/></g>
<g><path style="opacity:1" fill="#009789" d="M 327.5,280.5 C 328.613,281.946 328.78,283.613 328,285.5C 326.064,288.887 323.564,289.387 320.5,287C 323.036,285.77 325.036,283.937 326.5,281.5C 327.167,281.5 327.5,281.167 327.5,280.5 Z"/></g>
<g><path style="opacity:1" fill="#569f00" d="M 283.5,284.5 C 286.32,284.248 288.986,284.748 291.5,286C 294.972,291.106 298.806,295.94 303,300.5C 305.655,305.208 304.989,309.208 301,312.5C 298.816,311.892 296.816,312.559 295,314.5C 291.013,314.166 287.68,312.5 285,309.5C 281.049,301.354 280.549,293.021 283.5,284.5 Z"/></g>
<g><path style="opacity:1" fill="#909f00" d="M 286.5,288.5 C 287.922,288.709 289.255,289.209 290.5,290C 295.353,294.519 299.02,299.853 301.5,306C 301.355,306.772 301.022,307.439 300.5,308C 295.966,309.044 292.133,307.877 289,304.5C 286.149,299.425 285.316,294.091 286.5,288.5 Z"/></g>
<g><path style="opacity:1" fill="#9e7300" d="M 288.5,293.5 C 293.056,296.225 296.389,300.059 298.5,305C 295.593,305.854 293.26,305.021 291.5,302.5C 289.736,299.785 288.736,296.785 288.5,293.5 Z"/></g>
<g><path style="opacity:1" fill="#009a8b" d="M 320.5,317.5 C 318.883,318.038 317.216,318.371 315.5,318.5C 313.983,318.489 312.816,317.823 312,316.5C 310.595,310.465 311.928,305.132 316,300.5C 318.241,297.773 320.907,297.106 324,298.5C 326.088,305.411 324.922,311.744 320.5,317.5 Z"/></g>
<g><path style="opacity:1" fill="#006f9a" d="M 319.5,302.5 C 320.496,302.414 321.329,302.748 322,303.5C 323.554,308.918 321.888,312.918 317,315.5C 315.012,314.714 313.846,313.214 313.5,311C 314.915,307.64 316.915,304.807 319.5,302.5 Z"/></g>
</svg>
