<?xml version="1.0" encoding="UTF-8"?>
<!DOCTYPE svg PUBLIC "-//W3C//DTD SVG 1.1//EN" "http://www.w3.org/Graphics/SVG/1.1/DTD/svg11.dtd">
<svg xmlns="http://www.w3.org/2000/svg" version="1.1" width="993px" height="579px" style="shape-rendering:geometricPrecision; text-rendering:geometricPrecision; image-rendering:optimizeQuality; fill-rule:evenodd; clip-rule:evenodd" xmlns:xlink="http://www.w3.org/1999/xlink">
<g><path style="opacity:1" fill="#2b333b" d="M -0.5,-0.5 C 330.5,-0.5 661.5,-0.5 992.5,-0.5C 992.5,192.5 992.5,385.5 992.5,578.5C 661.5,578.5 330.5,578.5 -0.5,578.5C -0.5,385.5 -0.5,192.5 -0.5,-0.5 Z"/></g>
<g><path style="opacity:1" fill="#0000a0" d="M 507.5,14.5 C 517.55,14.1687 527.55,14.6687 537.5,16C 532.336,153.755 527.669,291.589 523.5,429.5C 363.518,473.826 203.518,518.159 43.5,562.5C 38.3011,561.434 33.3011,559.767 28.5,557.5C 25.8078,392.173 23.4744,226.839 21.5,61.5C 21.8333,49.5 22.1667,37.5 22.5,25.5C 184.294,21.8446 345.961,18.178 507.5,14.5 Z"/></g>
<g><path style="opacity:1" fill="#0039a0" d="M 310.5,98.5 C 321.838,98.3335 333.172,98.5001 344.5,99C 355.329,101.387 365.996,104.387 376.5,108C 392.936,119.128 404.103,134.295 410,153.5C 419.882,196.744 422.215,240.41 417,284.5C 414.205,298.81 411.538,313.143 409,327.5C 402.598,349.812 391.432,369.312 375.5,386C 340.314,411.631 300.981,421.965 257.5,417C 252.777,415.804 248.443,413.804 244.5,411C 228.208,398.374 217.041,382.208 211,362.5C 198.624,303.136 198.957,243.803 212,184.5C 219.148,158.013 232.981,135.846 253.5,118C 271.427,108.02 290.427,101.52 310.5,98.5 Z"/></g>
<g><path style="opacity:1" fill="#0000a0" d="M 324.5,111.5 C 338.23,111.706 350.563,115.873 361.5,124C 392.25,150.67 408.75,184.503 411,225.5C 414.287,284.721 395.787,335.887 355.5,379C 313.259,415.112 274.759,411.612 240,368.5C 220.758,340.763 211.591,309.93 212.5,276C 212.644,228.229 227.477,185.729 257,148.5C 266.648,137.51 277.482,128.01 289.5,120C 300.783,115.095 312.45,112.262 324.5,111.5 Z"/></g>
<g><path style="opacity:1" fill="#0039a0" d="M 326.5,122.5 C 340.728,122.742 353.394,127.242 364.5,136C 387.919,157.673 401.086,184.507 404,216.5C 404.999,237.558 404.332,258.558 402,279.5C 396.494,314.679 381.328,344.845 356.5,370C 335.911,386.992 312.245,394.326 285.5,392C 268.378,386.89 254.544,377.057 244,362.5C 229.348,341.542 221.681,318.209 221,292.5C 220.938,274.149 221.605,255.816 223,237.5C 228.34,197.976 245.84,165.142 275.5,139C 290.908,128.363 307.908,122.863 326.5,122.5 Z"/></g>
<g><path style="opacity:1" fill="#0074a0" d="M 323.5,127.5 C 344.225,126.613 361.059,134.279 374,150.5C 394.2,176.103 403.366,205.27 401.5,238C 403.47,273.822 395.637,307.322 378,338.5C 369.597,350.904 359.764,362.071 348.5,372C 334.898,381.091 319.898,386.424 303.5,388C 286.983,389.939 272.65,385.272 260.5,374C 239.423,353.676 227.59,328.843 225,299.5C 224.15,279.476 224.484,259.476 226,239.5C 230.925,203.485 246.092,172.652 271.5,147C 286.535,134.268 303.868,127.768 323.5,127.5 Z"/></g>
<g><path style="opacity:1" fill="#01a192" d="M 331.5,132.5 C 343.813,132.491 354.479,136.658 363.5,145C 383.131,164.43 394.631,187.93 398,215.5C 398.093,235.166 397.759,254.833 397,274.5C 392.827,312.017 376.66,343.183 348.5,368C 342.456,372.376 335.789,375.376 328.5,377C 318.736,378.524 309.069,380.524 299.5,383C 290.283,384.196 281.616,382.529 273.5,378C 251.522,362.653 237.355,341.82 231,315.5C 229.675,307.716 228.841,299.882 228.5,292C 222.013,245.046 232.513,202.546 260,164.5C 269.563,151.81 281.729,142.643 296.5,137C 305.136,135.965 313.803,135.298 322.5,135C 325.678,134.34 328.678,133.507 331.5,132.5 Z"/></g>
<g><path style="opacity:1" fill="#00a057" d="M 363.5,243.5 C 363.298,238.296 363.631,233.129 364.5,228C 363.108,223.882 361.441,219.882 359.5,216C 359.684,211.869 360.018,207.702 360.5,203.5C 358.749,201.028 357.915,198.361 358,195.5C 359.073,194.72 360.24,194.887 361.5,196C 365.779,203.388 369.946,210.888 374,218.5C 374.813,220.436 375.313,222.436 375.5,224.5C 376.822,224.67 377.989,224.337 379,223.5C 382.005,225.002 385.171,226.002 388.5,226.5C 389.031,223.763 389.864,221.096 391,218.5C 391.082,206.404 388.082,195.071 382,184.5C 375.071,171.896 366.238,160.729 355.5,151C 349.441,145.019 342.774,144.186 335.5,148.5C 334.368,155.079 333.035,161.579 331.5,168C 333.244,172.155 335.244,176.155 337.5,180C 335.944,185.576 333.444,190.742 330,195.5C 329.175,202.062 331.342,207.562 336.5,212C 337.793,212.49 339.127,212.657 340.5,212.5C 340.993,214.806 341.326,217.139 341.5,219.5C 339.654,222.508 337.987,222.674 336.5,220C 338.319,217.944 338.985,215.777 338.5,213.5C 336.496,213.351 334.496,214.018 332.5,215.5C 330.337,215.255 328.67,214.255 327.5,212.5C 328.896,211.148 329.563,209.481 329.5,207.5C 328.426,204.04 327.426,200.54 326.5,197C 327.205,194.293 328.705,192.126 331,190.5C 331.167,188 331.333,185.5 331.5,183C 330.465,174.757 328.965,166.59 327,158.5C 326.044,157.421 325.211,156.255 324.5,155C 325.271,152.56 325.438,150.06 325,147.5C 334.751,136.622 345.251,135.789 356.5,145C 379.651,164.975 392.651,189.975 395.5,220C 395.097,227.121 392.931,233.621 389,239.5C 385.93,237.553 383.43,235.053 381.5,232C 379.833,231.667 378.167,231.333 376.5,231C 374.695,227.578 372.528,224.411 370,221.5C 366.691,228.622 364.524,235.955 363.5,243.5 Z"/></g>
<g><path style="opacity:1" fill="#10a016" d="M 363.5,243.5 C 363.5,244.5 363.5,245.5 363.5,246.5C 360.994,249.089 359.327,248.422 358.5,244.5C 357.914,244.709 357.414,245.043 357,245.5C 356.889,240.897 355.889,236.564 354,232.5C 353.581,233.672 352.915,234.672 352,235.5C 350.695,230.387 349.195,230.387 347.5,235.5C 346.604,236.506 345.938,236.506 345.5,235.5C 345.586,234.504 345.252,233.671 344.5,233C 345.667,232.5 346.5,231.667 347,230.5C 347.034,228.82 347.201,227.32 347.5,226C 345.341,224.941 343.674,223.441 342.5,221.5C 342.167,220.833 341.833,220.167 341.5,219.5C 341.326,217.139 340.993,214.806 340.5,212.5C 339.127,212.657 337.793,212.49 336.5,212C 331.342,207.562 329.175,202.062 330,195.5C 333.444,190.742 335.944,185.576 337.5,180C 335.244,176.155 333.244,172.155 331.5,168C 333.035,161.579 334.368,155.079 335.5,148.5C 342.774,144.186 349.441,145.019 355.5,151C 366.238,160.729 375.071,171.896 382,184.5C 388.082,195.071 391.082,206.404 391,218.5C 389.864,221.096 389.031,223.763 388.5,226.5C 385.171,226.002 382.005,225.002 379,223.5C 377.989,224.337 376.822,224.67 375.5,224.5C 375.313,222.436 374.813,220.436 374,218.5C 369.946,210.888 365.779,203.388 361.5,196C 360.24,194.887 359.073,194.72 358,195.5C 357.915,198.361 358.749,201.028 360.5,203.5C 360.018,207.702 359.684,211.869 359.5,216C 361.441,219.882 363.108,223.882 364.5,228C 363.631,233.129 363.298,238.296 363.5,243.5 Z"/></g>
<g><path style="opacity:1" fill="#1ca501" d="M 318.5,200.5 C 318.62,202.734 318.287,204.901 317.5,207C 318.707,209.266 320.374,211.099 322.5,212.5C 320.991,217.614 318.157,218.614 314,215.5C 311.931,216.264 309.764,216.764 307.5,217C 306.667,219.081 306.667,221.248 307.5,223.5C 309.895,225.908 309.895,228.241 307.5,230.5C 305.1,231.018 303.1,232.185 301.5,234C 298.937,235.079 296.271,235.579 293.5,235.5C 293.66,237.199 293.494,238.866 293,240.5C 290.391,243.383 288.558,246.717 287.5,250.5C 284.624,252.437 281.624,254.104 278.5,255.5C 275.918,254.589 273.918,252.923 272.5,250.5C 271.963,244.756 270.63,239.256 268.5,234C 275.853,224.965 282.02,215.132 287,204.5C 290.723,202.443 293.39,199.443 295,195.5C 295.798,193.741 295.631,192.074 294.5,190.5C 292.144,192.69 289.644,194.69 287,196.5C 286.308,195.975 285.808,195.308 285.5,194.5C 288.466,190.591 289.633,186.258 289,181.5C 279.333,187.167 271.667,194.833 266,204.5C 262.41,211.348 259.077,218.348 256,225.5C 251.122,230.075 248.289,229.075 247.5,222.5C 248.65,209.534 253.15,197.867 261,187.5C 267.767,176.232 276.933,167.565 288.5,161.5C 290.486,163.926 291.82,166.759 292.5,170C 291.116,171.957 291.783,172.957 294.5,173C 293.5,175.333 292.5,177.667 291.5,180C 294.187,180.537 296.687,180.037 299,178.5C 299.167,178.833 299.333,179.167 299.5,179.5C 297.505,182.003 296.171,184.836 295.5,188C 295.833,188.5 296.167,189 296.5,189.5C 298.63,188.533 300.63,187.366 302.5,186C 303.5,185.333 304.5,185.333 305.5,186C 308.572,188.951 311.739,191.784 315,194.5C 315.716,196.879 316.883,198.879 318.5,200.5 Z"/></g>
<g><path style="opacity:1" fill="#0077a4" d="M 318.5,163.5 C 320.903,163.393 322.736,164.393 324,166.5C 328.493,174.302 329.66,182.636 327.5,191.5C 325.045,192.91 324.045,195.077 324.5,198C 324.909,201.409 326.242,204.409 328.5,207C 326.476,209.824 324.309,209.658 322,206.5C 321.383,203.965 321.883,201.632 323.5,199.5C 318.039,193.108 314.705,185.775 313.5,177.5C 314.26,172.429 315.927,167.762 318.5,163.5 Z"/></g>
<g><path style="opacity:1" fill="#0237a3" d="M 318.5,170.5 C 322.575,170.399 325.075,172.399 326,176.5C 326.667,180.167 326.667,183.833 326,187.5C 324.652,192.958 322.318,193.625 319,189.5C 316.344,183.135 316.178,176.801 318.5,170.5 Z"/></g>
<g><path style="opacity:1" fill="#01a41f" d="M 317.5,194.5 C 317.833,196.5 318.167,198.5 318.5,200.5C 316.883,198.879 315.716,196.879 315,194.5C 311.739,191.784 308.572,188.951 305.5,186C 304.5,185.333 303.5,185.333 302.5,186C 300.63,187.366 298.63,188.533 296.5,189.5C 296.167,189 295.833,188.5 295.5,188C 296.171,184.836 297.505,182.003 299.5,179.5C 299.333,179.167 299.167,178.833 299,178.5C 296.687,180.037 294.187,180.537 291.5,180C 292.5,177.667 293.5,175.333 294.5,173C 291.783,172.957 291.116,171.957 292.5,170C 291.82,166.759 290.486,163.926 288.5,161.5C 276.933,167.565 267.767,176.232 261,187.5C 253.15,197.867 248.65,209.534 247.5,222.5C 248.289,229.075 251.122,230.075 256,225.5C 259.077,218.348 262.41,211.348 266,204.5C 271.667,194.833 279.333,187.167 289,181.5C 289.633,186.258 288.466,190.591 285.5,194.5C 285.808,195.308 286.308,195.975 287,196.5C 289.644,194.69 292.144,192.69 294.5,190.5C 295.631,192.074 295.798,193.741 295,195.5C 293.39,199.443 290.723,202.443 287,204.5C 282.02,215.132 275.853,224.965 268.5,234C 270.63,239.256 271.963,244.756 272.5,250.5C 273.918,252.923 275.918,254.589 278.5,255.5C 281.624,254.104 284.624,252.437 287.5,250.5C 288.558,246.717 290.391,243.383 293,240.5C 293.494,238.866 293.66,237.199 293.5,235.5C 296.271,235.579 298.937,235.079 301.5,234C 303.1,232.185 305.1,231.018 307.5,230.5C 309.895,228.241 309.895,225.908 307.5,223.5C 308.117,223.389 308.617,223.056 309,222.5C 309.757,224.315 310.59,225.981 311.5,227.5C 311.257,230.263 310.757,233.263 310,236.5C 307.201,239.053 308.034,240.72 312.5,241.5C 313.29,242.794 314.29,243.961 315.5,245C 313.251,245.863 311.418,245.363 310,243.5C 309.252,245.332 308.252,246.999 307,248.5C 306.735,246.837 307.235,245.337 308.5,244C 307.437,242.812 306.103,242.312 304.5,242.5C 304.626,240.8 305.293,239.3 306.5,238C 305.591,235.681 303.925,235.014 301.5,236C 295.749,239.101 292.249,243.934 291,250.5C 292.401,253.798 292.568,255.798 291.5,256.5C 289.39,254.981 287.224,254.314 285,254.5C 283.274,254.946 281.774,255.779 280.5,257C 278.833,257.667 277.167,257.667 275.5,257C 271.383,252.594 267.383,248.094 263.5,243.5C 260.575,246.352 257.242,247.018 253.5,245.5C 251.81,242.976 249.643,240.976 247,239.5C 245.921,241.394 244.587,241.727 243,240.5C 242.222,235.223 241.055,230.056 239.5,225C 246.564,198.866 259.564,176.199 278.5,157C 282.281,153.791 286.614,151.625 291.5,150.5C 294.289,152.308 297.122,153.975 300,155.5C 302.38,161.753 304.88,167.92 307.5,174C 306.208,177.221 306.374,180.387 308,183.5C 311.032,187.359 314.198,191.026 317.5,194.5 Z"/></g>
<g><path style="opacity:1" fill="#69a900" d="M 315.5,204.5 C 314.545,206.746 313.878,209.079 313.5,211.5C 311.856,211.714 310.356,211.38 309,210.5C 306.309,213.401 303.142,214.234 299.5,213C 297.329,214.174 296.329,216.007 296.5,218.5C 298.199,218.34 299.866,218.506 301.5,219C 303.94,220.774 305.606,223.108 306.5,226C 303.022,227.814 300.188,230.314 298,233.5C 295.379,232.689 293.045,231.355 291,229.5C 290.5,230 290,230.5 289.5,231C 292.861,235.872 292.027,239.706 287,242.5C 286.204,247.963 283.204,251.63 278,253.5C 275.67,250.541 275.004,247.207 276,243.5C 277.221,242.226 278.054,240.726 278.5,239C 277.938,235.684 276.938,232.517 275.5,229.5C 278.493,222.845 281.993,216.512 286,210.5C 290.041,205.427 295.207,202.593 301.5,202C 303.787,199.93 305.453,197.43 306.5,194.5C 307.628,193.738 308.795,193.071 310,192.5C 314.232,195.758 316.065,199.758 315.5,204.5 Z"/></g>
<g><path style="opacity:1" fill="#929d00" d="M 357.5,219.5 C 358.079,223.238 358.079,226.904 357.5,230.5C 356.675,228.64 355.675,226.974 354.5,225.5C 353.281,221.76 351.781,218.093 350,214.5C 348.921,212.606 347.587,212.273 346,213.5C 343.221,210.045 339.888,207.379 336,205.5C 335.035,202.637 335.702,200.304 338,198.5C 348.163,201.334 354.163,208.001 356,218.5C 356.383,219.056 356.883,219.389 357.5,219.5 Z"/></g>
<g><path style="opacity:1" fill="#9da000" d="M 315.5,204.5 C 314.215,206.062 312.715,207.396 311,208.5C 308.257,205.698 305.923,206.031 304,209.5C 303.5,209 303,208.5 302.5,208C 303.858,203.478 306.525,199.978 310.5,197.5C 313.745,198.74 315.412,201.073 315.5,204.5 Z"/></g>
<g><path style="opacity:1" fill="#609f00" d="M 357.5,219.5 C 356.883,219.389 356.383,219.056 356,218.5C 354.163,208.001 348.163,201.334 338,198.5C 335.702,200.304 335.035,202.637 336,205.5C 339.888,207.379 343.221,210.045 346,213.5C 347.587,212.273 348.921,212.606 350,214.5C 351.781,218.093 353.281,221.76 354.5,225.5C 353.065,226.79 352.065,228.456 351.5,230.5C 349.297,228.705 348.131,226.371 348,223.5C 345.086,222.252 343.253,220.086 342.5,217C 342.905,216.055 343.572,215.388 344.5,215C 343.874,214.25 343.374,213.416 343,212.5C 340.035,210.854 337.368,208.854 335,206.5C 331.367,200.412 333.034,196.412 340,194.5C 342.392,197.57 345.559,199.403 349.5,200C 353.942,205.725 356.609,212.225 357.5,219.5 Z"/></g>
<g><path style="opacity:1" fill="#a87900" d="M 289.5,213.5 C 290.139,214.097 290.472,214.93 290.5,216C 289.815,218.54 288.981,221.04 288,223.5C 287.092,225.439 285.592,226.439 283.5,226.5C 284.153,221.528 286.153,217.195 289.5,213.5 Z"/></g>
<g><path style="opacity:1" fill="#05b567" d="M 317.5,194.5 C 318.864,196.22 319.864,198.22 320.5,200.5C 319.242,202.648 319.242,204.815 320.5,207C 322.145,208.645 323.812,210.312 325.5,212C 324.035,214.43 322.702,216.93 321.5,219.5C 320.264,220.246 318.93,220.579 317.5,220.5C 317.116,222.929 316.449,225.263 315.5,227.5C 314.5,227.5 313.5,227.5 312.5,227.5C 312.167,227.5 311.833,227.5 311.5,227.5C 310.59,225.981 309.757,224.315 309,222.5C 308.617,223.056 308.117,223.389 307.5,223.5C 306.667,221.248 306.667,219.081 307.5,217C 309.764,216.764 311.931,216.264 314,215.5C 318.157,218.614 320.991,217.614 322.5,212.5C 320.374,211.099 318.707,209.266 317.5,207C 318.287,204.901 318.62,202.734 318.5,200.5C 318.167,198.5 317.833,196.5 317.5,194.5 Z"/></g>
<g><path style="opacity:1" fill="#12bf57" d="M 327.5,217.5 C 330.97,218.78 332.97,220.947 333.5,224C 331.765,224.651 330.098,224.485 328.5,223.5C 327.772,221.807 326.772,220.307 325.5,219C 326.416,218.722 327.082,218.222 327.5,217.5 Z"/></g>
<g><path style="opacity:1" fill="#01709c" d="M 358.5,250.5 C 358.369,249.761 358.536,249.094 359,248.5C 361.501,250.056 363.001,249.389 363.5,246.5C 363.833,246.5 364.167,246.5 364.5,246.5C 363.361,249.425 362.861,252.425 363,255.5C 367.032,253.181 370.366,254.181 373,258.5C 381.435,251.691 381.601,244.524 373.5,237C 372.833,236.333 372.167,236.333 371.5,237C 368.879,239.114 366.879,241.614 365.5,244.5C 365.169,238.73 367.169,234.063 371.5,230.5C 374.845,234.345 378.345,238.011 382,241.5C 382.952,247.362 382.285,253.028 380,258.5C 377.07,259.886 374.903,262.052 373.5,265C 372.833,265.667 372.167,265.667 371.5,265C 369.403,262.447 367.07,260.114 364.5,258C 362.291,256.309 360.458,256.476 359,258.5C 358.503,255.854 358.336,253.187 358.5,250.5 Z"/></g>
<g><path style="opacity:1" fill="#1cab6b" d="M 342.5,221.5 C 343.674,223.441 345.341,224.941 347.5,226C 347.201,227.32 347.034,228.82 347,230.5C 346.5,231.667 345.667,232.5 344.5,233C 345.252,233.671 345.586,234.504 345.5,235.5C 345.062,237.638 344.895,239.972 345,242.5C 343.758,243.872 342.258,244.872 340.5,245.5C 338.894,243.488 337.727,241.155 337,238.5C 336.505,240.473 336.338,242.473 336.5,244.5C 335.167,244.5 333.833,244.5 332.5,244.5C 332.44,243.957 332.107,243.624 331.5,243.5C 328.885,246.426 326.885,249.759 325.5,253.5C 323.18,255.226 320.513,255.893 317.5,255.5C 316.833,255.5 316.5,255.167 316.5,254.5C 317.1,253.1 318.1,252.1 319.5,251.5C 319.5,250.833 319.5,250.167 319.5,249.5C 320.602,245.752 320.602,241.752 319.5,237.5C 320.901,237.971 322.234,238.638 323.5,239.5C 322.754,240.736 322.421,242.07 322.5,243.5C 324.792,243.244 326.959,243.577 329,244.5C 329.667,243.5 329.667,242.5 329,241.5C 328.667,241.833 328.333,242.167 328,242.5C 326.933,241.809 325.766,241.309 324.5,241C 325.097,239.938 325.43,238.772 325.5,237.5C 325.66,235.645 324.993,234.312 323.5,233.5C 323.489,231.983 322.823,230.816 321.5,230C 324.249,228.654 324.583,227.32 322.5,226C 326.944,224.625 330.277,225.959 332.5,230C 333.872,230.402 335.205,230.902 336.5,231.5C 336.998,230.397 337.331,229.397 337.5,228.5C 338.816,231.028 339.983,231.028 341,228.5C 344.11,229.673 344.277,229.173 341.5,227C 342.406,225.301 342.739,223.467 342.5,221.5 Z"/></g>
<g><path style="opacity:1" fill="#16cd43" d="M 317.5,230.5 C 319.374,231.642 321.207,232.975 323,234.5C 323.399,234.272 323.565,233.938 323.5,233.5C 324.993,234.312 325.66,235.645 325.5,237.5C 325.43,238.772 325.097,239.938 324.5,241C 325.766,241.309 326.933,241.809 328,242.5C 328.333,242.167 328.667,241.833 329,241.5C 329.667,242.5 329.667,243.5 329,244.5C 326.959,243.577 324.792,243.244 322.5,243.5C 322.421,242.07 322.754,240.736 323.5,239.5C 322.234,238.638 320.901,237.971 319.5,237.5C 316.886,237.075 314.886,235.742 313.5,233.5C 314.283,231.712 315.616,230.712 317.5,230.5 Z"/></g>
<g><path style="opacity:1" fill="#00379d" d="M 364.5,246.5 C 365.338,246.158 365.672,245.492 365.5,244.5C 366.879,241.614 368.879,239.114 371.5,237C 372.167,236.333 372.833,236.333 373.5,237C 381.601,244.524 381.435,251.691 373,258.5C 370.366,254.181 367.032,253.181 363,255.5C 362.861,252.425 363.361,249.425 364.5,246.5 Z"/></g>
<g><path style="opacity:1" fill="#00009e" d="M 371.5,241.5 C 374.05,241.884 375.383,243.384 375.5,246C 373.351,251.932 371.684,251.599 370.5,245C 370.648,243.744 370.982,242.577 371.5,241.5 Z"/></g>
<g><path style="opacity:1" fill="#11d1be" d="M 317.5,230.5 C 315.616,230.712 314.283,231.712 313.5,233.5C 314.886,235.742 316.886,237.075 319.5,237.5C 320.602,241.752 320.602,245.752 319.5,249.5C 318.425,248.438 317.425,248.438 316.5,249.5C 317.005,250.919 318.005,251.585 319.5,251.5C 318.1,252.1 317.1,253.1 316.5,254.5C 313.888,253.723 312.055,252.056 311,249.5C 309.519,250.471 308.685,251.804 308.5,253.5C 306.896,252.713 306.229,251.38 306.5,249.5C 304.058,249.646 303.391,248.813 304.5,247C 302.939,246.682 301.772,245.849 301,244.5C 299.414,245.376 297.914,246.376 296.5,247.5C 295.114,243.839 296.447,241.506 300.5,240.5C 301.192,241.025 301.692,241.692 302,242.5C 302.77,241.402 303.603,241.402 304.5,242.5C 306.103,242.312 307.437,242.812 308.5,244C 307.235,245.337 306.735,246.837 307,248.5C 308.252,246.999 309.252,245.332 310,243.5C 311.418,245.363 313.251,245.863 315.5,245C 314.29,243.961 313.29,242.794 312.5,241.5C 308.034,240.72 307.201,239.053 310,236.5C 310.757,233.263 311.257,230.263 311.5,227.5C 311.833,227.5 312.167,227.5 312.5,227.5C 312.281,228.675 312.614,229.675 313.5,230.5C 315.55,229.923 316.55,228.59 316.5,226.5C 317.5,226.5 318.5,226.5 319.5,226.5C 319.843,228.483 319.176,229.817 317.5,230.5 Z"/></g>
<g><path style="opacity:1" fill="#0076a3" d="M 260.5,255.5 C 263.528,257.14 266.861,257.974 270.5,258C 272.587,258.792 274.421,259.959 276,261.5C 279.363,260.105 282.863,260.605 286.5,263C 287.724,265.39 288.224,267.89 288,270.5C 287.586,270.957 287.086,271.291 286.5,271.5C 282.401,269.175 278.401,269.508 274.5,272.5C 271.628,277.452 267.294,279.952 261.5,280C 249.752,280.251 245.585,274.751 249,263.5C 252.503,260.193 256.337,257.527 260.5,255.5 Z"/></g>
<g><path style="opacity:1" fill="#003aa3" d="M 268.5,260.5 C 271.407,260.575 274.073,261.409 276.5,263C 278.036,264.599 278.536,266.433 278,268.5C 272.544,271.625 266.877,274.291 261,276.5C 254.31,272.33 253.81,267.497 259.5,262C 262.695,261.819 265.695,261.319 268.5,260.5 Z"/></g>
<g><path style="opacity:1" fill="#0000a2" d="M 264.5,265.5 C 269.188,266.107 269.522,267.941 265.5,271C 264.207,271.49 262.873,271.657 261.5,271.5C 261.028,268.642 262.028,266.642 264.5,265.5 Z"/></g>
<g><path style="opacity:1" fill="#019f56" d="M 317.5,194.5 C 314.198,191.026 311.032,187.359 308,183.5C 306.374,180.387 306.208,177.221 307.5,174C 304.88,167.92 302.38,161.753 300,155.5C 297.122,153.975 294.289,152.308 291.5,150.5C 286.614,151.625 282.281,153.791 278.5,157C 259.564,176.199 246.564,198.866 239.5,225C 241.055,230.056 242.222,235.223 243,240.5C 244.587,241.727 245.921,241.394 247,239.5C 249.643,240.976 251.81,242.976 253.5,245.5C 257.242,247.018 260.575,246.352 263.5,243.5C 267.383,248.094 271.383,252.594 275.5,257C 277.167,257.667 278.833,257.667 280.5,257C 281.774,255.779 283.274,254.946 285,254.5C 287.224,254.314 289.39,254.981 291.5,256.5C 292.568,255.798 292.401,253.798 291,250.5C 292.249,243.934 295.749,239.101 301.5,236C 303.925,235.014 305.591,235.681 306.5,238C 305.293,239.3 304.626,240.8 304.5,242.5C 303.603,241.402 302.77,241.402 302,242.5C 301.692,241.692 301.192,241.025 300.5,240.5C 296.447,241.506 295.114,243.839 296.5,247.5C 297.914,246.376 299.414,245.376 301,244.5C 301.772,245.849 302.939,246.682 304.5,247C 303.391,248.813 304.058,249.646 306.5,249.5C 306.229,251.38 306.896,252.713 308.5,253.5C 309.492,253.328 310.158,253.662 310.5,254.5C 310.646,256.942 309.813,257.609 308,256.5C 305.993,257.669 303.827,258.335 301.5,258.5C 301.5,259.5 301.5,260.5 301.5,261.5C 301.276,259.245 299.942,257.245 297.5,255.5C 295.115,258.245 295.115,261.078 297.5,264C 296.21,266.292 294.543,268.292 292.5,270C 295.902,275.986 299.069,275.819 302,269.5C 302.2,271.32 303.034,272.653 304.5,273.5C 304.082,274.222 303.416,274.722 302.5,275C 303.856,277.414 303.522,279.581 301.5,281.5C 303.641,282.755 304.307,284.422 303.5,286.5C 301.187,287.273 298.854,287.94 296.5,288.5C 295.201,287.91 294.368,286.91 294,285.5C 293.793,281.911 293.293,278.411 292.5,275C 290.945,275.425 289.445,276.258 288,277.5C 286.225,276.73 284.725,275.563 283.5,274C 282.167,273.333 280.833,273.333 279.5,274C 276.365,279.146 273.198,284.313 270,289.5C 270.602,294.174 271.602,298.84 273,303.5C 275.328,309.78 278.328,315.78 282,321.5C 282.333,321.167 282.667,320.833 283,320.5C 285.405,321.274 287.905,321.774 290.5,322C 292.961,324.66 295.961,326.494 299.5,327.5C 300.646,326.855 301.646,326.022 302.5,325C 312.216,325.271 316.383,320.437 315,310.5C 308.556,307.622 307.723,303.455 312.5,298C 314.167,297.667 315.833,297.333 317.5,297C 316.849,295.692 317.515,294.859 319.5,294.5C 319.689,298.522 321.023,298.522 323.5,294.5C 324.874,294.208 326.207,293.875 327.5,293.5C 328.478,293.811 329.145,294.478 329.5,295.5C 326.898,296.435 324.898,298.102 323.5,300.5C 324.167,300.833 324.833,301.167 325.5,301.5C 327.703,300.233 330.037,299.233 332.5,298.5C 336.148,295.842 339.482,292.842 342.5,289.5C 342.4,290.465 342.734,291.632 343.5,293C 342.66,294.171 341.827,295.338 341,296.5C 340.683,294.699 340.016,294.366 339,295.5C 339,296.833 339,298.167 339,299.5C 333.52,301.81 330.02,305.81 328.5,311.5C 326.008,316.289 326.508,320.956 330,325.5C 331.699,324.594 333.533,324.261 335.5,324.5C 335.38,326.734 335.713,328.901 336.5,331C 334.581,336.599 332.914,342.265 331.5,348C 332.344,350.433 332.677,352.767 332.5,355C 331.5,356.667 330.5,358.333 329.5,360C 329.905,360.945 330.572,361.612 331.5,362C 343.314,362.342 352.48,357.508 359,347.5C 368.354,334.129 376.687,320.129 384,305.5C 387.74,297.544 389.073,289.211 388,280.5C 387.148,277.623 385.981,274.957 384.5,272.5C 379.215,274.698 376.048,278.698 375,284.5C 373.667,285.833 372.333,287.167 371,288.5C 368.163,298.349 364.163,307.682 359,316.5C 356.876,317.622 355.043,319.122 353.5,321C 352.365,321.749 351.365,321.583 350.5,320.5C 351.681,318.802 351.681,317.135 350.5,315.5C 349.522,315.977 348.689,316.643 348,317.5C 349.205,312.423 351.538,307.756 355,303.5C 358.355,295.955 361.855,288.455 365.5,281C 362.24,277.964 361.574,274.297 363.5,270C 363.278,267.056 362.611,264.223 361.5,261.5C 358.11,264.32 356.443,267.986 356.5,272.5C 355.883,272.611 355.383,272.944 355,273.5C 354.998,270.949 354.164,268.949 352.5,267.5C 352.336,262.466 352.669,257.466 353.5,252.5C 352.813,250.847 352.146,249.181 351.5,247.5C 351.674,244.155 350.341,242.988 347.5,244C 347.833,243.667 348.167,243.333 348.5,243C 347.692,242.692 347.025,242.192 346.5,241.5C 346.744,239.45 347.077,237.45 347.5,235.5C 349.195,230.387 350.695,230.387 352,235.5C 352.915,234.672 353.581,233.672 354,232.5C 355.889,236.564 356.889,240.897 357,245.5C 357.414,245.043 357.914,244.709 358.5,244.5C 359.327,248.422 360.994,249.089 363.5,246.5C 363.001,249.389 361.501,250.056 359,248.5C 358.536,249.094 358.369,249.761 358.5,250.5C 357.362,253.304 357.195,256.304 358,259.5C 359.707,260.138 361.54,260.138 363.5,259.5C 363.491,261.308 363.991,262.975 365,264.5C 367.392,267.228 369.392,270.228 371,273.5C 372.714,272.075 374.047,272.408 375,274.5C 378.463,270.351 381.13,265.684 383,260.5C 384,259.167 385,259.167 386,260.5C 387.275,258.283 388.275,255.949 389,253.5C 394.617,268.007 394.95,282.673 390,297.5C 382.544,322.594 369.377,344.094 350.5,362C 340.003,371.197 328.67,372.531 316.5,366C 320.231,364.507 321.898,362.007 321.5,358.5C 326.41,353.553 328.91,347.553 329,340.5C 330.544,338.532 331.711,336.365 332.5,334C 331.069,330.573 328.902,327.74 326,325.5C 325.797,321.579 325.297,317.745 324.5,314C 325.257,312.488 326.257,311.154 327.5,310C 324.407,308.173 321.407,308.506 318.5,311C 317.748,311.671 317.414,312.504 317.5,313.5C 316.493,316.322 315.66,319.322 315,322.5C 310.382,325.45 306.048,328.784 302,332.5C 299.748,338.493 301.081,343.493 306,347.5C 305.73,355.451 308.564,361.951 314.5,367C 311.319,369.092 308.319,371.425 305.5,374C 295.849,379.739 286.183,379.739 276.5,374C 251.325,356.837 236.992,333.004 233.5,302.5C 233.615,294.423 235.449,286.757 239,279.5C 242.055,281.519 245.222,283.352 248.5,285C 252.997,283.813 257.164,284.646 261,287.5C 261.667,286.833 262.333,286.167 263,285.5C 264.388,286.554 265.888,286.72 267.5,286C 270.896,282.468 273.562,278.468 275.5,274C 279.595,270.716 283.429,270.882 287,274.5C 289.928,273.24 291.761,271.073 292.5,268C 290.114,266.113 288.947,263.613 289,260.5C 287.745,259.789 286.579,258.956 285.5,258C 282.127,258.129 278.794,258.462 275.5,259C 272.872,257.374 270.539,255.374 268.5,253C 265.443,253.107 263.109,251.94 261.5,249.5C 258.345,254.285 254.845,254.618 251,250.5C 246.779,252.721 242.946,255.388 239.5,258.5C 233.877,249.327 232.043,239.327 234,228.5C 240.701,199.842 254.201,175.009 274.5,154C 279.865,149.316 285.865,145.65 292.5,143C 296.625,142.146 300.625,142.48 304.5,144C 306.076,146.077 308.076,147.577 310.5,148.5C 313.046,153.866 313.046,159.199 310.5,164.5C 311.787,168.671 311.787,172.838 310.5,177C 311.054,179.824 311.554,182.657 312,185.5C 314.358,188.222 316.191,191.222 317.5,194.5 Z"/></g>
<g><path style="opacity:1" fill="#2aad13" d="M 315.5,277.5 C 315.229,279.38 315.896,280.713 317.5,281.5C 317.5,282.167 317.5,282.833 317.5,283.5C 317.092,284.643 316.425,285.643 315.5,286.5C 314.915,284.135 313.748,282.135 312,280.5C 311.219,279.056 311.386,277.723 312.5,276.5C 313.213,278.435 314.213,278.768 315.5,277.5 Z"/></g>
<g><path style="opacity:1" fill="#0b9e97" d="M 319.5,273.5 C 319.599,276.76 321.099,279.093 324,280.5C 325.03,280.164 325.53,279.497 325.5,278.5C 327.216,278.629 328.883,278.962 330.5,279.5C 327.548,281.41 324.214,282.41 320.5,282.5C 319.791,281.596 318.791,281.263 317.5,281.5C 315.896,280.713 315.229,279.38 315.5,277.5C 315.5,276.833 315.5,276.167 315.5,275.5C 316.692,274.434 316.359,273.601 314.5,273C 316.387,272.22 318.054,272.387 319.5,273.5 Z"/></g>
<g><path style="opacity:1" fill="#106da8" d="M 319.5,273.5 C 321.798,274.797 323.798,276.463 325.5,278.5C 325.53,279.497 325.03,280.164 324,280.5C 321.099,279.093 319.599,276.76 319.5,273.5 Z"/></g>
<g><path style="opacity:1" fill="#0b9d16" d="M 328.5,311.5 C 329.458,311.047 330.292,310.381 331,309.5C 331.167,310 331.333,310.5 331.5,311C 328.802,312.425 328.136,314.425 329.5,317C 332.025,317.896 334.192,317.396 336,315.5C 337.224,310.832 339.724,307.832 343.5,306.5C 342.96,307.748 342.293,308.915 341.5,310C 342.931,310.465 344.097,311.299 345,312.5C 352.32,304.533 356.32,295.2 357,284.5C 356.026,286.878 355.359,286.544 355,283.5C 354.085,284.328 353.419,285.328 353,286.5C 352.08,286.07 351.247,285.736 350.5,285.5C 354.033,281.912 356.033,277.579 356.5,272.5C 356.443,267.986 358.11,264.32 361.5,261.5C 362.611,264.223 363.278,267.056 363.5,270C 361.574,274.297 362.24,277.964 365.5,281C 361.855,288.455 358.355,295.955 355,303.5C 351.538,307.756 349.205,312.423 348,317.5C 348.689,316.643 349.522,315.977 350.5,315.5C 351.681,317.135 351.681,318.802 350.5,320.5C 351.365,321.583 352.365,321.749 353.5,321C 355.043,319.122 356.876,317.622 359,316.5C 364.163,307.682 368.163,298.349 371,288.5C 372.333,287.167 373.667,285.833 375,284.5C 376.048,278.698 379.215,274.698 384.5,272.5C 385.981,274.957 387.148,277.623 388,280.5C 389.073,289.211 387.74,297.544 384,305.5C 376.687,320.129 368.354,334.129 359,347.5C 352.48,357.508 343.314,362.342 331.5,362C 330.572,361.612 329.905,360.945 329.5,360C 330.5,358.333 331.5,356.667 332.5,355C 332.677,352.767 332.344,350.433 331.5,348C 332.914,342.265 334.581,336.599 336.5,331C 335.713,328.901 335.38,326.734 335.5,324.5C 333.533,324.261 331.699,324.594 330,325.5C 326.508,320.956 326.008,316.289 328.5,311.5 Z"/></g>
<g><path style="opacity:1" fill="#0075a2" d="M 346.5,279.5 C 345.735,279.923 344.902,280.257 344,280.5C 342.34,279.171 340.507,278.171 338.5,277.5C 336.55,278.372 334.55,279.039 332.5,279.5C 332.544,276.684 333.544,274.351 335.5,272.5C 338.342,275.283 340.842,274.95 343,271.5C 343.692,272.025 344.192,272.692 344.5,273.5C 343.754,274.736 343.421,276.07 343.5,277.5C 345.179,277.285 346.179,277.952 346.5,279.5 Z"/></g>
<g><path style="opacity:1" fill="#119395" d="M 328.5,265.5 C 328.663,267.857 328.497,270.19 328,272.5C 327.282,271.549 326.449,271.383 325.5,272C 326.71,273.039 327.71,274.206 328.5,275.5C 326.883,274.962 325.216,274.629 323.5,274.5C 323.33,273.178 323.663,272.011 324.5,271C 323.285,268.904 322.451,269.071 322,271.5C 321.333,270.167 321.333,268.833 322,267.5C 322.741,268.641 323.575,268.641 324.5,267.5C 325.167,268.5 325.833,269.5 326.5,270.5C 327.17,268.709 327.837,267.042 328.5,265.5 Z"/></g>
<g><path style="opacity:1" fill="#22ab50" d="M 314.5,259.5 C 314.97,261.586 316.47,263.586 319,265.5C 319.667,264.833 320.333,264.167 321,263.5C 322.529,264.583 324.029,265.583 325.5,266.5C 326.281,265.271 326.781,263.938 327,262.5C 327.278,263.416 327.778,264.082 328.5,264.5C 328.5,264.833 328.5,265.167 328.5,265.5C 327.837,267.042 327.17,268.709 326.5,270.5C 325.833,269.5 325.167,268.5 324.5,267.5C 323.575,268.641 322.741,268.641 322,267.5C 321.333,268.833 321.333,270.167 322,271.5C 322.451,269.071 323.285,268.904 324.5,271C 323.663,272.011 323.33,273.178 323.5,274.5C 325.216,274.629 326.883,274.962 328.5,275.5C 329.167,276.833 329.833,278.167 330.5,279.5C 328.883,278.962 327.216,278.629 325.5,278.5C 323.798,276.463 321.798,274.797 319.5,273.5C 318.054,272.387 316.387,272.22 314.5,273C 316.359,273.601 316.692,274.434 315.5,275.5C 314.178,275.67 313.011,275.337 312,274.5C 310.407,276.285 308.907,276.452 307.5,275C 308.571,274.148 309.571,273.315 310.5,272.5C 310.07,271.579 308.736,271.079 306.5,271C 307.93,266.625 306.596,265.125 302.5,266.5C 302.634,264.708 302.301,263.042 301.5,261.5C 304.005,260.583 306.338,260.583 308.5,261.5C 308.935,263.297 308.935,265.297 308.5,267.5C 310.451,267.227 311.951,267.893 313,269.5C 314.405,266.381 314.905,263.048 314.5,259.5 Z"/></g>
<g><path style="opacity:1" fill="#03b7a8" d="M 301.5,261.5 C 302.301,263.042 302.634,264.708 302.5,266.5C 306.596,265.125 307.93,266.625 306.5,271C 308.736,271.079 310.07,271.579 310.5,272.5C 308.435,272.517 306.435,272.85 304.5,273.5C 303.034,272.653 302.2,271.32 302,269.5C 299.069,275.819 295.902,275.986 292.5,270C 294.543,268.292 296.21,266.292 297.5,264C 295.115,261.078 295.115,258.245 297.5,255.5C 299.942,257.245 301.276,259.245 301.5,261.5 Z"/></g>
<g><path style="opacity:1" fill="#1775bb" d="M 316.5,254.5 C 316.5,255.167 316.833,255.5 317.5,255.5C 315.771,256.236 314.771,257.57 314.5,259.5C 314.905,263.048 314.405,266.381 313,269.5C 311.951,267.893 310.451,267.227 308.5,267.5C 308.935,265.297 308.935,263.297 308.5,261.5C 309.708,260.766 311.041,260.433 312.5,260.5C 312.975,257.918 312.308,255.918 310.5,254.5C 310.158,253.662 309.492,253.328 308.5,253.5C 308.685,251.804 309.519,250.471 311,249.5C 312.055,252.056 313.888,253.723 316.5,254.5 Z"/></g>
<g><path style="opacity:1" fill="#17a089" d="M 328.5,264.5 C 327.778,264.082 327.278,263.416 327,262.5C 326.781,263.938 326.281,265.271 325.5,266.5C 324.029,265.583 322.529,264.583 321,263.5C 320.333,264.167 319.667,264.833 319,265.5C 316.47,263.586 314.97,261.586 314.5,259.5C 314.771,257.57 315.771,256.236 317.5,255.5C 320.513,255.893 323.18,255.226 325.5,253.5C 326.735,253.279 327.735,252.612 328.5,251.5C 329.811,255.984 329.811,260.317 328.5,264.5 Z"/></g>
<g><path style="opacity:1" fill="#08c8b7" d="M 310.5,254.5 C 312.308,255.918 312.975,257.918 312.5,260.5C 311.041,260.433 309.708,260.766 308.5,261.5C 306.338,260.583 304.005,260.583 301.5,261.5C 301.5,260.5 301.5,259.5 301.5,258.5C 303.827,258.335 305.993,257.669 308,256.5C 309.813,257.609 310.646,256.942 310.5,254.5 Z"/></g>
<g><path style="opacity:1" fill="#004ad3" d="M 319.5,249.5 C 319.5,250.167 319.5,250.833 319.5,251.5C 318.005,251.585 317.005,250.919 316.5,249.5C 317.425,248.438 318.425,248.438 319.5,249.5 Z"/></g>
<g><path style="opacity:1" fill="#056e9e" d="M 332.5,244.5 C 332.146,247.421 333.146,249.754 335.5,251.5C 330.663,258.56 329.33,266.06 331.5,274C 330.327,275.826 330.327,277.659 331.5,279.5C 331.167,279.5 330.833,279.5 330.5,279.5C 329.833,278.167 329.167,276.833 328.5,275.5C 327.71,274.206 326.71,273.039 325.5,272C 326.449,271.383 327.282,271.549 328,272.5C 328.497,270.19 328.663,267.857 328.5,265.5C 328.5,265.167 328.5,264.833 328.5,264.5C 329.811,260.317 329.811,255.984 328.5,251.5C 327.735,252.612 326.735,253.279 325.5,253.5C 326.885,249.759 328.885,246.426 331.5,243.5C 332.107,243.624 332.44,243.957 332.5,244.5 Z"/></g>
<g><path style="opacity:1" fill="#0c6f9d" d="M 345.5,235.5 C 345.938,236.506 346.604,236.506 347.5,235.5C 347.077,237.45 346.744,239.45 346.5,241.5C 347.025,242.192 347.692,242.692 348.5,243C 348.167,243.333 347.833,243.667 347.5,244C 350.341,242.988 351.674,244.155 351.5,247.5C 348.476,247.947 348.143,248.78 350.5,250C 349.809,251.067 349.309,252.234 349,253.5C 348.323,251.311 347.156,250.978 345.5,252.5C 344.833,253.833 344.167,255.167 343.5,256.5C 341.793,252.963 342.46,249.463 345.5,246C 343.284,246.687 340.951,247.52 338.5,248.5C 337.295,247.423 336.628,246.09 336.5,244.5C 336.338,242.473 336.505,240.473 337,238.5C 337.727,241.155 338.894,243.488 340.5,245.5C 342.258,244.872 343.758,243.872 345,242.5C 344.895,239.972 345.062,237.638 345.5,235.5 Z"/></g>
<g><path style="opacity:1" fill="#053ca1" d="M 332.5,244.5 C 333.833,244.5 335.167,244.5 336.5,244.5C 336.628,246.09 337.295,247.423 338.5,248.5C 340.951,247.52 343.284,246.687 345.5,246C 342.46,249.463 341.793,252.963 343.5,256.5C 344.167,255.167 344.833,253.833 345.5,252.5C 347.156,250.978 348.323,251.311 349,253.5C 349.309,252.234 349.809,251.067 350.5,250C 348.143,248.78 348.476,247.947 351.5,247.5C 352.146,249.181 352.813,250.847 353.5,252.5C 352.669,257.466 352.336,262.466 352.5,267.5C 352.5,269.5 352.5,271.5 352.5,273.5C 351.292,272.766 349.959,272.433 348.5,272.5C 349.01,275.388 348.344,277.721 346.5,279.5C 346.179,277.952 345.179,277.285 343.5,277.5C 343.421,276.07 343.754,274.736 344.5,273.5C 344.192,272.692 343.692,272.025 343,271.5C 340.842,274.95 338.342,275.283 335.5,272.5C 333.544,274.351 332.544,276.684 332.5,279.5C 332.167,279.5 331.833,279.5 331.5,279.5C 330.327,277.659 330.327,275.826 331.5,274C 329.33,266.06 330.663,258.56 335.5,251.5C 333.146,249.754 332.146,247.421 332.5,244.5 Z"/></g>
<g><path style="opacity:1" fill="#0098d2" d="M 312.5,241.5 C 313.401,239.273 315.067,238.273 317.5,238.5C 317.769,240.429 317.269,242.095 316,243.5C 315.184,242.177 314.017,241.511 312.5,241.5 Z"/></g>
<g><path style="opacity:1" fill="#1b7bcc" d="M 327.5,231.5 C 329.977,231.051 331.977,231.717 333.5,233.5C 331.926,234.631 330.259,234.798 328.5,234C 327.748,233.329 327.414,232.496 327.5,231.5 Z"/></g>
<g><path style="opacity:1" fill="#199f10" d="M 301.5,281.5 C 303.74,280.432 305.574,278.766 307,276.5C 307.75,277.126 308.584,277.626 309.5,278C 305.556,280.217 305.723,281.717 310,282.5C 310.346,284.218 310.846,285.885 311.5,287.5C 309.587,288.051 307.587,288.218 305.5,288C 304.594,289.699 304.261,291.533 304.5,293.5C 311.121,294.626 316.787,292.959 321.5,288.5C 321.833,288.5 322.167,288.5 322.5,288.5C 323.641,290.451 323.641,292.451 322.5,294.5C 321.202,293.884 320.202,293.884 319.5,294.5C 317.515,294.859 316.849,295.692 317.5,297C 315.833,297.333 314.167,297.667 312.5,298C 307.723,303.455 308.556,307.622 315,310.5C 316.383,320.437 312.216,325.271 302.5,325C 301.646,326.022 300.646,326.855 299.5,327.5C 295.961,326.494 292.961,324.66 290.5,322C 287.905,321.774 285.405,321.274 283,320.5C 282.667,320.833 282.333,321.167 282,321.5C 278.328,315.78 275.328,309.78 273,303.5C 271.602,298.84 270.602,294.174 270,289.5C 273.198,284.313 276.365,279.146 279.5,274C 280.833,273.333 282.167,273.333 283.5,274C 284.725,275.563 286.225,276.73 288,277.5C 289.445,276.258 290.945,275.425 292.5,275C 293.293,278.411 293.793,281.911 294,285.5C 294.368,286.91 295.201,287.91 296.5,288.5C 298.854,287.94 301.187,287.273 303.5,286.5C 304.307,284.422 303.641,282.755 301.5,281.5 Z"/></g>
<g><path style="opacity:1" fill="#56a000" d="M 280.5,283.5 C 286.677,283.487 290.844,286.487 293,292.5C 300.275,289.015 301.441,290.682 296.5,297.5C 296.709,298.086 297.043,298.586 297.5,299C 301.234,299.14 304.901,298.64 308.5,297.5C 307.26,301.149 305.593,304.649 303.5,308C 305.335,311.825 304.335,314.659 300.5,316.5C 297.894,317.652 295.227,317.818 292.5,317C 287.289,313.087 283.123,308.254 280,302.5C 279.96,299.876 280.127,297.209 280.5,294.5C 280.679,291.869 280.013,289.535 278.5,287.5C 279.18,286.14 279.847,284.807 280.5,283.5 Z"/></g>
<g><path style="opacity:1" fill="#1563a8" d="M 317.5,281.5 C 318.791,281.263 319.791,281.596 320.5,282.5C 321.335,283.943 322.668,284.943 324.5,285.5C 324.058,286.739 323.391,287.739 322.5,288.5C 322.167,288.5 321.833,288.5 321.5,288.5C 321.5,287.5 321.5,286.5 321.5,285.5C 319.801,285.473 318.467,284.806 317.5,283.5C 317.5,282.833 317.5,282.167 317.5,281.5 Z"/></g>
<g><path style="opacity:1" fill="#15895c" d="M 352.5,273.5 C 352.244,275.792 352.577,277.959 353.5,280C 350.938,279.762 348.604,280.762 346.5,283C 344.191,284.866 342.858,287.033 342.5,289.5C 339.482,292.842 336.148,295.842 332.5,298.5C 332.047,297.542 331.381,296.708 330.5,296C 332.316,294.685 333.983,293.185 335.5,291.5C 334.166,291.471 332.833,290.637 331.5,289C 332.328,288.085 333.328,287.419 334.5,287C 330.965,286.93 327.965,288.263 325.5,291C 326.381,291.708 327.047,292.542 327.5,293.5C 326.207,293.875 324.874,294.208 323.5,294.5C 323.167,294.5 322.833,294.5 322.5,294.5C 323.641,292.451 323.641,290.451 322.5,288.5C 323.391,287.739 324.058,286.739 324.5,285.5C 322.668,284.943 321.335,283.943 320.5,282.5C 324.214,282.41 327.548,281.41 330.5,279.5C 330.833,279.5 331.167,279.5 331.5,279.5C 331.833,279.5 332.167,279.5 332.5,279.5C 334.55,279.039 336.55,278.372 338.5,277.5C 340.507,278.171 342.34,279.171 344,280.5C 344.902,280.257 345.735,279.923 346.5,279.5C 348.344,277.721 349.01,275.388 348.5,272.5C 349.959,272.433 351.292,272.766 352.5,273.5 Z"/></g>
<g><path style="opacity:1" fill="#1da474" d="M 310.5,272.5 C 309.571,273.315 308.571,274.148 307.5,275C 308.907,276.452 310.407,276.285 312,274.5C 313.011,275.337 314.178,275.67 315.5,275.5C 315.5,276.167 315.5,276.833 315.5,277.5C 314.213,278.768 313.213,278.435 312.5,276.5C 311.386,277.723 311.219,279.056 312,280.5C 313.748,282.135 314.915,284.135 315.5,286.5C 316.425,285.643 317.092,284.643 317.5,283.5C 318.467,284.806 319.801,285.473 321.5,285.5C 321.5,286.5 321.5,287.5 321.5,288.5C 316.787,292.959 311.121,294.626 304.5,293.5C 304.261,291.533 304.594,289.699 305.5,288C 307.587,288.218 309.587,288.051 311.5,287.5C 310.846,285.885 310.346,284.218 310,282.5C 305.723,281.717 305.556,280.217 309.5,278C 308.584,277.626 307.75,277.126 307,276.5C 305.574,278.766 303.74,280.432 301.5,281.5C 303.522,279.581 303.856,277.414 302.5,275C 303.416,274.722 304.082,274.222 304.5,273.5C 306.435,272.85 308.435,272.517 310.5,272.5 Z"/></g>
<g><path style="opacity:1" fill="#0c787a" d="M 332.5,298.5 C 330.037,299.233 327.703,300.233 325.5,301.5C 324.833,301.167 324.167,300.833 323.5,300.5C 324.898,298.102 326.898,296.435 329.5,295.5C 329.145,294.478 328.478,293.811 327.5,293.5C 327.047,292.542 326.381,291.708 325.5,291C 327.965,288.263 330.965,286.93 334.5,287C 333.328,287.419 332.328,288.085 331.5,289C 332.833,290.637 334.166,291.471 335.5,291.5C 333.983,293.185 332.316,294.685 330.5,296C 331.381,296.708 332.047,297.542 332.5,298.5 Z"/></g>
<g><path style="opacity:1" fill="#3f8d0b" d="M 352.5,267.5 C 354.164,268.949 354.998,270.949 355,273.5C 355.383,272.944 355.883,272.611 356.5,272.5C 356.033,277.579 354.033,281.912 350.5,285.5C 351.247,285.736 352.08,286.07 353,286.5C 353.419,285.328 354.085,284.328 355,283.5C 355.359,286.544 356.026,286.878 357,284.5C 356.32,295.2 352.32,304.533 345,312.5C 344.097,311.299 342.931,310.465 341.5,310C 342.293,308.915 342.96,307.748 343.5,306.5C 339.724,307.832 337.224,310.832 336,315.5C 334.192,317.396 332.025,317.896 329.5,317C 328.136,314.425 328.802,312.425 331.5,311C 331.333,310.5 331.167,310 331,309.5C 330.292,310.381 329.458,311.047 328.5,311.5C 330.02,305.81 333.52,301.81 339,299.5C 339,298.167 339,296.833 339,295.5C 340.016,294.366 340.683,294.699 341,296.5C 341.827,295.338 342.66,294.171 343.5,293C 342.734,291.632 342.4,290.465 342.5,289.5C 342.858,287.033 344.191,284.866 346.5,283C 348.604,280.762 350.938,279.762 353.5,280C 352.577,277.959 352.244,275.792 352.5,273.5C 352.5,271.5 352.5,269.5 352.5,267.5 Z"/></g>
<g><path style="opacity:1" fill="#00a01c" d="M 252.5,291.5 C 256.49,290.616 259.323,291.949 261,295.5C 263.925,301.275 266.258,307.275 268,313.5C 268.333,313.167 268.667,312.833 269,312.5C 272.158,325.837 279.991,335.503 292.5,341.5C 293.5,342.833 294.5,344.167 295.5,345.5C 299.276,346.109 301.609,348.275 302.5,352C 302.219,356.437 302.219,360.771 302.5,365C 302.561,366.711 301.894,368.044 300.5,369C 293.197,373.579 285.863,373.579 278.5,369C 257.041,353.947 243.707,333.447 238.5,307.5C 238.886,303.404 239.719,299.404 241,295.5C 244.61,293.307 248.444,291.974 252.5,291.5 Z"/></g>
<g><path style="opacity:1" fill="#9a7000" d="M 352.5,291.5 C 353.665,296.225 352.165,300.225 348,303.5C 347.333,302.167 347.333,300.833 348,299.5C 349.765,296.968 351.265,294.301 352.5,291.5 Z"/></g>
<g><path style="opacity:1" fill="#0d4698" d="M 322.5,294.5 C 322.833,294.5 323.167,294.5 323.5,294.5C 321.023,298.522 319.689,298.522 319.5,294.5C 320.202,293.884 321.202,293.884 322.5,294.5 Z"/></g>
<g><path style="opacity:1" fill="#1ca000" d="M 252.5,300.5 C 253.675,300.281 254.675,300.614 255.5,301.5C 256.192,304.123 257.692,306.123 260,307.5C 263.576,320.653 270.243,331.986 280,341.5C 282.057,349.706 287.224,352.706 295.5,350.5C 295.343,354.402 295.343,358.402 295.5,362.5C 294.271,364.918 292.271,365.918 289.5,365.5C 280.618,363.64 273.118,359.306 267,352.5C 257.612,341.432 250.279,329.099 245,315.5C 242.985,311.5 243.151,307.666 245.5,304C 248.174,303.33 250.507,302.163 252.5,300.5 Z"/></g>
<g><path style="opacity:1" fill="#8d9c00" d="M 283.5,290.5 C 284.404,291.209 284.737,292.209 284.5,293.5C 285.93,293.421 287.264,293.754 288.5,294.5C 288.976,298.717 289.976,302.717 291.5,306.5C 294.25,306.559 297.084,307.225 300,308.5C 301.485,313.021 299.819,315.355 295,315.5C 289.002,311.694 284.502,306.527 281.5,300C 282.304,296.883 282.97,293.716 283.5,290.5 Z"/></g>
<g><path style="opacity:1" fill="#00709c" d="M 317.5,313.5 C 319.46,311.516 321.793,310.683 324.5,311C 321.996,313.782 321.996,316.615 324.5,319.5C 322.764,326.194 323.764,332.361 327.5,338C 325.293,342.308 323.459,346.808 322,351.5C 318.433,355.842 314.766,356.176 311,352.5C 310.867,349.475 309.867,346.808 308,344.5C 308.342,340.804 308.176,337.137 307.5,333.5C 307.722,331.945 308.389,330.611 309.5,329.5C 315.886,326.062 318.553,320.728 317.5,313.5 Z"/></g>
<g><path style="opacity:1" fill="#02349c" d="M 319.5,318.5 C 320.117,318.611 320.617,318.944 321,319.5C 321.76,323.225 321.593,326.892 320.5,330.5C 322.81,334.994 322.977,339.661 321,344.5C 319.155,348.795 316.488,349.462 313,346.5C 310.541,342.093 310.207,337.426 312,332.5C 315.288,328.256 317.788,323.59 319.5,318.5 Z"/></g>
</svg>
